<?xml version="1.0" encoding="UTF-8" standalone="no"?>
<svg xmlns="http://www.w3.org/2000/svg" viewBox="0 0 896 888" width="896" height="888" preserveAspectRatio="xMidYMid meet" shape-rendering="geometricPrecision">
<g transform="translate(0.000000,888.000000) scale(0.100000,-0.100000)" fill="#141414" fill-rule="evenodd" stroke="none"><path d="M2510 5892 c-233 -24 -428 -187 -507 -422 -18 -55 -18 -3836 1 -3905
48 -181 193 -317 430 -401 62 -22 4186 -21 4271 1 197 51 375 232 415 422 24
111 8 3381 -17 3441 -47 115 -167 227 -304 283 -36 15 -81 35 -100 45 -32 18
-83 19 -971 24 l-937 5 -213 212 c-321 319 -212 293 -1239 296 -442 1 -815 1
-829 -1z m1550 -638 c15 -3 113 -92 235 -213 223 -221 279 -267 341 -282 22
-5 433 -9 948 -8 817 0 911 -2 925 -16 23 -22 25 -2911 2 -2938 -25 -32 -3885
-25 -3906 6 -27 42 -17 3423 11 3445 20 17 1374 23 1444 6z M4345 4211 c-72
-30 -76 -56 -77 -488 -1 -284 -4 -386 -13 -393 -7 -6 -119 -12 -260 -15 -294
-6 -318 -12 -323 -80 -4 -40 -4 -40 413 -452 431 -427 438 -433 505 -418 36 8
847 804 856 841 23 93 -18 107 -322 108 -170 1 -245 4 -255 13 -12 10 -15 77
-17 395 -4 527 13 498 -292 497 -107 0 -204 -4 -215 -8z"/></g>
</svg>