<?xml version="1.0" encoding="UTF-8" standalone="no"?>
<svg xmlns="http://www.w3.org/2000/svg" viewBox="0 0 1116 1116" width="1116" height="1116" preserveAspectRatio="xMidYMid meet" shape-rendering="geometricPrecision">
<g transform="translate(0.000000,1116.000000) scale(0.100000,-0.100000)" fill="#716d86" fill-rule="evenodd" stroke="none"><path d="M5655 9123 c-16 -1 -138 -4 -270 -5 -206 -3 -245 -6 -273 -21 -37
-20 -95 -32 -202 -42 -41 -4 -97 -16 -125 -27 -27 -10 -87 -23 -131 -28 -45
-5 -99 -17 -120 -28 -22 -11 -55 -23 -74 -27 -19 -4 -51 -17 -71 -30 -20 -13
-54 -27 -75 -30 -36 -6 -117 -41 -235 -101 -26 -13 -53 -24 -61 -24 -9 0 -32
-12 -51 -27 -20 -16 -65 -46 -99 -68 -35 -21 -76 -49 -91 -62 -15 -12 -43 -25
-61 -28 -19 -4 -56 -26 -84 -51 -28 -25 -67 -51 -87 -60 -88 -36 -406 -316
-557 -489 -174 -199 -277 -324 -295 -359 -9 -16 -37 -57 -63 -91 -26 -34 -50
-71 -54 -82 -4 -12 -29 -59 -56 -105 -28 -45 -50 -87 -50 -92 0 -5 -10 -23
-23 -40 -40 -55 -140 -273 -162 -356 -4 -14 -20 -47 -35 -75 -15 -27 -30 -70
-34 -95 -4 -25 -15 -67 -26 -95 -10 -27 -27 -81 -38 -120 -11 -38 -27 -88 -36
-110 -8 -22 -15 -63 -16 -91 0 -29 -7 -89 -16 -135 -55 -284 -57 -962 -3
-1200 10 -48 19 -112 19 -142 0 -33 8 -78 21 -109 11 -28 28 -86 39 -129 10
-42 23 -85 29 -96 5 -11 17 -53 25 -93 9 -40 24 -83 35 -94 10 -12 28 -48 39
-81 43 -128 70 -195 91 -223 11 -17 21 -39 21 -50 0 -10 13 -37 29 -59 16 -22
39 -60 51 -84 12 -24 37 -65 56 -91 18 -26 40 -62 47 -80 8 -18 34 -60 59 -93
25 -33 58 -82 73 -108 15 -27 46 -68 69 -92 55 -57 121 -136 181 -215 65 -85
161 -178 317 -307 71 -58 128 -109 128 -114 0 -10 114 -89 129 -89 5 0 39 -23
76 -50 36 -28 84 -60 108 -71 23 -11 67 -37 97 -59 30 -21 93 -58 140 -80 47
-23 99 -48 115 -57 17 -8 68 -35 115 -59 46 -25 102 -47 125 -51 22 -3 56 -17
75 -30 19 -12 48 -23 65 -23 16 0 53 -11 81 -24 28 -13 75 -27 105 -31 30 -4
72 -16 94 -27 22 -11 84 -26 138 -34 54 -8 129 -24 165 -36 80 -27 1049 -42
1142 -17 25 6 74 20 109 30 35 11 85 19 113 19 28 0 68 9 94 21 25 11 75 27
112 35 37 9 87 25 112 36 51 24 48 23 112 36 26 5 53 14 60 20 7 6 42 20 77
32 36 12 85 32 110 46 25 13 51 24 57 24 7 0 32 11 55 25 24 14 54 25 65 25
12 0 27 7 35 16 7 9 38 29 68 45 84 44 121 66 139 82 9 9 38 25 63 35 26 11
50 26 54 32 4 7 57 45 119 85 61 40 120 83 131 95 20 23 184 163 275 235 55
44 153 149 203 219 18 24 70 89 116 143 46 54 94 118 106 143 13 25 46 73 74
108 28 34 51 66 51 71 0 4 12 26 26 47 23 34 108 178 142 239 44 81 130 277
136 309 4 21 21 62 37 91 16 28 29 65 29 81 0 16 11 52 24 81 14 29 27 69 30
89 10 60 18 86 43 139 15 34 23 69 23 107 0 32 9 99 19 150 49 237 50 1064 1
1193 -6 15 -14 74 -19 129 -5 71 -14 113 -29 142 -12 23 -26 72 -32 110 -6 38
-20 82 -30 99 -11 17 -22 51 -26 75 -4 25 -24 79 -45 120 -20 41 -40 90 -44
109 -4 19 -27 78 -51 131 -24 54 -44 104 -44 112 0 8 -9 23 -21 34 -12 10 -36
48 -54 84 -19 36 -50 90 -69 120 -20 30 -36 59 -36 65 0 6 -18 33 -41 60 -22
27 -58 78 -80 114 -22 36 -73 104 -114 151 -42 47 -87 103 -102 125 -71 108
-533 525 -631 570 -18 8 -57 34 -85 58 -29 25 -68 50 -88 56 -20 6 -45 21 -55
32 -11 12 -36 31 -58 43 -21 11 -59 33 -85 48 -49 29 -79 44 -181 90 -36 16
-85 40 -110 53 -25 12 -63 26 -85 30 -22 4 -64 20 -95 35 -92 48 -179 80 -218
80 -37 0 -171 29 -227 48 -16 6 -79 18 -138 27 -60 9 -127 24 -150 33 -39 14
-398 33 -502 25z m390 -73 c324 -32 684 -127 960 -255 39 -18 109 -44 157 -59
47 -15 97 -35 110 -45 12 -10 55 -34 94 -54 39 -20 84 -47 100 -60 16 -13 45
-32 64 -42 19 -10 61 -38 93 -62 32 -24 68 -48 80 -53 44 -18 357 -280 357
-299 0 -4 34 -33 75 -66 66 -51 174 -169 297 -323 21 -26 66 -92 100 -146 35
-55 77 -115 94 -135 44 -51 84 -124 84 -152 0 -25 33 -80 82 -137 40 -46 82
-135 107 -222 12 -41 29 -100 37 -130 9 -30 28 -75 43 -100 29 -47 80 -198
107 -316 9 -38 20 -78 24 -89 18 -44 32 -124 51 -285 23 -196 15 -985 -11
-1090 -5 -19 -12 -60 -15 -90 -4 -30 -14 -73 -22 -95 -8 -22 -16 -56 -19 -75
-3 -19 -14 -57 -24 -85 -11 -27 -28 -86 -40 -130 -11 -44 -38 -125 -59 -180
-22 -55 -51 -129 -65 -165 -33 -87 -100 -213 -141 -268 -19 -24 -43 -67 -54
-96 -24 -63 -60 -124 -125 -205 -52 -65 -56 -71 -98 -149 -15 -28 -60 -87
-100 -130 -82 -90 -181 -208 -186 -222 -5 -13 -188 -170 -243 -207 -25 -17
-72 -60 -105 -95 -32 -34 -84 -78 -114 -97 -30 -19 -87 -56 -127 -83 -39 -26
-75 -48 -80 -48 -5 0 -27 -15 -49 -33 -42 -36 -147 -97 -165 -97 -6 0 -24 -11
-40 -24 -16 -14 -75 -39 -131 -57 -57 -17 -127 -45 -156 -61 -67 -37 -141 -63
-217 -78 -33 -7 -68 -17 -78 -22 -10 -5 -27 -11 -38 -13 -11 -2 -66 -22 -123
-45 -57 -23 -130 -45 -162 -50 -33 -5 -84 -16 -114 -25 -79 -23 -1072 -44
-1130 -24 -76 26 -124 38 -173 43 -62 7 -315 77 -360 101 -16 8 -58 20 -94 25
-36 6 -85 20 -109 30 -24 11 -51 20 -60 20 -18 0 -129 59 -179 95 -16 12 -52
30 -80 40 -27 10 -59 24 -70 31 -11 6 -31 15 -45 19 -14 4 -44 21 -67 36 -23
16 -46 29 -51 29 -5 0 -15 7 -22 15 -10 12 -110 74 -135 84 -5 2 -23 16 -40
31 -16 16 -64 41 -105 57 -68 26 -78 33 -112 85 -34 52 -106 120 -135 129 -34
11 -287 258 -310 303 -9 17 -55 72 -102 122 -61 64 -109 128 -166 223 -44 73
-90 149 -103 169 -12 21 -29 52 -38 70 -17 37 -91 149 -104 157 -5 3 -14 22
-21 43 -6 20 -21 50 -31 65 -11 16 -28 54 -39 85 -41 129 -61 179 -86 216 -14
22 -38 85 -53 140 -15 56 -33 114 -39 129 -20 50 -41 158 -57 292 -8 72 -20
164 -26 205 -23 160 -14 843 12 990 6 30 19 119 31 198 11 81 32 178 48 225
16 45 34 107 41 137 7 30 25 78 40 106 16 28 35 73 43 100 29 95 76 216 90
233 8 9 16 23 19 32 3 8 33 54 66 101 33 47 63 96 67 109 4 13 13 34 21 46 8
12 23 47 34 77 12 30 37 74 58 98 20 24 43 54 51 68 20 35 65 91 146 180 39
42 101 116 139 164 38 47 73 86 77 86 4 0 38 28 76 63 38 34 96 83 129 108 34
26 81 75 105 109 43 61 71 82 179 129 14 6 48 29 75 51 28 22 66 45 85 51 19
6 49 22 67 35 17 13 36 24 40 24 5 0 24 13 43 30 19 16 38 29 41 30 4 0 30 16
59 35 29 19 58 35 66 35 8 0 69 27 136 59 68 33 136 63 153 67 16 4 43 15 60
25 16 9 55 20 86 23 30 4 80 16 110 27 56 22 212 64 264 72 149 23 194 31 220
39 108 36 657 46 950 18z M6249 6887 c-63 -18 -136 -80 -165 -142 -28 -58 -57
-103 -100 -153 -43 -51 -44 -56 -60 -252 -34 -398 -32 -422 57 -675 15 -44 35
-109 44 -145 12 -48 25 -74 52 -102 37 -38 31 -88 -11 -88 -48 0 -140 -75
-157 -129 -6 -20 -20 -45 -30 -56 -83 -91 -109 -320 -47 -408 124 -177 256
-214 451 -125 206 94 312 542 138 585 -14 3 -42 15 -61 26 -71 41 -105 57
-122 57 -26 0 -51 41 -35 57 22 22 100 19 141 -7 77 -47 179 1 248 117 61 103
77 138 77 169 1 30 39 161 79 274 43 117 57 453 26 606 -31 159 -150 338 -252
381 -49 21 -213 27 -273 10z m240 -53 c40 -8 159 -117 167 -152 4 -15 18 -47
32 -71 58 -102 59 -622 1 -719 -10 -19 -23 -62 -28 -97 -5 -34 -16 -75 -24
-91 -8 -16 -20 -53 -26 -83 -6 -30 -25 -72 -41 -94 -17 -23 -30 -48 -30 -58 0
-26 -39 -68 -78 -85 -40 -16 -64 -15 -127 10 -22 8 -61 15 -86 16 -30 0 -55 7
-70 19 -14 10 -41 26 -61 34 -38 16 -41 22 -52 103 -3 23 -16 65 -29 95 -13
30 -32 99 -41 154 -10 55 -25 124 -33 153 -36 130 5 495 65 568 18 21 32 49
32 61 0 12 13 37 29 56 16 18 33 46 37 61 4 17 30 46 68 76 63 51 177 67 295
44z m-222 -1638 c27 -13 74 -32 106 -41 63 -18 97 -51 97 -94 0 -34 -26 -129
-39 -144 -5 -7 -12 -32 -15 -56 -14 -113 -159 -238 -279 -240 -32 0 -62 -3
-67 -6 -70 -43 -221 141 -220 269 1 57 37 196 57 219 10 12 25 36 32 52 34 80
30 79 161 72 99 -5 127 -10 167 -31z M4825 6390 c-215 -38 -323 -164 -350
-410 -7 -63 -19 -152 -26 -197 -10 -66 -11 -92 0 -131 6 -27 14 -84 17 -128 6
-109 42 -290 65 -331 10 -18 19 -42 19 -52 0 -42 98 -211 152 -261 44 -41 125
-86 173 -94 49 -8 37 -37 -40 -91 -101 -70 -105 -75 -115 -137 -7 -44 -5 -71
6 -110 8 -29 20 -73 26 -98 6 -25 16 -54 23 -65 7 -11 16 -33 19 -49 45 -194
526 -251 571 -68 3 15 17 47 29 72 60 115 33 357 -47 423 -7 7 -28 31 -46 54
-20 26 -45 46 -69 54 -20 6 -46 18 -57 25 -11 8 -38 14 -60 14 -37 0 -65 13
-65 30 0 3 29 30 64 59 81 68 156 236 156 353 0 15 12 58 26 95 19 50 26 86
26 138 -1 39 5 97 13 130 7 33 12 74 10 90 -7 76 -28 143 -54 180 -16 23 -34
66 -41 100 -19 94 -47 154 -104 225 -28 36 -59 77 -69 92 -20 32 -149 99 -187
97 -14 -1 -43 -5 -65 -9z m115 -60 c14 -11 31 -20 38 -20 60 -1 217 -240 237
-362 4 -23 21 -71 37 -106 45 -93 40 -358 -8 -474 -14 -34 -24 -77 -24 -106 0
-148 -90 -306 -190 -336 -25 -7 -63 -26 -85 -41 -91 -61 -249 -4 -271 99 -3
17 -15 43 -25 58 -11 15 -24 53 -31 85 -6 32 -22 76 -34 99 -13 22 -27 63 -30
90 -3 27 -16 78 -27 114 -30 89 -32 535 -3 610 10 25 25 69 34 99 18 60 92
151 123 151 11 0 45 14 76 30 68 37 144 41 183 10z m311 -1611 c10 -5 19 -13
19 -18 0 -4 14 -29 32 -56 88 -133 83 -409 -8 -485 -66 -55 -248 -61 -340 -12
-50 27 -154 192 -154 246 0 22 -9 61 -20 85 -37 80 -28 113 42 150 18 10 47
25 63 34 17 9 50 17 75 17 25 0 56 7 68 16 57 39 76 45 141 39 34 -3 72 -10
82 -16z"/></g>
<g transform="translate(0.000000,1116.000000) scale(0.100000,-0.100000)" fill="#b6acf3" fill-rule="evenodd" stroke="none"><path d="M5225 9056 c-55 -8 -113 -18 -130 -24 -26 -8 -71 -16 -220 -39 -52
-8 -208 -50 -264 -72 -30 -11 -80 -23 -110 -27 -31 -3 -70 -14 -86 -23 -17
-10 -44 -21 -60 -25 -17 -4 -85 -34 -153 -67 -67 -32 -128 -59 -136 -59 -8 0
-37 -16 -66 -35 -29 -19 -55 -35 -59 -35 -3 -1 -22 -14 -41 -30 -19 -17 -38
-30 -43 -30 -4 0 -23 -11 -40 -24 -18 -13 -48 -29 -67 -35 -19 -6 -57 -29 -85
-51 -27 -22 -61 -45 -75 -51 -108 -47 -136 -68 -179 -129 -24 -34 -71 -83
-105 -109 -33 -25 -91 -74 -129 -108 -38 -35 -72 -63 -76 -63 -4 0 -39 -39
-77 -86 -38 -48 -100 -122 -139 -164 -81 -89 -126 -145 -146 -180 -8 -14 -31
-44 -51 -68 -21 -24 -46 -68 -58 -98 -11 -30 -26 -65 -34 -77 -8 -12 -17 -33
-21 -46 -4 -13 -34 -62 -67 -109 -33 -47 -63 -93 -66 -101 -3 -9 -11 -23 -19
-32 -14 -17 -61 -138 -90 -233 -8 -27 -27 -72 -43 -100 -15 -28 -33 -76 -40
-106 -7 -30 -25 -92 -41 -137 -16 -47 -37 -144 -48 -225 -12 -79 -25 -168 -31
-198 -26 -147 -35 -830 -12 -990 6 -41 18 -133 26 -205 16 -134 37 -242 57
-292 6 -15 24 -73 39 -129 15 -55 39 -118 53 -140 25 -37 45 -87 86 -216 11
-31 28 -69 38 -85 11 -15 25 -43 31 -61 11 -32 27 -55 83 -125 15 -18 30 -43
34 -57 4 -14 17 -41 29 -60 11 -19 26 -42 31 -52 132 -224 178 -290 256 -372
47 -50 93 -105 102 -122 9 -17 41 -55 70 -85 102 -101 226 -214 239 -218 30
-9 101 -77 136 -129 34 -52 44 -59 112 -85 41 -16 89 -41 105 -57 17 -15 35
-29 40 -31 25 -10 125 -72 135 -84 7 -8 17 -15 22 -15 5 0 28 -13 51 -29 23
-15 53 -32 67 -36 14 -4 34 -13 45 -19 11 -7 43 -21 70 -31 28 -10 64 -28 80
-40 50 -36 161 -95 179 -95 9 0 36 -9 60 -20 24 -10 73 -24 109 -30 36 -5 78
-17 94 -25 45 -24 298 -94 360 -101 49 -5 97 -17 173 -43 58 -20 1051 1 1130
24 30 9 81 20 114 25 32 5 105 27 162 50 57 23 112 43 123 45 11 2 28 8 38 13
10 5 45 15 78 22 76 15 150 41 217 78 29 16 99 44 156 61 56 18 115 43 131 57
16 13 34 24 40 24 18 0 123 61 165 97 22 18 44 33 49 33 5 0 41 22 80 48 40
27 97 64 127 83 30 19 82 63 114 97 33 35 80 78 105 95 55 37 238 194 243 207
5 14 104 132 186 222 40 43 85 102 100 130 42 78 46 84 98 149 65 81 101 142
125 205 11 29 35 72 54 96 41 55 108 181 141 268 14 36 43 110 65 165 21 55
48 136 59 180 12 44 29 103 40 130 10 28 21 66 24 85 3 19 11 53 19 75 8 22
18 65 22 95 3 30 10 71 15 90 26 105 34 894 11 1090 -19 161 -33 241 -51 285
-4 11 -15 51 -24 89 -27 118 -78 269 -107 316 -15 25 -34 70 -43 100 -8 30
-25 89 -37 130 -25 89 -61 164 -98 205 -43 47 -91 129 -91 155 0 26 -41 102
-75 140 -13 14 -66 89 -119 168 -53 79 -133 185 -178 235 -46 51 -94 106 -108
123 -14 17 -58 57 -97 89 -40 32 -73 61 -73 66 0 14 -310 277 -347 294 -20 10
-61 36 -92 60 -31 23 -72 50 -91 60 -19 10 -48 29 -64 42 -16 13 -61 40 -100
60 -39 20 -82 44 -94 54 -13 10 -63 30 -110 45 -48 15 -118 41 -157 59 -210
97 -582 208 -800 237 -240 32 -812 46 -980 24z m1297 -2179 c102 -43 221 -222
252 -381 31 -153 17 -489 -26 -606 -40 -113 -78 -244 -79 -274 -1 -48 -77
-185 -142 -253 -53 -56 -125 -68 -183 -33 -41 26 -119 29 -141 7 -16 -16 9
-57 35 -57 17 0 51 -16 122 -57 19 -11 47 -23 61 -26 128 -32 118 -253 -20
-481 -68 -112 -235 -173 -379 -140 -87 20 -204 149 -222 244 -18 95 23 263 79
325 10 11 24 36 30 56 17 54 109 129 157 129 42 0 48 50 11 88 -27 28 -40 54
-52 102 -9 36 -29 101 -44 145 -89 253 -91 277 -57 675 16 196 17 201 60 252
43 50 72 95 100 153 63 132 282 198 438 132z m-1535 -512 c43 -21 80 -46 90
-63 10 -15 41 -56 69 -92 57 -71 85 -131 104 -225 7 -34 25 -77 41 -100 26
-37 47 -104 54 -180 2 -16 -3 -57 -10 -90 -8 -33 -14 -91 -13 -130 0 -52 -7
-88 -26 -138 -14 -37 -26 -80 -26 -95 0 -117 -75 -285 -156 -353 -75 -62 -75
-89 -1 -89 23 0 51 -6 62 -14 11 -7 37 -19 57 -25 24 -8 49 -28 69 -54 18 -23
39 -47 46 -54 80 -66 107 -308 47 -423 -12 -25 -26 -57 -29 -72 -45 -183 -526
-126 -571 68 -3 16 -12 38 -19 49 -7 11 -17 40 -23 65 -6 25 -18 69 -26 98
-11 39 -13 66 -6 110 10 62 14 67 115 137 77 54 89 83 40 91 -48 8 -129 53
-173 94 -54 50 -152 219 -152 261 0 10 -9 34 -19 52 -23 41 -59 222 -65 331
-3 44 -11 101 -17 128 -11 39 -10 65 0 131 7 45 19 134 26 197 27 246 135 372
350 410 72 13 89 10 162 -25z"/></g>
</svg>