<?xml version="1.0" encoding="UTF-8" standalone="no"?>
<svg xmlns="http://www.w3.org/2000/svg" viewBox="0 0 486 487" width="486" height="487" preserveAspectRatio="xMidYMid meet" shape-rendering="geometricPrecision">
<g transform="translate(0.000000,487.000000) scale(0.100000,-0.100000)" fill="#5bab8d" fill-rule="evenodd" stroke="none"><path d="M2340 3308 c-82 -56 -82 -59 -76 -558 6 -552 14 -595 122 -630 148
-49 263 123 225 338 -7 41 -10 134 -8 237 6 281 -6 471 -33 528 -48 101 -150
139 -230 85z M2385 1715 c-69 -30 -115 -123 -90 -181 59 -140 298 -67 270 83
-6 36 -47 89 -73 97 -47 13 -80 13 -107 1z"/></g>
<g transform="translate(0.000000,487.000000) scale(0.100000,-0.100000)" fill="#131313" fill-rule="evenodd" stroke="none"><path d="M2245 4639 c-33 -5 -105 -13 -159 -19 -55 -5 -136 -21 -180 -34 -105
-32 -274 -83 -306 -92 -14 -3 -99 -47 -190 -97 -675 -371 -1080 -948 -1176
-1675 -27 -211 -1 -628 52 -795 13 -43 24 -87 24 -98 0 -11 11 -49 25 -83 14
-35 32 -85 40 -112 26 -90 139 -296 261 -478 176 -263 488 -531 794 -681 41
-20 88 -44 104 -52 16 -9 64 -28 105 -43 42 -15 90 -32 106 -38 110 -40 232
-71 296 -77 41 -4 112 -14 159 -22 100 -18 323 -20 425 -4 39 6 111 16 160 22
86 10 233 48 340 90 28 10 77 28 109 39 580 198 1155 828 1306 1430 10 41 26
95 34 118 14 38 42 239 61 427 3 33 1 101 -4 150 -6 50 -17 155 -25 235 -9 80
-25 174 -36 210 -11 36 -26 90 -34 120 -120 465 -501 963 -938 1229 -159 96
-312 179 -345 187 -15 3 -68 19 -118 34 -49 16 -128 40 -175 54 -47 15 -130
31 -185 36 -55 6 -134 15 -175 20 -90 11 -272 11 -355 -1z m370 -399 c702 -80
1240 -483 1499 -1123 20 -48 36 -95 36 -105 0 -9 12 -48 25 -87 31 -87 75
-397 75 -530 0 -820 -647 -1589 -1470 -1748 -333 -64 -836 -10 -1091 118 -813
407 -1192 1135 -1054 2024 9 56 25 124 36 149 11 25 24 66 30 91 5 25 18 64
28 86 120 260 140 293 260 443 177 220 406 407 611 499 110 50 241 102 273
108 18 4 66 17 107 30 42 13 141 31 225 40 83 9 157 18 165 20 34 7 73 4 245
-15z"/></g>
</svg>