<?xml version="1.0" encoding="UTF-8" standalone="no"?>
<svg xmlns="http://www.w3.org/2000/svg" viewBox="0 0 868 868" width="868" height="868" preserveAspectRatio="xMidYMid meet" shape-rendering="geometricPrecision">
<g transform="translate(0.000000,868.000000) scale(0.100000,-0.100000)" fill="#131313" fill-rule="evenodd" stroke="none"><path d="M2328 6520 c-114 -15 -237 -109 -331 -254 -81 -125 -72 126 -72
-1996 0 -2122 -9 -1871 72 -1996 101 -156 215 -239 351 -255 46 -6 910 -9
2122 -7 2045 3 2045 3 2100 29 74 36 180 117 205 157 11 19 39 62 62 98 24 35
47 83 53 107 14 62 13 2860 -1 2912 -36 131 -147 259 -284 330 -97 50 -97 50
-759 55 -760 6 -704 -2 -732 98 -8 31 -31 80 -49 107 -18 28 -38 67 -44 87 -7
20 -24 54 -40 75 -15 21 -37 64 -50 95 -13 32 -29 62 -37 69 -8 6 -30 38 -49
70 -70 114 -197 201 -321 219 -80 11 -2106 12 -2196 0z m1284 -607 c20 -24 94
-162 103 -193 4 -14 21 -47 37 -75 17 -27 37 -67 45 -90 7 -22 28 -57 45 -79
17 -21 37 -58 44 -83 8 -25 24 -61 36 -81 13 -19 34 -63 48 -96 52 -124 101
-131 905 -121 1269 15 1429 15 1443 -3 17 -23 18 -2452 0 -2470 -17 -17 -3799
-17 -3816 0 -17 17 -17 3279 0 3296 22 22 1091 17 1110 -5z"/></g>
</svg>