<?xml version="1.0" encoding="UTF-8" standalone="no"?>
<svg xmlns="http://www.w3.org/2000/svg" viewBox="0 0 952 952" width="952" height="952" preserveAspectRatio="xMidYMid meet" shape-rendering="geometricPrecision">
<g transform="translate(0.000000,952.000000) scale(0.100000,-0.100000)" fill="#252524" fill-rule="evenodd" stroke="none"><path d="M2666 7205 c-39 -19 -78 -35 -89 -35 -63 0 -213 -202 -228 -308 -5
-37 -15 -80 -22 -97 -15 -36 -21 -3753 -6 -3950 24 -326 95 -449 317 -551 120
-55 96 -55 2282 -52 2005 3 2005 3 2055 30 28 15 71 36 96 48 135 61 223 197
250 390 24 169 24 3957 1 4120 -24 160 -142 336 -247 370 -22 7 -60 24 -85 39
-45 26 -45 26 -2150 29 -2105 2 -2105 2 -2174 -33z m4065 -585 c28 -15 30
-3758 2 -3781 -35 -30 -3778 -24 -3808 5 -27 28 -32 3739 -4 3772 15 18 3776
22 3810 4z M5130 6447 c-14 -7 -40 -34 -57 -61 -33 -48 -33 -48 -33 -630 0
-693 1 -700 107 -773 55 -38 55 -38 662 -41 684 -3 648 -6 705 75 29 42 29 43
27 174 -3 229 7 223 -374 227 -161 2 -296 7 -301 12 -5 5 106 122 264 278 274
270 274 270 278 328 5 79 0 89 -100 197 -95 103 -125 117 -199 97 -31 -9 -426
-399 -559 -553 -18 -21 -36 -34 -41 -30 -4 4 -9 150 -11 323 -3 349 -3 348
-68 374 -51 20 -262 22 -300 3z M3170 4497 c-44 -22 -54 -60 -58 -208 -7 -248
-5 -249 387 -249 154 0 282 -4 285 -9 3 -5 -107 -123 -245 -262 -362 -365
-364 -370 -240 -503 196 -211 181 -217 644 264 98 102 181 184 184 182 4 -1 7
-134 7 -295 1 -374 2 -377 167 -398 153 -19 261 12 279 82 23 86 9 1283 -16
1316 -68 91 -39 88 -737 91 -499 2 -637 -1 -657 -11z"/></g>
</svg>