<?xml version="1.0" encoding="UTF-8" standalone="no"?>
<svg xmlns="http://www.w3.org/2000/svg" viewBox="0 0 459 451" width="459" height="451" preserveAspectRatio="xMidYMid meet" shape-rendering="geometricPrecision">
<g transform="translate(0.000000,451.000000) scale(0.100000,-0.100000)" fill="#86b5f9" fill-rule="evenodd" stroke="none"><path d="M1945 4295 c-38 -7 -94 -20 -124 -29 -30 -9 -64 -16 -75 -16 -12 0
-57 -11 -101 -24 -44 -14 -100 -32 -125 -40 -180 -56 -412 -163 -525 -243 -49
-34 -122 -85 -161 -112 -202 -141 -512 -560 -569 -771 -10 -36 -29 -83 -42
-106 -83 -145 50 -210 175 -85 16 17 78 67 138 112 60 45 132 101 159 124 28
23 86 63 130 90 44 27 87 54 95 61 114 90 352 184 659 259 323 78 921 28 1078
-91 228 -173 353 -400 353 -641 0 -177 -2 -178 -450 -178 -708 0 -1136 9
-1153 24 -30 24 -3 152 43 206 55 64 124 281 100 310 -96 116 -650 -352 -796
-671 -20 -44 -42 -90 -50 -104 -130 -222 -135 -852 -9 -1075 12 -22 41 -83 65
-135 135 -302 525 -652 860 -771 462 -164 591 -184 1160 -184 423 1 509 9 715
69 66 19 161 44 210 55 316 74 337 102 353 466 14 321 6 371 -69 427 -57 43
-70 41 -381 -58 -43 -13 -89 -24 -103 -24 -14 0 -52 -11 -84 -24 -237 -100
-1008 -101 -1222 -1 -30 13 -63 25 -74 25 -11 0 -49 11 -85 24 -36 13 -83 30
-105 37 -236 81 -481 320 -538 524 -43 158 -91 148 793 152 2262 9 2119 5
2160 63 42 59 51 208 25 415 -8 66 -15 147 -15 180 0 58 -26 170 -49 214 -7
12 -20 63 -30 114 -27 134 -60 256 -76 281 -8 12 -21 41 -30 65 -67 192 -273
459 -450 586 -22 16 -57 45 -78 64 -50 48 -337 211 -369 211 -7 0 -44 16 -83
34 -123 61 -329 127 -535 173 -148 33 -578 44 -715 18z"/></g>
</svg>