<?xml version="1.0" encoding="UTF-8" standalone="no"?>
<svg xmlns="http://www.w3.org/2000/svg" viewBox="0 0 1116 1116" width="1116" height="1116" preserveAspectRatio="xMidYMid meet" shape-rendering="geometricPrecision">
<g transform="translate(0.000000,1116.000000) scale(0.100000,-0.100000)" fill="#77838e" fill-rule="evenodd" stroke="none"><path d="M5245 9141 c-63 -4 -138 -16 -175 -28 -36 -11 -108 -24 -160 -28 -63
-5 -107 -14 -132 -27 -23 -12 -75 -24 -125 -30 -48 -5 -103 -18 -122 -28 -20
-10 -56 -23 -81 -30 -25 -6 -60 -21 -79 -33 -19 -11 -58 -24 -87 -28 -32 -4
-66 -17 -86 -32 -18 -14 -46 -29 -63 -33 -16 -4 -43 -17 -60 -30 -16 -12 -43
-26 -60 -30 -16 -3 -39 -15 -50 -25 -12 -10 -36 -24 -55 -32 -40 -14 -82 -38
-151 -84 -27 -18 -54 -33 -61 -33 -7 0 -47 -27 -88 -60 -41 -33 -78 -60 -83
-60 -74 0 -584 -488 -747 -714 -35 -48 -70 -91 -78 -93 -8 -3 -22 -25 -32 -48
-10 -23 -38 -66 -62 -96 -53 -66 -105 -151 -164 -269 -12 -25 -34 -56 -48 -69
-15 -14 -26 -35 -26 -49 0 -14 -11 -44 -24 -66 -13 -23 -27 -57 -31 -76 -4
-19 -15 -51 -25 -70 -9 -19 -20 -51 -24 -71 -4 -20 -20 -55 -36 -77 -17 -23
-33 -63 -39 -96 -6 -30 -17 -66 -25 -78 -8 -13 -22 -55 -31 -93 -9 -38 -26
-90 -37 -115 -15 -31 -23 -77 -28 -150 -4 -58 -17 -141 -29 -185 -48 -182 -44
-1002 5 -1137 9 -24 20 -92 24 -151 6 -74 15 -120 28 -146 19 -36 26 -59 37
-131 4 -19 15 -51 26 -70 12 -19 25 -58 29 -88 6 -31 22 -73 40 -100 16 -25
30 -54 30 -64 0 -10 9 -36 20 -58 11 -22 26 -63 34 -93 8 -29 23 -69 35 -88
11 -18 21 -43 21 -55 0 -11 11 -31 25 -44 14 -13 49 -67 78 -119 72 -132 96
-171 142 -238 22 -32 46 -69 53 -82 7 -13 39 -56 73 -95 33 -39 95 -116 139
-171 119 -150 334 -363 459 -454 27 -20 76 -56 108 -81 90 -69 116 -88 148
-106 17 -9 45 -30 63 -45 18 -16 41 -29 51 -29 10 0 41 -18 67 -40 27 -23 78
-55 114 -72 36 -17 72 -36 80 -43 8 -7 29 -16 45 -19 17 -4 44 -18 62 -32 17
-13 40 -24 50 -24 18 0 34 -8 94 -47 19 -13 48 -23 65 -23 17 0 51 -11 76 -24
24 -13 69 -29 99 -35 29 -7 64 -19 78 -27 13 -9 59 -22 104 -30 44 -8 95 -24
115 -36 25 -15 55 -22 111 -25 45 -3 96 -13 126 -25 78 -32 731 -56 759 -28
16 16 -10 18 -310 24 -277 6 -360 14 -456 44 -18 6 -67 16 -108 21 -42 6 -92
17 -113 26 -20 8 -69 22 -107 30 -39 8 -84 21 -99 30 -16 8 -59 23 -97 34
-125 36 -213 70 -251 96 -21 14 -46 25 -55 25 -15 0 -95 36 -163 73 -11 6 -49
26 -84 45 -80 42 -137 78 -146 92 -3 6 -21 16 -39 24 -136 57 -596 439 -760
631 -129 152 -254 311 -273 350 -9 16 -35 53 -58 80 -23 28 -53 73 -67 100
-14 28 -50 93 -80 145 -84 146 -127 235 -169 353 -21 60 -49 128 -63 151 -14
23 -32 69 -40 102 -36 140 -66 242 -84 284 -11 25 -25 90 -31 146 -6 56 -15
113 -20 127 -46 122 -47 989 0 1157 5 19 14 82 19 140 7 72 19 131 39 185 16
44 43 132 61 195 18 63 43 135 57 159 14 24 42 93 63 155 37 108 133 305 211
434 21 35 39 67 39 71 0 4 25 39 56 77 30 38 64 85 74 104 24 46 133 184 229
290 43 47 96 110 119 140 22 30 65 73 93 95 29 22 78 63 108 90 115 104 188
163 261 210 41 27 100 68 131 92 32 24 61 43 67 43 5 0 28 14 51 31 24 17 77
49 119 71 42 22 88 48 102 57 14 10 40 23 58 29 18 6 45 20 60 30 15 11 41 22
57 26 17 4 46 17 65 30 19 12 61 28 92 35 32 7 60 16 63 21 3 5 35 18 70 29
35 11 78 27 94 35 16 9 71 23 123 31 51 9 120 24 153 35 33 10 89 21 125 25
36 3 112 18 170 33 150 37 949 42 1035 5 29 -12 95 -25 160 -32 61 -7 144 -23
185 -36 41 -13 104 -28 140 -34 72 -12 227 -62 262 -85 13 -8 45 -20 71 -26
27 -6 93 -34 147 -64 54 -29 113 -59 131 -65 18 -6 45 -19 59 -28 14 -10 59
-35 99 -56 79 -40 116 -62 219 -130 35 -23 99 -64 142 -92 73 -46 138 -101
361 -302 81 -73 180 -181 274 -298 22 -27 66 -79 99 -115 32 -36 79 -96 103
-135 25 -38 57 -83 70 -99 13 -15 30 -43 37 -60 7 -17 33 -65 57 -106 63 -106
72 -124 122 -225 48 -95 107 -238 107 -258 0 -7 16 -43 35 -81 19 -39 35 -78
35 -87 0 -9 9 -41 19 -71 52 -144 91 -291 100 -384 6 -55 17 -127 25 -160 40
-158 38 -937 -4 -1109 -11 -49 -20 -109 -19 -132 2 -23 0 -45 -4 -49 -4 -4 -7
-19 -7 -33 0 -14 -25 -102 -55 -195 -30 -93 -55 -177 -55 -185 0 -9 -12 -36
-26 -61 -15 -25 -35 -70 -45 -100 -42 -128 -67 -189 -91 -231 -14 -24 -29 -55
-33 -69 -4 -14 -18 -39 -31 -56 -13 -17 -24 -35 -24 -40 0 -6 -21 -43 -46 -84
-25 -41 -55 -92 -65 -112 -10 -20 -40 -66 -66 -102 -27 -36 -59 -84 -73 -106
-24 -38 -99 -128 -285 -345 -44 -51 -134 -139 -200 -195 -66 -56 -147 -128
-180 -160 -33 -31 -89 -75 -125 -96 -36 -21 -82 -53 -103 -70 -21 -17 -64 -46
-95 -64 -31 -17 -106 -60 -167 -95 -110 -64 -254 -137 -297 -151 -13 -4 -39
-17 -58 -29 -19 -12 -56 -27 -82 -33 -26 -7 -62 -21 -80 -32 -18 -10 -58 -24
-88 -31 -30 -6 -71 -19 -90 -29 -19 -10 -59 -21 -89 -25 -29 -4 -72 -15 -95
-26 -23 -10 -73 -23 -111 -29 -39 -6 -124 -22 -190 -35 -79 -16 -176 -27 -283
-32 -225 -11 -214 -29 16 -26 137 2 202 7 282 24 58 12 137 25 175 29 43 4 84
15 105 28 20 12 65 26 101 31 36 5 86 18 111 30 25 11 65 23 89 27 24 4 64 19
88 35 27 17 58 29 78 29 22 0 51 12 84 35 28 19 57 35 64 35 26 0 243 111 285
146 16 13 89 54 155 86 22 11 48 27 57 35 9 8 30 22 46 31 42 24 156 109 220
164 30 26 80 67 111 90 125 96 343 322 436 452 17 23 59 75 94 114 36 39 70
84 76 99 7 16 19 34 28 42 10 7 17 18 17 23 0 5 13 28 29 51 70 102 126 195
139 232 9 22 28 54 44 70 15 17 28 40 28 51 0 11 13 40 29 65 16 24 32 60 36
79 4 19 18 55 30 80 12 25 25 61 29 81 4 21 18 54 32 75 14 20 29 61 34 90 5
29 16 64 25 78 9 14 23 54 30 89 7 36 23 83 34 104 14 29 22 70 27 149 3 60
13 129 21 154 60 192 60 966 -1 1185 -7 28 -17 93 -21 145 -5 60 -18 127 -36
182 -16 48 -29 100 -29 115 0 15 -12 46 -25 68 -14 22 -25 51 -25 65 0 14 -15
57 -34 95 -18 39 -41 93 -51 120 -42 121 -58 161 -75 185 -9 14 -21 39 -24 56
-4 18 -15 39 -25 48 -11 10 -31 43 -46 74 -38 80 -61 121 -78 140 -8 9 -18 28
-22 42 -4 14 -23 43 -41 64 -19 22 -34 43 -34 47 0 16 -76 118 -135 180 -35
37 -82 96 -106 131 -52 77 -430 458 -479 483 -19 10 -57 38 -84 62 -28 25 -64
51 -80 60 -17 9 -46 29 -64 44 -18 16 -39 29 -46 29 -7 0 -21 9 -30 19 -10 11
-32 25 -49 32 -18 7 -50 24 -72 38 -22 14 -49 32 -60 39 -11 7 -40 22 -65 34
-25 11 -58 30 -73 40 -15 11 -44 24 -65 30 -20 5 -50 20 -67 32 -16 12 -43 27
-60 35 -16 7 -46 23 -65 36 -19 12 -56 25 -82 29 -25 3 -63 17 -83 31 -21 14
-46 25 -55 25 -10 0 -42 11 -71 25 -31 13 -84 27 -124 31 -38 4 -97 18 -130
32 -45 19 -88 27 -170 33 -67 5 -136 16 -175 30 -71 23 -674 36 -925 20z
M5377 6808 c-21 -16 -97 -118 -97 -131 0 -5 -13 -39 -29 -75 -16 -37 -31 -94
-34 -127 -4 -33 -18 -94 -32 -135 -14 -41 -30 -103 -35 -138 -19 -118 -79
-244 -122 -258 -11 -3 -35 -16 -54 -29 -19 -13 -57 -28 -85 -34 -27 -6 -62
-17 -77 -25 -15 -7 -54 -19 -87 -26 -33 -6 -87 -25 -120 -40 -33 -16 -98 -45
-145 -65 -91 -40 -170 -96 -170 -122 0 -34 72 -123 143 -176 40 -30 79 -62 86
-71 7 -9 19 -16 26 -16 6 0 30 -13 52 -29 21 -15 59 -38 84 -50 155 -74 278
-171 316 -248 28 -58 28 -58 25 -376 -3 -417 -1 -427 113 -427 49 0 68 5 95
25 19 14 39 25 45 25 16 0 86 52 207 154 58 50 126 105 150 122 24 17 77 56
118 86 41 31 85 58 96 62 37 11 162 -14 221 -45 30 -16 64 -29 74 -29 11 0 45
-11 77 -24 31 -13 75 -27 96 -31 22 -3 63 -19 90 -33 60 -32 224 -36 291 -7
49 20 47 148 -4 255 -17 36 -31 71 -31 78 0 8 -13 43 -30 79 -16 35 -30 68
-30 72 0 4 -13 25 -30 47 -16 21 -30 47 -30 57 0 10 -10 37 -22 60 -28 55 -49
186 -37 229 10 33 43 82 154 223 211 268 255 342 262 438 10 128 -40 148 -338
133 -135 -7 -155 -10 -234 -40 -47 -18 -164 -20 -219 -5 -51 14 -239 196 -306
295 -169 253 -359 420 -423 372z m110 -65 c45 -21 171 -166 270 -310 57 -83
255 -291 294 -310 80 -38 264 -36 324 3 33 21 175 31 348 24 143 -6 152 -12
144 -103 -5 -57 -9 -66 -67 -142 -16 -22 -51 -71 -77 -110 -40 -60 -151 -205
-238 -311 -46 -57 -61 -115 -47 -182 7 -32 12 -69 12 -82 0 -13 12 -38 26 -57
14 -18 28 -50 31 -71 3 -20 16 -49 30 -63 13 -14 29 -43 35 -65 5 -21 19 -51
29 -66 11 -14 24 -49 29 -77 5 -28 20 -65 32 -82 37 -49 40 -175 4 -188 -74
-29 -198 -25 -260 8 -32 17 -73 31 -91 31 -21 0 -45 11 -70 30 -31 25 -46 30
-85 28 -39 -2 -56 3 -90 27 -40 28 -116 46 -206 48 -29 1 -88 -36 -233 -145
-20 -15 -47 -32 -60 -38 -13 -6 -38 -25 -55 -43 -55 -58 -163 -147 -178 -147
-8 0 -23 -9 -33 -20 -9 -10 -34 -24 -54 -31 -20 -6 -43 -20 -52 -31 -18 -24
-81 -31 -108 -12 -27 20 -34 70 -30 249 6 255 0 457 -13 490 -37 90 -117 174
-209 218 -31 15 -73 40 -93 56 -21 17 -50 33 -66 36 -17 4 -40 19 -52 35 -13
16 -35 31 -50 34 -15 2 -56 29 -89 58 -34 29 -75 64 -91 78 -53 46 -36 160 25
160 5 0 63 27 130 59 82 40 140 61 177 66 30 4 72 15 93 26 21 11 62 25 90 31
29 6 65 21 82 33 16 13 44 26 62 30 39 8 48 18 63 75 6 25 22 63 35 85 13 23
26 67 30 105 4 36 20 105 36 155 16 49 29 110 29 136 0 57 12 92 45 131 14 16
25 41 25 56 0 17 14 41 43 70 45 46 56 48 124 15z M5506 6198 c-45 -41 -76
-114 -76 -180 0 -36 -8 -78 -20 -106 -10 -26 -24 -66 -30 -89 -7 -26 -21 -50
-40 -65 -17 -13 -48 -38 -71 -55 -35 -28 -47 -32 -92 -31 -46 2 -58 -2 -111
-40 -33 -23 -65 -42 -71 -42 -22 0 -55 -46 -55 -77 0 -38 87 -140 129 -150 44
-10 135 -60 160 -87 14 -14 33 -26 43 -26 29 0 38 -42 34 -158 -4 -101 0 -142
26 -255 21 -95 92 -77 260 65 31 26 60 48 64 48 4 0 21 12 37 28 40 38 200 36
284 -4 28 -13 61 -24 73 -24 11 0 39 -9 60 -20 42 -21 103 -20 135 4 24 17
-28 200 -75 267 -11 15 -20 40 -20 56 -1 15 -7 39 -15 53 -27 48 -8 145 40
200 12 14 32 41 45 60 13 19 45 60 70 90 58 67 70 90 70 128 0 53 -12 55 -261
60 -230 5 -230 5 -290 71 -34 36 -68 80 -76 96 -9 17 -30 44 -47 61 -17 17
-53 56 -79 87 -54 63 -65 67 -101 35z m116 -115 c33 -32 75 -80 93 -108 90
-137 157 -171 316 -159 112 8 219 -9 248 -40 24 -25 22 -29 -108 -211 -61 -86
-91 -148 -91 -189 0 -42 46 -183 70 -213 28 -36 45 -121 31 -157 -14 -35 -104
-32 -188 6 -119 55 -348 18 -399 -63 -12 -20 -142 -99 -173 -105 -54 -11 -81
66 -81 233 0 72 -4 143 -9 156 -12 32 -109 105 -186 140 -99 46 -109 53 -129
92 -34 67 59 161 173 174 153 18 244 139 272 364 19 148 65 171 161 80z"/></g>
<g transform="translate(0.000000,1116.000000) scale(0.100000,-0.100000)" fill="#71a4f3" fill-rule="evenodd" stroke="none"><path d="M5280 9111 c-63 -5 -149 -17 -191 -28 -41 -12 -106 -24 -145 -28 -38
-3 -96 -15 -129 -25 -33 -11 -102 -26 -153 -35 -52 -8 -107 -22 -123 -31 -16
-8 -59 -24 -94 -35 -35 -11 -67 -24 -70 -29 -3 -5 -31 -14 -63 -21 -31 -7 -73
-23 -92 -35 -19 -13 -48 -26 -65 -30 -16 -4 -42 -15 -57 -26 -15 -10 -42 -24
-60 -30 -18 -6 -44 -19 -58 -29 -14 -9 -60 -35 -102 -57 -42 -22 -95 -54 -119
-71 -23 -17 -46 -31 -51 -31 -6 0 -35 -19 -67 -43 -31 -24 -90 -65 -131 -92
-73 -47 -146 -106 -261 -210 -30 -27 -79 -68 -108 -90 -28 -22 -71 -65 -93
-95 -23 -30 -76 -93 -119 -140 -96 -106 -205 -244 -229 -290 -10 -19 -44 -66
-74 -104 -31 -38 -56 -73 -56 -77 0 -4 -18 -36 -39 -71 -78 -129 -174 -326
-211 -434 -21 -62 -49 -131 -63 -155 -14 -24 -39 -96 -57 -159 -18 -63 -45
-151 -61 -195 -20 -54 -32 -113 -39 -185 -5 -58 -14 -121 -19 -140 -47 -168
-46 -1035 0 -1157 5 -14 14 -71 20 -127 6 -56 20 -121 31 -146 18 -42 48 -144
84 -284 8 -33 26 -79 40 -102 14 -23 42 -91 63 -151 42 -118 85 -207 169 -353
30 -52 66 -117 80 -145 14 -27 44 -72 67 -100 23 -27 49 -64 58 -80 19 -39
144 -198 273 -350 164 -192 624 -574 760 -631 18 -8 36 -18 39 -24 9 -14 66
-50 146 -92 35 -19 73 -39 84 -45 68 -37 148 -73 163 -73 9 0 34 -11 55 -25
38 -26 126 -60 251 -96 38 -11 81 -26 97 -34 15 -9 60 -22 99 -30 38 -8 87
-22 107 -30 21 -9 71 -20 113 -26 41 -5 89 -14 105 -20 165 -55 1018 -67 1235
-17 63 14 149 31 189 37 41 7 94 20 117 30 23 10 66 22 95 26 30 4 70 15 89
25 19 10 60 23 90 29 30 7 70 21 88 31 18 11 54 25 80 32 26 6 63 21 82 33 19
12 45 25 58 29 43 14 187 87 297 151 61 35 136 78 167 95 31 18 74 47 95 64
21 17 67 49 103 70 36 21 92 65 125 96 33 32 114 104 180 160 66 56 156 144
200 195 186 217 261 307 285 345 14 22 46 70 73 106 26 36 56 82 66 102 10 20
40 71 65 112 25 41 46 78 46 84 0 5 11 23 24 40 13 17 27 42 31 56 4 14 19 45
33 69 24 42 49 103 91 231 10 30 30 75 45 100 14 25 26 52 26 61 0 8 25 92 55
185 37 115 56 193 61 244 3 41 15 116 26 165 40 177 42 955 2 1109 -8 33 -19
105 -25 160 -9 93 -48 240 -100 384 -10 30 -19 62 -19 71 0 9 -16 48 -35 87
-19 38 -35 74 -35 81 0 20 -59 163 -107 258 -50 101 -59 119 -122 225 -24 41
-50 89 -57 106 -7 17 -24 45 -37 60 -13 16 -45 61 -70 99 -24 39 -71 99 -103
135 -33 36 -77 88 -99 115 -94 117 -193 225 -274 298 -223 201 -288 256 -361
302 -43 28 -107 69 -142 92 -103 68 -140 90 -219 130 -40 21 -85 46 -99 56
-14 9 -41 22 -59 28 -18 6 -77 36 -131 65 -54 30 -120 58 -147 64 -26 6 -58
18 -71 26 -35 23 -190 73 -262 85 -36 6 -99 21 -140 34 -41 13 -124 29 -185
36 -60 6 -132 20 -160 31 -56 23 -618 35 -865 19z m185 -2312 c78 -41 231
-206 335 -363 67 -99 255 -281 306 -295 55 -15 172 -13 219 5 79 30 99 33 234
40 298 15 348 -5 338 -133 -7 -96 -43 -156 -259 -435 -133 -172 -148 -195
-157 -226 -12 -43 9 -174 37 -229 12 -23 22 -50 22 -60 0 -10 14 -36 30 -57
17 -22 30 -43 30 -47 0 -4 14 -37 30 -72 17 -36 30 -71 30 -79 0 -7 14 -42 31
-78 51 -107 53 -235 4 -255 -67 -29 -231 -25 -291 7 -27 14 -68 30 -90 33 -21
4 -65 18 -96 31 -32 13 -66 24 -77 24 -10 0 -44 13 -74 29 -59 31 -184 56
-221 45 -11 -4 -55 -31 -96 -62 -41 -30 -94 -69 -118 -86 -24 -17 -92 -72
-150 -122 -121 -102 -191 -154 -207 -154 -6 0 -26 -11 -45 -25 -27 -20 -46
-25 -95 -25 -114 0 -116 10 -113 427 3 318 3 318 -25 376 -38 77 -161 174
-316 248 -25 12 -63 35 -84 50 -22 16 -46 29 -52 29 -7 0 -19 7 -26 16 -7 9
-46 41 -86 71 -71 53 -143 142 -143 176 0 26 79 82 170 122 47 20 112 49 145
65 33 15 87 34 120 40 33 7 72 19 87 26 15 8 50 19 77 25 28 6 66 21 85 34 19
13 43 26 54 29 43 14 103 140 122 258 5 35 21 97 35 138 14 41 28 102 32 135
3 33 18 90 34 127 16 36 29 70 29 75 0 13 76 115 97 131 23 17 42 15 88 -9z
M5491 6106 c-12 -19 -25 -64 -30 -103 -28 -225 -119 -346 -272 -364 -114 -13
-207 -107 -173 -174 20 -39 30 -46 129 -92 77 -35 174 -108 186 -140 5 -13 9
-84 9 -156 0 -167 27 -244 81 -233 31 6 161 85 173 105 51 81 280 118 399 63
84 -38 174 -41 188 -6 14 36 -3 121 -31 157 -24 30 -70 171 -70 213 0 41 30
103 91 189 130 182 132 186 108 211 -29 31 -136 48 -248 40 -159 -12 -226 22
-316 159 -18 28 -60 76 -93 108 -73 69 -100 74 -131 23z"/></g>
</svg>