<?xml version="1.0" encoding="UTF-8" standalone="no"?>
<svg xmlns="http://www.w3.org/2000/svg" viewBox="0 0 868 868" width="868" height="868" preserveAspectRatio="xMidYMid meet" shape-rendering="geometricPrecision">
<g transform="translate(0.000000,868.000000) scale(0.100000,-0.100000)" fill="#131313" fill-rule="evenodd" stroke="none"><path d="M4148 7085 c-2 -2 -57 -9 -123 -15 -74 -8 -144 -21 -182 -36 -34 -12
-91 -28 -125 -35 -76 -15 -403 -172 -472 -227 -15 -11 -57 -31 -93 -43 -46
-15 -77 -33 -107 -63 -22 -22 -83 -74 -135 -113 -55 -43 -111 -96 -136 -131
-23 -32 -53 -65 -66 -74 -14 -8 -38 -35 -54 -59 -16 -24 -59 -75 -96 -114 -51
-52 -77 -90 -104 -150 -20 -44 -59 -114 -86 -156 -51 -79 -108 -225 -154 -396
-13 -50 -33 -109 -45 -130 -11 -21 -20 -54 -20 -74 0 -207 -44 -290 -170 -319
-30 -7 -80 -25 -110 -41 -30 -15 -71 -34 -90 -42 -19 -8 -55 -31 -79 -51 -24
-21 -56 -43 -70 -51 -14 -7 -39 -28 -56 -45 -16 -18 -65 -59 -107 -91 -96 -73
-180 -172 -285 -337 -96 -149 -114 -179 -124 -211 -7 -20 -23 -54 -37 -75 -15
-24 -28 -66 -34 -110 -7 -52 -19 -86 -45 -129 -77 -124 -68 -733 14 -890 8
-16 19 -55 24 -87 9 -59 81 -224 129 -295 14 -22 34 -62 44 -88 10 -26 37 -71
59 -99 23 -28 61 -76 85 -107 65 -83 131 -149 187 -186 28 -18 68 -52 90 -75
22 -23 63 -53 90 -67 28 -14 62 -36 77 -48 15 -13 49 -31 75 -41 26 -10 71
-33 99 -51 34 -23 74 -38 126 -48 42 -8 105 -29 139 -47 82 -43 201 -47 1324
-47 964 0 986 1 1029 40 31 27 31 27 34 246 2 234 0 249 -49 285 -25 19 -56
20 -1000 22 -887 2 -981 4 -1054 20 -234 51 -340 91 -469 179 -119 80 -340
329 -366 412 -7 22 -23 56 -36 76 -16 23 -30 66 -39 120 -28 168 -37 215 -51
276 -17 74 -18 131 -3 170 6 15 14 55 18 88 13 92 58 250 84 292 13 21 29 54
37 73 7 19 34 58 60 85 26 28 60 71 74 97 35 60 136 155 206 192 30 16 76 48
101 71 38 35 55 44 100 50 30 4 83 21 119 38 96 44 425 48 560 5 47 -15 110
-32 141 -38 38 -7 72 -23 108 -50 29 -22 57 -40 63 -40 71 0 344 -309 424
-480 72 -156 74 -160 86 -310 12 -146 13 -173 6 -356 -4 -117 -3 -118 93 -183
45 -30 74 -41 117 -47 31 -3 94 -17 140 -30 208 -60 268 22 279 381 5 163 1
201 -57 490 -5 28 -12 67 -15 88 -4 21 -19 52 -36 71 -16 19 -38 58 -48 88
-10 29 -30 76 -43 103 -14 28 -29 61 -33 75 -43 140 -365 499 -518 576 -28 15
-70 42 -91 60 -21 18 -55 39 -75 45 -20 6 -65 27 -101 45 -36 18 -78 36 -95
40 -16 4 -53 18 -81 30 -65 29 -186 54 -258 54 -117 0 -140 109 -58 283 16 36
35 90 42 120 6 30 25 76 42 103 17 27 44 77 59 112 33 72 63 115 135 192 28
31 61 74 72 95 23 47 43 65 97 93 22 11 60 41 85 67 60 62 157 131 211 150 24
9 68 32 97 52 29 20 81 44 115 54 34 10 89 29 122 43 35 14 98 29 150 35 50 6
131 18 180 27 145 26 172 27 258 10 45 -8 118 -20 162 -26 152 -20 210 -33
257 -56 26 -13 70 -29 98 -35 28 -6 77 -28 109 -50 32 -21 78 -46 101 -54 50
-18 123 -69 206 -147 34 -31 79 -65 100 -76 46 -23 65 -43 92 -97 11 -22 37
-56 57 -75 59 -55 122 -145 145 -208 12 -31 37 -79 55 -107 19 -27 39 -71 45
-97 5 -26 21 -72 35 -102 14 -30 30 -67 36 -83 12 -33 29 -244 38 -483 9 -268
37 -312 201 -323 48 -3 119 -16 165 -30 44 -14 105 -30 137 -37 36 -7 72 -23
100 -44 23 -19 61 -39 83 -46 22 -7 63 -36 93 -63 29 -28 74 -64 100 -81 25
-17 56 -46 67 -65 11 -19 47 -64 81 -100 34 -36 66 -81 73 -100 6 -19 25 -55
41 -81 16 -26 36 -76 44 -116 8 -38 20 -82 25 -97 6 -16 11 -66 11 -111 0 -46
5 -98 12 -116 12 -36 4 -104 -33 -292 -10 -53 -19 -110 -19 -126 0 -16 -13
-49 -30 -73 -16 -24 -37 -66 -46 -93 -11 -32 -33 -65 -64 -95 -26 -25 -65 -71
-88 -101 -74 -102 -216 -225 -282 -245 -14 -4 -58 -25 -98 -46 -41 -22 -88
-39 -105 -39 -17 0 -67 -9 -112 -19 -219 -52 -225 -53 -715 -57 -640 -5 -580
24 -580 -287 0 -330 -54 -301 580 -304 623 -2 756 5 865 45 44 16 112 35 152
42 44 7 88 22 115 39 24 15 94 53 157 85 63 32 133 72 155 90 23 18 62 47 88
65 73 49 283 261 319 322 17 30 45 70 61 89 37 43 101 153 124 211 10 24 28
61 42 82 13 22 30 69 37 105 8 37 28 108 45 157 66 192 64 734 -3 842 -26 43
-38 77 -45 128 -11 74 -75 209 -156 331 -22 33 -60 90 -85 129 -25 38 -76 103
-113 144 -38 41 -68 78 -68 82 0 13 -221 171 -275 197 -27 13 -61 34 -75 47
-14 13 -41 31 -60 39 -20 8 -59 30 -87 49 -31 21 -70 37 -99 42 -107 16 -115
29 -133 215 -9 88 -20 143 -38 185 -14 33 -31 87 -39 120 -35 144 -98 311
-142 375 -25 36 -65 107 -88 158 -32 68 -62 112 -111 166 -38 41 -86 98 -107
127 -43 59 -221 232 -295 288 -25 19 -70 56 -99 83 -37 33 -70 53 -107 63 -29
9 -68 27 -87 40 -112 82 -182 122 -243 140 -33 9 -78 28 -100 41 -22 13 -74
30 -114 39 -41 8 -95 25 -120 36 -25 11 -84 24 -131 29 -47 5 -116 13 -155 19
-60 9 -479 14 -487 6z"/></g>
</svg>