<?xml version="1.0" encoding="UTF-8" standalone="no"?>
<svg xmlns="http://www.w3.org/2000/svg" viewBox="0 0 952 952" width="952" height="952" preserveAspectRatio="xMidYMid meet" shape-rendering="geometricPrecision">
<g transform="translate(0.000000,952.000000) scale(0.100000,-0.100000)" fill="#131313" fill-rule="evenodd" stroke="none"><path d="M4070 7276 c-25 -7 -74 -21 -110 -31 -123 -33 -294 -166 -348 -270
-46 -90 -37 -87 -338 -91 -282 -4 -297 -6 -398 -56 -90 -45 -149 -107 -198
-207 -43 -86 -43 -86 -43 -2136 0 -2050 0 -2050 51 -2140 68 -119 150 -189
276 -235 149 -54 3631 -48 3767 6 126 51 190 109 251 231 45 88 45 88 45 2138
0 2050 0 2050 -39 2129 -42 88 -119 177 -169 196 -18 7 -63 26 -101 43 -70 29
-70 29 -338 32 -304 3 -290 0 -333 85 -51 101 -231 248 -329 270 -26 6 -64 18
-84 28 -50 23 -1485 30 -1562 8z m1479 -501 c78 -20 95 -41 99 -123 4 -61 1
-71 -19 -94 -54 -59 -45 -58 -798 -58 -849 0 -811 -7 -811 145 0 149 -34 143
805 144 554 1 679 -2 724 -14z m-1982 -397 c14 -13 34 -41 45 -63 50 -97 206
-233 292 -256 23 -6 73 -21 111 -34 115 -39 1502 -41 1615 -2 41 14 89 28 106
32 87 17 267 174 320 277 13 26 33 52 44 58 31 17 414 17 434 0 23 -18 24
-3781 2 -3799 -21 -17 -3407 -16 -3418 1 -16 26 -10 3779 6 3797 27 29 410 20
443 -11z M4640 5604 c-142 -17 -361 -96 -468 -167 -18 -12 -63 -42 -100 -67
-180 -119 -363 -365 -393 -528 -6 -31 -20 -74 -31 -95 -44 -87 -48 -412 -6
-527 11 -30 28 -84 38 -120 71 -251 334 -547 568 -639 27 -11 67 -29 88 -41
21 -11 46 -20 56 -20 9 0 52 -12 95 -26 189 -62 502 -29 707 75 54 27 103 54
109 60 32 32 60 12 236 -162 240 -237 222 -234 393 -60 171 176 172 167 -43
379 -190 189 -198 200 -170 252 18 34 40 78 91 187 95 200 51 706 -77 892 -11
15 -26 44 -33 63 -34 86 -246 294 -379 372 -107 62 -223 117 -258 123 -21 4
-66 15 -100 26 -62 18 -251 32 -323 23z m206 -499 c47 -14 98 -25 113 -25 52
0 233 -127 283 -199 129 -181 155 -307 121 -576 -16 -122 -139 -296 -251 -354
-20 -11 -52 -31 -71 -45 -21 -16 -53 -27 -90 -32 -31 -4 -84 -17 -119 -30 -78
-30 -104 -30 -183 0 -35 13 -89 27 -119 31 -73 9 -251 129 -295 199 -11 17
-33 48 -48 68 -76 98 -116 355 -73 468 10 25 26 72 35 105 44 152 249 344 392
366 39 6 90 19 113 29 56 25 91 24 192 -5z"/></g>
</svg>