<?xml version="1.0" encoding="UTF-8" standalone="no"?>
<svg xmlns="http://www.w3.org/2000/svg" viewBox="0 0 952 952" width="952" height="952" preserveAspectRatio="xMidYMid meet" shape-rendering="geometricPrecision">
<g transform="translate(0.000000,952.000000) scale(0.100000,-0.100000)" fill="#131313" fill-rule="evenodd" stroke="none"><path d="M2700 6879 c-231 -12 -377 -119 -437 -320 -44 -146 -44 -3603 -1
-3739 48 -150 123 -242 245 -302 68 -33 68 -33 2248 -36 1246 -1 2221 1 2275
7 192 18 317 140 375 366 43 168 33 3575 -10 3713 -51 158 -143 243 -330 304
-33 11 -4165 17 -4365 7z m4240 -498 c20 -38 13 -3386 -7 -3402 -24 -21 -4182
-20 -4207 0 -21 18 -25 3388 -4 3409 24 24 4205 17 4218 -7z M3573 5801 c-86
-32 -132 -62 -172 -116 -121 -160 -95 -357 63 -488 61 -50 83 -57 187 -57 163
0 260 75 316 246 77 236 -171 498 -394 415z M6040 5173 c-602 -611 -863 -873
-873 -873 -7 0 -151 139 -322 309 -415 413 -442 429 -568 344 -72 -49 -1126
-1090 -1133 -1119 -10 -39 5 -62 114 -177 197 -208 135 -234 647 274 470 467
457 456 491 443 13 -5 154 -137 314 -292 406 -398 409 -399 555 -333 62 29
1209 1174 1225 1223 15 51 2 73 -114 193 -173 177 -168 177 -336 8z"/></g>
</svg>