<?xml version="1.0" encoding="UTF-8" standalone="no"?>
<svg xmlns="http://www.w3.org/2000/svg" viewBox="0 0 868 868" width="868" height="868" preserveAspectRatio="xMidYMid meet" shape-rendering="geometricPrecision">
<g transform="translate(0.000000,868.000000) scale(0.100000,-0.100000)" fill="#141414" fill-rule="evenodd" stroke="none"><path d="M4330 7250 c-2593 -6 -2296 12 -2458 -148 -175 -174 -156 98 -162
-2412 -6 -2564 -6 -2523 35 -2603 34 -69 178 -220 245 -260 85 -49 42 -48
1832 -48 1850 1 1725 -4 1765 58 20 30 22 418 2 455 -30 56 74 53 -1689 58
l-1615 5 0 2160 0 2160 2160 0 2160 0 5 -795 c6 -997 -25 -900 293 -900 308 0
280 -101 279 985 -1 584 -5 877 -12 911 -30 133 -235 338 -367 363 -82 16
-156 17 -2473 11z M6525 4248 c-38 -17 -88 -43 -110 -58 -22 -16 -65 -33 -95
-40 -110 -22 -120 -44 -120 -272 0 -219 4 -224 188 -221 110 2 132 0 143 -14
12 -13 14 -170 16 -897 2 -986 -4 -910 74 -949 52 -25 419 -30 464 -6 77 43
70 -79 70 1214 0 1415 38 1276 -345 1274 -215 0 -215 0 -285 -31z"/></g>
</svg>