<?xml version="1.0" encoding="UTF-8" standalone="no"?>
<svg xmlns="http://www.w3.org/2000/svg" viewBox="0 0 896 896" width="896" height="896" preserveAspectRatio="xMidYMid meet" shape-rendering="geometricPrecision">
<g transform="translate(0.000000,896.000000) scale(0.100000,-0.100000)" fill="#141414" fill-rule="evenodd" stroke="none"><path d="M4565 7270 c-38 -4 -87 -15 -107 -24 -28 -12 -68 -16 -155 -16 -216
0 -337 -15 -412 -50 -36 -17 -96 -38 -134 -46 -37 -7 -90 -25 -117 -39 -28
-14 -88 -34 -134 -45 -100 -24 -317 -130 -428 -211 -42 -29 -114 -77 -160
-106 -62 -39 -133 -102 -288 -255 -335 -332 -371 -372 -434 -483 -16 -27 -55
-86 -87 -130 -32 -44 -74 -115 -93 -157 -19 -42 -46 -94 -60 -115 -14 -21 -32
-72 -41 -113 -8 -41 -28 -104 -45 -140 -16 -36 -36 -99 -45 -140 -9 -41 -31
-106 -50 -145 -33 -69 -34 -73 -40 -245 -6 -136 -12 -187 -27 -230 -27 -74
-26 -200 2 -270 16 -41 20 -75 20 -183 1 -218 13 -317 50 -395 17 -37 38 -97
46 -135 7 -37 25 -90 39 -117 14 -27 34 -87 44 -133 23 -97 130 -314 208 -423
28 -38 63 -91 79 -119 60 -105 74 -121 361 -409 230 -231 272 -269 358 -326
44 -29 119 -79 167 -111 139 -94 330 -189 425 -210 44 -10 104 -29 132 -43 28
-15 83 -33 123 -42 40 -8 100 -28 134 -45 67 -32 181 -48 346 -49 63 0 101 -6
138 -20 67 -26 185 -27 260 -1 44 15 98 20 274 25 219 6 219 6 296 41 42 19
108 41 146 49 38 8 98 28 134 44 36 16 92 35 125 42 79 15 283 115 417 204 58
39 141 93 184 121 57 36 146 118 338 310 245 244 311 320 380 439 16 28 51 79
77 116 70 96 177 310 196 394 8 38 28 98 44 132 16 34 36 95 44 135 9 41 29
102 46 136 34 70 49 191 49 405 0 93 4 129 20 170 26 69 28 214 3 261 -12 23
-18 74 -24 187 -10 203 -15 234 -50 306 -16 33 -36 93 -44 132 -9 40 -28 100
-44 135 -15 34 -35 95 -45 136 -17 80 -110 269 -182 375 -24 33 -73 110 -111
171 -97 156 -549 613 -713 720 -58 38 -148 97 -200 131 -124 82 -313 172 -383
184 -31 5 -84 22 -119 39 -35 17 -95 37 -135 45 -39 8 -100 29 -136 46 -68 33
-182 49 -353 50 -59 0 -99 7 -152 25 -39 14 -75 24 -79 24 -5 -1 -39 -5 -78
-9z m320 -556 c217 -29 243 -34 301 -60 32 -14 95 -33 139 -41 57 -11 98 -26
144 -54 36 -21 70 -39 76 -39 7 0 31 -14 55 -31 24 -17 64 -38 89 -47 98 -33
196 -95 281 -177 47 -45 105 -95 130 -112 55 -38 184 -170 233 -238 19 -27 66
-79 102 -115 63 -61 165 -232 165 -275 0 -7 15 -35 33 -61 19 -27 46 -74 60
-104 15 -30 38 -75 52 -99 14 -24 25 -56 25 -70 0 -34 23 -112 54 -187 16 -37
28 -90 31 -135 4 -41 12 -114 20 -164 20 -135 20 -524 1 -609 -9 -37 -16 -86
-16 -110 0 -65 -19 -153 -46 -215 -14 -31 -32 -92 -40 -135 -10 -52 -25 -94
-43 -120 -16 -23 -33 -57 -40 -77 -6 -20 -27 -58 -46 -85 -19 -27 -42 -71 -52
-99 -31 -94 -94 -193 -170 -266 -40 -38 -85 -89 -99 -112 -33 -54 -154 -178
-219 -224 -27 -20 -88 -73 -135 -118 -86 -83 -173 -138 -274 -174 -29 -10 -72
-32 -96 -50 -23 -17 -48 -31 -55 -31 -6 0 -42 -18 -79 -41 -49 -30 -85 -43
-132 -50 -35 -5 -102 -25 -150 -45 -68 -28 -107 -37 -188 -44 -55 -5 -119 -14
-141 -19 -44 -11 -583 -9 -601 2 -6 3 -62 11 -124 17 -81 8 -131 18 -174 36
-34 14 -104 36 -156 49 -63 14 -115 34 -154 58 -33 21 -65 37 -71 37 -7 0 -31
14 -55 31 -23 17 -61 37 -84 45 -108 38 -202 97 -286 178 -47 46 -107 99 -135
118 -60 43 -179 165 -222 228 -17 25 -64 77 -103 115 -72 70 -120 149 -171
277 -11 28 -28 63 -38 77 -51 73 -122 225 -136 295 -9 41 -27 100 -42 132 -15
32 -30 89 -35 133 -5 42 -14 108 -20 146 -18 109 -19 597 -2 666 8 31 14 81
14 111 0 64 22 152 51 210 12 23 27 77 35 121 10 56 24 95 49 136 19 31 35 61
35 67 0 5 20 41 45 78 25 38 45 76 45 85 0 47 94 199 174 281 45 47 95 103
111 125 38 54 166 180 240 237 33 25 87 74 120 108 59 61 173 129 268 159 21
7 51 24 66 37 16 13 54 35 85 49 31 14 73 36 94 49 21 14 73 32 120 41 46 9
107 27 136 40 60 26 147 45 215 45 25 1 68 7 95 14 72 19 500 19 641 0z M5037
5822 c-29 -27 -72 -63 -97 -79 -194 -133 -218 -258 -80 -410 41 -44 76 -94 87
-122 9 -25 46 -102 81 -170 42 -81 72 -154 87 -215 12 -50 36 -118 51 -151 40
-83 49 -353 15 -431 -12 -25 -25 -72 -31 -103 -27 -157 -51 -234 -116 -367
-36 -77 -75 -159 -86 -184 -11 -24 -46 -73 -79 -107 -127 -132 -131 -271 -10
-342 25 -15 60 -51 85 -86 47 -68 113 -114 176 -122 51 -7 206 142 261 251 16
33 37 69 48 80 30 35 87 127 123 201 18 39 55 109 81 156 50 90 76 198 92 379
4 45 17 101 33 140 39 95 41 437 3 510 -17 32 -28 78 -38 164 -10 86 -21 137
-42 185 -16 36 -36 100 -45 142 -9 42 -29 96 -44 120 -15 24 -44 78 -64 119
-20 41 -61 104 -90 140 -30 36 -60 81 -68 100 -18 46 -44 81 -121 161 -105
108 -134 114 -212 41z M4325 5378 c-62 -35 -277 -235 -301 -280 -35 -67 0
-165 108 -298 18 -23 33 -59 42 -101 7 -35 26 -89 41 -119 43 -85 45 -263 4
-351 -16 -33 -36 -90 -44 -126 -12 -50 -29 -84 -74 -146 -138 -192 -135 -207
78 -417 175 -173 181 -174 312 -58 39 35 80 82 98 116 18 31 43 72 56 90 13
18 29 59 35 90 6 31 27 82 45 113 20 33 40 84 49 127 8 39 25 93 36 119 16 35
24 81 31 166 4 65 10 121 13 125 7 12 -30 192 -57 277 -15 44 -29 96 -32 116
-3 21 -17 54 -32 75 -14 22 -39 70 -55 109 -16 38 -35 79 -42 90 -7 11 -21 43
-30 71 -41 125 -210 252 -281 212z M3535 4858 c-53 -28 -344 -320 -379 -380
-64 -110 -56 -125 197 -375 192 -190 192 -190 267 -183 91 8 191 156 209 310
28 236 1 426 -78 543 -73 109 -129 131 -216 85z"/></g>
</svg>