<?xml version="1.0" encoding="UTF-8" standalone="no"?>
<svg xmlns="http://www.w3.org/2000/svg" viewBox="0 0 542 539" width="542" height="539" preserveAspectRatio="xMidYMid meet" shape-rendering="geometricPrecision">
<g transform="translate(0.000000,539.000000) scale(0.100000,-0.100000)" fill="#3c3c3c" fill-rule="evenodd" stroke="none"><path d="M2055 5130 c-168 -26 -310 -58 -375 -85 -30 -13 -83 -30 -117 -39
-251 -65 -716 -415 -917 -689 -86 -116 -266 -445 -266 -485 0 -5 -12 -36 -27
-68 -14 -33 -37 -104 -50 -159 -13 -55 -31 -131 -41 -170 -14 -58 -17 -113
-16 -315 2 -566 189 -1041 574 -1463 165 -181 621 -475 800 -517 30 -7 90 -26
134 -42 55 -20 119 -33 215 -44 75 -8 187 -21 249 -29 143 -19 238 -19 327 0
39 9 126 24 195 35 117 18 336 88 374 119 7 6 42 22 78 35 239 90 549 341 774
626 417 528 534 1279 301 1921 -131 358 -329 658 -562 849 -285 233 -503 367
-648 400 -27 6 -75 22 -108 35 -204 86 -623 126 -894 85z m623 -448 c291 -61
452 -138 693 -333 411 -332 641 -914 575 -1451 -79 -636 -451 -1118 -1050
-1359 -374 -150 -1020 -119 -1296 62 -14 9 -48 28 -76 42 -412 209 -778 740
-828 1202 -25 230 -27 266 -17 389 15 182 101 479 170 589 15 23 44 74 64 112
125 237 404 493 687 630 127 62 180 79 380 120 285 59 402 58 698 -3z M4155
1446 c-62 -28 -225 -213 -225 -255 0 -26 773 -815 893 -912 85 -68 135 -53
268 80 85 85 94 104 70 152 -22 46 -887 918 -928 935 -39 17 -40 17 -78 0z"/></g>
</svg>