<?xml version="1.0" encoding="UTF-8" standalone="no"?>
<svg xmlns="http://www.w3.org/2000/svg" viewBox="0 0 558 433" width="558" height="433" preserveAspectRatio="xMidYMid meet" shape-rendering="geometricPrecision">
<g transform="translate(0.000000,433.000000) scale(0.100000,-0.100000)" fill="#55b8ea" fill-rule="evenodd" stroke="none"><path d="M2510 4066 c-290 -70 -507 -157 -645 -258 -33 -24 -73 -52 -90 -62
-261 -163 -548 -553 -640 -870 -24 -82 -71 -136 -157 -181 -415 -217 -670
-607 -722 -1102 -11 -103 36 -392 80 -491 13 -30 24 -59 24 -65 0 -18 71 -148
123 -227 62 -93 243 -280 317 -327 30 -20 70 -48 89 -64 36 -29 144 -73 321
-130 105 -34 105 -34 1665 -34 1725 0 1572 -8 1820 91 33 13 65 24 70 24 21 0
161 103 223 164 86 83 174 207 223 313 23 48 52 111 64 138 17 36 27 84 35
169 6 65 13 123 16 127 4 8 -2 81 -25 301 -9 80 -102 289 -155 348 -13 14 -33
43 -46 64 -76 126 -211 235 -405 325 -142 66 -151 80 -170 260 -7 70 -20 144
-28 163 -8 20 -20 61 -27 91 -6 31 -29 98 -50 150 -215 528 -646 905 -1211
1062 -115 32 -594 46 -699 21z m479 -1061 c179 -18 526 -210 586 -324 28 -54
23 -140 -11 -180 -62 -75 -141 -64 -301 41 -243 160 -474 196 -725 112 -287
-95 -516 -403 -388 -519 52 -47 8 -137 -144 -290 -127 -129 -135 -132 -208
-86 -63 40 -117 95 -189 194 -88 120 -90 141 -12 181 66 33 83 54 142 184 100
218 230 395 325 444 22 11 62 38 89 60 28 22 69 49 91 60 23 11 54 31 69 44
16 13 37 24 47 24 11 0 56 12 102 27 110 36 327 47 527 28z m797 -915 c33 -21
146 -141 243 -259 69 -83 67 -105 -10 -146 -83 -44 -122 -99 -193 -277 -61
-152 -294 -408 -456 -500 -264 -150 -633 -189 -879 -93 -50 19 -95 35 -101 35
-45 0 -236 129 -319 215 -59 61 -61 65 -61 117 0 164 177 190 358 52 139 -106
243 -139 437 -139 174 1 182 1 235 27 30 15 77 35 104 46 255 99 443 419 305
521 -55 41 -4 143 155 310 107 112 129 123 182 91z"/></g>
</svg>