<?xml version="1.0" encoding="UTF-8" standalone="no"?>
<svg xmlns="http://www.w3.org/2000/svg" viewBox="0 0 960 960" width="960" height="960" preserveAspectRatio="xMidYMid meet" shape-rendering="geometricPrecision">
<g transform="translate(0.000000,960.000000) scale(0.100000,-0.100000)" fill="#141414" fill-rule="evenodd" stroke="none"><path d="M4640 7757 c-3 -3 -47 -10 -99 -16 -186 -23 -319 -105 -352 -217 -30
-104 -20 -220 27 -299 23 -39 56 -99 74 -134 18 -36 49 -88 70 -115 48 -64
102 -172 128 -256 11 -36 34 -101 50 -145 79 -213 122 -682 79 -875 -77 -352
-144 -525 -305 -785 -129 -209 -432 -515 -582 -587 -36 -17 -105 -54 -155 -81
-49 -28 -124 -63 -165 -77 -41 -15 -102 -39 -135 -53 -114 -47 -362 -79 -680
-87 -282 -7 -307 -10 -381 -48 -203 -104 -226 -370 -54 -627 15 -22 40 -65 55
-95 65 -131 159 -270 242 -362 48 -53 120 -133 158 -179 127 -149 139 -161
210 -209 38 -26 97 -72 130 -101 87 -78 191 -152 263 -188 34 -17 86 -46 115
-64 28 -18 77 -44 107 -56 58 -25 154 -66 285 -125 44 -19 121 -44 170 -55 50
-10 113 -29 140 -41 28 -12 86 -28 130 -36 44 -7 112 -20 150 -28 39 -9 97
-16 130 -16 33 0 90 -5 127 -10 106 -15 323 -14 428 3 52 9 167 26 255 37 88
12 196 32 240 45 131 38 375 125 434 155 31 15 101 47 156 70 98 41 180 95
344 226 42 33 99 75 126 94 116 79 236 183 315 275 47 54 110 126 141 159 31
34 71 84 89 111 19 28 49 69 67 91 178 220 398 698 438 950 9 55 24 126 35
159 81 256 80 893 -4 1225 -18 74 -37 153 -41 175 -21 122 -82 300 -156 453
-44 90 -79 167 -79 171 0 12 -130 204 -222 328 -230 310 -362 444 -600 610
-33 23 -86 64 -117 91 -31 27 -69 57 -86 67 -16 10 -48 33 -71 51 -77 62 -316
169 -598 270 -174 63 -187 66 -455 106 -251 37 -554 61 -571 45z m666 -766
c54 -16 134 -37 177 -46 88 -19 304 -120 402 -189 33 -23 92 -61 130 -84 39
-24 93 -62 121 -85 28 -23 90 -73 139 -111 48 -38 106 -94 129 -124 22 -30 66
-84 96 -121 98 -116 154 -192 192 -260 117 -205 227 -479 274 -681 14 -58 35
-143 46 -190 29 -116 37 -403 14 -517 -8 -43 -20 -116 -26 -162 -17 -129 -47
-255 -76 -324 -14 -34 -35 -91 -45 -127 -10 -36 -31 -87 -45 -115 -14 -27 -35
-75 -46 -105 -43 -114 -164 -301 -271 -418 -34 -37 -73 -84 -85 -104 -13 -21
-71 -77 -130 -125 -59 -47 -134 -112 -167 -143 -33 -31 -82 -69 -110 -85 -27
-15 -84 -49 -125 -76 -133 -85 -383 -197 -480 -214 -47 -8 -116 -24 -155 -35
-115 -34 -400 -63 -540 -56 -425 21 -458 27 -727 121 -114 40 -311 137 -466
230 -169 102 -486 400 -480 451 4 39 44 64 119 74 108 15 303 68 371 100 34
16 69 30 77 30 73 0 596 316 721 435 30 29 80 68 110 87 63 40 126 107 214
227 33 46 92 117 129 158 40 42 79 97 94 131 15 31 36 73 48 92 12 19 37 69
55 110 18 41 52 109 76 150 66 114 111 229 128 329 9 49 29 123 45 164 75 187
82 918 12 1137 -16 52 -41 145 -55 205 -13 61 -36 141 -50 178 -46 121 -13
139 160 88z"/></g>
</svg>