<?xml version="1.0" encoding="UTF-8" standalone="no"?>
<svg xmlns="http://www.w3.org/2000/svg" viewBox="0 0 529 454" width="529" height="454" preserveAspectRatio="xMidYMid meet" shape-rendering="geometricPrecision">
<g transform="translate(0.000000,454.000000) scale(0.100000,-0.100000)" fill="#111111" fill-rule="evenodd" stroke="none"><path d="M1995 4289 c-66 -4 -156 -16 -200 -27 -44 -11 -115 -26 -157 -32 -80
-12 -220 -58 -273 -90 -16 -10 -41 -21 -55 -25 -23 -6 -50 -22 -160 -90 -236
-145 -419 -301 -530 -450 -117 -158 -250 -394 -250 -444 0 -6 -11 -34 -25 -61
-14 -27 -25 -56 -25 -63 0 -8 -13 -57 -29 -108 -45 -149 -51 -269 -51 -1075 0
-855 4 -929 60 -1055 127 -288 371 -478 614 -479 23 0 70 -10 106 -23 65 -22
65 -22 1115 -25 1089 -3 1262 1 1390 37 39 10 88 22 110 25 403 66 959 479
1148 853 15 28 31 54 36 57 5 4 17 30 27 59 9 28 24 63 34 77 9 14 22 45 29
70 7 25 22 62 32 82 11 21 19 46 19 57 0 11 11 55 25 98 75 239 81 1012 10
1214 -9 24 -23 75 -31 112 -8 38 -21 78 -29 90 -9 12 -20 40 -26 62 -24 86
-122 270 -205 382 -146 197 -431 473 -489 473 -4 0 -25 13 -48 28 -74 51 -144
89 -183 102 -22 7 -55 21 -74 31 -19 11 -42 19 -50 19 -8 0 -39 12 -69 25 -30
14 -89 30 -130 36 -42 6 -107 19 -146 30 -134 36 -1111 55 -1520 28z m1282
-408 c28 -6 115 -17 194 -26 111 -12 155 -22 192 -41 27 -13 54 -24 60 -24 11
0 139 -63 253 -124 236 -127 536 -540 600 -825 8 -36 21 -83 28 -105 41 -121
50 -770 12 -896 -9 -30 -25 -93 -35 -140 -17 -78 -48 -160 -88 -235 -9 -16
-23 -43 -31 -60 -134 -262 -510 -600 -729 -654 -21 -5 -72 -21 -113 -34 -211
-70 -179 -68 -1460 -65 -1302 3 -1217 -2 -1350 88 -67 46 -76 56 -126 145 -39
70 -39 70 -39 930 0 860 0 860 22 925 12 36 27 88 33 115 26 123 152 369 260
506 121 153 492 429 577 429 8 0 39 11 71 24 55 23 194 49 357 65 114 12 1252
13 1312 2z M2041 2840 c-130 -55 -136 -80 -136 -575 0 -468 1 -473 94 -539 99
-71 259 -7 302 121 28 83 18 830 -11 882 -50 90 -172 143 -249 111z M3034
2844 c-29 -7 -101 -70 -119 -104 -20 -38 -27 -419 -17 -887 7 -353 7 -353 60
-405 100 -101 284 -58 324 75 15 49 19 1077 5 1160 -18 105 -144 184 -253 161z"/></g>
</svg>