<?xml version="1.0" encoding="UTF-8" standalone="no"?>
<svg xmlns="http://www.w3.org/2000/svg" viewBox="0 0 868 868" width="868" height="868" preserveAspectRatio="xMidYMid meet" shape-rendering="geometricPrecision">
<g transform="translate(0.000000,868.000000) scale(0.100000,-0.100000)" fill="#131313" fill-rule="evenodd" stroke="none"><path d="M1849 7081 c-226 -14 -484 -255 -528 -495 -15 -84 -16 -4228 0 -4311
25 -135 140 -303 262 -383 131 -86 166 -101 269 -112 175 -20 5083 -9 5136 12
217 83 410 297 441 488 15 91 15 4223 0 4306 -11 61 -75 187 -145 283 -38 54
-205 173 -278 199 -33 12 -133 16 -521 19 -677 6 -640 23 -640 -297 0 -314
-27 -299 531 -300 329 0 404 -3 420 -14 19 -14 19 -49 24 -2008 5 -2136 7
-2042 -31 -2070 -29 -22 -4779 -30 -4819 -8 -42 22 -41 -19 -41 2052 1 2002 1
2002 23 2025 21 23 21 23 412 23 561 0 541 -11 541 293 0 322 36 302 -530 303
-231 0 -468 -2 -526 -5z M4142 6570 c-59 -24 -57 13 -60 -1126 -2 -807 -5
-1044 -15 -1052 -7 -6 -144 -12 -352 -14 -523 -6 -521 -4 -230 -332 152 -170
257 -292 339 -390 32 -39 95 -109 140 -156 109 -115 200 -220 266 -308 100
-132 176 -135 277 -11 32 39 126 146 208 237 83 91 193 216 245 277 52 61 115
135 140 164 25 30 104 119 175 200 284 319 284 319 -320 320 -189 1 -264 4
-273 13 -9 9 -12 250 -12 1025 0 1093 0 1094 -52 1138 -31 27 -416 39 -476 15z"/></g>
</svg>