<?xml version="1.0" encoding="UTF-8" standalone="no"?>
<svg xmlns="http://www.w3.org/2000/svg" viewBox="0 0 960 960" width="960" height="960" preserveAspectRatio="xMidYMid meet" shape-rendering="geometricPrecision">
<g transform="translate(0.000000,960.000000) scale(0.100000,-0.100000)" fill="#636363" fill-rule="evenodd" stroke="none"><path d="M6114 7551 c-492 -7 -459 -1 -500 -83 -37 -72 -37 -455 0 -533 41
-89 18 -85 489 -85 492 0 483 3 498 -175 10 -115 13 -129 46 -177 19 -28 29
-62 38 -136 10 -75 21 -114 45 -161 26 -49 34 -79 39 -149 6 -70 14 -99 39
-146 23 -43 32 -72 32 -107 0 -27 7 -67 16 -89 31 -77 219 -70 -1975 -72
-1081 0 -1983 -1 -2004 -1 -60 -1 -75 21 -54 80 9 27 17 71 17 99 0 40 7 60
31 97 27 40 33 63 43 156 11 94 18 117 44 158 27 42 33 63 40 145 8 84 14 104
41 147 29 45 33 60 38 148 11 182 -16 173 486 173 424 0 483 7 488 52 1 7 3
83 5 168 1 85 3 166 4 180 3 54 -9 180 -20 200 -20 38 -48 40 -608 40 -591 0
-596 0 -651 -54 -20 -20 -78 -72 -129 -117 -107 -94 -117 -106 -132 -174 -6
-27 -24 -69 -39 -92 -24 -36 -30 -58 -36 -136 -8 -96 -14 -117 -47 -154 -16
-17 -22 -44 -28 -128 -7 -86 -14 -115 -34 -150 -31 -52 -56 -151 -56 -222 0
-43 -5 -57 -33 -91 -32 -38 -34 -46 -40 -138 -5 -83 -10 -106 -37 -156 -22
-42 -34 -84 -41 -141 -13 -106 -22 -139 -50 -179 -14 -20 -26 -54 -30 -91 -5
-41 -17 -75 -42 -115 -20 -32 -40 -83 -47 -117 -6 -33 -20 -84 -31 -114 -15
-42 -19 -74 -17 -150 1 -53 1 -558 0 -1123 -3 -1218 -12 -1156 192 -1445 14
-19 189 -113 211 -113 6 0 42 -16 80 -35 70 -36 70 -36 885 -34 633 1 822 4
846 14 17 7 80 61 141 121 103 101 209 194 387 337 39 31 92 80 118 107 58 61
54 61 128 -2 33 -29 90 -78 125 -108 35 -30 106 -93 157 -141 51 -47 113 -100
138 -119 25 -18 88 -74 140 -124 l95 -91 820 5 c820 5 820 5 869 33 27 15 76
34 110 43 100 26 193 92 249 177 20 30 52 73 72 96 32 40 35 48 35 109 0 37 7
98 15 135 17 84 23 2192 5 2262 -5 22 -10 63 -10 90 -1 74 -15 122 -50 172
-26 36 -34 59 -41 121 -6 56 -17 94 -40 137 -28 52 -33 73 -37 150 -4 82 -7
93 -35 129 -28 36 -31 48 -38 143 -5 69 -13 112 -23 126 -9 12 -23 32 -32 45
-11 15 -20 57 -25 123 -8 85 -14 109 -44 167 -31 59 -36 80 -44 175 -7 97 -10
110 -35 136 -32 33 -48 85 -40 127 7 39 -11 106 -41 153 -13 20 -30 61 -38 92
-29 112 -218 307 -319 328 -29 7 -74 26 -101 43 -59 38 -35 36 -623 29z m949
-2569 c25 -26 39 -2040 14 -2060 -19 -16 -1257 -19 -1299 -3 -39 15 -130 86
-250 197 -59 55 -157 142 -219 194 -61 52 -123 107 -138 121 -14 14 -69 62
-121 107 -52 45 -117 101 -145 125 -77 67 -74 67 -178 -26 -156 -139 -230
-203 -268 -228 -20 -13 -109 -94 -197 -178 -88 -85 -168 -159 -179 -164 -10
-6 -40 -31 -68 -57 -112 -104 -71 -99 -783 -100 -587 -2 -617 -1 -630 17 -22
30 -9 2028 14 2054 23 25 -104 24 2274 21 2050 -2 2156 -3 2173 -20z M3048
4271 c-95 -19 -117 -75 -118 -299 0 -270 -50 -251 683 -252 538 -1 555 1 604
52 62 66 74 329 18 402 -87 112 -18 101 -617 103 -293 0 -550 -2 -570 -6z
M5537 4271 c-95 -19 -125 -86 -128 -286 -5 -280 -47 -263 642 -264 658 -2 663
-1 689 125 36 171 -4 357 -89 412 -27 18 -1029 29 -1114 13z"/></g>
</svg>