<?xml version="1.0" encoding="UTF-8" standalone="no"?>
<svg xmlns="http://www.w3.org/2000/svg" viewBox="0 0 492 500" width="492" height="500" preserveAspectRatio="xMidYMid meet" shape-rendering="geometricPrecision">
<g transform="translate(0.000000,500.000000) scale(0.100000,-0.100000)" fill="#121212" fill-rule="evenodd" stroke="none"><path d="M2310 4767 c-36 -7 -86 -25 -111 -40 -25 -15 -52 -27 -60 -27 -16 0
-71 -38 -174 -121 -39 -30 -83 -64 -99 -75 -40 -27 -56 -38 -302 -224 -120
-91 -228 -172 -240 -180 -40 -28 -269 -202 -319 -244 -27 -23 -103 -82 -168
-131 -65 -50 -148 -114 -185 -143 -37 -29 -83 -63 -102 -76 -143 -96 -269
-286 -306 -465 -35 -164 -33 -2160 3 -2293 65 -246 277 -465 494 -510 38 -8
501 -12 1609 -15 1925 -5 1835 -10 2046 120 120 75 243 259 280 422 32 137 34
2087 3 2264 -41 236 -140 365 -459 602 -85 64 -199 149 -254 190 -54 41 -133
99 -175 129 -42 30 -107 78 -144 105 -96 71 -124 93 -585 445 -334 256 -501
315 -752 267z m301 -495 c35 -23 82 -54 104 -68 22 -15 63 -46 90 -68 28 -23
82 -64 120 -91 39 -27 115 -84 170 -125 55 -42 110 -82 122 -90 12 -8 86 -64
165 -125 318 -243 420 -321 568 -433 222 -168 263 -210 281 -292 25 -113 21
-2051 -5 -2143 -20 -75 -70 -128 -137 -147 -59 -17 -3232 -13 -3273 4 -52 22
-103 73 -123 124 -23 59 -34 2057 -12 2142 25 96 72 152 209 250 41 30 134 97
205 150 163 120 150 111 422 315 58 44 115 87 127 95 12 8 44 32 71 53 118 91
241 183 261 197 12 8 77 58 144 110 262 203 243 192 346 187 75 -3 85 -6 145
-45z M1765 1711 c-198 -48 -216 -322 -28 -408 77 -36 1353 -37 1433 -2 193 85
183 363 -16 409 -46 11 -1345 11 -1389 1z"/></g>
</svg>