<?xml version="1.0" encoding="UTF-8" standalone="no"?>
<svg xmlns="http://www.w3.org/2000/svg" viewBox="0 0 960 960" width="960" height="960" preserveAspectRatio="xMidYMid meet" shape-rendering="geometricPrecision">
<g transform="translate(0.000000,960.000000) scale(0.100000,-0.100000)" fill="#6a6a6a" fill-rule="evenodd" stroke="none"><path d="M4419 7440 c-37 -5 -105 -20 -150 -34 -46 -14 -126 -30 -177 -36 -65
-7 -112 -19 -155 -39 -34 -16 -78 -32 -97 -36 -19 -4 -64 -22 -100 -40 -36
-18 -82 -38 -103 -45 -20 -6 -63 -27 -94 -46 -31 -19 -60 -34 -65 -34 -4 0
-35 -18 -69 -40 -34 -22 -68 -40 -75 -40 -7 0 -28 -13 -46 -28 -18 -16 -71
-55 -118 -87 -47 -33 -110 -79 -140 -103 -88 -71 -432 -421 -480 -490 -25 -35
-55 -78 -67 -95 -12 -18 -37 -52 -56 -77 -19 -25 -60 -92 -92 -150 -31 -58
-66 -121 -76 -140 -11 -19 -28 -55 -40 -80 -11 -25 -30 -62 -43 -84 -13 -21
-29 -62 -34 -92 -6 -29 -22 -70 -36 -91 -16 -24 -29 -63 -35 -108 -12 -81 -21
-112 -51 -178 -16 -37 -24 -81 -31 -180 -5 -72 -15 -149 -22 -171 -9 -32 -12
-274 -12 -1041 0 -1197 0 -1192 107 -1371 67 -112 123 -188 163 -220 19 -16
55 -45 78 -65 23 -20 57 -44 74 -53 18 -9 49 -28 69 -41 21 -14 62 -33 92 -41
29 -9 78 -27 107 -40 108 -50 323 -42 451 17 34 15 78 31 98 35 21 3 49 16 64
28 15 12 49 35 77 51 112 64 171 121 252 245 20 30 49 74 64 96 16 23 35 68
42 101 8 32 22 73 31 91 34 66 38 130 37 620 -1 478 -5 542 -36 603 -8 15 -22
61 -30 101 -9 40 -26 89 -39 108 -13 20 -35 58 -49 85 -30 59 -206 236 -287
289 -30 19 -65 43 -77 51 -12 9 -54 21 -94 27 -40 5 -96 19 -123 30 -88 35
-249 37 -321 4 -135 -62 -146 -44 -135 220 7 192 9 203 38 270 16 38 35 102
41 142 6 41 24 98 40 130 16 31 34 83 40 114 7 34 24 71 41 93 16 20 36 58 45
85 9 27 23 54 31 61 9 7 26 33 40 58 24 46 44 75 140 206 68 91 335 362 400
406 106 71 140 93 189 124 28 17 75 48 105 67 30 20 70 41 89 47 19 6 55 24
80 40 25 16 73 37 106 46 33 9 74 26 92 36 17 11 69 27 114 35 45 9 99 22 121
30 179 63 731 75 933 20 55 -15 136 -33 180 -41 45 -8 104 -27 138 -45 32 -17
82 -35 110 -41 29 -6 67 -22 84 -35 18 -14 52 -31 75 -40 24 -8 67 -30 96 -49
29 -19 76 -50 105 -68 204 -130 262 -176 382 -299 130 -134 137 -143 266 -323
77 -107 163 -256 196 -340 7 -16 21 -41 32 -55 12 -14 24 -47 27 -75 4 -27 22
-85 41 -127 24 -54 37 -103 44 -163 5 -47 25 -151 44 -231 71 -296 47 -358
-111 -298 -87 33 -249 31 -349 -5 -33 -12 -86 -26 -119 -31 -34 -5 -71 -19
-90 -33 -17 -13 -49 -33 -71 -45 -102 -52 -310 -299 -345 -407 -7 -22 -26 -71
-44 -110 -37 -84 -55 -1051 -22 -1225 54 -290 316 -601 571 -680 22 -7 68 -26
102 -42 91 -43 363 -40 431 5 23 15 63 30 88 34 28 4 65 19 94 39 27 18 60 36
74 40 85 21 265 231 348 404 66 139 66 145 74 1085 8 948 -6 1337 -54 1500
-16 55 -37 139 -46 187 -9 47 -25 108 -37 134 -11 27 -29 79 -39 117 -10 37
-28 83 -40 102 -11 18 -29 58 -40 89 -10 31 -28 69 -39 84 -11 15 -31 52 -45
82 -137 291 -534 762 -786 933 -25 17 -66 49 -91 71 -64 56 -127 99 -169 116
-19 8 -52 28 -74 46 -21 18 -52 36 -70 39 -17 4 -51 20 -76 36 -25 16 -66 35
-90 44 -25 9 -61 27 -81 40 -20 13 -62 28 -94 34 -31 6 -81 24 -110 41 -44 25
-70 32 -153 40 -61 6 -125 19 -166 34 -112 42 -738 65 -987 36z m-1467 -3449
c85 -20 154 -107 183 -231 17 -74 22 -747 6 -855 -20 -137 -78 -232 -164 -266
-18 -7 -43 -21 -56 -31 -76 -58 -293 62 -342 188 -18 49 -14 992 5 1038 53
127 209 194 368 157z m3978 -7 c51 -21 156 -141 170 -196 7 -23 10 -212 8
-506 -3 -546 -2 -543 -196 -659 -77 -47 -117 -44 -213 12 -180 104 -191 146
-187 700 4 481 7 497 106 598 67 68 210 91 312 51z M4586 3918 c-25 -14 -95
-114 -111 -157 -7 -21 -29 -60 -49 -86 -20 -25 -36 -52 -36 -59 0 -14 -76
-136 -113 -181 -13 -16 -48 -70 -77 -120 -29 -49 -67 -112 -85 -140 -18 -27
-40 -63 -49 -80 -9 -16 -32 -52 -51 -79 -40 -55 -45 -96 -15 -126 19 -19 33
-20 249 -20 252 0 269 3 318 56 40 44 56 38 110 -45 21 -33 48 -75 60 -93 13
-18 34 -57 49 -87 14 -30 37 -68 50 -84 14 -16 31 -45 39 -64 8 -20 29 -51 45
-70 17 -19 38 -52 47 -74 39 -98 146 -119 168 -32 3 16 21 51 39 78 46 69 69
109 110 187 20 36 41 70 47 73 6 4 21 28 33 54 20 45 46 88 114 194 19 28 40
67 48 87 8 19 28 49 43 65 16 17 32 40 36 53 4 13 20 38 36 56 95 108 56 153
-131 151 -63 -1 -171 -3 -239 -3 -123 -2 -123 -2 -160 -42 -52 -57 -89 -44
-136 50 -10 19 -28 49 -41 66 -13 17 -30 49 -39 73 -8 23 -30 61 -50 83 -19
23 -35 47 -35 53 0 6 -25 51 -57 101 -97 154 -128 184 -167 162z"/></g>
</svg>