<?xml version="1.0" encoding="UTF-8" standalone="no"?>
<svg xmlns="http://www.w3.org/2000/svg" viewBox="0 0 486 486" width="486" height="486" preserveAspectRatio="xMidYMid meet" shape-rendering="geometricPrecision">
<g transform="translate(0.000000,486.000000) scale(0.100000,-0.100000)" fill="#121212" fill-rule="evenodd" stroke="none"><path d="M2280 4630 c-30 -4 -109 -13 -175 -19 -78 -8 -150 -23 -207 -42 -47
-16 -96 -29 -107 -29 -12 0 -47 -11 -79 -24 -31 -13 -75 -27 -97 -31 -22 -4
-55 -16 -73 -27 -18 -11 -54 -31 -80 -45 -149 -79 -166 -89 -307 -182 -68 -45
-147 -112 -249 -211 -189 -184 -243 -250 -358 -432 -57 -89 -168 -309 -168
-331 0 -6 -13 -39 -29 -73 -16 -34 -32 -81 -36 -105 -4 -24 -16 -66 -27 -94
-34 -88 -73 -438 -63 -575 14 -189 45 -438 60 -480 9 -25 23 -75 30 -113 8
-37 23 -84 34 -105 10 -20 22 -53 26 -72 10 -48 82 -192 176 -352 201 -341
524 -643 869 -813 52 -26 115 -57 140 -70 25 -12 61 -26 80 -30 19 -4 55 -18
80 -30 25 -12 65 -26 90 -30 25 -4 68 -16 95 -27 48 -20 150 -35 399 -60 93
-9 147 -9 240 1 258 25 352 39 396 59 25 11 66 23 90 27 25 4 70 17 100 30 30
13 66 27 80 30 38 10 276 124 350 167 186 109 522 410 614 549 101 152 133
202 158 241 50 82 139 263 150 308 6 25 19 62 30 82 10 21 25 70 33 110 9 40
22 91 31 113 23 57 62 458 53 537 -3 35 -12 128 -19 208 -7 80 -19 170 -27
200 -8 30 -21 82 -29 115 -8 33 -22 80 -30 105 -9 25 -26 75 -39 111 -12 36
-29 77 -38 90 -8 13 -18 35 -22 49 -78 266 -543 788 -847 949 -18 10 -62 35
-98 56 -36 21 -83 47 -105 58 -22 10 -47 26 -57 34 -9 8 -44 21 -78 29 -33 8
-73 20 -88 28 -15 7 -54 19 -87 25 -33 7 -82 22 -110 33 -30 13 -99 26 -175
35 -69 7 -163 18 -210 23 -94 11 -206 11 -290 0z m325 -394 c61 -8 137 -18
170 -22 33 -4 82 -15 109 -26 28 -11 72 -23 98 -28 27 -5 72 -21 101 -34 28
-13 71 -29 93 -35 23 -6 47 -18 54 -26 6 -7 27 -19 46 -25 191 -63 540 -383
701 -643 110 -178 224 -486 243 -658 5 -52 17 -143 26 -202 23 -149 -14 -493
-65 -625 -12 -29 -21 -59 -21 -68 0 -31 -114 -274 -173 -371 -86 -139 -324
-407 -415 -468 -20 -13 -65 -45 -100 -70 -34 -25 -79 -54 -100 -65 -74 -41
-137 -76 -157 -88 -46 -27 -171 -82 -186 -82 -9 0 -45 -11 -80 -24 -35 -13
-109 -31 -164 -40 -55 -9 -120 -20 -145 -25 -70 -16 -385 -13 -455 3 -33 8
-96 20 -140 26 -44 7 -102 20 -130 30 -27 10 -70 24 -95 30 -40 10 -135 54
-248 115 -218 117 -381 251 -546 445 -74 88 -83 99 -141 187 -59 88 -185 351
-185 387 0 8 -11 45 -25 81 -13 37 -29 105 -35 153 -6 47 -16 109 -22 136 -35
158 1 637 56 743 8 17 20 53 26 79 6 27 22 72 35 99 13 28 42 89 64 137 120
259 415 575 669 720 75 42 204 106 247 122 214 79 321 106 515 131 195 24 201
24 375 1z M2283 3450 c-42 -18 -43 -26 -43 -616 l0 -567 78 -75 c42 -41 156
-142 252 -225 96 -84 204 -179 240 -212 287 -263 248 -256 411 -72 115 129
148 80 -358 523 -117 102 -219 195 -228 207 -13 18 -15 89 -15 508 0 594 20
533 -177 536 -76 1 -148 -2 -160 -7z"/></g>
</svg>