<?xml version="1.0" encoding="UTF-8" standalone="no"?>
<svg xmlns="http://www.w3.org/2000/svg" viewBox="0 0 479 447" width="479" height="447" preserveAspectRatio="xMidYMid meet" shape-rendering="geometricPrecision">
<g transform="translate(0.000000,447.000000) scale(0.100000,-0.100000)" fill="#ee8e8a" fill-rule="evenodd" stroke="none"><path d="M2235 4241 c-71 -25 -85 -34 -132 -83 -75 -78 -74 -69 -78 -806 -2
-356 -7 -660 -10 -677 -18 -73 -49 -83 -270 -89 -170 -4 -266 -36 -330 -109
-123 -141 -72 -255 206 -465 30 -22 92 -70 139 -107 76 -59 120 -93 266 -208
39 -30 96 -65 180 -110 21 -12 65 -21 113 -24 123 -9 167 14 436 227 55 44
132 102 172 130 39 27 75 55 78 61 4 6 31 26 60 44 241 155 304 325 172 463
-58 61 -93 69 -333 77 -288 10 -269 -50 -273 859 -3 685 -3 682 -88 754 -82
71 -213 97 -308 63z M3170 1629 c-161 -9 -254 -39 -368 -118 -298 -205 -469
-251 -632 -168 -136 69 -267 142 -296 163 -123 91 -200 100 -844 98 -863 -3
-815 38 -815 -679 0 -539 0 -536 82 -612 113 -103 6 -98 1798 -96 1970 2 1888
2 1960 -1 313 -17 444 41 503 220 20 62 26 885 7 959 -25 96 -78 159 -170 202
-60 28 -60 28 -495 30 -239 1 -475 3 -525 5 -49 2 -142 0 -205 -3z m104 -409
c143 -21 158 -48 160 -290 2 -281 -9 -291 -326 -293 -270 -3 -277 6 -266 338
7 201 19 228 113 248 39 9 251 6 319 -3z m941 -9 c86 -21 102 -80 93 -348 -8
-226 -10 -227 -288 -227 -281 0 -292 9 -298 259 -6 251 11 298 116 321 64 14
311 10 377 -5z"/></g>
</svg>