<?xml version="1.0" encoding="UTF-8" standalone="no"?>
<svg xmlns="http://www.w3.org/2000/svg" viewBox="0 0 476 477" width="476" height="477" preserveAspectRatio="xMidYMid meet" shape-rendering="geometricPrecision">
<g transform="translate(0.000000,477.000000) scale(0.100000,-0.100000)" fill="#121212" fill-rule="evenodd" stroke="none"><path d="M1625 4553 c-234 -18 -305 -25 -400 -39 -60 -9 -146 -27 -190 -39
-44 -13 -98 -27 -120 -31 -70 -12 -195 -85 -308 -179 -104 -85 -256 -313 -281
-420 -4 -16 -18 -57 -31 -90 -12 -33 -26 -94 -30 -135 -4 -41 -13 -105 -21
-142 -40 -196 -49 -1921 -10 -2118 9 -47 23 -133 31 -193 8 -59 21 -120 29
-136 8 -15 20 -50 27 -77 63 -253 382 -583 599 -619 25 -4 63 -14 85 -22 105
-38 306 -63 585 -73 151 -6 385 -14 520 -19 630 -22 1522 24 1661 86 26 12 61
24 79 28 215 47 514 360 585 614 8 25 22 71 33 101 11 30 33 145 48 255 46
325 49 1950 4 2140 -5 22 -17 91 -25 153 -8 62 -22 126 -29 141 -8 15 -20 50
-27 77 -62 256 -384 594 -600 629 -24 4 -69 16 -99 26 -84 28 -294 59 -510 74
-175 13 -1468 19 -1605 8z m1670 -372 c129 -7 214 -17 265 -31 41 -11 97 -25
124 -31 180 -41 386 -241 421 -410 4 -19 17 -69 31 -111 80 -262 81 -2137 0
-2420 -13 -46 -27 -99 -31 -118 -30 -147 -295 -400 -418 -400 -9 0 -55 -11
-101 -24 -269 -78 -2148 -72 -2446 8 -397 106 -528 316 -560 901 -40 735 -15
1871 45 2065 13 41 26 90 30 108 9 43 75 162 117 211 141 164 338 233 724 251
126 6 234 13 239 15 21 9 1381 -3 1560 -14z M2325 3384 c-45 -17 -80 -46 -103
-89 -15 -27 -18 -100 -22 -675 -6 -731 -1 -698 -82 -588 -69 95 -175 195 -224
214 -102 39 -247 -91 -216 -194 15 -50 153 -236 299 -402 332 -380 485 -375
825 23 202 237 277 347 278 407 0 98 -122 197 -208 169 -45 -15 -155 -118
-224 -211 -91 -124 -88 -147 -88 587 0 729 5 693 -101 747 -61 31 -77 33 -134
12z"/></g>
</svg>