<?xml version="1.0" encoding="UTF-8" standalone="no"?>
<svg xmlns="http://www.w3.org/2000/svg" viewBox="0 0 430 446" width="430" height="446" preserveAspectRatio="xMidYMid meet" shape-rendering="geometricPrecision">
<g transform="translate(0.000000,446.000000) scale(0.100000,-0.100000)" fill="#101010" fill-rule="evenodd" stroke="none"><path d="M859 4255 c-3 -2 -34 -12 -70 -21 -117 -30 -196 -108 -235 -231 -23
-72 -24 -84 -24 -421 0 -396 6 -372 -89 -372 -144 0 -210 -38 -230 -130 -31
-146 51 -240 211 -240 118 0 108 54 108 -610 0 -650 4 -619 -81 -607 -143 19
-241 -59 -242 -194 -2 -129 47 -172 198 -177 65 -2 108 -8 114 -16 6 -7 11
-155 13 -376 4 -430 7 -446 120 -559 112 -111 -51 -102 1684 -99 1499 3 1499
3 1554 30 112 54 183 149 199 271 15 108 15 3339 0 3457 -17 138 -101 233
-244 277 -57 17 -2969 35 -2986 18z m2850 -379 c12 -14 17 -3277 6 -3297 -8
-12 -2792 -12 -2800 1 -7 12 -7 648 0 660 4 6 48 10 98 10 131 0 158 10 197
71 94 145 -7 299 -196 301 -116 1 -104 -66 -104 608 0 460 3 591 13 597 6 4
46 8 89 10 188 5 294 154 202 285 -45 64 -78 79 -194 85 -56 3 -103 9 -105 14
-8 11 -7 647 0 659 11 17 2779 14 2794 -4z M2944 3084 c-62 -14 -59 35 -59
-855 0 -948 -15 -850 133 -857 139 -7 206 30 232 128 20 74 9 1458 -12 1496
-39 71 -181 113 -294 88z"/></g>
</svg>