<?xml version="1.0" encoding="UTF-8" standalone="no"?>
<svg xmlns="http://www.w3.org/2000/svg" viewBox="0 0 896 888" width="896" height="888" preserveAspectRatio="xMidYMid meet" shape-rendering="geometricPrecision">
<g transform="translate(0.000000,888.000000) scale(0.100000,-0.100000)" fill="#151515" fill-rule="evenodd" stroke="none"><path d="M4185 6074 c-70 -8 -160 -26 -215 -43 -52 -16 -122 -35 -155 -42 -33
-6 -85 -24 -115 -40 -31 -16 -79 -36 -107 -44 -60 -18 -347 -168 -442 -231
-192 -128 -510 -434 -669 -645 -75 -99 -184 -268 -207 -319 -14 -30 -41 -86
-60 -125 -58 -117 -115 -280 -145 -415 -10 -47 -28 -112 -40 -145 -63 -178
-48 -913 23 -1110 8 -22 22 -74 32 -115 10 -41 33 -109 50 -150 18 -41 38 -91
44 -110 25 -78 176 -357 234 -433 20 -27 37 -53 37 -58 0 -11 182 -219 295
-338 72 -76 120 -118 263 -234 65 -52 294 -207 345 -234 178 -92 363 -166 508
-203 63 -16 159 -40 214 -55 220 -58 886 -43 1080 25 33 12 90 27 128 35 37 8
89 25 115 39 26 13 72 31 102 41 95 31 410 193 455 234 11 10 36 27 55 36 199
101 720 686 841 945 114 244 172 394 194 500 8 41 24 102 35 135 63 195 64
963 1 1112 -12 26 -29 86 -40 133 -11 47 -33 114 -49 150 -16 36 -36 88 -46
116 -93 281 -459 782 -721 985 -27 22 -75 60 -105 85 -30 25 -93 71 -140 103
-47 31 -114 77 -150 102 -36 26 -76 50 -90 54 -14 4 -72 29 -130 56 -145 67
-283 116 -374 134 -43 8 -111 26 -153 40 -127 44 -623 60 -898 29z m530 -594
c50 -6 122 -20 162 -31 40 -11 114 -27 165 -35 54 -8 113 -25 141 -40 26 -13
77 -31 113 -40 214 -49 642 -377 814 -624 134 -191 160 -229 160 -235 0 -4 19
-44 41 -88 86 -169 129 -294 151 -432 11 -71 27 -152 35 -180 41 -136 36 -401
-11 -585 -14 -53 -28 -120 -31 -150 -4 -30 -22 -93 -41 -140 -18 -47 -38 -107
-44 -134 -25 -114 -167 -334 -381 -588 -84 -100 -415 -347 -521 -389 -28 -11
-64 -29 -79 -40 -16 -11 -52 -28 -81 -39 -29 -10 -80 -30 -113 -43 -33 -14
-129 -37 -213 -52 -84 -14 -165 -31 -180 -37 -89 -34 -431 -26 -559 13 -37 12
-106 27 -154 34 -48 7 -117 27 -155 43 -38 16 -93 35 -121 41 -83 17 -281 130
-412 233 -29 24 -79 63 -110 88 -84 68 -227 217 -276 290 -25 36 -68 99 -96
140 -55 80 -152 261 -170 320 -6 19 -24 65 -40 101 -19 44 -36 113 -49 200
-12 74 -30 166 -40 204 -36 137 -33 402 6 535 9 30 24 101 34 156 10 56 32
132 48 170 16 38 35 93 41 122 19 91 128 278 251 432 42 52 83 106 92 119 31
45 214 205 318 277 58 41 123 87 145 103 22 16 65 39 95 51 30 12 69 30 86 41
86 53 254 109 402 133 81 14 161 30 178 37 60 24 267 34 399 19z M3802 2999
c-27 -10 -134 -87 -199 -141 -24 -21 -64 -51 -88 -68 -72 -49 -96 -130 -60
-199 39 -77 270 -259 425 -336 52 -26 124 -62 160 -80 36 -18 88 -36 115 -39
28 -4 91 -19 140 -33 114 -34 389 -39 485 -9 30 9 102 25 160 36 112 21 219
66 340 142 403 253 488 397 314 529 -33 25 -101 77 -152 117 -153 117 -187
118 -314 12 -99 -82 -219 -157 -293 -182 -156 -52 -463 -41 -583 21 -32 16
-82 41 -112 55 -30 14 -92 57 -136 96 -104 89 -142 104 -202 79z"/></g>
</svg>