<?xml version="1.0" encoding="UTF-8" standalone="no"?>
<svg xmlns="http://www.w3.org/2000/svg" viewBox="0 0 472 473" width="472" height="473" preserveAspectRatio="xMidYMid meet" shape-rendering="geometricPrecision">
<g transform="translate(0.000000,473.000000) scale(0.100000,-0.100000)" fill="#131313" fill-rule="evenodd" stroke="none"><path d="M2240 4509 c-40 -6 -71 -21 -89 -43 -20 -24 -16 -2292 4 -2323 22
-32 53 -38 205 -38 152 0 183 6 205 38 23 36 24 2301 0 2327 -32 36 -215 58
-325 39z M1265 4204 c-394 -237 -802 -709 -901 -1044 -9 -30 -24 -71 -34 -90
-127 -250 -156 -910 -55 -1228 14 -42 25 -83 25 -90 0 -43 138 -356 210 -477
235 -399 679 -773 1085 -915 28 -10 68 -24 90 -33 215 -82 574 -132 782 -109
294 32 370 43 416 58 27 9 75 22 106 29 78 18 179 60 366 153 414 205 859 704
1010 1132 12 36 30 85 39 110 143 407 135 953 -20 1375 -14 39 -35 95 -46 125
-64 173 -227 420 -412 622 -177 193 -528 448 -618 448 -63 0 -73 -22 -76 -183
-5 -221 -8 -216 181 -360 437 -333 667 -808 667 -1377 0 -178 0 -176 -55 -430
-65 -300 -355 -751 -595 -927 -191 -139 -515 -303 -599 -303 -11 0 -55 -12
-98 -27 -112 -39 -640 -43 -733 -5 -30 12 -82 27 -114 33 -33 6 -81 21 -108
35 -26 13 -53 24 -60 24 -34 0 -246 118 -400 222 -71 49 -152 124 -222 208
-332 397 -451 712 -451 1190 1 572 218 1020 660 1356 188 143 185 138 185 332
0 238 -34 260 -225 146z"/></g>
</svg>