<?xml version="1.0" encoding="UTF-8" standalone="no"?>
<svg xmlns="http://www.w3.org/2000/svg" viewBox="0 0 490 420" width="490" height="420" preserveAspectRatio="xMidYMid meet" shape-rendering="geometricPrecision">
<g transform="translate(0.000000,420.000000) scale(0.100000,-0.100000)" fill="#121212" fill-rule="evenodd" stroke="none"><path d="M2695 3970 c-1924 -6 -1767 2 -1985 -106 -567 -282 -617 -1100 -89
-1460 192 -131 235 -142 547 -151 222 -6 223 -6 240 -30 79 -113 100 -131 157
-138 101 -13 140 -1 185 58 92 122 -95 108 1419 107 1537 -1 1405 -11 1471
106 53 92 28 167 -90 269 -81 70 -132 139 -183 245 -55 116 -62 322 -14 424
15 32 27 64 27 70 0 39 116 187 201 257 122 100 113 232 -23 332 -34 26 132
24 -1863 17z m1353 -407 c2 -12 -8 -39 -21 -60 -14 -21 -28 -54 -32 -73 -3
-19 -16 -64 -28 -100 -52 -155 -23 -442 61 -608 48 -96 157 -87 -1088 -90
-967 -2 -1096 0 -1117 13 -23 15 -23 15 -23 354 0 415 20 376 -190 376 -210 0
-190 39 -190 -376 0 -404 17 -366 -165 -368 -202 -2 -335 20 -401 65 -199 137
-274 382 -187 610 39 103 226 262 323 274 30 4 730 7 1555 6 1500 -1 1500 -1
1503 -23z M364 1941 c-63 -17 -70 -23 -105 -93 -53 -105 -36 -157 95 -279 80
-75 142 -154 161 -208 7 -21 23 -58 36 -82 40 -78 35 -288 -11 -394 -57 -134
-136 -246 -203 -290 -43 -28 -109 -133 -109 -173 0 -43 56 -128 109 -165 40
-28 40 -28 1774 -27 1710 1 1837 3 1895 33 16 8 45 18 64 22 123 27 341 198
438 343 251 378 135 956 -237 1172 -23 14 -55 34 -69 46 -36 27 -138 71 -199
86 -47 11 -332 13 -2754 21 -681 2 -846 -1 -885 -12z m3498 -387 c494 -77 562
-706 99 -906 -76 -33 -76 -33 -1585 -36 -1119 -2 -1512 1 -1522 9 -21 17 -17
37 15 88 16 25 33 64 37 86 4 22 16 63 27 90 30 76 31 312 0 410 -11 39 -24
86 -28 105 -4 19 -18 54 -31 77 -29 49 -30 68 -6 82 32 19 2870 14 2994 -5z"/></g>
</svg>