<?xml version="1.0" encoding="UTF-8" standalone="no"?>
<svg xmlns="http://www.w3.org/2000/svg" viewBox="0 0 952 952" width="952" height="952" preserveAspectRatio="xMidYMid meet" shape-rendering="geometricPrecision">
<g transform="translate(0.000000,952.000000) scale(0.100000,-0.100000)" fill="#131313" fill-rule="evenodd" stroke="none"><path d="M4745 7283 c-16 -2 -65 -11 -108 -19 -43 -9 -140 -19 -216 -24 -116
-6 -148 -12 -197 -34 -33 -14 -93 -32 -136 -40 -42 -8 -94 -23 -115 -34 -21
-11 -64 -25 -95 -31 -31 -7 -68 -21 -82 -32 -14 -11 -50 -31 -80 -44 -30 -13
-57 -28 -60 -34 -4 -5 -30 -19 -59 -29 -58 -22 -137 -72 -212 -136 -27 -23
-97 -79 -155 -123 -153 -118 -219 -178 -297 -268 -141 -162 -280 -342 -320
-415 -102 -188 -183 -353 -194 -397 -7 -26 -23 -69 -36 -94 -13 -26 -28 -75
-34 -110 -5 -35 -21 -92 -35 -126 -16 -41 -28 -99 -35 -170 -5 -59 -14 -125
-19 -147 -20 -87 -24 -328 -6 -422 9 -49 20 -159 25 -244 8 -132 13 -163 34
-211 14 -31 31 -85 37 -120 6 -35 22 -89 35 -119 13 -30 29 -80 35 -110 6 -30
18 -69 26 -85 9 -17 40 -75 69 -130 29 -55 66 -122 84 -149 17 -28 31 -54 31
-59 0 -10 121 -174 184 -251 183 -220 215 -252 421 -420 121 -99 173 -135 259
-180 166 -88 307 -165 322 -177 7 -5 43 -16 82 -24 39 -8 92 -26 119 -39 26
-13 71 -27 98 -31 28 -4 80 -20 116 -36 44 -19 97 -32 160 -39 52 -6 132 -18
179 -26 151 -27 307 -29 475 -5 83 11 188 26 235 32 49 6 112 22 150 39 36 15
88 31 115 35 28 3 71 17 97 30 25 14 79 31 119 40 40 8 89 25 108 39 20 13
106 61 191 106 192 102 239 133 365 236 214 175 290 252 433 437 31 41 78 102
105 136 26 34 58 83 71 109 12 26 40 76 61 112 73 125 135 249 146 297 7 26
22 68 34 93 13 25 30 79 38 120 8 41 24 101 36 133 12 31 26 103 32 160 5 56
14 129 20 162 20 123 22 315 5 412 -9 50 -20 160 -25 245 -8 131 -13 161 -34
208 -14 30 -33 87 -41 126 -8 40 -23 89 -34 110 -11 22 -25 63 -31 92 -35 169
-173 265 -319 224 -43 -13 -140 -101 -153 -139 -18 -54 -7 -179 20 -232 12
-24 29 -75 37 -115 8 -39 26 -96 40 -126 18 -38 28 -85 35 -150 4 -52 16 -164
26 -248 14 -128 15 -164 4 -230 -7 -42 -18 -144 -25 -227 -10 -118 -18 -163
-38 -210 -14 -33 -31 -87 -38 -120 -13 -62 -59 -189 -87 -240 -9 -16 -31 -57
-50 -90 -18 -33 -45 -85 -60 -115 -14 -30 -49 -82 -77 -115 -28 -33 -78 -96
-111 -140 -94 -126 -390 -388 -505 -448 -19 -10 -66 -36 -105 -57 -135 -76
-255 -130 -318 -145 -35 -8 -84 -24 -110 -35 -25 -11 -97 -27 -159 -35 -63 -8
-129 -20 -148 -25 -43 -12 -291 -13 -385 0 -38 5 -137 14 -220 20 -121 9 -161
16 -210 37 -33 14 -94 32 -135 40 -41 8 -88 23 -105 33 -16 10 -53 25 -82 34
-28 10 -56 23 -62 30 -6 7 -30 21 -53 31 -24 11 -61 31 -83 45 -22 15 -47 29
-56 33 -16 5 -227 172 -332 261 -78 67 -299 341 -350 436 -32 59 -84 156 -110
205 -46 88 -78 167 -92 228 -8 37 -24 86 -36 108 -13 26 -24 75 -29 132 -5 51
-12 108 -16 127 -16 94 -29 276 -23 328 7 52 15 127 39 365 6 57 18 108 34
143 14 30 31 82 37 117 7 34 25 89 41 122 15 33 28 67 28 75 0 9 11 31 24 50
12 19 34 58 48 85 14 28 39 75 54 105 35 67 297 393 350 435 21 17 57 44 80
60 23 17 86 65 139 109 53 43 118 90 143 104 26 13 74 39 107 57 166 89 263
131 328 140 26 3 76 19 110 35 56 27 77 31 227 40 405 25 446 36 513 134 134
196 -28 422 -278 389z M5328 7210 c-18 -11 -33 -52 -43 -120 -4 -25 -18 -80
-31 -123 -29 -93 -31 -147 -6 -176 24 -31 163 -89 252 -107 41 -8 85 -22 98
-30 13 -9 49 -24 79 -35 31 -10 62 -24 69 -30 11 -9 69 -40 188 -101 22 -11
70 -46 106 -77 37 -31 95 -78 129 -106 151 -120 222 -191 312 -312 117 -156
124 -158 270 -68 179 111 229 168 201 230 -24 51 -319 396 -378 439 -21 17
-66 53 -99 81 -33 28 -72 60 -86 71 -14 10 -53 39 -85 64 -51 39 -199 120
-379 207 -27 14 -57 29 -65 34 -64 39 -240 105 -312 118 -31 6 -75 19 -97 31
-43 21 -95 26 -123 10z M4190 5918 c-256 -42 -450 -205 -523 -438 -31 -95 -31
-95 -34 -730 -4 -805 6 -858 214 -1050 168 -154 217 -170 539 -170 211 0 211
0 310 51 242 124 378 326 325 481 -41 120 -77 155 -189 183 -105 27 -154 7
-268 -110 -111 -114 -177 -138 -294 -105 -113 31 -110 14 -110 690 0 612 0
612 30 640 50 46 90 60 179 60 98 0 123 -10 161 -69 127 -193 285 -224 422
-84 91 93 107 181 53 288 -152 302 -433 427 -815 363z M5870 5367 c-3 -3 -45
-10 -94 -16 -64 -8 -100 -17 -125 -34 -20 -13 -51 -29 -70 -35 -97 -34 -244
-186 -310 -322 -46 -95 -46 -95 -46 -692 0 -597 0 -597 55 -654 109 -112 241
-119 354 -18 83 75 80 56 86 599 6 555 5 548 96 617 58 44 96 48 164 17 186
-86 405 70 377 269 -21 149 -118 235 -285 253 -48 5 -112 12 -142 15 -30 3
-57 4 -60 1z"/></g>
</svg>