<?xml version="1.0" encoding="UTF-8" standalone="no"?>
<svg xmlns="http://www.w3.org/2000/svg" viewBox="0 0 1116 1116" width="1116" height="1116" preserveAspectRatio="xMidYMid meet" shape-rendering="geometricPrecision">
<g transform="translate(0.000000,1116.000000) scale(0.100000,-0.100000)" fill="#708981" fill-rule="evenodd" stroke="none"><path d="M5470 9169 c-250 -8 -345 -18 -425 -46 -22 -8 -93 -18 -157 -23 -77
-6 -132 -15 -161 -28 -24 -11 -68 -22 -99 -26 -30 -4 -83 -20 -118 -37 -34
-16 -68 -29 -75 -29 -7 0 -42 -15 -77 -33 -35 -19 -80 -36 -100 -40 -20 -3
-54 -17 -75 -31 -21 -14 -44 -26 -51 -26 -8 0 -32 -13 -55 -30 -23 -16 -55
-31 -72 -34 -16 -3 -42 -15 -58 -27 -16 -11 -61 -37 -100 -58 -40 -20 -90 -49
-112 -64 -22 -15 -44 -27 -50 -27 -5 0 -21 -9 -35 -20 -14 -11 -31 -20 -38
-20 -7 0 -28 -11 -45 -24 -18 -13 -42 -27 -55 -31 -12 -3 -64 -47 -115 -97
-50 -50 -110 -102 -132 -116 -83 -51 -179 -139 -250 -226 -40 -50 -99 -118
-132 -151 -32 -33 -82 -89 -111 -125 -28 -36 -65 -79 -82 -97 -16 -18 -30 -38
-30 -46 0 -7 -13 -26 -30 -42 -16 -15 -32 -42 -36 -59 -3 -17 -16 -42 -29 -56
-21 -23 -40 -57 -79 -140 -9 -19 -36 -68 -61 -108 -25 -41 -45 -79 -45 -86 0
-6 -8 -27 -19 -46 -85 -159 -111 -215 -111 -243 0 -18 -14 -54 -30 -82 -16
-27 -30 -56 -30 -63 0 -8 -13 -44 -30 -81 -16 -38 -32 -95 -36 -127 -4 -32
-17 -81 -30 -109 -15 -33 -25 -79 -30 -135 -3 -47 -17 -127 -30 -178 -24 -92
-24 -101 -25 -570 -1 -488 1 -512 41 -672 5 -19 12 -71 16 -115 4 -53 14 -96
30 -127 16 -31 24 -65 24 -100 1 -32 8 -67 20 -88 28 -52 60 -121 60 -130 0
-4 14 -34 30 -65 20 -38 30 -72 30 -100 0 -24 4 -46 9 -49 9 -6 111 -206 111
-218 0 -4 23 -43 50 -88 28 -45 62 -106 76 -136 14 -29 41 -72 60 -95 22 -26
34 -51 34 -70 0 -19 11 -41 30 -62 58 -63 146 -166 215 -253 140 -175 394
-425 452 -445 7 -2 57 -48 113 -101 55 -54 105 -98 111 -98 6 0 24 -11 41 -25
16 -14 38 -25 48 -25 10 0 31 -10 47 -23 42 -34 76 -55 181 -108 52 -27 102
-55 112 -64 9 -8 25 -15 36 -15 11 0 38 -10 59 -21 22 -12 63 -32 90 -46 28
-14 59 -33 70 -43 11 -9 38 -20 60 -22 22 -3 58 -17 79 -32 21 -14 53 -26 70
-26 17 0 58 -13 91 -28 33 -16 78 -32 100 -36 22 -4 70 -21 107 -37 52 -23 81
-29 135 -29 38 0 103 -9 145 -20 247 -65 1059 -65 1303 -1 44 11 106 21 138
21 35 0 88 10 130 24 40 13 88 27 107 31 19 4 64 23 99 41 35 19 78 34 95 34
19 0 47 12 70 30 28 21 51 30 77 30 25 0 47 8 66 24 16 14 43 28 59 32 16 4
47 19 69 34 22 15 56 32 76 39 20 6 56 24 80 39 24 15 67 38 94 51 28 13 59
32 70 41 11 10 41 28 68 40 26 12 50 26 53 31 3 5 14 9 24 9 11 0 34 13 53 29
18 16 46 33 61 37 15 3 30 14 33 23 10 26 145 160 178 176 17 8 54 33 83 55
29 22 57 40 62 40 5 0 23 20 40 45 17 24 40 51 53 60 12 8 45 44 72 79 28 35
88 105 133 156 46 50 93 107 103 125 11 19 36 43 54 54 22 13 36 30 40 48 11
51 128 268 178 328 39 47 85 130 97 176 10 38 70 158 92 186 5 6 16 40 24 74
8 34 23 73 33 88 23 32 101 260 101 296 0 14 11 51 24 83 13 31 27 89 31 127
4 39 18 118 31 177 38 170 39 981 0 1168 -14 69 -30 163 -36 209 -5 47 -18 97
-29 115 -10 17 -24 66 -30 109 -6 43 -22 100 -36 127 -14 27 -25 57 -25 67 0
10 -14 38 -30 62 -17 24 -31 55 -31 68 -1 12 -2 35 -3 51 0 15 -11 40 -23 56
-13 16 -23 34 -23 40 0 7 -14 34 -32 62 -17 27 -37 67 -44 89 -6 22 -28 67
-48 100 -20 33 -46 80 -58 105 -13 25 -44 72 -70 106 -28 36 -49 76 -54 100
-4 21 -19 54 -33 72 -69 87 -163 192 -171 192 -5 0 -16 13 -24 28 -13 26 -63
81 -204 225 -31 33 -61 67 -67 76 -14 24 -177 171 -190 171 -5 0 -53 41 -105
90 -51 50 -101 90 -111 90 -9 0 -33 14 -54 30 -21 17 -42 30 -48 30 -11 0
-114 66 -121 79 -3 4 -40 23 -83 41 -43 18 -98 48 -122 67 -24 18 -50 33 -58
33 -16 0 -167 72 -208 100 -16 11 -44 20 -61 20 -16 0 -52 11 -80 24 -192 92
-190 91 -312 112 -17 3 -63 16 -102 30 -52 18 -90 24 -154 24 -60 0 -95 5
-127 19 -62 27 -222 52 -315 49 -43 -1 -106 1 -139 4 -33 3 -175 2 -315 -3z
m445 -59 c159 -10 285 -28 338 -49 15 -6 81 -17 145 -25 150 -19 314 -58 394
-95 94 -43 183 -78 220 -86 18 -4 48 -17 68 -29 19 -12 73 -39 120 -60 47 -22
99 -49 115 -61 28 -19 145 -75 159 -75 6 0 181 -118 226 -153 14 -10 39 -25
55 -32 17 -7 57 -36 90 -64 33 -28 89 -75 125 -105 69 -57 225 -215 350 -356
41 -46 108 -118 149 -159 84 -87 117 -133 158 -217 16 -32 46 -81 67 -108 21
-27 53 -79 71 -115 18 -36 49 -93 69 -125 20 -33 36 -66 36 -73 0 -7 23 -59
51 -116 28 -56 57 -125 65 -153 7 -29 32 -94 55 -145 52 -118 96 -274 113
-409 8 -58 26 -156 41 -218 56 -241 58 -834 5 -1097 -17 -82 -37 -193 -44
-245 -24 -162 -46 -241 -120 -420 -31 -74 -56 -141 -56 -148 0 -7 -17 -47 -38
-90 -22 -42 -51 -109 -66 -148 -15 -39 -45 -96 -67 -125 -22 -30 -54 -81 -71
-114 -17 -33 -43 -78 -58 -100 -45 -65 -100 -155 -100 -163 0 -40 -392 -468
-550 -601 -30 -25 -107 -91 -172 -146 -125 -108 -127 -109 -298 -213 -142 -86
-226 -133 -310 -173 -256 -122 -320 -150 -410 -179 -30 -9 -75 -26 -100 -38
-103 -47 -307 -93 -640 -144 -212 -32 -822 -18 -1045 24 -60 11 -152 27 -204
34 -51 7 -115 22 -141 33 -27 12 -72 27 -102 35 -29 8 -96 30 -148 49 -52 19
-120 43 -150 54 -30 11 -77 34 -103 51 -27 17 -90 47 -140 67 -51 20 -99 42
-107 49 -8 7 -49 28 -90 47 -41 18 -124 67 -183 109 -60 41 -123 84 -141 95
-56 34 -130 92 -161 125 -16 18 -73 67 -125 110 -166 135 -481 485 -576 638
-26 42 -63 95 -81 117 -19 21 -55 82 -82 135 -26 52 -62 117 -80 144 -17 28
-31 53 -31 57 0 4 -25 60 -55 124 -30 63 -55 120 -55 126 0 23 -65 198 -97
260 -19 37 -38 93 -43 125 -4 33 -12 70 -18 84 -5 14 -13 61 -17 105 -4 43
-15 111 -25 150 -50 195 -54 241 -54 635 0 385 2 412 46 600 5 25 18 97 28
160 26 168 58 297 86 354 14 28 43 103 65 168 21 64 52 141 67 170 15 29 41
82 56 118 15 36 51 106 80 155 29 50 59 105 66 123 7 18 35 63 62 100 28 37
65 93 84 125 46 78 135 189 184 228 22 18 56 53 75 78 93 120 231 262 338 350
65 53 144 117 175 144 32 26 64 50 72 55 8 4 67 41 130 83 132 87 374 220 475
261 16 6 46 22 66 34 20 12 56 28 80 34 24 7 49 15 54 20 6 4 43 19 83 34 40
14 85 32 100 39 15 8 61 22 102 32 41 9 94 23 117 31 23 7 102 22 177 33 74
10 140 22 145 26 15 9 106 23 203 31 46 3 85 8 87 10 8 8 409 3 566 -6z M5289
6962 c-124 -13 -122 -5 -129 -462 -7 -497 1 -479 -224 -491 -334 -20 -350 -57
-122 -285 56 -55 162 -163 236 -240 473 -489 534 -544 594 -544 45 0 119 66
426 381 173 178 358 366 410 419 207 206 188 254 -105 269 -260 13 -247 -11
-255 496 -5 413 -6 416 -62 447 -26 13 -649 21 -769 10z m701 -56 c88 -16 86
-4 94 -453 9 -501 -1 -478 216 -488 270 -13 289 -51 108 -209 -49 -42 -88 -84
-88 -94 0 -9 -94 -111 -209 -227 -115 -115 -253 -256 -308 -313 -99 -103 -99
-103 -161 -105 -63 -1 -63 -1 -310 249 -136 137 -284 292 -329 344 -44 52
-112 125 -149 161 -148 141 -126 179 111 190 237 12 223 -18 231 489 8 449 6
440 89 456 84 15 622 16 705 0z M5070 4530 c-336 -4 -450 -8 -467 -18 -69 -39
-83 -177 -23 -236 30 -31 30 -31 1038 -34 712 -2 1018 0 1045 8 103 30 112
224 11 266 -37 16 -837 23 -1604 14z m1601 -77 c25 -29 18 -99 -14 -130 -43
-43 -1997 -42 -2034 1 -35 41 -26 129 14 139 60 16 2021 6 2034 -10z"/></g>
<g transform="translate(0.000000,1116.000000) scale(0.100000,-0.100000)" fill="#64c6a0" fill-rule="evenodd" stroke="none"><path d="M5349 9116 c-2 -2 -41 -7 -87 -10 -97 -8 -188 -22 -203 -31 -5 -4
-71 -16 -145 -26 -75 -11 -154 -26 -177 -33 -23 -8 -76 -22 -117 -31 -41 -10
-87 -24 -102 -32 -15 -7 -60 -25 -100 -39 -40 -15 -77 -30 -83 -34 -5 -5 -30
-13 -54 -20 -24 -6 -60 -22 -80 -34 -20 -12 -50 -28 -66 -34 -101 -41 -343
-174 -475 -261 -63 -42 -122 -79 -130 -83 -8 -5 -40 -29 -72 -55 -31 -27 -110
-91 -175 -145 -117 -96 -196 -177 -327 -335 -37 -46 -81 -92 -97 -104 -37 -26
-129 -140 -173 -216 -19 -32 -56 -88 -84 -125 -27 -37 -55 -82 -62 -100 -7
-18 -37 -73 -66 -123 -29 -49 -65 -119 -80 -155 -15 -36 -41 -89 -56 -118 -15
-29 -46 -106 -67 -170 -22 -65 -51 -140 -65 -168 -28 -57 -60 -186 -86 -354
-10 -63 -23 -135 -28 -160 -44 -188 -46 -215 -46 -600 0 -394 4 -440 54 -635
10 -39 21 -107 25 -150 4 -44 12 -91 17 -105 6 -14 14 -51 18 -84 5 -32 24
-88 43 -125 32 -62 97 -237 97 -260 0 -6 25 -63 55 -126 30 -64 55 -120 55
-124 0 -4 14 -29 31 -57 18 -27 54 -92 80 -144 27 -53 63 -114 82 -135 18 -22
55 -75 81 -117 95 -153 410 -503 576 -638 52 -43 109 -92 125 -110 31 -33 105
-91 161 -125 18 -11 81 -54 141 -95 59 -42 142 -91 183 -109 41 -19 82 -40 90
-47 8 -7 56 -29 107 -49 50 -20 113 -50 140 -67 26 -17 73 -40 103 -51 30 -11
98 -35 150 -54 52 -19 119 -41 148 -49 30 -8 75 -23 102 -35 26 -11 90 -26
141 -33 52 -7 144 -23 204 -34 223 -42 833 -56 1045 -24 333 51 537 97 640
144 25 12 70 29 100 38 90 29 154 57 410 179 84 40 168 87 310 173 171 104
173 105 298 213 65 55 142 121 172 146 157 132 550 561 550 601 0 8 55 98 100
163 15 22 41 67 58 100 17 33 49 84 71 114 22 29 52 86 67 125 15 39 44 106
66 148 21 43 38 83 38 90 0 7 25 74 56 148 74 179 96 258 120 420 7 52 27 163
44 245 53 263 51 856 -5 1097 -15 62 -33 160 -41 218 -17 135 -61 291 -113
409 -23 51 -48 116 -55 145 -8 28 -37 97 -65 153 -28 57 -51 109 -51 116 0 7
-16 40 -36 73 -20 32 -51 89 -69 125 -18 36 -50 88 -71 115 -21 27 -51 76 -67
108 -41 84 -74 130 -158 217 -41 41 -108 113 -149 159 -125 141 -281 299 -350
356 -36 30 -92 77 -125 105 -33 28 -73 57 -90 64 -16 7 -41 22 -55 32 -45 35
-220 153 -226 153 -14 0 -131 56 -159 75 -16 12 -68 39 -115 61 -47 21 -101
48 -120 60 -20 12 -50 25 -68 29 -37 8 -126 43 -220 86 -80 37 -244 76 -394
95 -64 8 -130 19 -145 25 -99 39 -870 86 -904 55z m709 -2164 c56 -31 57 -34
62 -447 8 -507 -5 -483 255 -496 293 -15 312 -63 105 -269 -52 -53 -237 -241
-410 -419 -308 -316 -381 -381 -427 -381 -59 0 -157 88 -538 487 -104 109
-235 243 -291 298 -229 226 -212 264 122 284 225 12 217 -6 224 491 7 457 5
449 129 462 120 11 743 3 769 -10z m616 -2436 c94 -39 95 -223 1 -262 -58 -24
-2027 -21 -2075 4 -79 39 -77 209 3 254 46 27 2008 30 2071 4z"/></g>
</svg>