<?xml version="1.0" encoding="UTF-8" standalone="no"?>
<svg xmlns="http://www.w3.org/2000/svg" viewBox="0 0 952 952" width="952" height="952" preserveAspectRatio="xMidYMid meet" shape-rendering="geometricPrecision">
<g transform="translate(0.000000,952.000000) scale(0.100000,-0.100000)" fill="#101010" fill-rule="evenodd" stroke="none"><path d="M2933 7076 c-21 -18 -52 -40 -69 -49 -51 -26 -163 -156 -175 -202 -6
-22 -23 -58 -37 -80 -43 -64 -42 -3983 0 -4033 15 -18 30 -49 34 -70 11 -59
149 -217 198 -226 19 -4 50 -20 71 -36 54 -43 -21 -41 1872 -38 1752 3 1752 3
1780 30 15 14 45 31 65 36 66 18 213 184 224 252 4 23 18 58 32 78 39 56 41
156 39 2127 -2 1770 -2 1770 -34 1829 -23 39 -33 71 -33 100 0 44 -132 194
-250 284 -68 52 -3659 51 -3717 -2z m3391 -545 c8 -12 8 -3600 1 -3611 -8 -13
-3052 -13 -3059 -1 -8 12 -9 3599 -1 3611 8 13 3052 14 3059 1z M3569 6315
c-19 -14 -47 -30 -62 -36 -46 -18 -47 -35 -47 -537 0 -521 -1 -512 57 -527 16
-3 43 -18 62 -33 87 -66 258 -12 312 99 15 30 36 62 47 72 17 15 18 24 10 59
-5 23 -8 109 -8 192 1 83 0 166 -2 185 -4 48 2 49 287 50 258 2 250 0 323 60
42 34 42 34 42 178 0 160 6 144 -83 215 -59 47 -67 48 -496 48 -408 0 -408 0
-442 -25z M5800 4302 c-151 -73 -170 -119 -166 -407 2 -121 7 -229 11 -239 18
-41 -11 -46 -292 -46 -368 0 -353 9 -353 -220 0 -178 0 -179 87 -220 102 -48
110 -49 490 -50 353 -1 353 -1 395 23 24 14 60 30 80 37 81 25 78 2 78 537 0
537 11 466 -89 551 -45 37 -191 58 -241 34z"/></g>
</svg>