<?xml version="1.0" encoding="UTF-8" standalone="no"?>
<svg xmlns="http://www.w3.org/2000/svg" viewBox="0 0 490 435" width="490" height="435" preserveAspectRatio="xMidYMid meet" shape-rendering="geometricPrecision">
<g transform="translate(0.000000,435.000000) scale(0.100000,-0.100000)" fill="#ee7470" fill-rule="evenodd" stroke="none"><path d="M1480 4119 c-58 -12 -121 -102 -106 -151 3 -7 7 -26 11 -43 4 -20 42
-65 116 -137 192 -190 185 -194 -276 -203 -496 -8 -545 -17 -693 -122 -182
-129 -269 -301 -302 -599 -23 -203 -7 -1751 19 -1858 81 -332 324 -541 671
-577 130 -13 141 -18 188 -81 118 -160 365 -159 467 2 51 81 -16 75 850 75
843 0 836 0 884 -57 164 -196 334 -194 496 6 30 37 30 37 155 51 347 42 543
198 654 524 65 188 66 205 66 1075 0 769 0 769 -36 920 -62 262 -167 443 -294
507 -25 12 -58 31 -73 42 -15 10 -50 25 -78 33 -27 8 -73 21 -101 29 -40 11
-133 16 -373 20 -487 9 -504 19 -330 195 116 117 135 171 96 263 -25 58 -48
70 -125 65 -84 -5 -129 -38 -354 -255 -289 -279 -259 -264 -560 -263 -214 1
-279 7 -309 31 -36 28 -340 309 -383 354 -119 124 -204 171 -280 154z m670
-1306 c58 -32 124 -71 147 -86 24 -15 45 -27 48 -27 3 0 52 -29 108 -64 56
-35 121 -73 144 -84 22 -12 111 -63 197 -114 85 -51 206 -122 268 -157 224
-126 338 -216 338 -266 0 -73 -103 -166 -290 -260 -30 -15 -71 -40 -90 -55
-19 -15 -71 -46 -115 -69 -44 -23 -86 -48 -95 -55 -8 -7 -55 -35 -105 -61
-103 -55 -226 -127 -270 -160 -16 -12 -75 -46 -130 -77 -55 -30 -133 -73 -172
-96 -171 -95 -228 -97 -275 -9 -27 49 -42 1474 -18 1592 28 135 130 151 310
48z"/></g>
</svg>