<?xml version="1.0" encoding="UTF-8" standalone="no"?>
<svg xmlns="http://www.w3.org/2000/svg" viewBox="0 0 896 888" width="896" height="888" preserveAspectRatio="xMidYMid meet" shape-rendering="geometricPrecision">
<g transform="translate(0.000000,888.000000) scale(0.100000,-0.100000)" fill="#141414" fill-rule="evenodd" stroke="none"><path d="M5930 5830 c-580 -4 -875 -9 -895 -17 -17 -5 -50 -20 -74 -33 -24
-12 -66 -29 -93 -37 -27 -8 -66 -29 -87 -48 -21 -19 -58 -43 -83 -54 -25 -11
-58 -35 -73 -55 -43 -56 -68 -57 -123 -4 -50 48 -95 75 -282 169 -165 83 -117
80 -1130 77 -1012 -3 -910 7 -1020 -100 -87 -83 -80 112 -80 -2200 0 -2359
-10 -2129 94 -2233 93 -92 17 -86 1038 -88 903 -2 903 -2 1018 -50 85 -35 135
-64 190 -108 164 -133 271 -136 437 -14 238 175 234 175 1288 175 790 0 851 2
906 30 42 22 129 101 147 133 28 52 26 4225 -2 4277 -43 79 -115 149 -169 164
-79 22 -85 22 -1007 16z m-1940 -647 c135 -66 166 -98 227 -238 48 -110 48
-110 50 -877 1 -805 1 -793 47 -823 32 -21 448 -27 484 -7 56 32 54 -5 55 829
2 768 2 768 33 833 17 36 39 85 48 110 25 70 94 131 206 182 95 43 95 43 732
46 617 2 637 2 647 -16 21 -39 14 -3386 -7 -3405 -15 -14 -104 -16 -792 -20
-818 -4 -837 -5 -929 -52 -25 -12 -65 -26 -88 -30 -23 -3 -62 -20 -88 -36 -58
-36 -83 -36 -141 0 -25 17 -60 33 -77 37 -17 3 -62 23 -100 43 -70 36 -70 36
-871 39 -712 3 -802 5 -818 19 -26 24 -27 3376 -1 3405 16 18 47 19 647 16
631 -3 631 -3 736 -55z"/></g>
</svg>