<?xml version="1.0" encoding="UTF-8" standalone="no"?>
<svg xmlns="http://www.w3.org/2000/svg" viewBox="0 0 952 952" width="952" height="952" preserveAspectRatio="xMidYMid meet" shape-rendering="geometricPrecision">
<g transform="translate(0.000000,952.000000) scale(0.100000,-0.100000)" fill="#131313" fill-rule="evenodd" stroke="none"><path d="M4638 7275 c-54 -8 -102 -16 -107 -19 -5 -4 -63 -10 -128 -15 -90 -7
-137 -17 -198 -39 -44 -16 -102 -33 -130 -37 -27 -3 -80 -20 -117 -36 -36 -16
-77 -29 -91 -29 -13 0 -44 -11 -68 -25 -24 -14 -66 -36 -94 -50 -27 -14 -84
-46 -125 -70 -41 -25 -93 -53 -115 -64 -22 -10 -54 -29 -70 -42 -17 -13 -64
-47 -105 -74 -148 -99 -496 -459 -604 -625 -27 -41 -63 -97 -81 -125 -29 -45
-58 -100 -145 -275 -15 -30 -33 -73 -40 -95 -7 -22 -26 -67 -42 -100 -15 -33
-28 -71 -28 -85 0 -14 -14 -63 -31 -110 -20 -56 -34 -120 -40 -185 -5 -55 -16
-125 -23 -155 -31 -123 -29 -402 4 -605 6 -33 15 -107 20 -165 6 -72 19 -132
39 -190 17 -47 31 -98 31 -115 0 -16 13 -57 29 -91 16 -33 33 -83 39 -110 11
-49 72 -177 147 -304 21 -36 50 -85 64 -110 144 -253 355 -485 657 -726 78
-62 260 -179 294 -189 14 -4 41 -18 60 -31 19 -13 54 -30 78 -38 24 -9 56 -25
71 -36 16 -11 53 -26 83 -34 30 -8 77 -25 104 -39 28 -14 75 -30 106 -36 31
-5 84 -22 118 -36 45 -19 90 -28 173 -34 62 -5 141 -17 177 -27 95 -26 444
-26 545 0 39 10 118 22 176 26 77 6 122 15 166 34 33 14 93 32 132 40 40 8 87
24 106 36 19 11 64 24 105 29 56 7 80 16 109 38 20 16 81 54 136 85 183 101
225 127 308 190 313 238 567 516 703 767 14 25 43 75 64 111 62 102 128 240
141 295 7 28 23 72 36 99 14 26 29 76 34 110 6 33 21 89 34 122 17 43 28 97
35 180 6 66 15 146 21 179 25 149 26 227 8 380 -10 83 -23 206 -29 274 -8 85
-18 143 -35 188 -14 36 -30 94 -35 128 -6 35 -24 92 -40 127 -17 35 -30 69
-30 77 0 14 -67 171 -97 226 -9 17 -25 48 -36 70 -169 344 -605 804 -935 986
-24 13 -74 41 -110 61 -37 21 -89 49 -117 63 -27 14 -61 34 -75 45 -14 11 -49
24 -77 30 -29 5 -71 19 -94 30 -22 12 -75 28 -117 36 -43 8 -102 25 -134 39
-43 19 -84 27 -175 34 -65 5 -125 12 -133 15 -81 31 -348 42 -502 21z m414
-510 c231 -23 235 -23 277 -44 21 -11 70 -25 107 -31 38 -6 96 -24 129 -40 33
-16 74 -32 90 -36 17 -4 55 -20 85 -35 30 -16 76 -37 102 -48 83 -34 81 -49
-13 -144 -249 -250 -512 -622 -546 -772 -34 -150 -18 -240 57 -331 110 -133
236 -155 545 -96 154 30 402 44 433 25 17 -10 22 -22 20 -41 -3 -27 -3 -27
-163 -38 -88 -6 -180 -17 -205 -24 -25 -7 -105 -20 -178 -30 -100 -14 -142
-24 -175 -43 -23 -14 -62 -30 -86 -37 -119 -32 -289 -175 -385 -324 -210 -325
-83 -896 254 -1136 30 -22 96 -67 145 -101 50 -34 101 -71 115 -83 14 -12 38
-30 53 -40 48 -30 53 -55 23 -129 -14 -36 -26 -78 -26 -94 0 -15 -14 -57 -31
-93 -16 -35 -35 -87 -41 -115 -6 -27 -21 -70 -34 -95 -13 -25 -24 -50 -24 -56
0 -19 -30 -38 -89 -55 -31 -9 -81 -26 -111 -37 -30 -11 -86 -23 -125 -27 -38
-3 -101 -12 -140 -20 -179 -35 -195 -31 -195 59 -1 28 -7 67 -15 86 -7 19 -25
65 -39 102 -31 81 -87 156 -201 268 -117 115 -142 152 -155 234 -11 71 -34
122 -136 311 -44 81 -224 251 -324 307 -135 74 -272 100 -405 78 -33 -6 -116
-15 -185 -21 -84 -7 -147 -18 -196 -35 -40 -14 -114 -31 -164 -40 -52 -8 -113
-25 -142 -40 -64 -33 -89 -24 -111 38 -50 142 -87 274 -87 306 0 20 -5 64 -10
97 -13 76 -40 328 -40 377 0 64 68 127 155 143 22 4 65 15 95 26 179 61 214
48 235 -91 4 -25 17 -63 28 -85 11 -22 28 -65 37 -96 52 -170 348 -431 515
-454 28 -4 73 -18 102 -31 61 -28 96 -30 149 -8 22 9 73 24 115 33 106 24 246
118 284 192 53 101 45 294 -16 412 -10 21 -28 69 -38 106 -11 38 -28 86 -39
107 -11 22 -32 73 -45 114 -14 41 -32 95 -42 120 -72 188 77 391 310 422 351
47 655 452 542 723 -13 33 -30 76 -36 95 -20 63 -157 200 -260 260 -50 29 -88
56 -85 61 8 14 166 11 336 -6z m-842 -394 c41 -11 115 -26 165 -31 146 -17
284 -97 256 -148 -24 -45 -67 -69 -137 -76 -38 -4 -94 -18 -124 -31 -30 -13
-75 -29 -99 -35 -64 -17 -200 -88 -246 -129 -48 -42 -135 -149 -135 -165 0 -6
-14 -31 -30 -56 -17 -25 -35 -63 -41 -85 -5 -22 -22 -67 -36 -100 -39 -88 -46
-282 -13 -370 12 -33 32 -97 45 -141 12 -45 30 -92 39 -105 8 -13 22 -53 31
-87 9 -35 27 -87 41 -115 42 -90 26 -104 -69 -59 -102 49 -170 139 -188 252
-11 68 -73 215 -133 313 -98 162 -323 231 -555 171 -157 -40 -178 -25 -122 89
16 34 51 108 76 164 80 177 220 368 405 553 188 189 228 214 360 220 184 9
426 -5 510 -29z m2178 -270 c106 -123 196 -240 234 -304 50 -85 138 -262 138
-279 0 -7 11 -34 25 -60 14 -26 32 -77 40 -113 9 -36 27 -97 41 -136 14 -39
23 -76 21 -84 -3 -7 0 -18 6 -24 6 -6 8 -11 4 -11 -4 0 -9 0 -12 0 -3 0 -5 3
-6 8 0 4 -4 12 -9 17 -4 6 -19 46 -33 90 -24 77 -70 187 -104 250 -9 17 -30
55 -46 85 -96 178 -196 225 -387 183 -52 -12 -140 -24 -195 -28 -55 -4 -126
-14 -157 -22 -114 -31 -111 -12 32 167 145 181 294 330 332 330 9 0 43 -31 76
-69z m536 -1258 c14 -110 13 -317 -2 -403 -7 -36 -16 -109 -22 -163 -6 -60
-19 -119 -34 -155 -13 -31 -29 -82 -35 -112 -7 -30 -20 -69 -30 -86 -10 -17
-24 -48 -31 -69 -13 -38 -82 -175 -136 -270 -118 -207 -499 -607 -402 -422 43
80 34 235 -19 322 -39 66 -126 155 -181 184 -13 7 -58 40 -102 74 -43 34 -106
80 -140 101 -217 139 -319 367 -245 548 40 99 157 178 286 193 30 4 110 18
179 31 69 14 179 29 245 35 137 10 228 24 300 44 28 8 83 19 124 25 41 6 85
19 100 29 31 23 101 137 101 167 0 11 3 24 7 28 15 14 26 -16 37 -101z m-3136
-1295 c72 -21 172 -91 172 -121 0 -5 13 -31 29 -56 16 -25 35 -68 42 -96 7
-27 22 -73 34 -101 13 -29 26 -70 30 -93 10 -60 72 -147 176 -245 104 -100
162 -170 157 -194 -6 -27 -118 -21 -193 10 -33 14 -80 29 -105 33 -51 8 -325
141 -370 180 -8 7 -31 21 -50 30 -135 69 -354 258 -511 443 -95 113 -97 132
-11 132 16 0 58 13 93 30 54 25 84 31 199 40 74 7 153 15 175 20 22 4 45 8 50
9 6 1 43 -9 83 -21z"/></g>
</svg>