<?xml version="1.0" encoding="UTF-8" standalone="no"?>
<svg xmlns="http://www.w3.org/2000/svg" viewBox="0 0 960 960" width="960" height="960" preserveAspectRatio="xMidYMid meet" shape-rendering="geometricPrecision">
<g transform="translate(0.000000,960.000000) scale(0.100000,-0.100000)" fill="#151515" fill-rule="evenodd" stroke="none"><path d="M4605 8136 c-94 -41 -97 -55 -93 -466 4 -475 -11 -455 338 -455 356
0 345 -15 345 476 0 481 20 453 -328 456 -178 2 -239 0 -262 -11z M6968 7325
c-63 -23 -88 -45 -303 -259 -256 -255 -255 -254 -255 -323 0 -78 26 -119 158
-252 241 -242 251 -240 610 123 318 322 319 330 70 567 -181 171 -191 177
-280 144z M2592 7303 c-63 -43 -297 -277 -311 -312 -34 -81 20 -162 275 -411
332 -325 349 -327 595 -81 224 224 223 227 -89 546 -249 254 -289 285 -377
285 -40 0 -61 -6 -93 -27z M4507 7040 c-81 -10 -332 -87 -472 -146 -44 -19
-100 -41 -125 -49 -25 -9 -61 -26 -81 -39 -20 -13 -68 -40 -108 -60 -223 -113
-561 -403 -687 -591 -29 -44 -74 -109 -99 -145 -82 -117 -183 -329 -260 -545
-24 -66 -53 -147 -65 -179 -71 -197 -66 -821 10 -1039 22 -65 45 -141 51 -170
25 -119 302 -650 374 -717 15 -14 53 -59 86 -100 59 -77 225 -229 314 -290 28
-18 87 -60 131 -92 80 -58 259 -159 306 -173 12 -4 78 -31 144 -61 67 -30 148
-59 180 -65 33 -5 104 -25 159 -44 172 -58 563 -72 856 -31 177 25 474 135
749 278 245 127 560 397 673 576 27 42 59 88 72 102 34 38 154 234 169 277 8
21 37 87 65 147 29 60 70 170 93 244 22 74 47 150 55 169 64 153 48 841 -23
1025 -19 48 -34 93 -34 99 0 62 -191 463 -288 604 -119 172 -133 190 -203 270
-167 189 -410 373 -644 489 -217 107 -324 153 -374 161 -24 4 -89 23 -145 41
-149 51 -643 81 -879 54z m481 -680 c46 -6 144 -26 219 -45 75 -19 144 -35
152 -35 39 0 334 -152 423 -218 287 -213 482 -488 582 -820 110 -365 111 -509
10 -902 -137 -534 -601 -991 -1119 -1101 -49 -11 -103 -24 -120 -29 -98 -31
-288 -43 -405 -25 -205 31 -464 99 -539 142 -36 21 -82 45 -101 52 -61 25
-227 138 -267 182 -21 24 -56 59 -77 79 -82 73 -133 128 -184 199 -62 85 -212
381 -212 420 0 14 -12 64 -25 111 -87 296 -83 487 20 875 130 490 557 913
1059 1046 282 76 409 91 584 69z M1564 5091 c-91 -42 -107 -93 -102 -335 6
-328 -5 -321 475 -321 494 0 490 -3 485 340 -5 335 3 329 -470 333 -322 2
-350 1 -388 -17z M7419 5101 c-108 -34 -129 -89 -129 -332 1 -341 1 -342 517
-337 447 4 428 -11 428 338 0 351 21 334 -443 337 -191 1 -359 -2 -373 -6z
M2850 3213 c-66 -25 -505 -439 -546 -515 -54 -98 -31 -156 128 -319 248 -253
276 -249 614 93 325 327 327 344 80 593 -137 138 -205 175 -276 148z M6735
3199 c-39 -19 -255 -225 -297 -282 -67 -92 -44 -172 86 -306 474 -489 485
-493 728 -254 242 239 238 265 -90 592 -283 280 -321 303 -427 250z M4710
2331 c-185 -14 -200 -51 -202 -495 -1 -318 0 -332 39 -384 47 -62 64 -66 303
-67 353 0 345 -10 344 450 -2 412 -7 436 -114 482 -40 18 -233 25 -370 14z"/></g>
</svg>