<?xml version="1.0" encoding="UTF-8" standalone="no"?>
<svg xmlns="http://www.w3.org/2000/svg" viewBox="0 0 485 485" width="485" height="485" preserveAspectRatio="xMidYMid meet" shape-rendering="geometricPrecision">
<g transform="translate(0.000000,485.000000) scale(0.100000,-0.100000)" fill="#121212" fill-rule="evenodd" stroke="none"><path d="M2439 4611 c-23 -18 -24 -26 -27 -170 -5 -198 -8 -195 168 -205 79
-4 148 -14 188 -26 35 -11 74 -20 87 -20 22 0 62 -12 200 -59 76 -27 116 -44
233 -104 85 -44 120 -65 240 -146 146 -98 430 -427 506 -587 35 -72 91 -85
176 -40 25 13 62 29 83 36 54 17 120 81 110 106 -12 29 -60 114 -91 160 -15
23 -40 64 -56 90 -74 121 -342 409 -466 500 -96 70 -251 174 -289 193 -20 10
-73 39 -118 64 -45 26 -95 49 -110 53 -15 4 -44 15 -63 25 -65 32 -244 87
-310 94 -35 4 -83 14 -105 22 -30 11 -211 29 -326 33 -4 0 -17 -9 -30 -19z
M1850 4540 c-19 -10 -53 -22 -75 -25 -22 -4 -65 -17 -95 -30 -30 -13 -75 -30
-100 -38 -170 -56 -350 -169 -604 -376 -99 -81 -314 -322 -381 -426 -21 -33
-50 -78 -65 -100 -112 -169 -254 -557 -279 -760 -5 -44 -15 -109 -21 -145 -22
-120 20 -637 59 -737 10 -27 22 -70 26 -98 4 -27 15 -66 25 -86 11 -20 24 -58
31 -85 21 -87 150 -321 297 -540 108 -161 395 -427 582 -539 36 -21 76 -45 90
-54 45 -28 174 -91 210 -102 19 -7 45 -18 57 -26 12 -8 43 -20 70 -28 26 -7
71 -22 98 -33 28 -12 79 -28 115 -37 36 -9 92 -23 125 -31 152 -38 761 -27
877 15 29 11 79 24 110 30 31 6 74 19 95 29 21 11 53 23 72 27 37 8 122 45
248 109 200 100 225 117 428 285 218 182 291 268 477 564 52 83 155 293 167
340 6 27 18 59 26 71 8 12 21 55 29 96 8 41 22 95 31 120 74 202 63 849 -17
1016 -63 132 -175 158 -292 69 -61 -47 -68 -128 -31 -355 22 -133 28 -256 16
-365 -19 -177 -40 -309 -60 -365 -11 -30 -27 -82 -36 -115 -99 -350 -440 -761
-810 -975 -22 -13 -67 -39 -100 -58 -81 -46 -187 -91 -260 -109 -33 -8 -85
-23 -115 -33 -184 -64 -694 -64 -895 0 -33 10 -89 26 -125 35 -36 9 -76 23
-90 30 -14 8 -45 23 -70 35 -267 124 -532 329 -681 525 -21 28 -55 73 -76 100
-53 70 -104 156 -148 250 -20 44 -43 94 -51 110 -74 158 -132 484 -133 750 -1
128 43 404 72 462 8 15 20 48 26 73 62 240 317 611 546 793 257 203 393 275
709 377 125 40 169 128 131 258 -31 102 -144 152 -235 102z M2945 3611 c-23
-10 -72 -44 -330 -226 -66 -46 -165 -116 -220 -155 -55 -39 -140 -98 -188
-133 -48 -34 -120 -84 -160 -112 -40 -27 -99 -71 -132 -96 -33 -25 -71 -51
-84 -58 -116 -63 -133 -106 -142 -366 -5 -121 -13 -299 -19 -395 -37 -620 -36
-709 11 -776 76 -110 199 -117 329 -17 14 11 61 41 105 67 44 26 107 65 140
86 33 21 98 61 145 90 47 28 128 78 180 111 92 57 145 89 253 156 29 18 68 41
87 51 135 76 168 142 181 371 6 91 19 233 30 316 11 82 24 229 30 325 5 96 19
243 31 325 38 277 30 346 -54 422 -22 20 -156 30 -193 14z m-156 -590 c6 -10
8 -20 6 -23 -3 -3 -10 -85 -15 -184 -6 -98 -18 -233 -26 -299 -9 -66 -22 -169
-28 -230 -13 -125 -19 -138 -69 -168 -101 -62 -249 -153 -302 -187 -33 -21
-96 -59 -140 -86 -44 -26 -93 -58 -108 -71 -30 -24 -62 -30 -72 -13 -5 9 18
539 31 702 7 87 15 96 169 201 39 26 111 77 160 113 130 94 145 103 231 163
44 30 92 64 107 77 34 29 43 30 56 5z"/></g>
</svg>