<?xml version="1.0" encoding="UTF-8" standalone="no"?>
<svg xmlns="http://www.w3.org/2000/svg" viewBox="0 0 485 486" width="485" height="486" preserveAspectRatio="xMidYMid meet" shape-rendering="geometricPrecision">
<g transform="translate(0.000000,486.000000) scale(0.100000,-0.100000)" fill="#121212" fill-rule="evenodd" stroke="none"><path d="M2275 4630 c-33 -5 -118 -15 -190 -24 -80 -9 -157 -24 -200 -40 -38
-14 -80 -26 -93 -26 -12 0 -50 -11 -83 -25 -34 -13 -78 -27 -98 -31 -20 -3
-52 -17 -72 -29 -20 -13 -52 -31 -70 -39 -19 -9 -59 -31 -90 -49 -31 -17 -72
-40 -90 -51 -249 -136 -591 -474 -750 -741 -65 -109 -169 -319 -169 -343 0 -7
-11 -34 -24 -60 -13 -26 -26 -65 -30 -87 -4 -22 -16 -65 -27 -95 -36 -98 -74
-454 -63 -595 14 -189 44 -423 59 -465 9 -25 23 -75 30 -113 8 -37 23 -84 33
-105 11 -20 24 -58 30 -83 15 -60 130 -282 202 -389 9 -14 45 -67 79 -118 90
-133 282 -328 442 -447 14 -11 50 -38 80 -61 95 -71 360 -208 484 -249 274
-92 322 -103 515 -125 230 -25 261 -25 490 0 193 22 280 43 525 129 117 41
375 172 455 230 195 143 455 387 521 487 19 29 54 83 80 120 106 160 213 362
231 433 6 25 19 63 30 83 10 21 23 61 29 90 6 29 21 89 34 133 32 111 60 402
52 542 -13 211 -36 399 -55 449 -11 27 -23 72 -27 99 -4 28 -20 80 -36 117
-16 36 -29 73 -29 81 0 8 -11 34 -24 59 -13 24 -27 55 -31 69 -10 32 -120 232
-159 289 -185 269 -491 561 -686 657 -14 7 -54 30 -90 52 -135 82 -266 139
-395 173 -22 5 -83 23 -135 38 -161 48 -537 81 -685 60z m298 -389 c78 -11
167 -23 197 -26 94 -11 384 -108 490 -163 275 -143 445 -287 639 -544 114
-151 242 -412 265 -540 4 -20 15 -56 26 -80 10 -24 21 -72 25 -108 3 -36 15
-129 27 -208 35 -243 -16 -598 -117 -817 -13 -27 -26 -61 -30 -75 -47 -156
-371 -573 -525 -676 -19 -13 -66 -46 -105 -74 -38 -27 -74 -50 -78 -50 -5 0
-22 -10 -39 -21 -65 -47 -266 -146 -318 -158 -25 -5 -63 -18 -85 -27 -147 -63
-595 -94 -784 -55 -55 12 -112 21 -126 21 -15 0 -59 11 -98 24 -40 13 -92 29
-117 36 -48 13 -174 72 -255 120 -27 16 -67 38 -88 50 -273 151 -632 558 -715
810 -7 19 -23 57 -37 84 -14 27 -25 58 -25 67 0 10 -11 48 -25 84 -13 37 -29
105 -35 153 -6 48 -15 105 -21 127 -38 162 -7 605 53 744 10 24 23 65 28 90 6
25 21 69 34 96 13 28 43 91 67 140 127 267 401 560 668 717 136 79 306 154
400 174 35 8 75 21 90 29 34 17 87 26 401 64 36 5 66 9 68 10 1 0 66 -8 145
-18z M2315 3280 c-49 -4 -108 -15 -130 -24 -22 -10 -58 -23 -80 -30 -160 -50
-420 -310 -471 -471 -7 -22 -23 -67 -35 -100 -29 -79 -32 -351 -4 -425 9 -25
24 -70 34 -101 33 -103 155 -280 232 -339 249 -187 390 -232 669 -210 225 17
483 177 607 375 15 25 39 62 51 82 87 135 127 496 68 611 -8 16 -20 51 -27 78
-29 119 -181 315 -310 402 -107 71 -143 92 -172 101 -18 5 -57 18 -87 29 -65
23 -213 33 -345 22z m233 -380 c156 -20 337 -217 351 -383 33 -361 -214 -609
-554 -556 -305 47 -501 449 -339 697 140 215 277 276 542 242z"/></g>
</svg>