<?xml version="1.0" encoding="UTF-8" standalone="no"?>
<svg xmlns="http://www.w3.org/2000/svg" viewBox="0 0 896 896" width="896" height="896" preserveAspectRatio="xMidYMid meet" shape-rendering="geometricPrecision">
<g transform="translate(0.000000,896.000000) scale(0.100000,-0.100000)" fill="#111111" fill-rule="evenodd" stroke="none"><path d="M4208 7550 c-31 -5 -82 -23 -114 -40 -43 -23 -70 -30 -113 -30 -64
-1 -110 -15 -163 -52 -20 -14 -54 -28 -76 -31 -21 -4 -56 -20 -76 -36 -21 -17
-54 -35 -74 -42 -20 -6 -52 -25 -70 -40 -18 -16 -50 -38 -70 -48 -21 -11 -44
-27 -52 -36 -7 -9 -27 -23 -44 -32 -73 -37 -278 -247 -341 -347 -20 -33 -64
-88 -122 -156 -18 -20 -40 -57 -48 -81 -9 -23 -27 -58 -42 -77 -14 -19 -32
-60 -39 -90 -7 -29 -24 -71 -39 -91 -32 -47 -45 -92 -45 -154 0 -33 -9 -66
-31 -109 -61 -122 -64 -606 -4 -734 21 -44 29 -83 35 -153 6 -68 13 -100 27
-120 32 -43 50 -83 57 -131 4 -25 22 -68 40 -95 18 -28 37 -62 41 -75 4 -14
17 -38 30 -55 12 -16 30 -45 39 -64 40 -77 222 -281 366 -408 156 -140 187
-163 235 -180 80 -27 83 -128 6 -197 -12 -11 -27 -39 -33 -63 -6 -24 -23 -60
-39 -80 -16 -19 -34 -54 -39 -77 -6 -22 -20 -66 -30 -97 -24 -68 -25 -124 -4
-164 9 -16 20 -57 25 -90 8 -44 20 -72 45 -105 20 -25 38 -57 41 -72 3 -15 22
-46 42 -70 50 -59 52 -153 4 -221 -18 -24 -39 -71 -48 -105 -8 -34 -29 -83
-45 -109 -16 -26 -32 -63 -35 -82 -3 -20 -13 -69 -22 -109 -17 -72 -17 -74 7
-169 29 -116 34 -123 265 -363 664 -688 738 -760 786 -760 9 0 48 24 88 53 40
28 94 66 120 82 77 48 153 100 195 134 21 17 44 31 50 31 11 0 85 51 161 111
22 18 55 38 73 46 30 12 78 45 162 111 19 15 59 41 89 57 106 58 96 -72 99
1190 2 1103 2 1103 50 1143 26 22 65 47 86 56 34 14 149 111 239 200 60 60
163 185 212 255 28 39 67 93 87 118 21 27 40 63 43 85 4 23 20 55 37 74 22 24
35 54 45 101 7 37 20 74 27 83 32 37 47 85 55 182 5 73 14 117 31 153 51 110
49 387 -5 529 -17 45 -25 87 -25 130 0 90 -16 165 -45 207 -15 20 -30 61 -35
95 -6 33 -22 78 -39 105 -16 26 -34 63 -41 83 -6 20 -22 49 -34 64 -13 15 -33
47 -46 72 -12 25 -37 61 -54 81 -17 19 -65 78 -106 129 -82 102 -217 237 -285
285 -83 58 -127 90 -160 118 -18 15 -52 34 -76 42 -24 9 -56 27 -70 41 -14 14
-50 31 -79 39 -29 8 -69 25 -89 40 -47 32 -92 45 -157 45 -38 0 -68 9 -125 37
-74 37 -74 37 -364 39 -159 2 -316 -1 -347 -6z m487 -670 c66 -17 151 -34 189
-39 46 -7 76 -17 91 -31 12 -11 46 -30 76 -41 29 -11 67 -30 83 -42 17 -12 47
-29 66 -38 86 -41 351 -323 365 -390 4 -19 22 -50 40 -71 27 -29 35 -48 40
-95 5 -36 20 -81 40 -118 62 -113 60 -638 -2 -726 -19 -27 -34 -63 -39 -92 -3
-26 -17 -63 -29 -82 -13 -18 -32 -53 -43 -77 -10 -24 -29 -52 -42 -63 -12 -11
-38 -42 -56 -70 -54 -79 -92 -127 -117 -144 -12 -8 -40 -30 -61 -48 -22 -18
-45 -33 -52 -33 -7 0 -34 -16 -59 -36 -26 -20 -66 -42 -88 -50 -40 -14 -71
-37 -173 -129 -92 -82 -84 29 -84 -1177 0 -1225 9 -1107 -93 -1172 -29 -19
-59 -42 -67 -51 -7 -9 -30 -25 -49 -35 -20 -10 -45 -27 -55 -39 -41 -45 -58
-34 -271 179 -199 200 -199 200 -197 250 2 56 23 114 51 145 10 11 26 47 36
79 9 33 27 73 40 90 35 48 45 93 47 221 2 127 -3 147 -48 195 -13 14 -30 45
-39 69 -8 24 -28 59 -45 77 -71 81 -69 243 4 303 8 7 22 36 32 64 9 29 29 69
45 89 16 20 34 49 39 63 14 38 13 458 -2 509 -16 55 -129 167 -185 184 -22 7
-57 25 -77 41 -21 17 -61 37 -90 45 -29 9 -61 25 -72 37 -10 12 -39 31 -63 42
-49 21 -215 183 -227 220 -4 12 -21 40 -38 62 -53 67 -105 160 -125 223 -10
33 -29 75 -41 92 -61 85 -59 730 2 811 14 19 33 61 43 94 9 33 23 67 30 75 7
8 23 35 35 59 26 53 187 241 238 278 21 15 56 43 78 63 54 45 127 91 183 112
24 9 60 29 81 43 25 18 60 29 106 36 38 5 93 16 121 24 200 58 246 60 428 15z
M4375 6165 c-20 -14 -60 -34 -87 -45 -83 -31 -230 -181 -248 -252 -6 -24 -22
-68 -37 -100 -32 -69 -30 -173 5 -230 11 -18 27 -60 36 -93 21 -84 144 -203
274 -266 77 -37 366 -25 419 17 21 17 57 41 80 52 56 29 171 171 178 221 3 20
12 68 21 106 15 64 15 77 0 147 -9 42 -16 87 -16 100 -1 70 -179 276 -257 297
-21 6 -58 25 -82 41 -63 43 -226 45 -286 5z"/></g>
</svg>