<?xml version="1.0" encoding="UTF-8" standalone="no"?>
<svg xmlns="http://www.w3.org/2000/svg" viewBox="0 0 896 888" width="896" height="888" preserveAspectRatio="xMidYMid meet" shape-rendering="geometricPrecision">
<g transform="translate(0.000000,888.000000) scale(0.100000,-0.100000)" fill="#141414" fill-rule="evenodd" stroke="none"><path d="M4235 6334 c-132 -13 -213 -27 -255 -44 -27 -11 -79 -24 -116 -31
-128 -22 -444 -142 -586 -221 -36 -21 -71 -38 -76 -38 -14 0 -159 -97 -297
-197 -218 -160 -576 -536 -738 -776 -63 -93 -222 -408 -258 -512 -63 -183 -79
-236 -104 -350 -15 -66 -34 -147 -42 -180 -41 -171 -25 -906 23 -1033 13 -36
29 -97 35 -136 6 -39 20 -93 31 -121 11 -27 35 -93 54 -146 127 -363 397 -773
674 -1024 30 -27 98 -90 150 -140 223 -212 604 -447 825 -511 33 -9 85 -28
115 -41 30 -14 93 -33 140 -43 47 -10 130 -30 185 -44 168 -44 281 -47 1425
-44 1209 4 1080 -6 1285 94 263 127 434 336 521 634 36 124 47 351 19 415 -9
22 -23 70 -30 107 -8 37 -36 109 -61 160 -61 120 -61 146 0 276 25 54 46 104
46 111 0 7 16 50 35 97 19 46 44 128 56 182 11 53 29 126 40 162 59 191 68
919 14 1110 -8 30 -25 93 -36 140 -11 47 -30 112 -41 145 -11 33 -35 104 -53
157 -151 446 -508 918 -991 1309 -154 124 -524 330 -653 364 -32 8 -83 26
-112 40 -30 13 -126 41 -214 61 -88 20 -187 43 -220 51 -58 14 -685 27 -790
17z m578 -623 c63 -11 132 -24 153 -30 21 -5 75 -15 119 -21 44 -7 109 -25
145 -40 36 -16 85 -33 110 -40 39 -10 168 -67 265 -117 17 -9 61 -31 98 -50
166 -83 559 -443 651 -596 11 -18 47 -75 81 -127 78 -120 160 -286 184 -376
10 -38 30 -96 44 -129 15 -35 32 -107 41 -170 9 -60 25 -139 36 -175 46 -141
38 -495 -15 -710 -8 -30 -18 -88 -24 -128 -6 -40 -18 -91 -27 -115 -9 -23 -29
-80 -45 -127 -44 -124 -40 -122 -193 -114 -147 8 -153 11 -218 107 -23 34 -72
95 -110 136 -85 91 -85 96 -35 256 54 176 51 627 -6 770 -14 33 -30 84 -37
114 -16 69 -115 277 -172 361 -199 298 -497 513 -868 627 -224 69 -672 74
-827 9 -32 -13 -83 -29 -113 -36 -383 -88 -861 -568 -965 -969 -8 -31 -26 -92
-41 -136 -51 -154 -45 -632 11 -765 12 -30 28 -78 34 -107 51 -242 359 -649
591 -780 25 -14 63 -38 85 -52 114 -77 383 -171 487 -171 105 0 207 96 250
235 76 244 370 445 653 445 239 0 513 -170 614 -382 120 -252 119 -251 374
-259 208 -7 233 -11 313 -56 174 -97 224 -360 103 -534 -34 -48 -52 -62 -132
-102 -93 -47 -93 -47 -1056 -47 -964 0 -964 0 -1150 35 -273 51 -293 56 -331
75 -19 10 -66 27 -105 39 -113 35 -420 191 -519 266 -180 134 -447 406 -512
520 -17 30 -37 62 -45 72 -60 70 -192 331 -204 402 -4 24 -20 71 -36 105 -16
35 -37 108 -48 171 -11 61 -29 153 -42 205 -16 72 -23 139 -26 275 -5 196 -2
225 78 623 6 29 23 81 38 115 16 34 34 84 40 111 7 27 23 68 36 90 13 23 31
61 41 86 10 25 27 61 39 80 11 19 30 55 40 80 78 178 422 537 665 694 58 37
116 76 130 85 55 38 258 129 312 139 31 6 79 22 107 36 29 15 96 34 168 46 65
12 145 28 178 37 148 38 405 45 588 14z m-128 -1265 c246 -50 291 -70 480
-212 221 -165 367 -538 324 -829 -15 -106 2 -100 -307 -100 -255 0 -270 -1
-327 -23 -33 -13 -96 -35 -140 -49 -44 -14 -96 -36 -116 -49 -20 -12 -54 -30
-74 -39 -112 -46 -320 -216 -401 -327 -61 -82 -76 -83 -181 -4 -136 102 -250
309 -308 556 -25 111 -16 244 30 410 8 30 15 61 15 69 0 24 98 190 156 265
184 237 570 388 849 332z"/></g>
</svg>