<?xml version="1.0" encoding="UTF-8" standalone="no"?>
<svg xmlns="http://www.w3.org/2000/svg" viewBox="0 0 476 534" width="476" height="534" preserveAspectRatio="xMidYMid meet" shape-rendering="geometricPrecision">
<g transform="translate(0.000000,534.000000) scale(0.100000,-0.100000)" fill="#5cc78f" fill-rule="evenodd" stroke="none"><path d="M2165 5093 c-111 -3 -342 -23 -390 -33 -22 -5 -101 -16 -175 -25 -74
-9 -183 -28 -242 -41 -59 -13 -122 -24 -142 -24 -19 0 -81 -9 -138 -21 -162
-32 -174 -35 -283 -69 -49 -15 -106 -30 -125 -33 -130 -19 -322 -151 -364
-251 -51 -121 -51 -127 -52 -1221 0 -561 -4 -1037 -8 -1057 -14 -75 58 -418
110 -518 18 -36 45 -90 59 -120 14 -30 39 -73 55 -95 17 -22 51 -69 75 -105
89 -131 243 -296 345 -368 36 -26 139 -109 230 -185 91 -76 192 -152 225 -169
33 -17 92 -52 130 -78 39 -25 97 -60 130 -76 33 -17 100 -57 149 -90 131 -87
156 -102 214 -130 28 -14 77 -41 108 -59 33 -20 91 -42 144 -54 266 -63 400
-29 734 184 52 33 144 92 206 130 61 39 130 85 153 103 22 18 54 40 70 49 16
8 53 34 82 56 29 23 86 66 126 95 41 29 108 80 149 113 41 32 100 78 130 101
94 71 339 319 386 390 24 37 57 82 73 100 34 39 52 74 84 160 14 35 36 87 50
114 56 111 57 129 57 1339 -1 1152 -3 1231 -43 1335 -34 89 -117 200 -150 200
-5 0 -49 18 -96 41 -86 41 -324 111 -456 135 -38 6 -115 23 -170 37 -132 32
-304 65 -385 72 -101 9 -129 13 -223 30 -115 20 -135 22 -247 31 -97 6 -440
11 -585 7z m413 -1004 c64 -11 132 -29 152 -39 19 -10 55 -23 78 -30 264 -70
510 -300 704 -656 43 -78 111 -409 109 -529 -1 -79 -18 -208 -32 -243 -5 -13
-19 -58 -30 -100 -66 -245 -303 -554 -524 -682 -299 -173 -667 -229 -959 -147
-155 44 -246 80 -304 118 -24 16 -60 38 -80 48 -113 58 -333 314 -422 493
-148 295 -164 745 -35 1023 80 172 72 159 186 300 150 185 414 372 531 375 7
1 31 8 53 16 188 70 378 88 573 53z M2205 3739 c-264 -57 -489 -242 -627 -516
-63 -126 -63 -126 -63 -357 0 -231 0 -231 30 -285 89 -161 193 -163 344 -7 38
39 94 96 126 126 32 30 80 82 108 115 27 32 77 84 111 115 146 133 546 539
556 564 67 177 -261 315 -585 245z M3030 3193 c-16 -3 -124 -104 -311 -291
-158 -158 -360 -359 -449 -447 -284 -282 -301 -353 -99 -427 145 -54 255 -57
404 -11 44 13 102 31 129 39 386 111 653 637 517 1018 -38 109 -85 138 -191
119z"/></g>
</svg>