<?xml version="1.0" encoding="UTF-8" standalone="no"?>
<svg xmlns="http://www.w3.org/2000/svg" viewBox="0 0 952 952" width="952" height="952" preserveAspectRatio="xMidYMid meet" shape-rendering="geometricPrecision">
<g transform="translate(0.000000,952.000000) scale(0.100000,-0.100000)" fill="#0c0d0d" fill-rule="evenodd" stroke="none"><path d="M4725 7214 c-22 -9 -69 -24 -104 -35 -58 -17 -278 -150 -296 -179 -4
-6 -24 -19 -46 -31 -39 -20 -104 -64 -164 -112 -16 -13 -48 -34 -70 -46 -22
-12 -65 -40 -95 -61 -58 -42 -139 -99 -200 -140 -20 -14 -63 -43 -94 -65 -32
-22 -77 -51 -102 -65 -24 -14 -54 -35 -66 -46 -13 -11 -48 -36 -78 -55 -101
-65 -135 -88 -190 -128 -30 -23 -68 -48 -85 -57 -16 -9 -43 -28 -60 -41 -44
-36 -94 -69 -147 -97 -26 -14 -49 -30 -53 -36 -6 -9 -70 -54 -149 -105 -120
-76 -211 -175 -264 -286 -42 -86 -42 -86 -43 -1582 -1 -1564 -2 -1534 41
-1597 9 -14 22 -40 29 -57 16 -39 130 -157 174 -180 18 -9 47 -27 65 -41 53
-40 89 -41 2097 -41 1971 0 2048 1 2093 38 15 11 44 30 64 41 70 38 151 124
203 216 50 89 50 89 50 1614 0 1525 0 1525 -21 1555 -12 17 -30 51 -42 76 -23
55 -168 205 -227 238 -22 12 -67 42 -100 66 -33 25 -78 54 -100 66 -22 12 -54
33 -72 48 -38 31 -97 72 -218 150 -50 32 -96 66 -104 75 -7 9 -19 16 -25 16
-10 0 -49 26 -156 105 -19 15 -66 46 -105 70 -38 24 -83 54 -100 68 -16 13
-41 30 -55 37 -14 7 -36 22 -50 35 -14 12 -45 34 -70 49 -55 33 -192 125 -240
161 -19 15 -50 36 -69 48 -43 27 -121 80 -196 132 -176 122 -178 123 -308 164
-110 35 -188 39 -252 15z m170 -627 c27 -19 89 -59 137 -90 48 -31 90 -61 93
-67 4 -6 21 -17 38 -25 18 -8 48 -26 67 -39 72 -51 127 -87 190 -128 36 -23
76 -51 90 -64 14 -12 44 -33 67 -46 36 -19 93 -57 233 -152 14 -9 49 -33 78
-54 63 -44 145 -99 193 -129 19 -12 50 -33 69 -48 19 -14 67 -46 105 -70 39
-24 86 -55 105 -70 19 -14 67 -46 105 -70 68 -43 121 -80 170 -120 25 -20 25
-20 26 -1365 l0 -1345 -1822 -3 c-1003 -1 -1827 2 -1831 6 -21 21 -9 2686 11
2702 64 51 114 86 176 125 39 24 81 53 95 63 45 35 160 112 167 112 3 0 24 14
47 30 124 91 152 110 163 110 7 0 27 13 45 29 33 28 89 67 153 106 18 11 66
43 105 70 40 28 89 61 110 75 21 14 76 51 123 83 47 31 89 57 94 57 5 0 27 15
49 33 44 37 74 58 144 102 26 17 86 55 131 86 78 52 100 66 168 111 36 25 49
23 106 -15z M4651 5379 c-114 -57 -116 -62 -119 -350 -3 -211 -5 -249 -19
-260 -12 -10 -59 -13 -203 -10 -240 4 -337 -15 -393 -77 -50 -55 -41 -392 13
-447 62 -64 65 -65 325 -65 144 0 244 -4 256 -10 18 -10 19 -24 19 -253 0
-242 0 -242 33 -297 62 -103 252 -143 418 -89 136 46 149 80 149 386 0 172 3
242 12 251 9 9 79 12 255 12 272 0 274 0 336 69 37 41 37 41 37 225 0 276 -19
291 -387 292 -167 0 -225 4 -237 13 -14 12 -16 47 -16 248 0 294 -7 312 -142
373 -76 35 -257 29 -337 -11z"/></g>
</svg>