<?xml version="1.0" encoding="UTF-8" standalone="no"?>
<svg xmlns="http://www.w3.org/2000/svg" viewBox="0 0 477 440" width="477" height="440" preserveAspectRatio="xMidYMid meet" shape-rendering="geometricPrecision">
<g transform="translate(0.000000,440.000000) scale(0.100000,-0.100000)" fill="#5fc699" fill-rule="evenodd" stroke="none"><path d="M1310 4183 c-56 -11 -93 -52 -87 -97 5 -37 16 -51 114 -140 296 -273
386 -392 441 -591 11 -38 36 -115 56 -170 78 -212 88 -535 19 -597 -23 -21
-144 -48 -216 -48 -179 -2 -211 -135 -69 -292 27 -29 74 -87 105 -128 99 -130
148 -191 285 -350 74 -85 151 -184 173 -220 22 -37 91 -119 161 -191 234 -240
276 -233 550 84 51 60 112 135 134 168 23 33 48 65 56 72 8 7 70 80 137 162
66 83 148 182 182 220 107 124 229 323 229 374 0 60 -60 101 -149 101 -79 0
-242 37 -268 62 -21 19 -33 61 -47 158 -42 282 -48 311 -93 417 -25 59 -58
138 -73 175 -49 116 -107 189 -255 324 -55 50 -109 101 -119 113 -10 11 -55
42 -100 68 -45 26 -95 57 -111 70 -17 12 -73 36 -125 53 -52 17 -120 43 -150
57 -181 86 -646 173 -780 146z M2489 1016 c-4 -4 -465 -8 -1025 -9 -1155 -2
-1081 5 -1174 -107 -124 -148 -112 -470 22 -600 89 -87 -110 -79 2063 -81
2139 -3 1978 -8 2068 71 161 142 157 532 -6 651 -89 66 -124 69 -707 67 -272
-1 -542 0 -600 2 -146 5 -260 6 -365 1 -49 -2 -130 -1 -180 4 -49 4 -93 4 -96
1z"/></g>
</svg>