<?xml version="1.0" encoding="UTF-8" standalone="no"?>
<svg xmlns="http://www.w3.org/2000/svg" viewBox="0 0 952 952" width="952" height="952" preserveAspectRatio="xMidYMid meet" shape-rendering="geometricPrecision">
<g transform="translate(0.000000,952.000000) scale(0.100000,-0.100000)" fill="#121212" fill-rule="evenodd" stroke="none"><path d="M2560 6666 c-140 -51 -250 -167 -297 -314 -39 -121 -50 -3136 -12
-3291 46 -190 74 -230 229 -322 75 -44 75 -44 2350 -44 2275 0 2275 0 2347 44
96 58 187 153 203 212 7 24 20 64 29 89 19 53 31 3137 12 3215 -51 213 -102
291 -246 374 -80 46 -80 46 -2330 48 -1806 2 -2257 0 -2285 -11z m4376 -480
c23 -33 20 -616 -3 -645 -21 -24 -4183 -35 -4207 -11 -15 15 -21 622 -6 649
15 29 -79 28 2138 27 2031 -1 2064 -1 2078 -20z m-1 -1190 c28 -38 21 -1801
-7 -1820 -34 -24 -4162 -24 -4196 0 -22 15 -22 15 -22 908 0 942 -1 918 45
929 78 17 4167 1 4180 -17z M4859 3940 c-51 -12 -63 -48 -61 -190 2 -177 47
-260 154 -281 50 -9 1470 -12 1517 -3 102 21 156 124 156 301 0 195 106 174
-898 176 -465 1 -856 0 -868 -3z"/></g>
</svg>