<?xml version="1.0" encoding="UTF-8" standalone="no"?>
<svg xmlns="http://www.w3.org/2000/svg" viewBox="0 0 491 436" width="491" height="436" preserveAspectRatio="xMidYMid meet" shape-rendering="geometricPrecision">
<g transform="translate(0.000000,436.000000) scale(0.100000,-0.100000)" fill="#4e9af7" fill-rule="evenodd" stroke="none"><path d="M625 4131 c-129 -23 -345 -164 -345 -226 0 -4 -12 -33 -28 -64 -27
-56 -27 -56 -27 -606 0 -618 3 -635 137 -761 142 -134 171 -139 898 -139 746
0 760 2 906 149 154 155 163 206 158 861 -3 459 -34 566 -200 688 -140 103
-128 101 -834 103 -344 1 -643 -1 -665 -5z M2910 3991 c-160 -32 -202 -192
-71 -269 62 -36 1685 -44 1751 -8 140 75 104 220 -69 275 -38 12 -1550 14
-1611 2z M2939 2944 c-187 -47 -228 -215 -70 -287 59 -26 1614 -34 1703 -8
177 51 108 269 -97 301 -96 15 -1474 10 -1536 -6z M681 2033 c-185 -35 -351
-147 -423 -285 -44 -85 -52 -1101 -9 -1211 48 -121 144 -208 301 -273 141 -58
1296 -62 1420 -5 190 87 280 175 325 317 44 139 41 978 -5 1108 -61 177 -140
249 -353 320 -107 36 -107 36 -670 35 -309 -1 -573 -4 -586 -6z M2945 1699
c-213 -20 -251 -206 -55 -270 64 -20 1611 -21 1679 -1 160 49 122 215 -59 258
-57 13 -864 20 -1230 10 -30 -1 -104 1 -165 4 -60 3 -137 2 -170 -1z M2915
671 c-60 -15 -155 -99 -155 -138 0 -61 44 -128 105 -161 46 -24 1637 -22 1705
3 85 30 125 89 107 157 -13 51 -102 133 -155 142 -52 8 -1571 5 -1607 -3z"/></g>
</svg>