<?xml version="1.0" encoding="UTF-8" standalone="no"?>
<svg xmlns="http://www.w3.org/2000/svg" viewBox="0 0 1116 1116" width="1116" height="1116" preserveAspectRatio="xMidYMid meet" shape-rendering="geometricPrecision">
<g transform="translate(0.000000,1116.000000) scale(0.100000,-0.100000)" fill="#8a7372" fill-rule="evenodd" stroke="none"><path d="M5177 9129 c-27 -4 -81 -19 -121 -34 -58 -21 -85 -26 -132 -22 -45 3
-73 -1 -119 -18 -33 -13 -93 -28 -133 -34 -41 -6 -99 -21 -130 -32 -32 -11
-68 -24 -82 -28 -14 -5 -52 -22 -84 -40 -32 -17 -66 -31 -75 -31 -9 0 -40 -11
-70 -25 -29 -14 -67 -28 -84 -31 -18 -3 -45 -16 -62 -29 -17 -13 -48 -30 -69
-39 -20 -8 -49 -25 -63 -36 -14 -11 -36 -20 -48 -20 -12 0 -29 -7 -36 -16 -7
-9 -33 -26 -59 -39 -25 -13 -65 -33 -90 -46 -25 -12 -72 -46 -105 -74 -33 -28
-87 -68 -120 -90 -33 -21 -89 -64 -125 -95 -36 -30 -83 -68 -105 -85 -75 -54
-279 -260 -375 -376 -158 -194 -330 -424 -330 -443 0 -7 -8 -24 -18 -37 -20
-26 -142 -246 -142 -256 0 -3 -29 -64 -64 -137 -35 -72 -69 -149 -75 -171 -6
-22 -22 -62 -36 -89 -14 -27 -25 -58 -25 -68 0 -10 -11 -44 -24 -76 -13 -31
-27 -77 -31 -102 -4 -25 -17 -79 -30 -120 -12 -41 -26 -109 -30 -150 -4 -41
-13 -93 -20 -115 -12 -37 -29 -145 -40 -255 -22 -214 1 -850 34 -955 10 -33
24 -94 31 -135 6 -41 20 -100 30 -130 10 -30 22 -77 25 -105 4 -27 16 -70 26
-94 11 -24 22 -63 25 -85 4 -23 19 -63 34 -91 15 -27 30 -68 33 -89 4 -22 19
-61 35 -86 16 -26 32 -59 36 -75 4 -16 18 -41 31 -57 13 -16 29 -44 34 -63 5
-19 19 -49 32 -66 12 -17 39 -66 60 -108 21 -42 44 -87 52 -101 8 -14 22 -41
31 -60 61 -127 511 -661 631 -748 28 -20 104 -80 170 -133 66 -52 134 -104
150 -114 17 -11 60 -45 96 -77 37 -32 74 -58 82 -58 9 0 29 -11 45 -25 17 -14
36 -25 44 -25 8 0 32 -13 54 -30 21 -16 48 -30 58 -30 11 0 34 -11 53 -26 18
-14 48 -30 66 -36 17 -6 46 -21 62 -33 17 -12 53 -30 80 -40 28 -9 81 -28 119
-41 38 -13 83 -33 101 -44 17 -11 55 -24 83 -31 28 -6 68 -22 88 -35 28 -19
53 -26 104 -29 43 -3 79 -11 101 -24 25 -14 60 -22 127 -26 64 -3 105 -11 131
-25 66 -33 152 -38 621 -35 481 3 508 5 609 36 35 10 95 22 135 25 39 4 110
19 158 35 48 16 99 29 115 29 15 0 51 12 78 25 28 14 66 25 86 25 22 0 53 11
83 30 27 17 62 34 80 37 17 4 47 16 66 29 19 12 51 25 70 29 19 4 55 18 80 31
25 13 49 24 53 24 5 0 27 13 50 28 96 65 154 102 160 102 3 0 28 14 54 30 26
17 53 30 60 30 7 0 44 24 83 53 38 28 92 66 120 82 58 33 180 133 180 146 0 4
58 58 130 119 144 123 287 275 345 366 21 32 65 91 99 129 73 82 144 181 181
250 14 28 39 70 56 95 16 25 38 63 48 85 11 22 31 55 45 74 15 19 26 40 26 46
0 15 79 175 97 196 7 9 18 41 24 73 5 31 23 85 40 119 16 34 29 72 29 85 0 12
9 41 20 63 12 22 26 65 31 97 6 31 21 83 34 117 15 38 25 92 29 145 3 48 14
111 27 145 55 155 54 1019 -2 1174 -11 31 -23 96 -26 146 -3 56 -13 106 -25
133 -11 24 -26 77 -33 117 -8 40 -23 88 -35 107 -11 18 -20 47 -20 64 0 17
-11 52 -24 77 -14 25 -32 68 -40 94 -20 64 -72 189 -95 227 -10 17 -24 49 -31
71 -7 22 -23 53 -36 68 -13 16 -24 34 -24 41 0 6 -20 43 -45 81 -24 39 -50 83
-57 100 -6 16 -24 46 -38 65 -15 19 -35 49 -44 67 -9 18 -52 69 -96 113 -44
45 -96 109 -116 143 -65 108 -184 242 -309 347 -44 37 -120 104 -170 149 -49
46 -106 92 -125 103 -19 10 -55 30 -79 44 -24 13 -66 44 -95 67 -57 48 -133
95 -246 152 -41 20 -82 43 -90 51 -9 7 -40 24 -71 38 -30 13 -61 31 -68 40 -7
9 -35 22 -61 30 -27 8 -59 21 -72 29 -12 8 -38 18 -56 22 -19 4 -59 20 -89 36
-30 16 -61 29 -69 29 -7 0 -42 9 -76 19 -35 11 -90 25 -123 31 -33 7 -87 21
-120 31 -74 23 -88 25 -200 34 -63 5 -108 15 -150 34 -60 26 -60 26 -500 26
-242 1 -462 -2 -488 -6z m876 -53 c26 -4 60 -11 74 -17 15 -6 68 -16 118 -24
111 -17 324 -62 385 -80 129 -39 188 -55 206 -55 10 0 33 -7 49 -16 17 -9 50
-22 75 -31 64 -21 168 -71 215 -103 22 -15 101 -57 175 -94 74 -38 142 -74
150 -80 8 -7 35 -24 60 -38 25 -14 66 -45 92 -67 26 -23 80 -57 120 -75 67
-31 158 -108 158 -134 0 -5 33 -33 73 -63 104 -77 295 -275 368 -382 35 -50
97 -126 138 -167 91 -92 221 -300 221 -356 0 -5 27 -46 60 -89 33 -43 60 -84
60 -90 0 -5 8 -26 19 -45 29 -56 161 -393 161 -414 0 -6 9 -30 20 -51 29 -57
76 -242 90 -360 7 -55 22 -138 35 -185 63 -236 59 -848 -8 -1115 -8 -33 -20
-98 -26 -145 -17 -124 -62 -308 -88 -359 -13 -24 -23 -50 -23 -57 0 -8 -11
-42 -25 -76 -13 -35 -41 -106 -61 -158 -64 -168 -106 -254 -146 -300 -22 -24
-62 -92 -90 -150 -78 -165 -141 -257 -238 -350 -31 -31 -66 -73 -78 -95 -43
-86 -244 -296 -373 -392 -31 -23 -67 -56 -80 -73 -67 -88 -95 -112 -163 -144
-39 -18 -87 -46 -106 -63 -43 -37 -126 -93 -137 -93 -5 0 -25 -12 -46 -26 -21
-14 -68 -41 -105 -61 -37 -19 -74 -41 -82 -47 -26 -22 -164 -93 -205 -106 -38
-12 -117 -48 -198 -91 -21 -11 -59 -23 -85 -26 -26 -3 -58 -11 -72 -18 -43
-21 -278 -82 -425 -109 -147 -27 -164 -29 -340 -46 -119 -11 -847 -7 -880 5
-11 4 -33 13 -50 20 -16 7 -72 18 -124 24 -51 7 -106 18 -121 26 -16 8 -66 23
-111 34 -94 22 -215 64 -316 112 -37 18 -81 36 -98 40 -109 30 -142 42 -198
75 -34 20 -74 45 -89 55 -15 10 -44 25 -65 32 -21 7 -63 31 -93 54 -30 22 -70
48 -89 58 -19 9 -64 39 -100 65 -36 26 -87 59 -112 74 -26 14 -60 39 -75 54
-80 75 -146 129 -209 172 -107 73 -466 489 -602 700 -19 30 -47 73 -62 95 -15
22 -37 69 -50 105 -13 36 -38 88 -56 115 -18 28 -55 95 -83 150 -27 55 -57
114 -66 130 -9 17 -16 36 -16 43 0 13 -37 114 -90 247 -29 73 -39 115 -65 270
-34 208 -49 283 -68 340 -38 120 -39 720 -2 885 10 41 21 95 25 120 5 25 13
63 18 85 6 22 13 76 17 120 7 87 48 272 67 308 6 12 24 56 39 97 47 131 78
209 109 275 16 35 30 68 30 74 0 11 73 143 102 184 11 16 30 56 43 90 32 88
112 207 254 377 20 25 56 70 78 100 122 165 300 355 390 416 47 32 91 67 99
79 19 28 127 114 189 150 28 16 75 47 105 70 77 57 238 158 280 175 19 8 73
38 120 66 47 29 99 56 115 60 53 12 143 43 202 70 70 31 350 124 376 124 10 0
34 7 55 16 20 8 75 20 121 26 46 5 107 16 135 25 137 39 143 39 551 38 220 -1
421 -5 448 -9z M6075 7138 c-11 -6 -56 -47 -100 -92 -48 -49 -102 -94 -135
-111 -168 -87 -155 -84 -240 -59 -52 15 -266 170 -329 238 -15 15 -35 26 -50
26 -54 -1 -187 -36 -222 -58 -20 -12 -44 -22 -53 -22 -27 0 -68 -26 -110 -69
-40 -40 -40 -40 -43 -208 -5 -251 -4 -246 -76 -315 -92 -88 -129 -97 -367 -87
-109 5 -119 -1 -191 -122 -126 -213 -127 -339 -2 -467 198 -202 206 -365 28
-534 -43 -40 -86 -91 -96 -113 -42 -91 -8 -283 67 -377 18 -24 34 -48 34 -54
0 -33 51 -58 123 -60 68 -2 115 -6 232 -20 85 -11 206 -89 223 -146 13 -41 25
-183 26 -303 1 -90 1 -90 41 -138 88 -106 329 -188 411 -140 76 44 102 62 184
131 157 129 233 140 397 56 26 -13 53 -24 59 -24 21 0 65 -42 99 -95 60 -94
148 -110 302 -56 180 64 213 102 224 264 16 230 51 309 177 391 96 64 112 68
262 71 84 2 146 8 163 16 27 12 117 158 117 189 0 7 11 28 25 47 22 27 27 47
31 115 5 83 5 83 -76 168 -246 258 -250 416 -16 632 132 122 148 208 65 364
-97 183 -163 232 -293 219 -203 -21 -249 -11 -334 74 -81 81 -100 144 -119
386 -11 156 -72 220 -244 256 -30 6 -66 18 -81 25 -32 17 -85 18 -113 2z m76
-69 c8 -15 21 -19 63 -19 41 0 62 -6 97 -29 24 -17 57 -32 73 -35 59 -11 60
-17 75 -257 7 -129 11 -151 31 -179 12 -17 32 -49 44 -70 35 -65 149 -150 199
-150 23 0 63 -7 89 -17 44 -16 49 -16 87 1 98 45 252 -27 277 -130 4 -16 18
-42 32 -58 19 -24 23 -37 18 -65 -3 -20 -6 -57 -6 -82 0 -45 -2 -48 -72 -109
-259 -223 -271 -446 -38 -686 57 -59 80 -90 80 -108 0 -14 7 -43 16 -65 17
-42 18 -37 -33 -125 -7 -11 -13 -29 -13 -40 0 -16 -15 -37 -85 -119 -13 -15
-32 -17 -134 -16 -135 2 -246 -16 -277 -43 -11 -10 -25 -18 -31 -18 -17 0
-172 -181 -174 -203 0 -7 -2 -23 -4 -37 -2 -14 -6 -81 -9 -150 -10 -187 -15
-210 -53 -210 -8 0 -33 -16 -56 -35 -37 -32 -63 -40 -110 -36 -9 1 -37 -7 -60
-19 -66 -33 -82 -26 -160 70 -38 47 -86 94 -106 105 -21 11 -55 34 -76 50 -56
44 -270 46 -326 4 -19 -14 -39 -28 -46 -30 -18 -6 -163 -129 -211 -178 -42
-44 -44 -45 -75 -32 -18 7 -52 16 -77 20 -103 15 -265 140 -240 186 16 29 10
97 -27 298 -16 87 -16 87 -73 137 -32 28 -61 50 -65 50 -4 0 -27 18 -50 39
-43 39 -43 39 -206 36 -168 -3 -209 6 -209 48 0 5 -13 24 -29 42 -17 19 -32
51 -36 75 -4 22 -18 61 -32 86 -41 74 -30 109 68 208 86 88 91 94 144 205 41
87 42 109 10 220 -31 105 -129 241 -173 241 -18 0 -66 86 -73 130 -6 38 -3 55
22 108 16 34 29 65 29 68 0 8 81 146 98 167 20 23 72 22 142 -3 70 -25 94 -25
172 0 34 11 74 20 88 20 37 0 143 115 168 182 18 49 38 267 33 365 -2 38 63
113 96 113 11 0 41 16 66 35 41 31 51 35 87 29 29 -5 45 -2 58 8 33 29 50 28
74 -2 69 -87 260 -230 323 -241 22 -4 57 -14 78 -22 72 -26 263 63 337 159
107 137 144 162 171 113z M5577 6304 c-3 -3 -37 -13 -74 -21 -90 -19 -84 -18
-113 -28 -14 -4 -39 -18 -56 -31 -17 -13 -40 -24 -51 -24 -55 0 -192 -139
-250 -254 -14 -28 -50 -91 -81 -140 -75 -120 -87 -450 -20 -548 21 -30 43 -69
49 -88 7 -19 17 -42 24 -50 7 -8 14 -22 17 -30 11 -31 130 -180 143 -180 8 0
27 -16 42 -35 19 -24 36 -35 54 -35 14 0 45 -13 70 -29 24 -16 64 -34 89 -41
25 -6 54 -15 65 -20 26 -12 106 -34 125 -34 45 -1 156 18 200 35 29 11 73 22
98 25 62 7 142 46 200 96 18 15 37 28 41 28 5 0 27 15 50 33 22 17 53 42 69
53 24 19 112 176 112 201 0 5 16 35 35 67 38 64 52 238 32 415 -13 116 -150
359 -228 405 -16 9 -29 21 -29 25 0 10 -106 90 -139 104 -14 7 -40 21 -58 33
-23 15 -54 23 -115 27 -45 3 -110 15 -142 26 -56 20 -146 28 -159 15z m153
-89 c150 -24 202 -37 252 -62 26 -13 52 -23 57 -23 32 0 143 -107 195 -188 13
-20 37 -50 54 -65 127 -120 133 -521 11 -698 -11 -15 -27 -47 -38 -71 -23 -55
-124 -148 -205 -190 -33 -16 -71 -39 -85 -49 -56 -41 -329 -73 -461 -55 -189
27 -423 234 -499 441 -12 33 -30 76 -39 95 -32 65 -20 307 18 379 16 31 45 90
63 131 116 256 391 400 677 355z"/></g>
<g transform="translate(0.000000,1116.000000) scale(0.100000,-0.100000)" fill="#f2a59f" fill-rule="evenodd" stroke="none"><path d="M5155 9074 c-28 -7 -73 -19 -101 -27 -28 -9 -89 -20 -135 -25 -46 -6
-101 -18 -121 -26 -21 -9 -45 -16 -55 -16 -26 0 -306 -93 -376 -124 -59 -27
-149 -58 -202 -70 -16 -4 -68 -31 -115 -60 -47 -28 -101 -58 -120 -66 -42 -17
-203 -118 -280 -175 -30 -23 -77 -54 -105 -70 -61 -34 -138 -95 -185 -146 -19
-20 -67 -59 -107 -86 -85 -58 -288 -276 -397 -427 -17 -23 -48 -62 -68 -87
-145 -175 -221 -288 -253 -376 -13 -34 -32 -74 -43 -90 -29 -41 -102 -173
-102 -184 0 -6 -14 -39 -30 -74 -31 -66 -62 -144 -109 -275 -15 -41 -33 -85
-39 -97 -19 -36 -60 -221 -67 -308 -4 -44 -11 -98 -17 -120 -5 -22 -13 -60
-18 -85 -4 -25 -15 -79 -25 -120 -37 -165 -36 -765 2 -885 19 -57 34 -132 68
-340 26 -155 36 -197 65 -270 53 -133 90 -234 90 -247 0 -7 7 -26 16 -43 9
-16 39 -75 66 -130 28 -55 65 -122 83 -150 18 -27 43 -79 56 -115 13 -36 35
-83 50 -105 15 -22 43 -65 62 -95 136 -211 495 -627 602 -700 63 -43 129 -97
209 -172 15 -15 49 -40 75 -54 25 -15 76 -48 112 -74 36 -26 81 -56 100 -65
19 -10 59 -36 89 -58 30 -23 72 -47 93 -54 21 -7 50 -22 65 -32 15 -10 55 -35
89 -55 56 -33 89 -45 198 -75 17 -4 61 -22 98 -40 101 -48 222 -90 316 -112
45 -11 95 -26 111 -34 15 -8 70 -19 121 -26 52 -6 108 -17 124 -24 17 -7 39
-16 50 -20 33 -12 761 -16 880 -5 176 17 193 19 340 46 147 27 382 88 425 109
14 7 46 15 72 18 26 3 64 15 85 26 81 43 160 79 198 91 41 13 179 84 205 106
8 6 45 28 82 47 37 20 84 47 105 61 21 14 41 26 46 26 11 0 94 56 137 93 19
17 67 45 106 63 68 32 96 56 163 144 13 17 49 50 80 73 129 96 330 306 374
392 11 22 47 66 80 99 100 98 157 181 235 346 28 58 68 126 90 150 40 46 82
132 146 300 20 52 48 123 61 158 14 34 25 68 25 76 0 7 10 33 23 57 26 51 71
235 88 359 6 47 18 112 26 145 67 267 71 879 8 1115 -13 47 -28 130 -35 185
-14 118 -61 303 -90 360 -11 21 -20 45 -20 51 0 21 -132 358 -161 414 -11 19
-19 40 -19 45 0 6 -27 47 -60 90 -33 43 -60 84 -60 91 0 59 -162 307 -248 379
-18 15 -64 73 -102 129 -80 116 -270 315 -377 395 -40 30 -73 58 -73 63 0 26
-91 103 -158 134 -40 18 -94 52 -120 75 -26 22 -67 53 -92 67 -25 14 -52 31
-60 38 -8 6 -76 42 -150 80 -74 37 -153 79 -175 94 -47 32 -151 82 -215 103
-25 9 -58 22 -75 31 -16 9 -39 16 -49 16 -18 0 -77 16 -206 55 -61 18 -274 63
-385 80 -50 8 -103 18 -118 24 -73 28 -873 40 -972 15z m1033 -1938 c15 -7 51
-19 81 -25 172 -36 233 -100 244 -256 19 -242 38 -305 119 -386 85 -85 131
-95 334 -74 130 13 196 -36 293 -219 83 -156 67 -242 -65 -364 -234 -216 -230
-374 16 -632 81 -85 81 -85 76 -168 -4 -68 -9 -88 -31 -115 -14 -19 -25 -40
-25 -47 0 -31 -90 -177 -117 -189 -17 -8 -79 -14 -163 -16 -150 -3 -166 -7
-262 -71 -126 -82 -161 -161 -177 -391 -11 -162 -44 -200 -224 -264 -154 -54
-242 -38 -302 56 -34 53 -78 95 -99 95 -6 0 -33 11 -59 24 -164 84 -240 73
-397 -56 -82 -69 -108 -87 -184 -131 -82 -48 -323 34 -411 140 -40 48 -40 48
-41 138 -1 120 -13 262 -26 303 -17 57 -138 135 -223 146 -117 14 -164 18
-232 20 -72 2 -123 27 -123 60 0 6 -16 30 -34 54 -72 90 -108 280 -71 369 8
19 55 78 105 129 174 183 165 323 -33 527 -125 127 -124 254 2 466 72 121 82
127 191 122 238 -10 275 -1 367 87 72 69 71 64 76 315 3 168 3 168 43 208 42
43 83 69 110 69 9 0 33 10 53 22 35 22 168 57 222 58 16 0 36 -12 54 -30 17
-17 58 -52 93 -78 35 -26 89 -68 120 -94 89 -74 177 -93 252 -55 25 13 70 36
100 52 33 17 87 62 135 111 107 109 145 125 213 90z M5495 6210 c-201 -45
-362 -173 -442 -350 -18 -41 -47 -100 -63 -131 -38 -72 -50 -314 -18 -379 9
-19 27 -62 39 -95 74 -204 313 -415 499 -441 133 -18 405 14 461 55 14 10 52
33 85 49 81 42 182 135 205 190 11 24 27 56 38 71 122 177 116 578 -11 698
-17 15 -41 45 -54 65 -52 81 -163 188 -195 188 -5 0 -31 10 -57 23 -121 60
-352 87 -487 57z"/></g>
</svg>