<?xml version="1.0" encoding="UTF-8" standalone="no"?>
<svg xmlns="http://www.w3.org/2000/svg" viewBox="0 0 478 432" width="478" height="432" preserveAspectRatio="xMidYMid meet" shape-rendering="geometricPrecision">
<g transform="translate(0.000000,432.000000) scale(0.100000,-0.100000)" fill="#131313" fill-rule="evenodd" stroke="none"><path d="M1405 4096 c-153 -31 -193 -80 -499 -621 -146 -256 -270 -474 -300
-525 -18 -30 -72 -125 -121 -210 -48 -85 -116 -202 -150 -260 -166 -279 -166
-350 0 -640 40 -69 121 -213 182 -320 136 -241 367 -647 525 -925 129 -226
221 -340 298 -367 40 -15 2016 -19 2083 -5 27 6 58 27 108 74 74 70 102 113
259 393 48 85 114 202 147 260 77 136 203 357 338 595 59 105 122 215 140 245
153 258 179 348 135 475 -22 63 -32 83 -192 365 -58 102 -145 255 -193 340
-48 85 -114 200 -145 255 -60 104 -228 400 -334 589 -101 181 -198 263 -336
285 -98 16 -1866 13 -1945 -3z m1879 -391 c22 -16 189 -300 406 -685 20 -36
63 -110 95 -165 32 -55 93 -161 135 -235 42 -74 115 -203 163 -286 48 -83 87
-161 87 -174 0 -13 -48 -107 -107 -209 -59 -102 -133 -233 -166 -291 -136
-239 -178 -313 -267 -465 -116 -199 -197 -341 -268 -468 -82 -147 32 -132
-973 -132 -852 0 -868 0 -894 20 -16 12 -152 239 -344 575 -175 305 -352 614
-393 685 -162 284 -166 294 -132 344 9 12 42 68 74 124 31 56 77 136 101 177
58 102 110 191 133 231 51 89 127 222 170 299 26 47 60 105 75 130 16 25 72
124 126 220 160 285 175 306 218 319 73 21 1733 8 1761 -14z M2225 2905 c-296
-66 -519 -271 -588 -539 -186 -721 633 -1268 1224 -819 462 350 392 1060 -128
1299 -172 79 -337 98 -508 59z m307 -380 c263 -109 330 -464 123 -653 -220
-201 -566 -101 -639 184 -81 317 221 591 516 469z"/></g>
</svg>