<?xml version="1.0" encoding="UTF-8" standalone="no"?>
<svg xmlns="http://www.w3.org/2000/svg" viewBox="0 0 416 466" width="416" height="466" preserveAspectRatio="xMidYMid meet" shape-rendering="geometricPrecision">
<g transform="translate(0.000000,466.000000) scale(0.100000,-0.100000)" fill="#121212" fill-rule="evenodd" stroke="none"><path d="M507 4439 c-107 -21 -215 -110 -265 -217 -44 -93 -42 -3718 1 -3801
52 -99 168 -183 277 -200 87 -14 3017 -15 3114 -1 116 17 236 104 284 207 34
73 49 3628 16 3742 -33 113 -98 189 -210 246 -59 30 -59 30 -1614 32 -933 0
-1574 -3 -1603 -8z m3041 -375 c33 -23 35 -3431 2 -3464 -28 -28 -2899 -32
-2938 -4 -35 24 -35 3444 0 3468 33 24 2903 24 2936 0z M1316 2978 c-86 -12
-138 -46 -159 -103 -40 -107 1 -233 82 -255 85 -23 1675 -8 1708 16 108 78 92
258 -29 317 -57 27 -57 27 -806 30 -412 1 -770 -1 -796 -5z M1158 2149 c-49
-48 -29 -219 33 -286 63 -66 39 -64 896 -63 860 1 831 -2 892 76 53 68 67 229
23 273 -48 49 -1796 49 -1844 0z"/></g>
</svg>