<?xml version="1.0" encoding="UTF-8" standalone="no"?>
<svg xmlns="http://www.w3.org/2000/svg" viewBox="0 0 868 868" width="868" height="868" preserveAspectRatio="xMidYMid meet" shape-rendering="geometricPrecision">
<g transform="translate(0.000000,868.000000) scale(0.100000,-0.100000)" fill="#131313" fill-rule="evenodd" stroke="none"><path d="M2380 6523 c-106 -10 -122 -16 -207 -72 -116 -76 -146 -113 -225
-271 -36 -71 -36 -3749 0 -3820 91 -180 193 -282 326 -328 71 -24 4074 -32
4211 -8 168 29 281 127 387 336 36 71 36 3749 0 3820 -104 206 -219 307 -381
336 -70 12 -3988 19 -4111 7z m3938 -605 c16 -16 17 -1303 1 -1313 -6 -4 -29
2 -52 13 -221 108 -720 181 -905 133 -45 -12 -129 -26 -185 -31 -104 -11 -157
-23 -192 -46 -11 -7 -56 -21 -100 -32 -131 -33 -349 -157 -453 -258 -37 -36
-107 -99 -157 -140 -49 -41 -117 -97 -150 -125 -104 -87 -287 -205 -340 -218
-28 -7 -75 -25 -106 -41 -133 -68 -555 -70 -685 -3 -33 17 -84 38 -115 46 -30
9 -63 25 -73 35 -9 11 -36 27 -59 38 -45 19 -159 101 -219 157 -38 35 -38 35
-38 904 0 663 3 872 12 881 17 17 3799 17 3816 0z m-497 -1782 c13 -4 49 -18
79 -31 30 -13 82 -35 115 -48 67 -26 238 -124 285 -163 30 -26 30 -26 30 -643
0 -467 -3 -620 -12 -629 -17 -17 -3799 -17 -3816 0 -18 18 -17 761 1 777 11 8
24 4 59 -19 25 -17 73 -36 111 -43 36 -8 88 -26 114 -39 57 -30 78 -35 199
-47 50 -5 124 -19 164 -32 86 -26 322 -22 415 7 28 8 100 21 162 29 84 11 127
22 170 43 32 16 79 34 105 41 26 6 62 20 80 30 18 11 56 29 85 40 51 20 128
69 190 123 18 15 57 43 85 61 29 19 107 85 173 147 205 193 344 287 480 327
28 8 79 28 114 45 87 42 490 57 612 24z M3230 5539 c-96 -12 -103 -15 -160
-62 -54 -45 -115 -123 -147 -187 -25 -51 -25 -281 0 -327 156 -291 505 -332
723 -85 69 79 95 195 75 335 -18 126 -176 305 -285 321 -73 12 -145 13 -206 5z"/></g>
</svg>