<?xml version="1.0" encoding="UTF-8" standalone="no"?>
<svg xmlns="http://www.w3.org/2000/svg" viewBox="0 0 868 868" width="868" height="868" preserveAspectRatio="xMidYMid meet" shape-rendering="geometricPrecision">
<g transform="translate(0.000000,868.000000) scale(0.100000,-0.100000)" fill="#131313" fill-rule="evenodd" stroke="none"><path d="M3715 6561 c-145 -26 -310 -150 -421 -316 -18 -27 -54 -79 -79 -115
-25 -36 -70 -101 -99 -145 -83 -126 -37 -114 -462 -118 -369 -4 -369 -4 -458
-47 -172 -82 -273 -186 -335 -345 -58 -147 -56 -2982 2 -3121 65 -155 167
-261 324 -337 88 -42 88 -42 2133 -45 1436 -2 2064 1 2109 8 176 30 328 162
426 370 45 95 45 95 43 1580 -3 1668 7 1535 -139 1715 -161 197 -256 226 -735
224 -345 -2 -325 -8 -412 116 -35 50 -73 100 -85 113 -11 12 -30 38 -41 56
-246 406 -273 416 -1109 415 -342 -1 -640 -5 -662 -8z m1214 -628 c16 -16 105
-140 197 -278 92 -137 187 -276 211 -308 74 -96 48 -92 517 -94 361 -1 411 -3
425 -18 27 -27 24 -2621 -3 -2641 -36 -26 -3797 -21 -3820 5 -17 19 -21 658
-16 2619 0 34 58 39 415 37 337 -2 455 4 483 28 24 19 103 128 113 155 6 15
24 45 40 67 31 42 61 85 106 150 15 22 37 51 49 65 12 14 49 67 83 117 89 133
30 122 643 123 528 0 528 0 557 -27z M4225 5146 c-33 -8 -78 -21 -101 -29 -22
-8 -67 -20 -99 -27 -270 -56 -668 -458 -724 -730 -6 -30 -21 -84 -34 -120 -95
-278 65 -749 348 -1023 46 -45 185 -147 200 -147 4 0 40 -16 80 -35 40 -20
113 -44 162 -55 48 -10 108 -26 133 -35 77 -28 286 -24 380 7 41 14 98 29 125
33 75 10 277 112 372 187 163 128 314 361 354 546 11 51 28 109 37 130 29 66
24 308 -9 402 -15 41 -30 97 -34 124 -19 133 -179 383 -314 490 -77 62 -203
146 -217 146 -6 0 -32 14 -59 31 -28 18 -87 40 -144 54 -53 13 -115 31 -138
39 -63 22 -245 29 -318 12z m380 -647 c183 -94 259 -200 276 -385 13 -136 -6
-276 -45 -327 -14 -18 -26 -39 -26 -45 0 -5 -23 -37 -51 -69 -179 -208 -608
-213 -772 -9 -225 281 -177 643 109 821 129 81 365 87 509 14z"/></g>
</svg>