<?xml version="1.0" encoding="UTF-8" standalone="no"?>
<svg xmlns="http://www.w3.org/2000/svg" viewBox="0 0 952 952" width="952" height="952" preserveAspectRatio="xMidYMid meet" shape-rendering="geometricPrecision">
<g transform="translate(0.000000,952.000000) scale(0.100000,-0.100000)" fill="#111111" fill-rule="evenodd" stroke="none"><path d="M2514 7026 c-18 -8 -34 -19 -38 -24 -3 -6 -23 -16 -44 -23 -66 -22
-232 -199 -232 -248 0 -30 -8 -49 -35 -81 -35 -42 -35 -42 -33 -1869 3 -1827
3 -1827 30 -1869 15 -23 32 -60 37 -83 5 -23 21 -53 34 -68 14 -14 33 -45 42
-67 21 -54 133 -130 214 -146 31 -5 70 -21 89 -36 62 -47 4372 -41 4426 6 31
27 45 32 85 32 41 0 56 6 91 35 23 19 46 35 50 35 20 0 70 54 81 88 6 20 27
54 45 75 23 25 34 47 34 68 0 17 14 61 30 99 45 102 48 3549 3 3615 -19 28
-28 57 -33 104 -9 99 -134 256 -240 303 -25 10 -55 29 -68 41 -30 28 -4506 40
-4568 13z m4305 -575 c6 -10 8 -21 5 -23 -2 -3 -4 -694 -4 -1536 0 -842 -4
-1533 -8 -1536 -5 -3 -129 113 -275 259 -420 415 -619 601 -663 620 -21 9 -51
27 -65 41 -94 90 -199 35 -481 -248 -37 -38 -73 -68 -81 -68 -7 0 -97 84 -199
188 -563 568 -648 652 -657 652 -6 0 -27 15 -47 33 -52 45 -161 48 -213 5 -17
-15 -51 -36 -74 -46 -38 -17 -1152 -1120 -1243 -1230 -15 -18 -31 -29 -35 -25
-10 10 -13 2908 -4 2924 13 21 4033 11 4044 -10z M5375 6041 c-76 -48 -163
-158 -170 -216 -13 -102 -6 -117 126 -250 65 -67 119 -126 119 -133 0 -6 -53
-64 -118 -129 -208 -209 -211 -226 -67 -377 140 -147 173 -142 374 57 70 70
133 127 139 127 12 0 103 -89 201 -195 80 -88 202 -91 271 -7 16 20 46 57 66
82 69 85 50 183 -53 279 -181 168 -180 159 -26 301 102 95 102 95 103 185 0
90 0 90 -92 178 -51 48 -103 90 -115 93 -31 8 -111 -25 -131 -54 -27 -40 -200
-212 -213 -212 -6 0 -71 60 -143 134 -164 168 -196 184 -271 137z"/></g>
</svg>