<?xml version="1.0" encoding="UTF-8" standalone="no"?>
<svg xmlns="http://www.w3.org/2000/svg" viewBox="0 0 432 480" width="432" height="480" preserveAspectRatio="xMidYMid meet" shape-rendering="geometricPrecision">
<g transform="translate(0.000000,480.000000) scale(0.100000,-0.100000)" fill="#59ac8d" fill-rule="evenodd" stroke="none"><path d="M2095 2132 c-93 -43 -106 -124 -106 -669 -1 -404 -1 -413 21 -457 57
-119 210 -122 283 -5 41 67 49 136 42 379 -4 118 -2 265 3 325 26 305 -85 500
-243 427z"/></g>
<g transform="translate(0.000000,480.000000) scale(0.100000,-0.100000)" fill="#131313" fill-rule="evenodd" stroke="none"><path d="M2051 4560 c-85 -41 -188 -124 -511 -415 -74 -66 -209 -185 -300
-265 -92 -80 -225 -197 -296 -260 -71 -64 -165 -146 -209 -184 -408 -351 -497
-448 -515 -561 -14 -84 -13 -2279 1 -2365 20 -129 119 -230 269 -275 135 -40
3214 -39 3342 1 162 51 244 140 267 291 18 117 15 2249 -3 2346 -19 99 -72
174 -208 293 -56 50 -153 136 -214 190 -61 55 -241 214 -399 354 -159 140
-370 327 -468 415 -552 492 -589 513 -756 435z m327 -567 c105 -93 275 -242
378 -333 103 -91 258 -228 343 -305 86 -77 187 -167 225 -200 260 -224 373
-330 388 -363 28 -60 27 -2141 -1 -2166 -33 -30 -3079 -25 -3103 5 -21 25 -28
2097 -8 2156 7 19 74 85 192 189 173 151 436 383 798 704 493 436 545 480 575
480 16 0 82 -52 213 -167z"/></g>
</svg>