<?xml version="1.0" encoding="UTF-8" standalone="no"?>
<svg xmlns="http://www.w3.org/2000/svg" viewBox="0 0 407 240" width="407" height="240" preserveAspectRatio="xMidYMid meet" shape-rendering="geometricPrecision">
<g transform="translate(0.000000,240.000000) scale(0.100000,-0.100000)" fill="#121212" fill-rule="evenodd" stroke="none"><path d="M3614 2182 c-32 -22 -83 -65 -113 -98 -242 -263 -1445 -1455 -1466
-1452 -15 2 -295 273 -789 763 -862 855 -839 835 -934 800 -125 -47 -166 -149
-99 -251 48 -72 1670 -1694 1733 -1733 58 -35 115 -41 154 -15 76 50 1733
1722 1761 1776 85 167 -87 313 -247 210z"/></g>
</svg>