<?xml version="1.0" encoding="UTF-8" standalone="no"?>
<svg xmlns="http://www.w3.org/2000/svg" viewBox="0 0 465 423" width="465" height="423" preserveAspectRatio="xMidYMid meet" shape-rendering="geometricPrecision">
<g transform="translate(0.000000,423.000000) scale(0.100000,-0.100000)" fill="#ed88aa" fill-rule="evenodd" stroke="none"><path d="M855 4010 c-623 -9 -644 -34 -636 -715 3 -173 36 -237 136 -261 35
-8 3388 -12 3721 -4 351 8 353 11 355 562 1 230 -77 342 -276 399 -82 23
-2186 35 -3300 19z m231 -250 c210 -108 204 -384 -9 -481 -84 -38 -178 -16
-262 62 -202 186 30 543 271 419z M402 2659 c-173 -13 -187 -46 -187 -434 0
-508 9 -552 126 -585 20 -6 545 -9 1353 -8 727 1 1600 1 1941 -1 870 -3 789
-50 792 464 2 485 -3 509 -114 551 -45 17 -3692 29 -3911 13z m3183 -312 c233
-11 350 -175 245 -345 -47 -76 -51 -77 -623 -80 -529 -3 -555 -1 -618 41 -98
65 -99 268 -2 334 60 41 83 44 312 49 124 3 226 6 227 7 3 3 361 -2 459 -6z
M510 1290 c-286 -9 -307 -45 -296 -506 11 -443 53 -521 311 -563 95 -15 3530
-8 3623 8 247 42 311 237 273 832 -9 147 -23 178 -100 212 -45 21 -3255 35
-3811 17z m3248 -364 c114 -64 147 -232 60 -314 -74 -68 -298 -85 -998 -72
-230 4 -321 72 -305 229 19 185 25 187 765 186 425 0 425 0 478 -29z"/></g>
</svg>