<?xml version="1.0" encoding="UTF-8" standalone="no"?>
<svg xmlns="http://www.w3.org/2000/svg" viewBox="0 0 868 868" width="868" height="868" preserveAspectRatio="xMidYMid meet" shape-rendering="geometricPrecision">
<g transform="translate(0.000000,868.000000) scale(0.100000,-0.100000)" fill="#141414" fill-rule="evenodd" stroke="none"><path d="M2407 7318 c-89 -8 -129 -32 -307 -177 -48 -39 -119 -169 -136 -250
-8 -36 -21 -88 -29 -114 -13 -43 -15 -355 -15 -2471 0 -2661 -5 -2509 76
-2645 45 -77 210 -154 280 -131 93 30 223 84 264 110 25 16 65 36 90 46 25 10
64 30 86 46 23 15 95 52 160 83 66 30 162 76 214 103 52 27 117 60 143 73 490
242 759 378 791 401 21 15 45 28 51 28 7 0 44 15 81 34 191 96 214 99 336 45
51 -23 120 -52 153 -66 33 -14 73 -35 90 -47 16 -11 93 -53 170 -92 77 -38
149 -75 160 -82 11 -6 49 -25 85 -41 36 -17 81 -39 100 -50 65 -36 215 -108
240 -116 14 -4 50 -22 80 -41 30 -18 138 -72 240 -120 102 -48 204 -100 227
-116 23 -15 45 -28 48 -28 4 0 61 -27 126 -60 205 -104 323 -135 395 -105 98
41 153 112 195 252 29 96 29 96 29 2507 -1 1421 -5 2427 -10 2451 -5 22 -18
80 -29 128 -38 167 -98 247 -284 378 -107 75 69 69 -2087 71 -1070 2 -1976 0
-2013 -4z m3802 -587 c12 -21 14 -4198 3 -4316 -9 -86 -32 -96 -110 -47 -26
17 -66 35 -90 42 -23 6 -57 23 -75 39 -17 15 -102 62 -187 104 -85 42 -166 83
-180 91 -46 27 -214 106 -225 106 -6 0 -33 14 -60 31 -27 17 -70 38 -96 45
-25 8 -63 27 -84 44 -21 16 -42 30 -47 30 -15 0 -276 128 -282 139 -4 5 -32
19 -64 31 -31 12 -72 33 -91 47 -18 14 -53 31 -77 39 -24 7 -63 24 -87 38 -69
41 -173 17 -317 -70 -14 -8 -54 -29 -89 -46 -36 -16 -79 -41 -97 -54 -17 -13
-53 -32 -80 -41 -27 -9 -61 -24 -75 -34 -14 -10 -48 -26 -77 -37 -28 -11 -65
-31 -82 -45 -16 -14 -53 -33 -81 -42 -29 -10 -67 -28 -86 -41 -19 -12 -51 -28
-71 -35 -20 -6 -60 -24 -88 -40 -28 -16 -71 -36 -94 -44 -24 -9 -58 -27 -76
-40 -18 -14 -36 -25 -41 -25 -17 0 -266 -129 -287 -149 -12 -12 -50 -32 -84
-45 -35 -14 -78 -34 -96 -45 -46 -29 -84 -27 -95 3 -14 35 -14 4341 -1 4366
16 30 3653 32 3669 1z"/></g>
</svg>