<?xml version="1.0" encoding="UTF-8" standalone="no"?>
<svg xmlns="http://www.w3.org/2000/svg" viewBox="0 0 459 438" width="459" height="438" preserveAspectRatio="xMidYMid meet" shape-rendering="geometricPrecision">
<g transform="translate(0.000000,438.000000) scale(0.100000,-0.100000)" fill="#121212" fill-rule="evenodd" stroke="none"><path d="M2215 4166 c-38 -6 -88 -21 -110 -33 -22 -11 -69 -34 -105 -51 -36
-16 -123 -58 -195 -92 -129 -62 -176 -84 -330 -155 -44 -20 -109 -50 -145 -67
-36 -17 -76 -36 -90 -43 -14 -6 -34 -16 -45 -22 -11 -6 -56 -28 -100 -48 -44
-20 -102 -47 -130 -61 -27 -13 -66 -30 -85 -38 -19 -8 -46 -21 -60 -29 -24
-14 -50 -27 -235 -112 -317 -145 -379 -212 -378 -410 0 -107 17 -155 85 -230
44 -49 173 -135 201 -135 8 0 39 -13 70 -30 31 -16 62 -30 69 -30 12 0 123
-51 211 -96 26 -13 53 -24 61 -24 7 0 40 -13 72 -29 69 -33 165 -76 284 -126
47 -19 108 -46 135 -59 94 -45 211 -96 219 -96 9 0 123 -52 189 -85 26 -14 53
-25 61 -25 7 0 37 -13 67 -29 30 -15 72 -34 94 -41 22 -7 50 -19 62 -27 108
-71 304 -66 447 11 27 14 56 26 65 26 9 0 32 10 51 21 19 12 53 28 75 35 22 8
58 23 80 34 80 38 171 78 195 85 14 4 49 21 79 36 30 16 61 29 69 29 8 0 29 9
47 20 18 11 52 27 76 35 24 9 62 24 84 35 22 10 78 35 125 55 47 20 108 47
135 60 28 13 88 40 135 60 47 20 112 49 145 65 33 17 66 30 73 30 7 0 38 14
69 30 31 17 63 30 72 30 75 0 263 188 277 275 34 227 -48 358 -286 460 -19 8
-57 26 -85 39 -27 14 -86 41 -130 61 -44 21 -109 51 -145 67 -36 17 -76 37
-90 45 -14 8 -41 21 -60 29 -19 8 -57 25 -85 38 -80 39 -274 131 -350 166 -97
45 -200 93 -340 160 -66 32 -156 74 -200 94 -44 21 -100 48 -125 60 -40 21
-67 27 -175 41 -16 2 -61 -2 -100 -9z m161 -390 c32 -13 73 -30 89 -39 40 -21
151 -73 195 -91 19 -8 46 -22 60 -30 14 -8 61 -31 105 -51 176 -81 211 -98
235 -112 14 -8 41 -21 60 -29 19 -8 64 -29 100 -46 36 -17 92 -43 125 -58 171
-78 214 -99 250 -117 57 -30 193 -93 201 -93 5 0 25 -11 45 -24 20 -14 51 -29
69 -33 59 -16 68 -66 13 -79 -15 -3 -55 -19 -88 -34 -33 -16 -98 -45 -145 -65
-47 -20 -112 -49 -145 -65 -33 -17 -67 -30 -75 -30 -9 0 -25 -7 -37 -15 -21
-15 -111 -54 -218 -96 -49 -20 -88 -37 -215 -98 -36 -17 -71 -31 -79 -31 -7 0
-28 -9 -46 -20 -18 -11 -52 -27 -76 -35 -45 -16 -110 -45 -214 -96 -33 -16
-66 -29 -72 -29 -7 0 -39 -13 -70 -30 -122 -63 -180 -62 -300 6 -23 13 -48 24
-55 24 -7 0 -40 13 -73 29 -58 29 -100 47 -285 126 -47 19 -106 47 -131 60
-26 14 -53 25 -60 25 -8 0 -41 13 -74 30 -33 16 -98 45 -145 65 -47 19 -106
46 -133 60 -26 14 -52 25 -59 25 -12 0 -124 51 -211 96 -26 13 -53 24 -60 24
-6 0 -37 12 -67 27 -30 14 -75 33 -100 42 -48 17 -63 54 -30 72 8 4 51 24 95
44 44 21 136 64 205 97 123 59 195 93 315 148 33 15 112 52 175 83 63 30 151
72 195 92 44 20 132 62 195 92 63 31 142 68 175 83 33 16 98 46 145 68 133 62
132 62 216 28z M659 2161 c-27 -21 -39 -162 -24 -279 7 -58 62 -134 108 -148
12 -4 33 -14 47 -24 14 -10 36 -21 50 -24 14 -4 52 -20 85 -36 33 -16 98 -45
145 -65 47 -20 108 -47 135 -60 28 -13 82 -38 120 -55 39 -18 97 -45 131 -61
34 -16 65 -29 70 -29 10 0 130 -55 207 -95 26 -14 53 -25 60 -25 6 0 39 -13
72 -29 129 -63 212 -101 219 -101 4 0 31 -11 59 -24 111 -53 267 -53 367 -2
25 13 56 27 70 31 14 4 54 21 90 37 151 69 198 90 243 114 26 13 53 24 60 24
6 0 39 13 72 29 33 16 98 46 145 67 98 42 194 85 265 119 28 13 88 40 135 60
47 20 112 49 145 65 33 17 67 30 75 30 31 1 153 87 184 129 42 59 54 296 16
343 -26 34 -37 35 -84 3 -20 -14 -49 -28 -64 -31 -15 -4 -45 -17 -67 -29 -22
-12 -51 -26 -65 -30 -25 -7 -110 -45 -205 -90 -27 -14 -88 -41 -135 -60 -47
-20 -107 -47 -135 -60 -95 -46 -184 -85 -191 -85 -7 0 -90 -38 -219 -101 -33
-16 -66 -29 -72 -29 -7 0 -34 -11 -60 -24 -27 -14 -77 -38 -113 -54 -36 -17
-100 -46 -144 -66 -57 -26 -92 -36 -129 -36 -50 0 -56 2 -252 95 -114 54 -184
85 -191 85 -4 0 -34 13 -68 30 -34 16 -99 46 -146 65 -78 33 -116 51 -265 120
-27 13 -88 39 -135 59 -47 20 -106 48 -133 61 -26 14 -52 25 -59 25 -6 0 -46
16 -87 36 -42 20 -105 50 -141 66 -36 16 -86 41 -111 54 -56 29 -51 28 -80 5z
M375 1308 c-81 -71 -104 -166 -57 -236 29 -44 116 -112 143 -112 9 0 41 -13
72 -30 31 -16 63 -30 70 -30 7 0 31 -9 52 -21 22 -11 67 -31 100 -43 101 -39
168 -68 216 -92 26 -13 53 -24 61 -24 9 0 40 -13 71 -30 31 -16 63 -30 70 -30
8 0 36 -11 63 -25 27 -14 65 -30 84 -36 19 -6 55 -22 80 -34 49 -25 126 -57
205 -86 28 -10 72 -29 99 -43 27 -14 57 -26 65 -26 9 0 34 -12 56 -25 22 -14
47 -25 56 -25 8 0 37 -11 65 -24 109 -54 325 -135 359 -136 23 0 106 31 190
71 33 16 65 29 71 29 7 0 38 13 69 30 31 16 64 30 72 30 8 0 32 9 52 20 20 11
59 28 86 39 28 10 88 36 135 56 47 21 112 48 145 60 33 13 78 32 100 44 21 12
46 21 55 21 8 0 30 9 48 20 18 11 56 28 85 39 76 27 177 69 217 90 19 10 51
24 70 30 19 6 57 22 84 36 27 14 57 25 65 25 9 0 30 8 46 18 17 11 55 28 85
40 167 63 194 78 256 137 73 71 85 106 59 170 -53 128 -178 171 -310 105 -33
-16 -67 -30 -75 -30 -8 0 -30 -9 -48 -20 -18 -11 -56 -28 -85 -39 -71 -25
-172 -68 -231 -97 -28 -13 -57 -24 -65 -24 -9 0 -31 -9 -49 -20 -18 -11 -56
-28 -85 -39 -65 -23 -169 -66 -222 -91 -72 -34 -202 -90 -211 -90 -4 0 -26 -9
-48 -19 -23 -11 -63 -29 -91 -39 -27 -11 -88 -37 -135 -57 -47 -21 -105 -45
-130 -54 -25 -9 -72 -30 -104 -46 -80 -39 -132 -38 -220 3 -38 18 -74 32 -81
32 -7 0 -39 14 -70 30 -31 17 -62 30 -69 30 -7 0 -34 11 -62 24 -56 28 -156
70 -229 97 -27 10 -72 30 -99 44 -27 14 -57 25 -65 25 -9 0 -30 8 -46 19 -17
10 -48 24 -70 31 -22 7 -60 23 -85 36 -25 13 -58 26 -74 30 -17 4 -54 20 -84
36 -30 15 -61 28 -71 28 -9 0 -34 12 -56 25 -22 14 -47 25 -56 25 -9 0 -41 14
-72 30 -31 17 -63 30 -71 30 -8 0 -40 14 -71 30 -31 17 -61 30 -67 30 -5 0
-40 14 -78 30 -99 43 -185 43 -235 -2z"/></g>
</svg>