<?xml version="1.0" encoding="UTF-8" standalone="no"?>
<svg xmlns="http://www.w3.org/2000/svg" viewBox="0 0 960 960" width="960" height="960" preserveAspectRatio="xMidYMid meet" shape-rendering="geometricPrecision">
<g transform="translate(0.000000,960.000000) scale(0.100000,-0.100000)" fill="#666666" fill-rule="evenodd" stroke="none"><path d="M2533 7350 c-40 -4 -76 -16 -100 -32 -21 -14 -54 -30 -73 -37 -53
-18 -171 -120 -205 -178 -16 -28 -39 -63 -50 -79 -33 -46 -34 -99 -34 -2039 0
-2106 -1 -2057 52 -2134 20 -29 37 -59 37 -67 0 -24 119 -142 150 -149 16 -4
44 -17 63 -29 68 -47 53 -46 982 -46 845 0 884 -1 957 -20 145 -38 301 -132
331 -198 6 -15 26 -46 44 -70 18 -24 33 -49 33 -56 0 -7 13 -25 28 -40 66 -63
165 -33 217 66 61 115 138 193 265 268 74 45 74 45 1035 50 960 5 960 5 1048
51 95 50 172 123 205 196 10 21 31 58 47 82 30 45 30 45 35 1885 6 2233 8
2143 -50 2256 -61 121 -158 214 -288 278 -97 47 -97 47 -1057 47 -960 0 -960
0 -1025 -32 -36 -17 -85 -34 -110 -38 -27 -4 -73 -25 -115 -51 -107 -69 -142
-68 -245 1 -31 21 -79 41 -118 50 -36 9 -79 24 -96 34 -17 11 -58 24 -90 30
-67 12 -1767 13 -1873 1z m1812 -568 c66 -19 138 -91 189 -190 11 -23 14 -309
17 -1745 4 -1719 4 -1719 -25 -1744 -21 -18 -35 -23 -55 -18 -115 29 -269 34
-1021 34 -736 0 -774 1 -792 18 -17 18 -18 88 -18 1814 0 1832 0 1826 31 1837
32 12 1630 6 1674 -6z m2677 -12 c26 -32 27 -3596 1 -3629 -18 -22 -18 -22
-858 -24 -585 -2 -852 -6 -880 -14 -87 -25 -106 -24 -137 7 -29 29 -29 29 -26
1757 3 1956 -7 1752 90 1837 110 96 57 91 996 89 785 -3 797 -3 814 -23z"/></g>
</svg>