<?xml version="1.0" encoding="UTF-8" standalone="no"?>
<svg xmlns="http://www.w3.org/2000/svg" viewBox="0 0 523 533" width="523" height="533" preserveAspectRatio="xMidYMid meet" shape-rendering="geometricPrecision">
<g transform="translate(0.000000,533.000000) scale(0.100000,-0.100000)" fill="#b6aee8" fill-rule="evenodd" stroke="none"><path d="M2522 5078 c-95 -33 -97 -173 -4 -297 79 -106 132 -194 138 -231 11
-64 38 -158 54 -190 9 -19 23 -51 29 -70 7 -19 21 -59 32 -87 10 -29 19 -70
19 -90 0 -21 5 -54 11 -73 14 -47 14 -496 0 -533 -6 -16 -11 -38 -11 -50 0
-12 -18 -58 -39 -102 -68 -137 -92 -198 -98 -250 -6 -57 -51 -157 -94 -211
-16 -20 -29 -42 -29 -48 0 -9 -86 -117 -153 -191 -9 -11 -42 -48 -72 -83 -56
-65 -124 -123 -185 -156 -19 -10 -64 -40 -100 -66 -36 -26 -81 -53 -100 -60
-65 -25 -192 -90 -235 -121 -53 -38 -131 -58 -250 -64 -49 -3 -103 -7 -120
-10 -16 -2 -59 -7 -95 -10 -36 -4 -96 -15 -135 -24 -70 -18 -238 -22 -295 -7
-14 3 -50 10 -80 16 -30 5 -86 21 -125 35 -38 15 -89 29 -111 31 -23 2 -54 10
-69 18 -72 38 -164 -46 -157 -144 3 -34 30 -125 54 -180 51 -114 62 -137 79
-161 10 -15 30 -59 45 -99 26 -73 62 -131 139 -225 23 -27 63 -81 90 -120 27
-38 64 -86 82 -106 18 -20 33 -41 33 -46 0 -19 142 -141 235 -203 13 -9 61
-53 107 -98 46 -45 99 -92 118 -103 19 -12 44 -30 56 -40 11 -11 76 -39 143
-64 126 -47 153 -59 185 -85 10 -8 21 -14 25 -13 3 0 34 -14 68 -33 34 -19 70
-37 80 -39 19 -5 158 -54 158 -56 0 0 11 -2 25 -4 14 -1 38 -8 53 -14 15 -6
31 -10 35 -9 4 2 21 -2 37 -9 32 -12 155 -39 220 -48 63 -9 211 -7 252 4 21 5
83 12 138 16 55 3 118 7 140 10 22 3 67 7 100 10 35 3 106 22 170 46 212 79
240 89 263 89 37 0 237 87 367 158 224 123 283 169 469 360 28 29 101 104 163
166 108 111 188 211 235 296 35 65 43 78 60 97 8 10 27 41 43 68 15 28 43 73
62 101 48 74 83 196 99 344 7 73 8 79 17 100 3 8 13 53 22 100 21 110 19 102
34 128 7 13 14 55 17 93 2 38 8 77 13 87 9 18 8 137 -3 212 -4 25 -9 68 -11
95 -6 77 -15 143 -32 220 -8 39 -17 86 -20 105 -2 19 -29 118 -59 219 -30 101
-54 188 -54 193 0 5 -20 43 -44 86 -24 42 -59 106 -78 142 -19 36 -45 83 -58
105 -13 22 -28 49 -34 60 -48 85 -64 104 -360 420 -169 180 -234 243 -260 251
-12 4 -47 24 -78 45 -31 22 -60 39 -64 39 -4 0 -15 6 -23 14 -9 8 -61 33 -116
57 -55 23 -136 61 -181 85 -69 35 -178 71 -275 89 -13 2 -53 13 -89 24 -36 11
-99 27 -140 36 -41 9 -86 20 -100 25 -106 35 -314 51 -378 28z m774 -393 c30
-19 88 -43 127 -55 40 -12 81 -27 92 -34 11 -7 43 -21 70 -31 100 -35 141 -58
198 -111 32 -30 63 -54 69 -54 16 0 230 -184 270 -232 20 -24 75 -83 123 -133
76 -78 130 -148 169 -220 6 -11 37 -63 68 -116 44 -74 59 -109 63 -150 4 -30
24 -110 45 -179 21 -69 43 -147 49 -175 6 -27 15 -70 22 -95 6 -25 15 -70 19
-101 5 -31 15 -69 21 -85 15 -37 27 -444 13 -465 -2 -4 -8 -27 -13 -51 -5 -24
-14 -68 -21 -98 -6 -30 -14 -68 -17 -85 -3 -16 -9 -38 -14 -47 -5 -10 -23 -75
-40 -145 -46 -196 -73 -263 -143 -362 -17 -24 -35 -51 -41 -60 -5 -9 -33 -48
-61 -86 -29 -39 -67 -99 -85 -133 -19 -35 -39 -73 -45 -84 -17 -29 -63 -75
-116 -116 -27 -20 -48 -41 -48 -48 0 -6 -17 -24 -37 -40 -21 -15 -60 -50 -88
-77 -27 -27 -62 -56 -78 -63 -15 -8 -51 -33 -80 -54 -34 -26 -89 -52 -161 -77
-60 -20 -135 -54 -165 -75 -30 -20 -69 -40 -86 -44 -16 -3 -37 -12 -45 -19
-55 -45 -190 -97 -304 -115 -65 -11 -125 -25 -132 -31 -25 -20 -373 -32 -474
-16 -19 4 -55 9 -80 12 -25 4 -70 14 -100 23 -30 9 -57 16 -60 17 -3 0 -15 6
-27 13 -13 7 -23 10 -23 7 0 -4 -6 -3 -12 2 -15 9 -26 12 -93 23 -27 5 -81 18
-120 30 -38 12 -77 23 -85 24 -47 8 -108 30 -125 46 -25 23 -262 162 -322 189
-11 5 -24 14 -27 20 -3 5 -38 22 -77 37 -60 24 -78 36 -110 79 -48 63 -168
187 -236 242 -29 24 -65 68 -84 100 -18 32 -38 65 -45 73 -14 17 -62 140 -68
177 -20 106 94 158 369 168 66 2 134 8 151 13 17 6 60 10 96 10 124 0 237 23
327 67 25 12 72 28 105 35 54 11 179 66 283 124 67 38 328 252 380 313 26 30
100 106 164 168 107 106 127 132 159 210 17 40 42 90 74 145 27 46 52 97 103
210 17 36 33 89 36 117 3 29 13 68 21 85 17 38 31 91 42 163 4 28 8 52 9 55
19 73 28 316 14 380 -5 25 -11 81 -13 125 -11 214 -17 268 -36 308 -11 22 -25
68 -31 101 -5 34 -14 80 -20 104 -14 66 -11 99 14 126 63 72 222 82 323 21z
M959 4223 c-20 -21 -46 -58 -59 -83 -42 -83 -76 -116 -163 -158 -176 -84 -191
-257 -28 -307 79 -24 145 -88 191 -181 21 -45 115 -124 133 -112 1 1 12 -4 23
-10 27 -15 81 18 104 63 79 156 122 208 194 230 83 26 139 80 152 146 7 35
-108 169 -145 169 -62 0 -190 120 -211 199 -23 87 -128 111 -191 44z"/></g>
</svg>