<?xml version="1.0" encoding="UTF-8" standalone="no"?>
<svg xmlns="http://www.w3.org/2000/svg" viewBox="0 0 952 952" width="952" height="952" preserveAspectRatio="xMidYMid meet" shape-rendering="geometricPrecision">
<g transform="translate(0.000000,952.000000) scale(0.100000,-0.100000)" fill="#111111" fill-rule="evenodd" stroke="none"><path d="M4916 7590 c-34 -11 -82 -54 -102 -92 -10 -20 -14 -71 -14 -203 0
-131 -3 -177 -12 -180 -7 -2 -100 -9 -207 -15 -178 -9 -197 -12 -235 -34 -33
-19 -65 -27 -143 -34 -88 -8 -106 -13 -133 -36 -17 -14 -35 -26 -38 -26 -77
-4 -146 -21 -172 -44 -17 -14 -49 -30 -71 -36 -22 -6 -61 -25 -87 -42 -26 -18
-65 -44 -87 -59 -22 -14 -50 -30 -63 -33 -12 -4 -44 -25 -70 -46 -85 -71 -107
-87 -132 -100 -79 -40 -393 -357 -434 -437 -9 -17 -41 -61 -71 -97 -31 -36
-63 -82 -73 -103 -9 -21 -29 -54 -44 -74 -16 -20 -28 -40 -28 -45 0 -6 -13
-30 -29 -55 -15 -25 -34 -62 -40 -82 -7 -20 -24 -53 -37 -73 -14 -21 -30 -62
-34 -91 -5 -31 -22 -73 -38 -98 -22 -34 -30 -60 -35 -113 -4 -47 -14 -86 -32
-121 -66 -125 -66 -981 -1 -1121 14 -31 29 -89 35 -133 7 -57 16 -89 35 -116
14 -20 30 -58 35 -85 5 -26 18 -58 30 -70 12 -13 29 -45 37 -71 8 -27 25 -63
38 -80 14 -18 28 -44 32 -59 3 -14 21 -45 40 -68 19 -24 34 -47 34 -53 0 -9
17 -34 129 -192 94 -131 211 -252 393 -404 171 -142 230 -186 285 -208 17 -7
41 -24 54 -37 12 -13 41 -29 63 -35 23 -6 52 -22 66 -35 14 -13 46 -30 70 -37
25 -8 62 -25 82 -39 20 -14 58 -28 84 -32 27 -3 65 -18 86 -33 30 -20 57 -28
126 -35 53 -6 107 -19 140 -34 133 -61 886 -60 1020 1 38 18 85 29 143 34 68
6 94 13 125 34 21 15 60 30 87 33 28 4 60 16 75 29 36 30 60 41 103 49 20 3
44 15 54 26 10 11 38 27 64 36 25 10 57 27 71 40 14 12 43 31 65 43 157 85
414 309 591 518 105 124 129 155 149 193 10 19 26 46 37 60 39 51 86 129 96
160 7 17 23 45 36 61 14 17 30 49 37 72 6 23 22 59 36 80 14 20 30 61 35 90 5
28 21 70 35 91 19 30 28 61 35 125 6 54 19 105 35 138 59 127 59 905 -1 1008
-19 32 -28 67 -35 127 -6 64 -14 93 -34 124 -15 23 -30 65 -36 101 -6 40 -19
75 -35 96 -14 18 -30 55 -36 82 -6 28 -20 59 -30 70 -11 11 -26 40 -35 64 -8
24 -28 59 -45 77 -16 19 -30 43 -30 53 0 17 -25 52 -110 156 -19 23 -53 66
-75 96 -80 107 -130 139 -218 139 -104 0 -337 -230 -337 -332 0 -36 52 -136
80 -153 10 -6 63 -83 106 -151 11 -19 30 -44 42 -57 11 -12 29 -40 38 -62 9
-22 25 -50 35 -64 10 -13 24 -42 30 -65 6 -22 22 -58 36 -79 15 -21 30 -62 35
-95 5 -31 21 -77 35 -100 20 -35 27 -65 34 -150 12 -147 18 -186 41 -272 26
-96 21 -252 -11 -350 -13 -37 -26 -112 -31 -174 -8 -91 -13 -115 -35 -148 -15
-22 -30 -65 -35 -95 -5 -31 -20 -72 -34 -92 -13 -20 -29 -54 -36 -76 -12 -39
-40 -90 -87 -158 -12 -18 -34 -53 -47 -79 -14 -26 -30 -50 -36 -53 -6 -4 -21
-23 -34 -43 -65 -103 -321 -344 -418 -393 -24 -12 -57 -33 -75 -48 -77 -63
-98 -75 -146 -88 -28 -7 -67 -24 -86 -37 -20 -14 -58 -30 -86 -36 -27 -6 -66
-22 -85 -35 -29 -20 -54 -25 -157 -33 -97 -8 -132 -15 -177 -36 -84 -40 -439
-40 -517 -1 -40 21 -73 27 -170 35 -104 8 -126 12 -158 34 -20 14 -64 31 -99
39 -36 8 -74 24 -87 37 -13 12 -45 26 -71 31 -27 5 -60 20 -74 32 -30 28 -99
75 -150 102 -82 44 -243 194 -416 386 -46 52 -108 144 -119 178 -4 12 -20 37
-35 55 -16 18 -33 51 -38 74 -6 23 -21 55 -34 71 -15 17 -30 53 -37 88 -6 32
-23 76 -37 96 -20 30 -28 57 -35 130 -5 51 -20 123 -34 162 -39 110 -38 554 1
647 15 37 29 95 34 145 7 67 14 92 35 119 16 21 30 56 35 91 5 31 21 72 35 93
14 21 31 55 36 76 6 22 21 50 34 64 13 14 31 41 42 61 56 109 176 252 346 415
141 136 223 200 275 213 21 6 49 22 62 36 13 13 39 28 58 31 19 4 49 20 68 36
24 22 49 32 92 38 36 5 75 19 100 35 30 20 59 28 123 35 46 5 122 21 169 35
67 20 102 25 165 23 l80 -3 5 -170 c7 -199 5 -193 82 -245 86 -57 154 -44 269
54 20 17 73 60 119 96 46 36 120 97 165 135 44 39 114 96 155 127 290 223 318
264 262 390 -26 56 -38 69 -112 123 -46 33 -117 90 -159 126 -42 36 -123 101
-181 144 -58 44 -143 113 -190 154 -142 123 -205 149 -294 121z M4704 5680
c-127 -64 -119 -10 -119 -773 0 -783 -11 -703 100 -756 100 -49 1178 -49 1300
-1 131 52 129 48 133 256 4 201 6 196 -84 264 -57 45 -57 45 -463 48 -223 2
-410 7 -414 11 -5 5 -8 186 -8 402 1 472 4 448 -79 513 -78 61 -278 81 -366
36z"/></g>
</svg>