<?xml version="1.0" encoding="UTF-8" standalone="no"?>
<svg xmlns="http://www.w3.org/2000/svg" viewBox="0 0 459 473" width="459" height="473" preserveAspectRatio="xMidYMid meet" shape-rendering="geometricPrecision">
<g transform="translate(0.000000,473.000000) scale(0.100000,-0.100000)" fill="#121212" fill-rule="evenodd" stroke="none"><path d="M3239 4505 c-53 -7 -110 -20 -127 -29 -16 -8 -52 -20 -78 -26 -184
-41 -447 -234 -609 -445 -84 -111 -215 -348 -230 -415 -4 -19 -16 -52 -26 -72
-11 -21 -23 -54 -27 -74 -10 -47 -34 -64 -63 -45 -12 7 -45 21 -73 31 -55 19
-135 51 -204 81 -23 10 -75 24 -115 30 -39 5 -94 18 -122 26 -57 19 -153 20
-240 3 -33 -6 -99 -17 -146 -25 -47 -7 -104 -22 -125 -33 -21 -11 -55 -23 -74
-27 -195 -42 -483 -323 -614 -600 -81 -169 -84 -178 -92 -230 -4 -27 -16 -72
-26 -100 -44 -110 -43 -531 1 -658 10 -29 22 -73 26 -97 9 -51 66 -213 94
-268 11 -20 40 -80 65 -132 48 -100 97 -181 174 -291 185 -263 412 -478 633
-599 68 -37 216 -108 284 -138 147 -62 182 -75 255 -93 41 -10 91 -25 112 -34
115 -46 727 -46 860 -1 40 14 98 29 130 35 80 14 390 151 478 212 14 9 61 37
105 63 187 108 423 340 571 561 26 39 59 88 74 110 87 130 189 396 237 620 37
176 41 525 6 665 -12 47 -25 107 -29 135 -4 27 -17 72 -30 100 -13 27 -24 57
-24 65 0 17 -77 172 -122 245 -80 131 -299 343 -388 374 -76 27 -155 76 -158
98 -2 12 9 71 23 130 67 274 28 724 -70 809 -62 55 -135 64 -316 39z m27 -401
c28 -41 14 -326 -19 -423 -46 -130 -33 -123 -252 -140 -135 -10 -174 -21 -320
-90 -154 -73 -170 -67 -115 44 17 33 30 66 30 73 0 42 180 293 258 359 122
105 288 190 394 202 4 1 15 -11 24 -25z m-1674 -930 c51 -14 118 -36 148 -49
30 -13 66 -27 80 -30 14 -3 48 -17 75 -30 28 -14 86 -40 130 -58 44 -19 107
-45 140 -59 147 -63 237 -58 380 18 295 157 359 184 498 205 73 11 142 22 154
25 12 3 46 -1 76 -10 29 -9 86 -20 125 -26 136 -19 298 -129 396 -267 51 -73
136 -229 136 -251 0 -5 15 -58 32 -118 46 -153 49 -524 6 -659 -15 -44 -31
-104 -37 -132 -6 -29 -20 -69 -31 -90 -11 -21 -20 -42 -20 -47 0 -18 -84 -181
-124 -238 -22 -34 -48 -70 -56 -82 -18 -26 -104 -126 -161 -187 -59 -63 -170
-155 -249 -209 -36 -24 -78 -52 -93 -62 -121 -82 -403 -193 -547 -215 -190
-28 -569 -13 -688 28 -32 11 -87 26 -123 33 -36 8 -83 24 -105 35 -21 12 -46
21 -54 21 -9 0 -47 16 -86 35 -38 19 -72 35 -75 35 -12 0 -139 80 -213 133
-141 101 -239 202 -387 397 -81 107 -199 305 -199 335 0 6 -11 30 -24 55 -13
25 -28 68 -34 96 -6 28 -20 74 -31 102 -71 179 -36 643 60 793 8 13 21 40 29
59 28 72 162 229 239 282 72 49 185 106 225 113 20 4 62 16 94 26 85 27 200
25 314 -7z M1165 2586 c-59 -17 -100 -59 -109 -114 -13 -82 5 -343 30 -417 12
-38 26 -88 29 -110 12 -70 111 -272 184 -375 26 -36 54 -77 64 -92 31 -49 64
-38 177 60 126 110 137 139 80 217 -37 52 -105 173 -115 205 -4 14 -18 51 -32
84 -20 47 -26 87 -34 210 -19 293 -92 381 -274 332z"/></g>
</svg>