<?xml version="1.0" encoding="UTF-8" standalone="no"?>
<svg xmlns="http://www.w3.org/2000/svg" viewBox="0 0 868 868" width="868" height="868" preserveAspectRatio="xMidYMid meet" shape-rendering="geometricPrecision">
<g transform="translate(0.000000,868.000000) scale(0.100000,-0.100000)" fill="#141414" fill-rule="evenodd" stroke="none"><path d="M4115 7568 c-251 -12 -436 -51 -615 -129 -36 -15 -97 -35 -137 -43
-40 -8 -92 -26 -115 -40 -24 -14 -65 -30 -92 -36 -46 -10 -104 -40 -221 -115
-27 -18 -90 -52 -140 -76 -64 -31 -110 -62 -160 -110 -38 -36 -101 -87 -140
-111 -84 -54 -409 -377 -439 -436 -12 -22 -59 -82 -105 -134 -62 -70 -94 -116
-128 -187 -25 -51 -62 -121 -83 -155 -21 -33 -50 -79 -64 -102 -14 -22 -28
-60 -32 -85 -4 -24 -22 -69 -40 -99 -22 -37 -37 -78 -44 -124 -11 -70 -19 -91
-51 -136 -17 -25 -63 -197 -94 -355 -28 -149 -39 -939 -12 -981 3 -6 11 -44
18 -85 6 -41 19 -94 30 -119 10 -25 25 -74 34 -109 9 -36 28 -87 41 -114 14
-27 29 -74 34 -106 5 -31 28 -94 51 -141 95 -194 109 -226 109 -237 0 -6 15
-31 33 -55 18 -24 41 -63 51 -88 32 -81 78 -151 155 -237 42 -46 85 -103 97
-125 28 -54 376 -403 438 -438 26 -16 78 -55 115 -87 85 -76 145 -117 226
-153 36 -16 80 -40 98 -53 18 -13 50 -31 73 -40 22 -8 101 -45 175 -80 86 -42
157 -69 199 -77 36 -6 83 -22 105 -35 23 -13 70 -31 105 -40 36 -9 90 -25 120
-35 114 -38 383 -65 665 -68 222 -2 584 35 671 68 16 7 54 16 84 21 30 5 84
24 120 42 36 19 99 42 140 51 44 9 94 28 120 46 24 16 65 32 90 36 42 6 68 20
213 112 28 19 72 42 97 51 66 25 155 85 240 161 41 37 91 75 110 85 47 24 256
226 303 293 47 69 50 116 9 164 -16 18 -44 63 -61 100 -18 37 -53 91 -78 120
-103 124 -96 118 -148 118 -66 0 -86 -15 -260 -191 -82 -84 -175 -168 -205
-187 -30 -19 -71 -49 -90 -68 -39 -36 -139 -96 -192 -113 -18 -6 -55 -27 -82
-46 -27 -19 -65 -40 -85 -46 -20 -6 -61 -24 -91 -40 -30 -15 -83 -32 -116 -38
-34 -5 -84 -21 -111 -34 -32 -17 -81 -29 -143 -36 -97 -12 -180 -29 -285 -59
-84 -24 -431 -23 -496 0 -50 19 -225 53 -313 62 -33 4 -80 16 -105 27 -25 11
-84 31 -131 44 -104 28 -236 84 -281 118 -19 14 -60 35 -91 47 -32 12 -60 26
-63 31 -4 5 -24 18 -45 29 -22 11 -72 49 -112 83 -40 35 -100 83 -132 107 -80
58 -271 251 -328 331 -25 35 -72 94 -105 131 -36 41 -79 105 -109 165 -27 54
-64 120 -81 147 -18 26 -33 53 -33 60 0 6 -13 39 -29 72 -16 34 -34 88 -41
119 -7 32 -25 87 -40 124 -15 36 -31 93 -35 126 -9 81 -43 249 -61 306 -21 65
-26 405 -7 474 25 95 54 240 64 319 5 46 21 106 38 145 16 36 32 86 36 111 4
25 25 84 46 133 21 48 39 91 39 96 0 4 14 27 31 51 17 23 36 57 41 74 17 50
98 177 151 236 28 30 68 80 90 110 63 85 271 299 330 338 28 20 86 65 128 101
84 72 183 138 228 151 38 10 72 29 96 51 27 24 220 104 284 118 28 6 79 22
113 37 35 14 96 29 142 34 91 11 246 42 291 60 58 23 404 24 472 1 61 -20 239
-55 334 -66 30 -3 79 -17 107 -30 29 -13 80 -29 115 -35 34 -7 93 -27 131 -46
39 -19 75 -34 81 -34 6 0 42 -20 79 -45 38 -25 76 -45 85 -45 19 0 158 -88
209 -132 18 -15 50 -37 71 -47 45 -23 349 -325 394 -391 17 -25 60 -79 96
-121 69 -81 125 -167 152 -234 9 -22 32 -64 52 -94 21 -29 37 -58 37 -65 0 -6
14 -40 31 -76 17 -36 37 -93 45 -127 8 -34 28 -96 44 -138 28 -68 30 -105 7
-116 -1 -1 -166 -3 -367 -5 -399 -4 -416 -5 -454 -35 -52 -41 -28 -102 124
-309 26 -36 57 -84 69 -107 12 -24 50 -81 85 -127 36 -46 74 -103 87 -127 26
-53 73 -123 110 -166 15 -17 43 -63 63 -101 20 -37 63 -98 96 -135 32 -36 61
-76 65 -89 7 -22 85 -145 214 -336 31 -45 70 -105 88 -133 110 -175 204 -211
244 -91 6 19 24 55 40 81 16 26 35 79 44 121 8 41 28 100 44 130 16 30 31 71
35 90 4 19 18 71 31 115 66 220 91 688 56 1050 -19 203 -76 445 -122 517 -20
31 -34 69 -40 115 -6 39 -22 89 -38 118 -16 28 -36 77 -46 110 -9 33 -23 67
-30 75 -7 8 -23 35 -35 60 -13 25 -35 61 -50 80 -14 19 -37 62 -50 95 -13 33
-43 80 -66 105 -22 25 -58 70 -79 100 -21 30 -48 66 -60 80 -13 14 -32 43 -43
66 -30 59 -367 396 -428 427 -27 14 -60 37 -74 52 -14 15 -42 36 -64 47 -21
11 -62 44 -91 73 -31 31 -69 58 -91 65 -40 13 -140 67 -245 133 -33 20 -81 42
-107 48 -26 5 -67 22 -91 36 -25 14 -76 32 -114 39 -40 8 -95 28 -131 48 -35
20 -83 38 -107 42 -24 3 -71 14 -104 24 -182 55 -541 77 -930 58z"/></g>
</svg>