<?xml version="1.0" encoding="UTF-8" standalone="no"?>
<svg xmlns="http://www.w3.org/2000/svg" viewBox="0 0 546 544" width="546" height="544" preserveAspectRatio="xMidYMid meet" shape-rendering="geometricPrecision">
<g transform="translate(0.000000,544.000000) scale(0.100000,-0.100000)" fill="#3c3c3c" fill-rule="evenodd" stroke="none"><path d="M2490 5185 c-771 -81 -1394 -457 -1833 -1105 -106 -157 -230 -395
-262 -505 -9 -33 -26 -77 -37 -98 -10 -21 -26 -73 -34 -115 -8 -43 -26 -128
-40 -190 -13 -62 -29 -174 -34 -248 -15 -208 -10 -214 212 -214 205 0 196 -10
218 226 11 109 26 207 39 249 11 39 29 104 40 145 26 102 79 247 106 290 12
19 33 60 47 91 69 151 390 536 554 665 110 86 408 254 451 254 7 0 47 16 88
36 66 32 159 60 370 111 83 20 501 29 620 14 130 -18 402 -89 460 -121 28 -15
68 -33 90 -40 22 -7 65 -25 95 -41 30 -15 75 -37 100 -49 171 -78 480 -336
480 -401 0 -33 16 -23 -567 -325 -245 -127 -267 -153 -214 -254 113 -218 119
-225 195 -215 28 3 65 15 81 26 17 10 62 35 100 54 62 31 174 90 260 138 17 9
48 25 70 36 22 10 78 40 125 66 47 27 117 65 155 85 39 20 106 56 150 80 44
23 115 60 157 81 103 51 133 107 90 170 -218 327 -603 671 -937 838 -142 71
-273 128 -325 141 -25 7 -71 23 -103 36 -177 75 -674 120 -967 89z M4850 2727
c-44 -15 -59 -54 -59 -155 -1 -126 -71 -453 -115 -540 -7 -15 -21 -52 -31 -82
-19 -57 -117 -254 -140 -280 -7 -8 -20 -31 -30 -50 -81 -164 -357 -452 -572
-598 -26 -17 -70 -47 -98 -66 -126 -87 -253 -143 -455 -202 -333 -97 -327 -96
-595 -97 -300 0 -354 8 -625 92 -281 86 -329 110 -615 309 -144 100 -281 235
-269 265 7 20 89 67 649 369 185 100 188 109 98 286 -98 193 -100 193 -378 43
-33 -18 -75 -42 -93 -53 -18 -11 -55 -32 -83 -47 -125 -66 -435 -236 -559
-306 -47 -26 -114 -63 -150 -82 -114 -58 -132 -117 -62 -196 21 -23 64 -77 95
-120 179 -242 523 -530 817 -685 162 -85 476 -202 600 -223 36 -6 108 -23 160
-37 157 -44 629 -41 815 5 72 17 159 37 195 44 36 7 85 21 110 32 25 10 75 28
112 38 37 10 94 32 126 49 33 16 62 30 66 30 48 0 330 169 480 288 380 301
751 802 821 1107 3 17 19 59 35 95 15 36 36 103 45 150 9 47 28 130 42 185 40
164 45 381 8 415 -31 30 -275 42 -345 17z"/></g>
</svg>