<?xml version="1.0" encoding="UTF-8" standalone="no"?>
<svg xmlns="http://www.w3.org/2000/svg" viewBox="0 0 454 437" width="454" height="437" preserveAspectRatio="xMidYMid meet" shape-rendering="geometricPrecision">
<g transform="translate(0.000000,437.000000) scale(0.100000,-0.100000)" fill="#111111" fill-rule="evenodd" stroke="none"><path d="M1006 4163 c-4 -5 -159 -10 -344 -13 -378 -6 -375 -5 -427 -78 -42
-61 -43 -147 -2 -210 46 -70 106 -91 267 -93 107 -2 132 -5 145 -19 13 -14 15
-212 17 -1641 3 -1624 3 -1624 32 -1684 115 -234 351 -285 585 -125 46 31 250
150 257 150 4 0 22 11 40 25 18 14 35 25 39 25 3 0 44 24 92 53 47 28 106 64
132 79 83 48 135 78 201 119 36 21 76 45 90 51 14 7 43 25 64 40 52 37 98 37
159 -2 26 -17 51 -30 56 -30 4 0 25 -13 47 -30 21 -16 43 -30 47 -30 7 0 177
-99 267 -155 60 -38 110 -67 241 -143 25 -15 79 -47 120 -72 41 -25 82 -48 92
-52 10 -4 32 -18 50 -31 179 -130 367 -120 504 27 120 128 114 21 112 1881 -1
1529 -1 1529 21 1547 19 15 42 18 154 18 152 0 185 12 243 88 65 86 34 223
-62 272 -52 26 -3214 58 -3239 33z m2485 -423 c27 -15 30 -3096 3 -3107 -20
-8 -116 41 -244 124 -19 13 -40 23 -46 23 -6 0 -17 6 -23 14 -7 8 -31 24 -54
35 -23 12 -71 39 -107 61 -36 21 -85 51 -110 65 -25 14 -70 41 -100 60 -30 19
-75 46 -100 60 -49 28 -97 56 -209 123 -179 108 -302 94 -561 -63 -68 -42
-155 -93 -195 -114 -16 -9 -48 -29 -70 -44 -22 -15 -44 -27 -49 -27 -5 0 -24
-11 -42 -25 -18 -14 -35 -25 -39 -25 -3 0 -44 -24 -91 -52 -47 -29 -104 -63
-127 -76 -23 -12 -71 -41 -107 -62 -101 -62 -147 -83 -164 -77 -21 8 -25 3084
-4 3105 16 16 2409 18 2439 2z M2071 3364 c-20 -26 -21 -39 -21 -310 0 -366
42 -325 -332 -323 -364 2 -333 19 -333 -190 0 -210 -33 -191 335 -191 272 0
298 -1 313 -18 14 -15 17 -59 19 -319 4 -376 -14 -343 188 -343 202 0 184 -33
188 343 2 260 5 304 19 319 15 17 41 18 313 18 368 0 335 -19 335 191 0 209
31 191 -331 190 -240 0 -292 2 -311 14 -23 15 -23 15 -23 304 0 370 16 341
-190 341 -149 0 -149 0 -169 -26z"/></g>
</svg>