<?xml version="1.0" encoding="UTF-8" standalone="no"?>
<svg xmlns="http://www.w3.org/2000/svg" viewBox="0 0 1116 1116" width="1116" height="1116" preserveAspectRatio="xMidYMid meet" shape-rendering="geometricPrecision">
<g transform="translate(0.000000,1116.000000) scale(0.100000,-0.100000)" fill="#918478" fill-rule="evenodd" stroke="none"><path d="M5263 9149 c-61 -5 -122 -17 -155 -30 -39 -16 -88 -23 -188 -29 -87
-6 -158 -16 -199 -29 -36 -11 -85 -23 -110 -27 -42 -6 -144 -47 -232 -94 -21
-11 -57 -22 -80 -26 -51 -8 -187 -60 -209 -80 -22 -19 -160 -90 -190 -97 -14
-4 -56 -29 -95 -58 -38 -28 -84 -57 -102 -64 -17 -7 -57 -33 -88 -57 -32 -24
-76 -54 -99 -68 -114 -68 -174 -109 -215 -146 -26 -22 -62 -53 -82 -70 -20
-16 -87 -85 -150 -154 -63 -68 -136 -147 -163 -174 -26 -28 -68 -80 -92 -117
-39 -61 -116 -139 -136 -139 -4 0 -16 -17 -27 -39 -11 -21 -27 -41 -36 -44 -8
-4 -15 -14 -15 -24 0 -10 -9 -34 -20 -53 -11 -19 -41 -75 -66 -124 -25 -50
-65 -122 -89 -160 -23 -39 -45 -84 -49 -101 -4 -16 -20 -50 -36 -73 -30 -45
-69 -142 -90 -225 -7 -26 -21 -59 -32 -72 -10 -13 -30 -57 -44 -97 -23 -66
-33 -100 -65 -233 -6 -22 -14 -56 -19 -75 -5 -19 -14 -70 -20 -112 -6 -42 -21
-103 -33 -135 -35 -92 -34 -1104 1 -1201 12 -34 26 -102 31 -150 6 -49 19
-108 31 -135 12 -27 24 -74 27 -105 3 -31 14 -74 25 -95 11 -22 23 -63 28 -93
5 -33 20 -68 36 -89 15 -20 31 -57 35 -82 5 -26 34 -97 64 -158 30 -60 55
-118 55 -128 0 -9 15 -34 33 -54 28 -31 137 -237 137 -257 0 -3 16 -26 35 -52
19 -25 35 -50 35 -55 0 -13 98 -136 135 -169 15 -14 48 -54 73 -90 25 -36 77
-99 116 -140 39 -42 109 -117 156 -168 47 -51 115 -116 153 -143 37 -28 67
-54 67 -58 0 -4 25 -24 56 -46 31 -22 68 -49 83 -61 14 -11 42 -29 61 -40 19
-10 49 -30 67 -44 80 -62 94 -71 129 -86 21 -9 69 -40 107 -70 38 -30 77 -54
88 -54 18 0 141 -62 169 -86 26 -21 162 -75 214 -85 26 -4 59 -15 71 -23 13
-8 45 -21 72 -27 26 -7 74 -25 105 -40 32 -16 65 -29 75 -29 10 0 41 -7 68
-16 28 -9 75 -24 105 -34 30 -10 87 -18 126 -18 48 0 82 -6 105 -18 55 -28
188 -36 649 -38 463 -2 553 4 638 44 28 13 75 24 121 27 45 4 90 14 111 24 22
12 55 19 90 19 36 0 67 7 90 19 60 34 78 40 123 45 48 6 210 77 243 107 11 10
42 23 68 28 26 5 57 18 69 30 13 11 41 23 62 26 22 4 51 14 65 24 14 10 39 21
55 25 17 4 39 18 50 32 20 24 30 31 137 87 29 16 82 57 118 92 36 35 88 76
115 90 97 51 152 94 280 220 50 50 122 119 161 155 61 58 213 232 270 310 12
16 39 49 61 74 22 25 57 76 77 114 20 37 55 92 76 122 22 30 40 62 40 71 0 8
26 56 58 105 32 49 64 104 70 122 6 18 20 46 32 61 11 16 20 35 20 43 0 7 14
40 30 73 16 33 30 69 30 81 0 32 21 86 46 119 12 17 26 44 30 60 4 17 18 54
31 84 13 30 26 79 29 110 3 31 14 81 24 111 10 30 21 87 24 127 3 40 17 107
30 150 66 215 60 1009 -10 1252 -13 46 -24 107 -24 136 0 31 -8 73 -20 100
-11 25 -22 72 -24 103 -7 77 -45 187 -92 262 -12 19 -30 62 -39 95 -18 61 -48
133 -89 215 -13 25 -26 57 -30 71 -3 15 -22 50 -41 79 -19 28 -49 82 -66 118
-17 37 -48 87 -69 112 -20 25 -47 65 -60 90 -38 75 -150 232 -209 291 -84 84
-128 135 -155 177 -31 49 -113 124 -315 289 -42 34 -92 75 -111 91 -19 16 -52
35 -72 41 -36 12 -54 27 -130 109 -21 22 -57 49 -80 61 -85 44 -133 73 -158
96 -14 13 -38 27 -55 31 -16 4 -43 18 -58 31 -16 13 -42 23 -59 23 -17 0 -45
11 -63 24 -17 13 -50 29 -72 35 -22 6 -51 19 -64 30 -13 10 -35 22 -48 26 -14
4 -61 25 -105 46 -44 22 -87 39 -97 39 -9 0 -36 7 -59 15 -47 17 -59 19 -170
40 -41 8 -93 21 -115 30 -22 10 -76 19 -123 21 -56 2 -109 12 -158 29 -82 28
-700 45 -931 24z m687 -45 c146 -6 158 -8 255 -32 44 -12 118 -26 165 -33 47
-6 96 -16 109 -21 13 -5 58 -13 100 -19 42 -6 108 -22 148 -35 39 -13 76 -24
81 -24 10 0 160 -67 222 -99 19 -10 49 -25 65 -33 65 -34 146 -68 161 -68 8 0
32 -11 52 -25 20 -14 42 -25 48 -25 7 0 35 -16 63 -35 28 -19 55 -35 60 -35 4
0 15 -7 22 -17 8 -9 34 -25 59 -36 25 -11 72 -46 105 -78 33 -31 85 -68 115
-82 30 -14 87 -54 126 -89 40 -34 99 -85 133 -112 158 -128 539 -565 606 -696
13 -25 37 -63 54 -84 17 -22 49 -73 69 -115 21 -42 53 -96 70 -120 18 -24 32
-48 32 -53 0 -12 54 -139 79 -188 10 -19 28 -69 41 -110 12 -41 44 -121 70
-177 28 -59 51 -124 55 -155 4 -29 13 -78 21 -109 8 -31 14 -75 14 -98 0 -23
9 -76 21 -119 11 -42 27 -102 34 -132 56 -221 49 -885 -12 -1110 -14 -52 -31
-138 -39 -190 -23 -170 -45 -253 -104 -390 -32 -75 -61 -149 -65 -165 -6 -31
-46 -125 -96 -230 -16 -33 -29 -64 -29 -69 0 -4 -16 -30 -35 -56 -20 -27 -49
-77 -64 -112 -16 -35 -43 -82 -59 -104 -17 -23 -40 -60 -51 -82 -18 -35 -200
-268 -351 -447 -99 -118 -441 -420 -521 -460 -30 -15 -76 -50 -104 -78 -27
-28 -70 -59 -94 -70 -24 -11 -74 -41 -111 -67 -65 -46 -114 -72 -280 -144 -85
-38 -109 -49 -165 -79 -64 -35 -194 -87 -216 -87 -13 -1 -40 -9 -59 -20 -63
-34 -84 -41 -135 -47 -55 -5 -335 -62 -348 -70 -37 -23 -285 -49 -452 -47
-443 3 -705 16 -774 39 -24 8 -80 18 -125 21 -51 4 -118 19 -182 40 -55 19
-108 34 -118 34 -9 0 -46 14 -81 30 -35 17 -72 30 -82 30 -10 0 -37 9 -61 20
-23 10 -59 22 -80 26 -37 7 -68 21 -262 119 -58 29 -116 56 -130 60 -14 4 -53
29 -86 56 -34 27 -82 57 -107 68 -26 11 -72 39 -103 63 -31 24 -84 61 -118 83
-34 22 -91 65 -126 95 -34 30 -98 85 -141 122 -110 96 -361 366 -383 413 -11
22 -45 65 -77 96 -31 31 -81 92 -109 135 -29 44 -60 88 -70 99 -10 11 -42 68
-69 127 -28 58 -62 119 -75 136 -14 16 -41 67 -61 113 -19 46 -49 112 -65 147
-17 34 -30 69 -30 77 0 8 -16 50 -35 94 -19 43 -35 88 -35 99 0 10 -11 40 -25
65 -26 50 -67 219 -86 352 -6 43 -17 98 -25 121 -72 214 -72 995 1 1234 12 41
26 104 30 140 3 36 13 92 20 125 7 33 16 79 18 102 3 23 19 70 35 105 43 89
78 174 101 243 38 119 125 306 169 370 16 22 39 65 51 95 12 30 38 80 59 111
118 178 156 229 202 274 28 28 66 77 85 110 67 118 416 451 634 605 43 30 100
70 126 89 27 19 77 49 113 68 36 19 82 47 103 64 20 16 61 40 91 53 62 28 121
57 241 120 48 25 101 48 118 51 46 8 187 59 244 88 28 14 90 33 138 42 49 9
106 23 127 30 20 7 84 16 141 20 57 4 136 15 174 25 62 17 194 33 355 44 57 4
282 -1 480 -10z M5815 6874 c-33 -7 -77 -16 -97 -19 -104 -16 -290 -243 -317
-388 -35 -188 -257 -480 -466 -612 -35 -22 -71 -47 -82 -56 -41 -36 -152 -87
-211 -97 -34 -6 -75 -20 -91 -31 -16 -11 -41 -25 -55 -31 -27 -10 -70 -42
-147 -108 -40 -35 -99 -130 -99 -160 0 -10 -9 -52 -20 -94 -21 -80 -8 -177 35
-257 35 -66 208 -219 276 -245 89 -33 223 -44 281 -24 206 74 519 46 795 -70
63 -27 101 -52 207 -133 12 -9 37 -25 56 -35 47 -25 96 -60 149 -106 128 -111
285 -125 461 -40 217 104 282 199 288 417 5 174 -29 256 -166 400 -48 50 -104
121 -124 156 -63 107 -118 222 -118 243 0 12 -12 64 -26 116 -36 130 -37 375
-2 520 20 83 13 291 -11 338 -12 23 -21 47 -21 55 0 26 -101 145 -138 163 -21
9 -46 25 -58 36 -26 23 -179 78 -214 77 -14 -1 -52 -7 -85 -15z m186 -75 c73
-27 230 -164 243 -212 5 -18 22 -49 39 -70 32 -42 39 -233 10 -269 -23 -27
-50 -179 -55 -313 -2 -66 23 -197 49 -248 13 -26 28 -73 34 -103 13 -68 65
-202 89 -229 10 -11 35 -54 56 -95 37 -72 68 -109 165 -195 68 -60 107 -165
85 -230 -9 -25 -16 -64 -16 -87 0 -131 -70 -259 -150 -273 -19 -3 -39 -10 -45
-14 -5 -5 -28 -14 -50 -21 -22 -7 -51 -23 -65 -36 -67 -62 -198 -40 -299 50
-61 55 -70 62 -149 103 -29 15 -75 45 -103 66 -46 35 -164 97 -185 97 -5 0
-29 14 -53 30 -24 16 -60 32 -80 35 -20 4 -54 13 -76 20 -22 8 -78 22 -125 31
-47 8 -101 22 -122 29 -79 30 -304 -2 -411 -58 -21 -11 -37 -13 -61 -6 -18 5
-46 11 -62 13 -113 15 -170 37 -185 69 -21 46 -36 66 -104 133 -44 43 -74 82
-81 105 -15 49 5 250 28 276 9 10 23 32 31 49 9 18 27 34 41 38 14 3 40 16 58
29 67 46 143 104 157 120 7 10 28 17 45 17 17 1 47 7 66 14 19 8 62 24 95 36
33 12 74 35 90 50 17 15 46 33 65 40 44 17 284 237 288 265 2 11 12 29 22 40
10 11 25 35 34 53 9 18 34 56 56 84 44 59 94 173 117 267 28 116 230 296 348
310 98 12 110 11 166 -10z M5565 6019 c-16 -5 -55 -14 -85 -20 -30 -6 -70 -19
-90 -29 -38 -19 -200 -182 -200 -200 0 -6 -13 -30 -29 -53 -157 -229 -60 -558
210 -708 16 -9 49 -30 72 -45 42 -29 42 -29 212 -29 193 0 235 16 327 127 24
28 54 61 67 72 106 91 108 93 115 194 5 60 4 104 -4 126 -9 28 -8 45 4 86 14
47 14 54 -4 96 -11 25 -20 55 -20 67 0 12 -22 42 -52 72 -29 28 -62 62 -74 75
-91 109 -182 165 -239 148 -28 -9 -37 -8 -60 11 -30 23 -95 27 -150 10z m175
-79 c96 -21 113 -32 213 -132 137 -138 157 -181 158 -347 1 -148 -19 -189
-155 -329 -122 -125 -167 -145 -316 -140 -164 6 -280 64 -403 204 -104 118
-110 373 -13 508 155 216 301 282 516 236z"/></g>
<g transform="translate(0.000000,1116.000000) scale(0.100000,-0.100000)" fill="#ebac81" fill-rule="evenodd" stroke="none"><path d="M5470 9114 c-161 -11 -293 -27 -355 -44 -38 -10 -117 -21 -174 -25
-57 -4 -121 -13 -141 -20 -21 -7 -78 -21 -127 -30 -48 -9 -110 -28 -138 -42
-57 -29 -198 -80 -244 -88 -17 -3 -70 -26 -118 -51 -120 -63 -179 -92 -241
-120 -30 -13 -71 -37 -91 -53 -21 -17 -67 -45 -103 -64 -36 -19 -86 -49 -113
-68 -26 -19 -83 -59 -126 -89 -218 -154 -567 -487 -634 -605 -19 -33 -57 -82
-85 -110 -46 -45 -84 -96 -202 -274 -21 -31 -47 -81 -59 -111 -12 -30 -35 -73
-51 -95 -44 -64 -131 -251 -169 -370 -23 -69 -58 -154 -101 -243 -16 -35 -32
-82 -35 -105 -2 -23 -11 -69 -18 -102 -7 -33 -17 -89 -20 -125 -4 -36 -18 -99
-30 -140 -73 -239 -73 -1020 -1 -1234 8 -23 19 -78 25 -121 19 -133 60 -302
86 -352 14 -25 25 -55 25 -65 0 -11 16 -56 35 -99 19 -44 35 -86 35 -94 0 -8
13 -43 30 -77 16 -35 46 -101 65 -147 20 -46 47 -97 61 -113 13 -17 47 -78 75
-136 27 -59 59 -116 69 -127 10 -11 41 -55 70 -99 28 -43 78 -104 109 -135 32
-31 66 -74 77 -96 22 -47 273 -317 383 -413 43 -37 107 -92 141 -122 35 -30
92 -73 126 -95 34 -22 87 -59 118 -83 31 -24 77 -52 103 -63 25 -11 73 -41
107 -68 33 -27 72 -52 86 -56 14 -4 72 -31 130 -60 194 -98 225 -112 262 -119
21 -4 57 -16 80 -26 24 -11 51 -20 61 -20 10 0 47 -13 82 -30 35 -16 72 -30
81 -30 10 0 63 -15 118 -34 64 -21 131 -36 182 -40 45 -3 101 -13 125 -21 69
-23 331 -36 774 -39 167 -2 415 24 452 47 13 8 293 65 348 70 51 6 72 13 135
47 19 11 46 19 59 20 22 0 152 52 216 87 56 30 80 41 165 79 166 72 215 98
280 144 37 26 87 56 111 67 24 11 67 42 94 70 28 28 74 63 104 78 80 40 422
342 521 460 151 179 333 412 351 447 11 22 34 59 51 82 16 22 43 69 59 104 15
35 44 85 64 112 19 26 35 52 35 56 0 5 13 36 29 69 50 105 90 199 96 230 4 16
33 90 65 165 59 137 81 220 104 390 8 52 25 138 39 190 61 225 68 889 12 1110
-7 30 -23 90 -34 132 -12 43 -21 96 -21 119 0 23 -6 67 -14 98 -8 31 -17 80
-21 109 -4 31 -27 96 -55 155 -26 56 -58 136 -70 177 -13 41 -31 91 -41 110
-25 49 -79 176 -79 188 0 5 -14 29 -32 53 -17 24 -49 79 -70 121 -22 43 -50
91 -63 107 -14 16 -40 56 -59 90 -63 111 -161 231 -432 529 -42 45 -117 117
-168 160 -51 42 -122 103 -157 134 -36 31 -87 66 -114 78 -26 11 -79 50 -117
85 -38 36 -75 65 -82 65 -8 0 -58 29 -112 65 -54 36 -103 65 -109 65 -6 0 -27
11 -47 25 -20 14 -44 25 -52 25 -15 0 -96 34 -161 68 -16 8 -46 23 -65 33 -62
32 -212 99 -222 99 -5 0 -42 11 -81 24 -40 13 -106 29 -148 35 -42 6 -87 14
-100 19 -13 5 -62 15 -109 21 -47 7 -121 21 -165 33 -44 11 -93 22 -110 24
-87 10 -544 24 -625 18z m539 -2254 c46 -16 93 -38 105 -48 12 -11 37 -27 58
-36 37 -18 138 -137 138 -163 0 -8 9 -32 21 -55 24 -47 31 -255 11 -338 -35
-145 -34 -390 2 -520 14 -52 26 -104 26 -116 0 -21 55 -136 118 -243 20 -35
76 -106 124 -156 72 -76 95 -109 129 -181 87 -191 31 -464 -116 -562 -141 -94
-338 -152 -430 -126 -46 13 -125 57 -166 92 -53 46 -102 81 -149 106 -19 10
-44 26 -56 35 -106 81 -144 106 -207 133 -276 116 -589 144 -795 70 -58 -20
-192 -9 -281 24 -68 26 -241 179 -276 245 -43 80 -56 177 -35 257 11 42 20 84
20 94 0 30 59 125 99 160 77 66 120 98 147 108 14 6 39 20 55 31 16 11 57 25
91 31 59 10 170 61 211 97 11 9 47 34 82 56 209 132 431 424 466 612 27 145
213 372 317 388 20 3 64 12 97 19 87 20 102 19 194 -14z M5536 5944 c-114 -23
-208 -95 -312 -240 -97 -135 -91 -390 13 -508 163 -185 413 -262 578 -178 73
37 206 170 260 259 52 86 55 265 6 369 -34 72 -204 252 -256 271 -101 36 -201
45 -289 27z"/></g>
</svg>