<?xml version="1.0" encoding="UTF-8" standalone="no"?>
<svg xmlns="http://www.w3.org/2000/svg" viewBox="0 0 896 896" width="896" height="896" preserveAspectRatio="xMidYMid meet" shape-rendering="geometricPrecision">
<g transform="translate(0.000000,896.000000) scale(0.100000,-0.100000)" fill="#131313" fill-rule="evenodd" stroke="none"><path d="M4405 7250 c-49 -10 -153 -21 -230 -25 -175 -8 -246 -20 -307 -51
-26 -13 -81 -31 -122 -38 -41 -8 -100 -28 -132 -44 -33 -16 -82 -34 -109 -40
-66 -14 -292 -127 -395 -197 -45 -31 -107 -68 -139 -84 -31 -16 -105 -73 -165
-127 -59 -54 -144 -124 -189 -154 -67 -46 -93 -72 -142 -142 -33 -48 -107
-137 -164 -199 -67 -74 -111 -132 -127 -167 -13 -29 -48 -88 -77 -130 -71
-101 -183 -324 -198 -393 -6 -30 -25 -80 -41 -113 -16 -32 -36 -93 -44 -135
-8 -42 -28 -105 -46 -141 -28 -59 -31 -77 -39 -210 -4 -80 -15 -167 -23 -195
-22 -69 -22 -360 -1 -442 8 -32 15 -101 15 -158 0 -134 14 -219 49 -308 16
-40 36 -111 44 -158 8 -50 27 -110 45 -145 17 -33 33 -78 37 -100 10 -55 127
-292 195 -394 32 -47 71 -112 88 -145 16 -33 60 -93 96 -133 37 -40 80 -98 97
-128 17 -30 42 -63 56 -73 13 -11 42 -42 64 -70 22 -27 63 -64 92 -82 63 -39
137 -100 237 -195 43 -41 102 -85 137 -103 34 -17 104 -58 155 -92 122 -80
319 -178 382 -190 28 -5 83 -25 121 -44 48 -23 95 -38 147 -45 48 -6 104 -22
145 -41 59 -27 85 -32 198 -40 72 -5 156 -16 188 -24 78 -20 352 -20 439 -1
35 8 126 17 203 21 156 7 208 17 278 52 28 14 81 28 128 34 58 7 101 20 150
45 38 19 93 39 121 45 45 10 152 57 263 116 17 9 70 43 119 75 49 33 116 73
148 89 35 18 100 68 160 125 56 52 132 115 170 139 42 28 78 62 95 88 24 38
55 74 256 294 37 41 79 97 93 125 14 27 59 102 100 165 42 64 84 138 95 164
10 27 32 72 48 101 17 29 35 78 42 108 6 30 25 82 41 114 18 36 35 93 44 145
8 49 27 115 45 154 29 64 32 80 41 235 5 92 15 195 23 230 20 86 20 361 0 445
-8 34 -19 123 -24 197 -8 120 -13 145 -44 220 -19 47 -38 105 -42 130 -9 65
-25 110 -51 150 -12 19 -27 62 -33 94 -6 32 -26 86 -44 120 -19 34 -40 77 -48
96 -15 39 -89 168 -123 214 -13 17 -39 60 -59 96 -19 36 -74 108 -122 160 -48
52 -112 129 -142 170 -78 105 -118 145 -193 195 -36 24 -114 89 -175 144 -66
61 -135 114 -175 135 -36 19 -103 59 -150 90 -47 32 -110 68 -140 82 -30 13
-82 39 -115 56 -33 18 -83 35 -112 39 -32 4 -74 20 -105 40 -41 24 -74 35
-143 45 -56 8 -116 25 -157 44 -57 27 -85 32 -195 41 -70 5 -157 16 -193 24
-108 23 -310 26 -415 5z m520 -543 c159 -19 227 -32 280 -52 39 -14 106 -35
150 -45 66 -15 98 -31 178 -84 54 -36 117 -71 140 -77 23 -6 62 -23 87 -39 25
-15 62 -35 83 -44 21 -8 77 -53 125 -99 48 -45 119 -108 157 -139 74 -59 113
-99 185 -188 24 -30 79 -93 122 -140 72 -79 178 -255 178 -294 0 -7 19 -43 43
-79 23 -37 55 -88 72 -114 16 -26 36 -80 46 -123 9 -42 29 -107 44 -145 20
-52 31 -104 42 -209 8 -78 21 -186 29 -241 16 -113 18 -280 5 -352 -5 -26 -15
-102 -21 -168 -18 -187 -28 -242 -65 -355 -19 -58 -37 -121 -40 -141 -5 -33
-29 -75 -116 -206 -15 -23 -35 -65 -43 -93 -8 -28 -24 -64 -35 -79 -12 -16
-29 -48 -39 -72 -11 -24 -45 -71 -77 -104 -31 -33 -90 -100 -130 -150 -73 -90
-153 -171 -210 -214 -16 -13 -79 -66 -139 -119 -59 -54 -125 -104 -146 -112
-20 -8 -55 -27 -76 -41 -21 -15 -62 -34 -90 -43 -28 -9 -96 -46 -150 -81 -55
-36 -114 -67 -134 -70 -45 -7 -117 -28 -205 -58 -130 -46 -608 -89 -760 -68
-44 6 -159 19 -256 30 -144 16 -191 25 -253 50 -42 17 -104 35 -136 40 -33 6
-66 13 -73 17 -15 8 -106 67 -164 105 -23 15 -61 33 -85 39 -24 6 -59 22 -78
35 -20 12 -60 35 -88 49 -29 15 -92 63 -140 107 -48 45 -120 108 -162 141 -41
34 -108 102 -149 152 -41 50 -106 127 -146 171 -40 44 -82 100 -95 125 -12 25
-31 56 -41 69 -11 13 -25 45 -33 72 -13 43 -66 138 -133 240 -13 19 -28 64
-35 100 -6 35 -24 97 -40 138 -24 59 -34 109 -49 250 -11 97 -25 205 -30 241
-28 165 27 690 86 830 13 31 29 87 36 124 8 47 22 84 48 124 78 119 100 158
110 199 7 23 22 55 36 71 13 15 33 52 44 81 14 39 43 77 108 144 49 51 114
124 145 162 60 75 98 113 193 190 33 27 89 77 125 111 36 33 90 74 120 89 30
15 67 36 82 47 15 10 52 27 83 38 31 11 68 28 83 38 15 11 45 29 67 41 22 12
54 32 72 45 18 13 62 29 100 36 37 7 100 25 138 40 75 30 141 42 330 60 66 6
143 15 170 20 80 14 293 4 520 -23z M4388 5888 c-71 -19 -88 -53 -89 -181 0
-62 -1 -309 -2 -549 -2 -438 -2 -438 -30 -465 -27 -28 -27 -28 -546 -33 -571
-6 -570 -5 -635 -93 -32 -43 -32 -321 0 -363 52 -70 13 -66 612 -67 542 -2
542 -2 569 -30 28 -27 28 -27 30 -520 2 -553 0 -527 48 -603 50 -78 74 -86
246 -82 244 5 230 -33 232 643 2 535 2 535 30 562 27 28 27 28 562 30 686 4
638 -14 643 235 4 168 -3 191 -75 241 -71 49 -70 49 -580 48 -388 -1 -489 1
-515 12 -66 28 -63 -1 -68 567 -5 518 -5 518 -44 574 -55 80 -71 86 -223 85
-70 -1 -145 -6 -165 -11z"/></g>
</svg>