<?xml version="1.0" encoding="UTF-8" standalone="no"?>
<svg xmlns="http://www.w3.org/2000/svg" viewBox="0 0 452 488" width="452" height="488" preserveAspectRatio="xMidYMid meet" shape-rendering="geometricPrecision">
<g transform="translate(0.000000,488.000000) scale(0.100000,-0.100000)" fill="#59ab8b" fill-rule="evenodd" stroke="none"><path d="M1623 1269 c-125 -23 -208 -142 -162 -232 46 -90 115 -123 244 -119
55 2 120 3 145 3 576 -6 1075 1 1108 15 142 59 161 244 32 309 -47 24 -1254
45 -1367 24z"/></g>
<g transform="translate(0.000000,488.000000) scale(0.100000,-0.100000)" fill="#131313" fill-rule="evenodd" stroke="none"><path d="M1825 4650 c-317 -48 -515 -274 -515 -589 0 -85 25 -81 -490 -84
-534 -2 -525 -1 -573 -98 -84 -168 16 -289 245 -297 96 -3 120 -7 133 -22 20
-22 41 -198 56 -465 5 -104 16 -255 24 -335 27 -283 35 -377 45 -557 6 -101
17 -240 25 -309 8 -69 20 -214 25 -322 6 -108 17 -262 26 -342 8 -80 19 -206
24 -280 6 -74 14 -196 20 -270 20 -278 71 -365 257 -428 112 -38 2099 -48
2232 -11 215 60 274 160 291 492 6 106 17 248 25 317 18 150 32 329 40 505 4
72 15 209 25 305 11 96 24 270 30 385 6 116 17 264 25 330 16 141 32 340 40
515 3 69 15 199 25 290 24 204 21 200 157 200 232 0 352 151 246 311 -55 83
-94 89 -609 89 -471 0 -444 -6 -444 91 0 55 -34 230 -51 262 -77 143 -226 267
-361 300 -88 22 -855 35 -973 17z m932 -416 c60 -44 94 -197 53 -238 -20 -20
-1070 -26 -1095 -6 -63 52 -9 223 80 255 72 26 925 17 962 -11z m720 -666 c17
-14 16 -75 -2 -220 -8 -64 -19 -199 -25 -300 -11 -198 -21 -319 -44 -553 -9
-82 -20 -235 -26 -340 -5 -104 -17 -244 -24 -311 -8 -66 -20 -206 -26 -310 -6
-104 -18 -261 -26 -349 -8 -88 -19 -216 -25 -285 -5 -69 -12 -153 -15 -187 -9
-107 105 -96 -1005 -94 -1088 2 -999 -5 -1005 78 -2 26 -8 116 -14 198 -6 83
-17 202 -25 265 -8 63 -19 210 -25 325 -6 116 -19 289 -30 385 -10 96 -24 265
-30 375 -10 189 -18 278 -40 475 -5 47 -14 177 -20 290 -6 113 -17 263 -25
333 -18 155 -19 209 -4 224 16 16 2417 17 2436 1z"/></g>
</svg>