<?xml version="1.0" encoding="UTF-8" standalone="no"?>
<svg xmlns="http://www.w3.org/2000/svg" viewBox="0 0 960 960" width="960" height="960" preserveAspectRatio="xMidYMid meet" shape-rendering="geometricPrecision">
<g transform="translate(0.000000,960.000000) scale(0.100000,-0.100000)" fill="#6b6b6b" fill-rule="evenodd" stroke="none"><path d="M2730 7291 c-180 -38 -417 -226 -433 -345 -3 -23 -20 -71 -37 -107
-30 -64 -30 -64 -30 -2050 0 -1800 2 -1990 16 -2040 9 -30 22 -74 28 -99 37
-142 218 -340 324 -356 26 -4 75 -18 110 -30 79 -30 3842 -39 4037 -9 247 37
400 175 496 448 37 105 40 118 37 212 -1 55 -1 930 0 1945 3 2039 8 1827 -53
2045 -29 101 -194 307 -259 321 -17 3 -58 21 -91 38 -60 31 -60 31 -2085 32
-1114 1 -2041 -1 -2060 -5z m3885 -644 c30 -26 32 -121 35 -2512 1 -1210 1
-1210 -25 -1232 -43 -38 -3713 -36 -3750 1 -36 36 -35 3675 1 3723 21 28 21
28 1825 33 992 3 1823 6 1846 8 31 1 48 -4 68 -21z M3824 5621 c-92 -5 -116
-10 -134 -26 -126 -112 -104 -514 30 -567 33 -13 2027 -13 2061 1 81 31 109
104 109 278 0 171 -15 235 -64 281 -36 32 -36 32 -844 32 -445 0 -862 2 -928
4 -65 2 -169 1 -230 -3z M3784 4502 c-136 -23 -168 -77 -168 -285 -1 -237 29
-288 184 -306 100 -12 896 -14 1053 -2 179 13 206 55 207 317 0 171 0 171 -54
223 -55 51 -55 51 -133 53 -152 3 -1070 3 -1089 0z"/></g>
</svg>