<?xml version="1.0" encoding="UTF-8" standalone="no"?>
<svg xmlns="http://www.w3.org/2000/svg" viewBox="0 0 960 960" width="960" height="960" preserveAspectRatio="xMidYMid meet" shape-rendering="geometricPrecision">
<g transform="translate(0.000000,960.000000) scale(0.100000,-0.100000)" fill="#101010" fill-rule="evenodd" stroke="none"><path d="M2839 7242 c-84 -55 -276 -229 -344 -312 -33 -40 -73 -88 -90 -105
-27 -30 -46 -52 -151 -184 -19 -24 -42 -58 -51 -75 -9 -17 -29 -46 -44 -64
-16 -18 -29 -39 -29 -46 0 -8 -15 -32 -34 -54 -18 -23 -38 -60 -44 -84 -6 -25
-21 -53 -33 -64 -28 -25 -49 -67 -49 -98 0 -13 -16 -45 -35 -71 -20 -26 -40
-66 -46 -94 -6 -27 -24 -71 -41 -97 -21 -34 -33 -68 -39 -119 -7 -45 -21 -93
-43 -135 -29 -57 -34 -78 -40 -168 -5 -87 -11 -115 -39 -175 -50 -111 -50
-921 -1 -1032 27 -61 32 -85 37 -183 4 -78 11 -122 23 -145 9 -17 25 -48 36
-68 10 -19 22 -65 26 -101 6 -47 17 -78 39 -112 17 -26 34 -66 38 -89 4 -23
24 -73 45 -112 21 -38 41 -81 45 -95 4 -14 18 -41 31 -60 24 -37 65 -110 108
-195 14 -28 41 -66 61 -85 19 -19 35 -39 35 -45 0 -7 13 -30 29 -52 15 -21 35
-51 42 -65 19 -36 229 -269 308 -343 36 -33 104 -96 151 -140 182 -170 267
-167 429 16 188 212 191 255 30 410 -62 60 -116 109 -119 109 -9 0 -223 231
-278 301 -46 58 -92 126 -130 193 -13 23 -33 51 -43 62 -11 12 -27 43 -34 69
-8 26 -28 62 -44 81 -17 18 -33 50 -36 71 -6 40 -23 78 -55 129 -11 17 -24 58
-28 92 -5 37 -18 76 -34 99 -33 51 -35 59 -48 197 -8 91 -17 134 -37 180 -45
103 -48 670 -4 766 24 51 33 90 41 171 13 133 16 145 45 184 17 22 28 54 35
105 6 41 17 83 25 95 8 11 22 31 32 43 9 13 20 49 24 79 6 43 15 63 39 88 17
17 36 49 42 71 5 21 23 54 39 72 16 18 36 46 45 64 9 17 29 49 45 71 16 22 29
46 29 53 0 22 160 196 350 381 100 98 188 190 196 205 17 33 18 135 1 165 -27
48 -187 210 -219 222 -18 7 -56 23 -83 37 -66 32 -89 30 -156 -14z M6662 7250
c-78 -27 -87 -33 -173 -122 -123 -126 -122 -125 -123 -218 -1 -78 -1 -78 230
-307 206 -204 334 -354 334 -391 0 -5 15 -26 34 -48 19 -22 41 -58 50 -79 10
-22 26 -49 36 -60 10 -11 26 -38 35 -60 9 -22 30 -61 46 -86 16 -25 33 -70 39
-100 6 -31 23 -72 41 -97 26 -36 32 -56 38 -121 5 -64 12 -85 39 -126 27 -40
32 -58 32 -105 0 -71 35 -323 55 -398 37 -136 30 -260 -26 -510 -11 -46 -19
-114 -20 -150 0 -101 -13 -157 -44 -202 -21 -31 -29 -57 -36 -117 -4 -43 -8
-79 -8 -79 -1 -1 -14 -18 -30 -38 -18 -22 -34 -60 -41 -91 -6 -30 -20 -65 -31
-78 -10 -14 -33 -54 -50 -89 -67 -136 -97 -190 -125 -221 -30 -33 -50 -61
-115 -157 -64 -95 -228 -263 -413 -423 -122 -106 -105 -211 62 -388 196 -206
238 -199 538 87 135 128 316 336 366 420 10 16 40 58 68 94 28 36 63 92 79
125 15 33 38 69 50 79 12 11 27 39 33 64 6 24 26 61 44 84 19 22 34 45 34 51
0 32 24 90 47 118 16 19 29 50 34 82 5 32 21 69 40 97 26 37 33 59 40 124 6
63 14 89 40 130 30 48 33 59 44 206 11 137 15 161 40 210 40 78 45 681 6 785
-37 99 -40 115 -49 251 -8 125 -10 134 -41 183 -27 42 -34 64 -38 119 -6 94
-9 104 -43 146 -19 25 -32 55 -36 87 -4 29 -20 69 -40 100 -18 28 -36 69 -39
90 -4 21 -17 53 -31 71 -13 18 -35 58 -49 88 -14 30 -35 64 -45 75 -11 11 -26
41 -35 65 -9 25 -29 58 -45 75 -30 31 -120 163 -120 176 0 8 -23 35 -189 223
-97 110 -327 323 -384 355 -52 31 -68 31 -155 1z M3557 6590 c-16 -5 -50 -28
-75 -52 -26 -24 -79 -69 -118 -100 -76 -61 -243 -234 -274 -285 -10 -17 -23
-34 -29 -37 -23 -15 -119 -153 -131 -189 -7 -21 -25 -53 -40 -71 -16 -18 -37
-54 -48 -82 -10 -27 -31 -67 -45 -88 -15 -22 -27 -53 -27 -70 0 -30 -18 -70
-52 -118 -10 -13 -22 -57 -28 -97 -6 -40 -24 -105 -41 -144 -42 -95 -52 -225
-45 -587 6 -282 10 -317 52 -405 14 -30 27 -84 33 -133 7 -65 15 -91 39 -128
18 -26 34 -66 38 -93 4 -29 17 -60 36 -84 17 -21 36 -61 44 -89 7 -29 26 -65
42 -82 16 -17 35 -47 41 -66 6 -19 38 -69 71 -110 33 -41 75 -97 94 -125 44
-64 213 -237 290 -295 32 -25 80 -64 108 -87 54 -48 149 -60 221 -29 55 24
227 206 237 252 37 159 -6 251 -165 354 -28 18 -161 160 -261 277 -22 26 -48
68 -58 92 -9 25 -28 57 -41 72 -12 15 -28 52 -35 81 -7 29 -23 64 -36 78 -31
33 -44 72 -44 127 0 31 -11 71 -35 123 -64 141 -63 662 0 759 19 27 29 62 36
112 5 40 16 82 24 93 8 12 22 31 31 43 9 12 20 41 26 65 5 23 19 56 32 73 13
16 32 48 43 70 12 22 31 49 43 60 12 11 29 33 38 50 40 79 165 213 265 285
127 92 147 122 147 225 0 95 -14 122 -118 229 -126 128 -187 155 -285 126z
M5982 6591 c-47 -12 -218 -179 -256 -250 -70 -131 -41 -203 139 -342 76 -58
153 -140 225 -238 25 -34 57 -77 73 -95 15 -19 34 -51 43 -71 8 -21 29 -54 45
-74 17 -22 33 -57 39 -89 5 -30 23 -72 40 -95 24 -35 31 -56 38 -132 6 -60 19
-113 38 -160 44 -106 45 -477 2 -565 -18 -36 -31 -85 -38 -145 -7 -55 -19
-102 -30 -120 -32 -50 -49 -88 -55 -128 -3 -21 -19 -53 -36 -72 -17 -19 -35
-50 -40 -70 -18 -64 -190 -270 -323 -385 -254 -221 -261 -305 -39 -522 110
-108 110 -108 196 -108 86 0 86 0 219 119 126 113 289 279 325 332 9 13 34 44
55 68 21 24 38 48 38 54 0 6 11 24 24 41 13 17 35 54 49 81 13 28 34 58 45 68
11 10 26 41 32 67 7 27 25 70 42 95 17 25 36 73 44 111 8 40 24 80 40 102 23
29 29 52 40 141 9 77 20 122 41 166 46 98 44 656 -4 760 -25 55 -34 92 -41
172 -8 87 -13 109 -37 143 -16 24 -32 66 -40 107 -9 46 -24 85 -48 119 -18 28
-37 67 -40 87 -3 19 -20 55 -39 80 -30 40 -70 106 -107 176 -7 14 -28 42 -45
61 -18 19 -45 53 -61 74 -36 49 -241 255 -357 359 -94 83 -146 101 -236 78z
M4660 6030 c-39 -9 -94 -65 -116 -117 -11 -26 -14 -150 -14 -666 0 -501 -3
-637 -13 -645 -7 -6 -84 -12 -188 -14 -193 -3 -233 -16 -270 -85 -24 -44 -19
-166 9 -200 12 -15 36 -51 53 -80 16 -28 37 -57 46 -64 8 -7 31 -38 52 -68 90
-136 108 -163 142 -213 20 -29 44 -59 53 -67 10 -8 29 -35 42 -60 30 -56 61
-102 109 -161 46 -57 99 -135 125 -182 63 -117 212 -101 292 31 12 20 38 54
57 77 20 22 44 54 53 70 42 70 85 134 111 165 91 111 106 131 113 151 3 13 18
37 33 55 14 17 40 50 56 73 17 23 49 67 72 98 23 32 54 77 69 102 15 25 38 57
51 71 60 65 50 170 -21 235 -55 51 -71 54 -261 54 -110 0 -155 3 -163 13 -7 8
-10 229 -10 645 -1 693 3 668 -99 764 -27 25 -302 38 -383 18z"/></g>
</svg>