<?xml version="1.0" encoding="UTF-8" standalone="no"?>
<svg xmlns="http://www.w3.org/2000/svg" viewBox="0 0 417 466" width="417" height="466" preserveAspectRatio="xMidYMid meet" shape-rendering="geometricPrecision">
<g transform="translate(0.000000,466.000000) scale(0.100000,-0.100000)" fill="#121212" fill-rule="evenodd" stroke="none"><path d="M509 4440 c-103 -18 -217 -111 -267 -218 -43 -90 -42 -3704 0 -3795
47 -100 166 -188 278 -206 90 -15 3030 -15 3120 0 112 18 235 111 282 214 23
50 23 50 28 1290 6 1471 11 1399 -111 1541 -124 145 -797 871 -944 1019 -172
173 -66 160 -1284 161 -581 1 -1077 -2 -1102 -6z m1691 -373 c25 -13 25 -13
31 -537 6 -577 5 -568 69 -649 118 -149 125 -150 766 -151 360 0 483 -3 492
-12 26 -26 16 -2104 -10 -2123 -34 -23 -2903 -23 -2936 1 -34 24 -35 3444 -1
3468 30 21 1549 24 1589 3z m489 -99 c25 -28 131 -142 235 -252 212 -224 519
-563 524 -577 14 -37 -10 -39 -408 -39 -356 0 -390 1 -410 18 -22 17 -22 17
-20 451 1 514 -4 491 79 399z"/></g>
</svg>