<?xml version="1.0" encoding="UTF-8" standalone="no"?>
<svg xmlns="http://www.w3.org/2000/svg" viewBox="0 0 960 960" width="960" height="960" preserveAspectRatio="xMidYMid meet" shape-rendering="geometricPrecision">
<g transform="translate(0.000000,960.000000) scale(0.100000,-0.100000)" fill="#101010" fill-rule="evenodd" stroke="none"><path d="M2274 7417 c-152 -105 -289 -243 -300 -303 -12 -67 18 -120 164 -283
79 -89 83 -102 47 -152 -60 -82 -56 75 -55 -1980 0 -1662 2 -1884 16 -1912 85
-179 193 -311 276 -339 18 -6 52 -25 76 -42 65 -46 23 -45 2150 -45 l1963 -1
228 -231 c249 -252 242 -247 363 -249 73 0 96 14 211 133 142 146 158 179 143
300 -7 54 -7 54 -1678 1723 -920 918 -2047 2044 -2505 2503 -1007 1007 -963
972 -1099 878z m610 -1320 c22 -23 188 -192 369 -374 315 -320 327 -334 327
-370 -1 -66 -27 -162 -55 -204 -16 -25 -30 -64 -35 -99 -4 -31 -16 -72 -27
-89 -46 -82 -53 -98 -53 -133 0 -47 -15 -87 -46 -119 -18 -19 -28 -44 -35 -95
-7 -45 -21 -86 -40 -117 -16 -27 -36 -80 -44 -119 -8 -40 -26 -89 -41 -111
-14 -22 -30 -65 -35 -99 -5 -33 -18 -74 -27 -90 -45 -77 -52 -95 -52 -128 0
-20 -11 -56 -24 -80 -55 -101 -58 -111 -54 -188 6 -118 32 -127 349 -120 227
5 238 11 273 132 10 32 29 75 42 96 17 26 29 61 34 105 13 103 -8 96 312 93
328 -4 329 -4 342 -131 7 -75 93 -259 130 -280 14 -8 92 -13 226 -15 243 -4
282 4 319 61 26 39 37 39 51 2 18 -48 54 -60 187 -62 151 -3 109 24 386 -248
127 -127 247 -242 266 -256 24 -18 33 -30 28 -42 -8 -20 -3130 -27 -3142 -7
-8 12 -7 3108 0 3121 11 17 28 9 69 -34z m1165 -1310 c4 -26 20 -65 34 -86 37
-55 62 -147 47 -166 -15 -18 -190 -21 -207 -4 -8 8 -5 25 13 63 15 32 24 70
24 101 0 37 8 64 31 104 35 60 45 58 58 -12z m994 -855 c43 -44 59 -167 26
-188 -26 -15 -92 158 -76 199 9 24 19 21 50 -11z M3494 7056 c-41 -18 -48 -49
-24 -103 22 -50 428 -458 519 -521 53 -37 53 -37 1563 -39 1119 -2 1514 -5
1524 -14 12 -10 14 -249 14 -1525 0 -857 4 -1523 9 -1536 22 -57 524 -540 562
-541 51 0 78 19 100 68 38 85 28 3629 -10 3709 -16 33 -32 82 -35 108 -8 51
-90 185 -136 219 -14 11 -45 35 -70 54 -53 41 -58 44 -180 92 -95 38 -95 38
-1950 40 -1545 2 -1860 0 -1886 -11z M5184 5650 c-93 -52 -93 -52 -100 -157
-13 -176 -24 -156 235 -415 237 -237 248 -245 292 -209 22 18 24 27 24 110 0
124 0 123 144 111 157 -14 325 -116 353 -214 6 -22 22 -52 34 -66 49 -54 54
-332 7 -382 -84 -90 -68 -135 108 -306 199 -194 248 -211 314 -108 18 29 40
58 49 65 8 7 22 36 30 64 9 29 29 71 45 94 25 37 30 56 35 135 4 51 12 122 18
159 8 47 7 79 -1 118 -6 28 -11 82 -12 119 -1 107 -13 167 -42 209 -14 21 -35
64 -45 95 -10 31 -31 70 -45 88 -15 17 -27 35 -27 39 0 36 -183 216 -279 274
-25 16 -55 37 -66 47 -11 11 -37 26 -57 34 -21 9 -58 29 -83 45 -35 22 -62 30
-123 36 -42 4 -119 18 -170 31 -173 45 -546 35 -638 -16z"/></g>
</svg>