<?xml version="1.0" encoding="UTF-8" standalone="no"?>
<svg xmlns="http://www.w3.org/2000/svg" viewBox="0 0 459 453" width="459" height="453" preserveAspectRatio="xMidYMid meet" shape-rendering="geometricPrecision">
<g transform="translate(0.000000,453.000000) scale(0.100000,-0.100000)" fill="#59b5cc" fill-rule="evenodd" stroke="none"><path d="M780 4320 c-305 -5 -305 -5 -362 -35 -104 -53 -175 -142 -199 -251
-24 -102 -20 -3464 3 -3561 56 -228 126 -261 580 -269 361 -7 518 6 601 48 73
36 224 183 332 322 305 393 505 513 698 418 65 -33 249 -207 312 -297 312
-446 395 -489 950 -489 572 -1 614 18 671 295 29 142 31 3314 2 3479 -35 205
-121 304 -259 303 -142 -1 -162 -50 -170 -408 -8 -416 -22 -432 -254 -280
-138 90 -179 89 -320 -9 -184 -128 -214 -97 -220 229 -7 421 -20 463 -154 495
-57 13 -1579 20 -2211 10z m1588 -772 c106 -32 120 -77 126 -403 7 -407 6
-406 361 -410 408 -4 469 -31 466 -201 -2 -158 -65 -180 -504 -183 -316 -2
-312 2 -325 -427 -10 -349 -23 -379 -177 -391 -200 -17 -222 23 -231 407 -9
376 -18 388 -274 409 -63 5 -126 7 -140 4 -51 -10 -278 15 -324 36 -101 44
-129 210 -50 292 63 66 89 71 385 75 401 5 395 -1 400 399 4 256 4 261 30 310
44 87 142 118 257 83z"/></g>
</svg>