<?xml version="1.0" encoding="UTF-8" standalone="no"?>
<svg xmlns="http://www.w3.org/2000/svg" viewBox="0 0 960 960" width="960" height="960" preserveAspectRatio="xMidYMid meet" shape-rendering="geometricPrecision">
<g transform="translate(0.000000,960.000000) scale(0.100000,-0.100000)" fill="#141414" fill-rule="evenodd" stroke="none"><path d="M4654 8130 c-43 -9 -91 -45 -112 -83 -26 -48 -32 -678 -7 -743 43
-113 114 -139 356 -131 318 10 314 4 314 507 0 463 8 452 -318 455 -111 1
-216 -2 -233 -5z M2614 7297 c-40 -23 -185 -161 -248 -237 -145 -173 -139
-189 209 -534 306 -304 322 -306 549 -78 250 252 250 257 -91 596 -261 260
-333 303 -419 253z M6978 7296 c-39 -14 -289 -248 -445 -417 -151 -162 -142
-219 64 -433 219 -227 253 -221 579 101 338 335 342 350 126 578 -166 175
-228 207 -324 171z M4595 7024 c-146 -20 -204 -34 -370 -90 -520 -174 -951
-469 -1180 -809 -38 -55 -89 -129 -116 -165 -62 -85 -230 -441 -263 -555 -14
-50 -34 -115 -45 -146 -42 -124 -54 -237 -54 -534 0 -317 8 -394 57 -539 19
-56 37 -116 41 -134 23 -114 195 -457 333 -665 122 -184 297 -367 450 -472 49
-33 120 -84 159 -112 39 -29 88 -60 109 -69 22 -9 102 -47 179 -84 228 -112
462 -187 680 -219 214 -30 676 2 838 58 45 16 118 40 162 54 141 44 412 171
525 247 173 115 272 189 328 243 91 88 236 256 280 325 21 32 55 82 76 111 76
103 209 379 255 526 12 39 31 97 43 130 59 169 77 323 79 670 1 250 -10 332
-77 532 -72 220 -221 546 -293 643 -14 19 -53 77 -87 128 -187 285 -588 599
-949 743 -44 17 -96 40 -116 49 -19 10 -64 26 -100 35 -35 9 -100 30 -144 47
-104 39 -638 74 -800 52z m-366 -883 c17 -17 19 -37 19 -232 0 -259 17 -400
62 -514 184 -473 369 -677 804 -890 112 -54 178 -80 229 -90 371 -69 692 -39
957 89 80 39 99 43 118 24 17 -17 15 -105 -3 -164 -8 -27 -22 -78 -29 -114
-32 -148 -186 -427 -305 -555 -36 -39 -83 -92 -104 -117 -49 -61 -239 -204
-297 -223 -25 -8 -74 -33 -110 -55 -67 -41 -100 -54 -305 -113 -289 -84 -401
-92 -633 -42 -763 162 -1180 577 -1348 1340 -65 292 -16 582 161 959 81 172
233 379 334 454 20 15 64 51 97 82 73 65 269 173 327 179 4 1 15 -7 26 -18z
M1555 5061 c-79 -34 -95 -92 -95 -339 0 -345 -12 -336 445 -340 509 -4 509 -4
503 365 -3 230 -9 250 -86 301 -29 19 -725 31 -767 13z M7412 5049 c-81 -40
-90 -71 -94 -309 -5 -356 0 -360 507 -360 444 1 445 1 445 347 0 236 -10 274
-79 320 -51 35 -710 36 -779 2z M2813 3143 c-52 -29 -488 -463 -512 -510 -49
-96 -22 -155 152 -331 235 -239 251 -236 592 116 318 327 327 370 117 555 -54
47 -110 100 -127 117 -63 67 -156 89 -222 53z M6765 3146 c-29 -11 -75 -51
-168 -148 -241 -250 -240 -252 116 -609 318 -319 334 -322 554 -95 256 264
256 262 -95 613 -258 257 -295 279 -407 239z M4655 2266 c-122 -34 -135 -79
-135 -476 0 -481 -8 -470 350 -470 340 0 334 -7 337 425 4 521 0 528 -317 532
-133 2 -199 -1 -235 -11z"/></g>
</svg>