<?xml version="1.0" encoding="UTF-8" standalone="no"?>
<svg xmlns="http://www.w3.org/2000/svg" viewBox="0 0 868 868" width="868" height="868" preserveAspectRatio="xMidYMid meet" shape-rendering="geometricPrecision">
<g transform="translate(0.000000,868.000000) scale(0.100000,-0.100000)" fill="#1e1e1e" fill-rule="evenodd" stroke="none"><path d="M4010 7720 c-82 -4 -125 -11 -149 -24 -19 -10 -59 -27 -90 -37 -109
-38 -148 -88 -162 -208 -13 -109 -4 -153 42 -209 22 -25 39 -52 39 -58 0 -6
14 -29 31 -50 17 -22 44 -66 59 -99 15 -33 40 -75 54 -94 14 -19 26 -40 26
-46 0 -7 32 -74 71 -151 57 -112 73 -154 84 -219 7 -46 28 -114 49 -161 71
-158 72 -846 2 -1001 -23 -52 -38 -105 -45 -158 -9 -73 -71 -244 -102 -282 -6
-6 -37 -67 -71 -135 -35 -71 -90 -163 -132 -218 -39 -52 -98 -134 -129 -182
-32 -49 -62 -88 -67 -88 -4 0 -41 -31 -81 -68 -41 -38 -92 -79 -114 -92 -22
-13 -68 -50 -103 -82 -34 -32 -77 -65 -95 -74 -17 -10 -48 -30 -67 -45 -34
-28 -210 -119 -228 -119 -6 0 -37 -18 -70 -40 -36 -24 -80 -44 -111 -50 -28
-5 -76 -21 -107 -36 -40 -19 -82 -28 -157 -35 -56 -6 -127 -15 -157 -21 -85
-17 -347 -25 -530 -15 -197 10 -266 -8 -350 -93 -112 -112 -128 -199 -62 -323
23 -43 42 -84 42 -91 0 -7 15 -38 34 -69 19 -31 40 -74 46 -94 7 -21 24 -54
40 -73 15 -19 35 -50 44 -68 24 -47 133 -199 177 -247 20 -22 53 -65 72 -95
59 -90 338 -366 471 -466 184 -138 278 -204 292 -204 7 0 34 -17 61 -37 26
-20 68 -44 93 -54 25 -9 69 -33 99 -53 29 -20 58 -36 63 -36 6 0 41 -15 78
-34 36 -19 89 -41 117 -49 27 -8 74 -28 104 -45 30 -17 80 -36 113 -42 32 -7
83 -20 113 -31 72 -25 213 -49 285 -49 31 0 112 -13 180 -29 222 -52 695 -51
793 2 38 21 64 27 110 27 85 0 231 24 290 48 28 11 80 24 116 30 39 6 88 23
120 40 30 17 72 35 94 41 22 6 96 40 165 75 69 36 159 81 200 101 41 20 84 45
95 55 11 10 56 37 100 61 44 23 98 58 120 79 59 54 124 103 180 138 58 35 386
366 428 431 15 24 54 75 86 113 32 38 81 105 107 149 27 45 64 101 83 127 19
25 43 66 53 91 11 26 50 109 88 186 38 77 74 157 80 179 7 21 25 59 41 85 18
28 36 81 48 136 11 50 29 114 40 143 12 30 26 88 32 130 5 43 16 97 24 122 74
232 81 788 14 1100 -11 52 -25 124 -31 160 -5 36 -25 115 -43 175 -18 61 -38
133 -45 160 -6 28 -24 73 -40 101 -16 28 -34 71 -40 95 -6 24 -26 69 -44 99
-18 30 -36 69 -40 85 -4 17 -20 50 -35 75 -15 25 -34 63 -41 85 -7 22 -29 63
-50 90 -21 28 -46 66 -55 85 -24 49 -98 154 -155 220 -26 30 -64 81 -85 113
-20 31 -56 71 -79 88 -24 16 -59 51 -79 77 -55 73 -237 243 -301 282 -31 19
-86 61 -122 92 -36 32 -97 76 -137 98 -40 21 -88 51 -106 65 -19 14 -60 34
-90 46 -30 11 -69 33 -87 48 -18 16 -56 37 -85 46 -29 10 -73 31 -98 47 -25
16 -64 33 -86 39 -22 6 -66 24 -98 40 -33 17 -87 35 -120 40 -34 6 -91 21
-127 34 -60 21 -169 38 -306 48 -29 2 -71 14 -94 26 -23 12 -61 24 -83 26 -80
8 -393 12 -507 5z m722 -661 c37 -16 91 -34 120 -39 29 -5 79 -14 111 -19 49
-9 389 -164 547 -251 19 -10 61 -33 93 -50 32 -17 60 -37 63 -45 3 -8 56 -55
117 -104 150 -120 337 -306 417 -413 102 -138 170 -239 191 -288 11 -25 32
-60 46 -78 14 -18 35 -59 48 -90 12 -31 48 -110 78 -174 31 -64 61 -143 66
-175 6 -32 17 -78 25 -103 79 -255 127 -744 87 -880 -6 -19 -11 -73 -11 -120
0 -97 -19 -218 -57 -358 -14 -53 -33 -131 -43 -172 -9 -42 -44 -131 -77 -200
-33 -69 -66 -142 -72 -163 -7 -21 -23 -50 -36 -65 -13 -15 -36 -54 -52 -87
-43 -88 -77 -139 -163 -245 -42 -52 -84 -108 -93 -125 -18 -36 -242 -248 -352
-335 -44 -34 -91 -75 -105 -91 -25 -30 -107 -82 -190 -120 -25 -12 -139 -68
-255 -124 -126 -62 -232 -107 -265 -114 -30 -5 -81 -15 -113 -20 -31 -6 -88
-24 -125 -40 -173 -75 -914 -73 -1108 2 -49 19 -122 40 -162 46 -41 6 -103 26
-145 45 -39 19 -107 46 -149 61 -42 15 -103 42 -135 62 -32 19 -117 64 -189
98 -104 51 -138 72 -164 105 -17 22 -62 62 -99 88 -80 56 -326 295 -348 337
-8 17 -39 53 -69 81 -90 84 -76 107 76 122 73 7 125 18 167 36 41 17 81 26
115 26 34 0 84 12 138 31 47 17 130 45 185 63 134 44 217 80 275 120 26 18 77
43 113 56 36 13 92 43 124 67 32 24 78 56 103 71 130 77 192 126 356 283 110
106 199 202 232 248 29 42 79 103 111 136 33 33 69 80 81 105 13 25 38 62 56
83 19 20 34 43 34 49 0 7 38 90 85 184 47 94 85 178 85 185 0 34 23 89 49 123
20 25 33 56 40 102 7 36 20 89 31 117 27 74 38 128 50 255 6 61 15 124 22 139
37 90 36 592 -1 661 -6 12 -16 68 -21 125 -12 128 -23 189 -49 255 -11 28 -25
86 -30 128 -8 63 -16 86 -45 128 -24 34 -40 73 -47 112 -6 32 -18 72 -26 88
-25 49 -32 83 -20 96 23 22 202 2 279 -31z"/></g>
</svg>