<?xml version="1.0" encoding="UTF-8" standalone="no"?>
<svg xmlns="http://www.w3.org/2000/svg" viewBox="0 0 547 546" width="547" height="546" preserveAspectRatio="xMidYMid meet" shape-rendering="geometricPrecision">
<g transform="translate(0.000000,546.000000) scale(0.100000,-0.100000)" fill="#3c3c3c" fill-rule="evenodd" stroke="none"><path d="M553 5211 c-127 -12 -118 55 -121 -846 -3 -964 -21 -886 208 -893
233 -7 221 -46 219 692 -1 587 -1 589 20 610 22 21 22 21 1829 24 994 1 1821
0 1838 -3 70 -12 65 35 64 -625 0 -747 -14 -704 225 -698 224 6 206 -73 203
892 -3 889 4 820 -93 845 -47 12 -4271 14 -4392 2z M304 2916 c-56 -25 -64
-47 -64 -184 0 -145 11 -182 61 -203 65 -27 4839 -20 4876 7 56 42 69 303 17
363 -22 26 -22 26 -2441 28 -2022 2 -2423 0 -2449 -11z M529 1991 c-106 -33
-99 30 -99 -888 0 -887 -4 -833 68 -853 63 -17 4434 -14 4476 4 70 29 66 -26
66 851 0 968 19 887 -210 893 -233 6 -220 46 -220 -694 0 -568 -1 -593 -19
-615 -28 -35 -3643 -43 -3698 -9 -33 20 -33 20 -33 618 0 668 2 645 -71 684
-36 19 -206 25 -260 9z"/></g>
</svg>