<?xml version="1.0" encoding="UTF-8" standalone="no"?>
<svg xmlns="http://www.w3.org/2000/svg" viewBox="0 0 960 960" width="960" height="960" preserveAspectRatio="xMidYMid meet" shape-rendering="geometricPrecision">
<g transform="translate(0.000000,960.000000) scale(0.100000,-0.100000)" fill="#0f0f0f" fill-rule="evenodd" stroke="none"><path d="M6149 7482 c-69 -36 -88 -64 -100 -147 -7 -47 -21 -86 -41 -117 -22
-35 -33 -70 -42 -132 -9 -62 -20 -96 -41 -127 -21 -33 -30 -61 -36 -120 -9
-91 -16 -106 -69 -151 -59 -52 -137 -86 -216 -96 -48 -7 -89 -20 -126 -41 -41
-23 -76 -34 -132 -40 -57 -7 -87 -16 -123 -39 -27 -16 -72 -35 -100 -42 -75
-17 -99 -40 -113 -105 -12 -58 -5 -134 14 -159 28 -36 191 -108 265 -117 53
-7 92 -20 135 -44 44 -24 82 -36 136 -43 54 -7 87 -17 114 -36 21 -14 47 -26
58 -26 81 0 134 -66 153 -188 9 -64 21 -101 39 -129 18 -26 32 -69 42 -127 9
-55 26 -107 44 -140 17 -30 31 -75 36 -110 10 -90 107 -186 186 -186 83 0 198
129 198 222 0 48 16 96 46 139 19 28 28 58 35 114 6 56 17 91 42 138 26 46 36
79 40 127 9 104 16 113 106 130 27 5 70 24 95 41 39 28 57 33 123 38 65 5 86
11 125 37 36 24 63 33 115 38 89 9 265 93 294 140 62 101 1 219 -130 253 -31
8 -73 26 -95 40 -26 17 -65 29 -121 37 -55 8 -98 21 -129 40 -31 18 -77 33
-132 41 -50 9 -96 22 -113 34 -16 12 -49 29 -74 40 -49 21 -52 27 -62 118 -5
43 -16 76 -35 107 -33 52 -50 105 -50 160 0 26 -12 60 -34 100 -23 41 -37 84
-44 134 -23 162 -162 258 -283 194z M4480 7470 c-133 -6 -151 -9 -217 -38 -47
-21 -88 -32 -120 -32 -92 -1 -185 -20 -237 -49 -33 -18 -78 -32 -124 -39 -51
-7 -86 -19 -112 -37 -21 -15 -59 -33 -85 -40 -26 -8 -62 -28 -80 -44 -18 -16
-56 -36 -83 -45 -27 -9 -58 -26 -68 -37 -11 -12 -32 -28 -49 -36 -16 -8 -41
-26 -55 -39 -14 -12 -42 -30 -62 -38 -21 -9 -52 -29 -70 -44 -18 -16 -43 -35
-54 -43 -95 -64 -334 -303 -494 -494 -30 -37 -69 -83 -86 -103 -17 -20 -35
-48 -39 -62 -4 -14 -20 -42 -36 -62 -16 -20 -34 -49 -41 -65 -7 -15 -27 -49
-44 -75 -17 -26 -35 -64 -39 -85 -3 -21 -22 -60 -40 -88 -22 -32 -36 -68 -40
-101 -5 -36 -16 -62 -41 -93 -31 -40 -34 -50 -34 -110 0 -65 -7 -84 -61 -181
-15 -28 -19 -55 -19 -132 0 -54 -7 -148 -16 -209 -16 -118 -16 -159 5 -589 12
-245 12 -245 46 -315 25 -52 36 -92 43 -155 7 -67 15 -95 39 -132 17 -26 36
-75 42 -108 7 -35 22 -71 37 -89 13 -16 31 -50 38 -75 8 -26 28 -62 45 -81 16
-19 35 -54 42 -77 6 -24 26 -59 44 -79 18 -20 36 -47 40 -60 4 -13 15 -33 25
-44 10 -11 30 -40 43 -63 62 -110 552 -598 655 -652 26 -14 69 -40 96 -58 28
-17 55 -32 60 -32 6 0 33 -15 59 -34 26 -19 59 -37 73 -40 14 -4 48 -22 75
-41 29 -19 68 -37 94 -41 25 -3 65 -20 90 -36 32 -21 64 -32 113 -38 77 -10
89 -14 154 -53 41 -25 60 -29 155 -34 83 -4 122 -11 168 -31 140 -58 541 -56
689 3 54 21 87 27 181 31 132 5 196 17 234 43 38 26 58 32 142 40 64 7 83 14
115 39 22 16 64 37 94 46 31 8 66 26 79 40 12 13 43 29 69 36 26 7 64 26 85
42 20 16 59 36 86 44 27 8 54 21 62 30 7 8 31 25 53 36 23 11 55 33 71 48 54
49 167 120 192 120 44 0 64 -18 415 -368 384 -383 365 -369 494 -352 54 8 328
260 338 312 8 38 6 136 -2 165 -6 20 -467 501 -634 660 -101 98 -119 192 -52
279 17 21 38 58 48 81 10 23 27 50 38 59 10 10 26 43 34 73 9 31 29 75 45 98
20 28 34 65 40 105 7 42 21 78 41 107 27 37 32 56 40 139 7 77 16 112 45 176
62 137 61 1005 -1 1110 -21 35 -31 72 -40 144 -30 228 -125 285 -280 168 -42
-32 -84 -70 -93 -84 -10 -15 -34 -49 -54 -77 -21 -27 -41 -63 -44 -80 -4 -16
-21 -54 -37 -83 -17 -32 -35 -86 -43 -132 -8 -43 -25 -100 -39 -127 -25 -46
-26 -53 -27 -243 -1 -334 -19 -536 -53 -587 -22 -33 -30 -60 -36 -119 -7 -66
-11 -80 -38 -107 -21 -21 -35 -50 -42 -84 -6 -29 -24 -68 -40 -87 -15 -20 -32
-55 -38 -79 -7 -25 -24 -55 -42 -72 -18 -17 -37 -44 -45 -61 -46 -111 -242
-311 -425 -434 -29 -19 -73 -53 -100 -75 -82 -69 -148 -114 -184 -124 -20 -5
-54 -23 -78 -39 -27 -19 -62 -33 -93 -38 -57 -7 -111 -28 -136 -50 -10 -9 -59
-22 -116 -30 -54 -8 -141 -28 -193 -44 -104 -32 -503 -45 -590 -20 -109 33
-223 59 -283 65 -50 6 -79 15 -112 37 -32 21 -64 32 -111 38 -51 6 -75 15
-104 38 -20 17 -54 34 -74 37 -21 4 -50 20 -67 37 -16 17 -67 54 -112 84 -200
130 -434 356 -517 499 -14 24 -33 51 -42 62 -9 10 -27 43 -41 73 -13 30 -31
61 -40 69 -9 7 -26 44 -37 82 -11 37 -25 71 -30 74 -19 12 -41 67 -50 122 -6
32 -21 73 -36 95 -30 43 -42 100 -43 198 -1 36 -8 128 -16 205 -17 161 -19
299 -5 400 6 39 15 123 20 188 9 105 14 125 45 183 19 36 35 75 35 87 0 39 20
96 44 124 13 16 29 48 36 73 7 25 26 62 42 83 16 20 34 52 40 70 6 17 21 44
33 59 13 15 33 48 46 75 27 56 291 324 384 391 101 71 128 90 180 126 28 18
59 43 69 55 11 12 40 27 64 33 25 6 60 24 79 41 27 24 46 31 102 37 53 6 79
15 115 39 36 25 59 33 113 37 38 4 113 19 168 35 134 38 138 38 471 43 307 5
311 5 390 56 17 11 58 24 93 28 45 7 69 16 89 35 15 14 47 34 72 45 74 32 143
121 180 232 37 109 31 130 -43 149 -25 6 -58 21 -74 34 -45 38 -63 44 -153 52
-53 5 -107 16 -144 32 -95 40 -430 59 -746 43z"/></g>
</svg>