<?xml version="1.0" encoding="UTF-8" standalone="no"?>
<svg xmlns="http://www.w3.org/2000/svg" viewBox="0 0 484 488" width="484" height="488" preserveAspectRatio="xMidYMid meet" shape-rendering="geometricPrecision">
<g transform="translate(0.000000,488.000000) scale(0.100000,-0.100000)" fill="#5baa8d" fill-rule="evenodd" stroke="none"><path d="M2339 1864 c-81 -57 -84 -74 -84 -470 0 -351 0 -351 27 -386 107
-140 270 -97 298 79 16 99 22 553 9 627 -25 144 -152 221 -250 150z"/></g>
<g transform="translate(0.000000,488.000000) scale(0.100000,-0.100000)" fill="#131313" fill-rule="evenodd" stroke="none"><path d="M937 4650 c-168 -29 -287 -133 -337 -295 -7 -22 -18 -49 -25 -60 -6
-11 -21 -45 -32 -75 -36 -95 -76 -193 -152 -366 -17 -39 -31 -76 -31 -84 0 -7
-11 -38 -24 -69 -119 -284 -129 -336 -101 -533 24 -174 105 -347 230 -492 l70
-81 5 -1045 c6 -1167 1 -1122 130 -1230 121 -101 4 -95 1755 -95 1771 0 1624
-9 1756 112 122 114 113 20 119 1219 l5 1051 63 74 c236 276 311 618 192 882
-10 23 -27 69 -38 102 -11 33 -34 96 -52 140 -17 44 -45 113 -61 153 -16 39
-42 105 -58 145 -16 39 -43 106 -59 147 -85 213 -117 267 -191 324 -116 88 18
81 -1646 82 -808 1 -1492 -2 -1518 -6z m2927 -412 c14 -13 34 -45 45 -73 10
-27 35 -88 56 -135 20 -47 41 -98 47 -115 9 -28 37 -100 88 -225 133 -329 142
-372 111 -503 -86 -361 -508 -557 -839 -390 -73 36 -93 50 -209 149 -107 90
-183 84 -313 -24 -298 -248 -582 -248 -866 -1 -129 112 -208 116 -325 16 -195
-166 -307 -207 -521 -193 -272 19 -472 197 -524 469 -21 106 -4 172 116 457
68 162 115 276 146 359 13 35 28 69 33 75 4 6 16 35 26 64 33 101 -123 92
1492 92 1412 0 1412 0 1437 -22z m-1932 -1753 c50 -30 95 -55 100 -55 5 0 42
-13 81 -29 240 -95 603 -55 825 93 87 57 94 57 196 -4 46 -28 108 -59 137 -70
30 -10 74 -26 98 -35 95 -34 252 -46 389 -29 186 22 165 135 164 -866 0 -636
-4 -845 -13 -856 -24 -29 -2955 -20 -2974 10 -21 32 -18 1687 3 1708 15 15
109 14 207 -2 152 -25 483 64 614 164 49 37 69 33 173 -29z"/></g>
</svg>