<?xml version="1.0" encoding="UTF-8" standalone="no"?>
<svg xmlns="http://www.w3.org/2000/svg" viewBox="0 0 952 952" width="952" height="952" preserveAspectRatio="xMidYMid meet" shape-rendering="geometricPrecision">
<g transform="translate(0.000000,952.000000) scale(0.100000,-0.100000)" fill="#111111" fill-rule="evenodd" stroke="none"><path d="M3473 7300 c-127 -53 -148 -94 -148 -293 -1 -92 -5 -171 -11 -177 -5
-5 -151 -10 -339 -12 -330 -3 -330 -3 -390 -41 -65 -40 -165 -147 -165 -176 0
-10 -11 -55 -25 -102 -36 -119 -40 -960 -5 -1049 11 -28 20 -61 20 -73 0 -62
20 -93 102 -163 83 -69 83 -69 438 -72 195 -2 359 -7 364 -12 5 -5 10 -129 11
-277 2 -307 -3 -286 78 -349 62 -49 62 -49 191 -52 284 -8 340 68 335 453 -2
116 0 216 5 223 5 9 83 12 326 12 382 0 396 2 470 74 142 138 140 124 139 733
0 528 -5 602 -42 641 -14 15 -33 43 -41 62 -18 43 -52 74 -136 126 -65 39 -65
39 -385 44 -176 3 -325 8 -331 12 -7 5 -9 48 -6 133 10 257 -61 338 -298 342
-74 1 -145 -2 -157 -7z m-157 -1052 c9 -14 9 -546 0 -555 -11 -11 -356 -10
-371 1 -15 12 -25 531 -11 555 10 16 372 16 382 -1z m992 -261 c1 -151 -2
-275 -7 -285 -10 -20 -343 -24 -363 -4 -10 10 -14 534 -3 552 4 7 65 10 188 8
l182 -3 3 -268z M5256 6889 c-82 -19 -85 -29 -88 -288 -3 -235 -2 -241 71
-261 22 -6 264 -10 628 -10 385 0 594 -4 598 -10 3 -6 6 -274 6 -598 0 -591 3
-660 33 -690 25 -25 466 -31 502 -8 44 30 46 57 41 775 -5 705 -8 754 -49 799
-14 15 -31 42 -38 60 -16 41 -109 126 -170 156 -25 12 -60 33 -78 46 -26 20
-51 26 -115 32 -123 10 -1296 7 -1341 -3z M6040 4490 c-130 -10 -243 -93 -270
-198 -6 -26 -20 -56 -31 -68 -10 -11 -23 -44 -29 -73 -5 -30 -23 -73 -39 -97
-18 -28 -31 -64 -35 -98 -5 -38 -16 -66 -35 -90 -18 -22 -31 -53 -35 -82 -3
-26 -19 -68 -35 -93 -16 -25 -33 -68 -37 -96 -4 -28 -18 -65 -34 -87 -16 -22
-30 -57 -34 -85 -4 -27 -19 -66 -35 -90 -16 -24 -31 -63 -35 -90 -4 -27 -19
-66 -35 -90 -16 -24 -31 -63 -35 -90 -4 -28 -19 -66 -36 -92 -17 -24 -30 -57
-30 -72 0 -36 -17 -79 -41 -105 -10 -11 -24 -47 -30 -80 -6 -32 -22 -76 -36
-97 -14 -21 -30 -60 -34 -88 -5 -29 -19 -65 -34 -85 -72 -95 -17 -213 111
-234 221 -36 414 3 463 94 9 16 28 43 43 61 18 21 33 55 42 98 15 75 59 157
84 157 18 1 729 1 749 0 18 0 64 -96 78 -161 16 -76 81 -175 142 -216 54 -37
213 -53 372 -38 149 14 219 135 142 244 -12 16 -24 51 -27 78 -4 26 -17 64
-31 84 -13 21 -31 66 -39 100 -8 35 -26 80 -40 100 -14 20 -29 62 -34 94 -5
33 -20 74 -35 95 -14 21 -29 60 -34 87 -4 28 -18 65 -31 83 -12 18 -29 61 -36
96 -8 35 -25 81 -39 102 -13 20 -29 62 -35 92 -6 29 -17 61 -26 71 -21 23 -43
86 -44 125 0 19 -12 46 -29 68 -21 26 -32 53 -37 92 -4 35 -17 70 -35 97 -16
24 -31 63 -35 90 -4 27 -19 66 -35 90 -17 26 -31 62 -35 95 -4 30 -17 68 -30
88 -13 19 -33 52 -43 72 -66 128 -192 164 -501 142z m156 -876 c6 -33 22 -79
37 -104 14 -25 29 -65 33 -90 4 -25 22 -74 40 -109 63 -120 58 -125 -147 -124
-202 1 -208 4 -145 101 23 37 35 68 39 107 4 38 15 68 35 97 19 27 33 62 37
93 14 106 54 122 71 29z M2521 4160 c-103 -16 -103 -17 -98 -820 4 -532 6
-589 22 -625 9 -22 27 -68 39 -101 41 -114 166 -251 240 -265 27 -5 65 -21 85
-36 36 -28 36 -28 716 -31 742 -3 737 -3 763 36 22 33 31 394 12 480 -20 90
23 84 -650 84 -563 0 -591 1 -600 18 -6 12 -10 242 -10 613 0 683 7 634 -91
648 -67 9 -368 9 -428 -1z"/></g>
</svg>