<?xml version="1.0" encoding="UTF-8" standalone="no"?>
<svg xmlns="http://www.w3.org/2000/svg" viewBox="0 0 952 952" width="952" height="952" preserveAspectRatio="xMidYMid meet" shape-rendering="geometricPrecision">
<g transform="translate(0.000000,952.000000) scale(0.100000,-0.100000)" fill="#232423" fill-rule="evenodd" stroke="none"><path d="M2486 7099 c-21 -5 -50 -18 -65 -28 -14 -10 -45 -24 -67 -30 -30 -8
-55 -27 -93 -68 -29 -32 -66 -73 -83 -92 -21 -23 -36 -53 -45 -94 -8 -33 -24
-78 -36 -101 -35 -65 -35 -2973 0 -3049 12 -26 27 -73 33 -104 5 -31 18 -67
27 -81 10 -13 28 -40 39 -59 30 -49 104 -106 204 -156 85 -42 85 -42 1123 -44
571 -1 1042 -5 1047 -8 14 -9 13 -202 -1 -211 -7 -4 -161 -6 -343 -5 -365 3
-356 4 -431 -63 -50 -45 -50 -45 -53 -179 -7 -249 7 -288 118 -328 85 -31
1817 -44 1934 -14 172 44 186 64 189 275 2 180 4 172 -66 251 -47 54 -47 54
-405 55 l-357 2 -6 93 c-4 61 -2 100 5 112 10 17 66 18 1046 20 1035 2 1035 2
1080 29 25 14 59 29 75 32 65 14 235 219 235 283 0 10 11 63 24 118 34 138 45
2873 13 2955 -10 25 -22 78 -27 118 -12 106 -166 312 -233 312 -13 0 -46 15
-73 33 -49 32 -49 32 -2409 34 -1388 0 -2376 -3 -2399 -8z m4532 -571 c25 -31
26 -2688 1 -2714 -31 -34 -4282 -39 -4313 -6 -20 23 -25 2694 -4 2719 15 19
4300 19 4316 1z"/></g>
</svg>