<?xml version="1.0" encoding="UTF-8" standalone="no"?>
<svg xmlns="http://www.w3.org/2000/svg" viewBox="0 0 952 952" width="952" height="952" preserveAspectRatio="xMidYMid meet" shape-rendering="geometricPrecision">
<g transform="translate(0.000000,952.000000) scale(0.100000,-0.100000)" fill="#121212" fill-rule="evenodd" stroke="none"><path d="M3108 7100 c-111 -19 -326 -213 -342 -308 -3 -23 -17 -62 -31 -88
-37 -69 -40 -3825 -4 -3916 12 -29 27 -74 34 -100 24 -89 170 -245 249 -267
21 -5 55 -22 76 -36 66 -46 111 -47 1810 -43 1586 3 1586 3 1646 34 32 17 76
37 97 43 101 33 219 178 272 332 55 163 55 3141 0 3233 -45 74 -1070 1095
-1118 1113 -37 14 -2608 16 -2689 3z m2495 -604 c29 -25 206 -200 395 -389
l342 -343 0 -1396 c0 -1149 -2 -1398 -13 -1407 -20 -16 -2974 -16 -2993 0 -21
18 -21 3564 0 3576 8 4 510 7 1116 6 1101 -2 1101 -2 1153 -47z M4553 5840
c-78 -18 -91 -52 -107 -268 -11 -150 -16 -182 -35 -213 -13 -23 -27 -72 -35
-127 -9 -61 -21 -101 -36 -122 -15 -21 -25 -55 -30 -101 -5 -48 -14 -77 -28
-92 -26 -29 -38 -54 -46 -97 -3 -19 -19 -54 -35 -77 -15 -23 -31 -61 -35 -85
-4 -24 -17 -59 -30 -78 -13 -19 -43 -70 -67 -113 -24 -44 -56 -94 -72 -112
-15 -18 -34 -50 -43 -71 -9 -21 -25 -49 -35 -63 -58 -74 22 -149 103 -96 22
15 58 33 80 41 22 7 53 25 69 38 15 13 48 27 71 31 24 4 58 18 76 32 17 13 47
29 65 35 58 21 105 67 128 127 11 31 29 65 39 76 10 11 25 46 34 79 8 32 24
68 35 80 12 12 25 46 31 75 5 30 23 77 40 106 18 31 30 67 30 88 0 95 43 106
71 18 6 -20 24 -49 39 -66 15 -16 33 -41 40 -54 23 -44 175 -213 229 -255 66
-50 68 -57 15 -72 -22 -6 -56 -20 -75 -30 -19 -10 -79 -23 -137 -30 -83 -9
-110 -17 -142 -39 -26 -18 -58 -29 -99 -34 -40 -5 -72 -16 -98 -34 -21 -15
-60 -31 -85 -36 -26 -4 -60 -19 -76 -33 -17 -14 -50 -30 -74 -36 -24 -6 -53
-21 -63 -32 -10 -11 -37 -25 -59 -31 -23 -6 -52 -21 -66 -34 -14 -13 -43 -31
-65 -40 -22 -9 -49 -25 -60 -35 -11 -11 -36 -26 -55 -34 -19 -8 -52 -27 -72
-43 -21 -15 -49 -36 -63 -46 -58 -42 -33 -104 99 -241 94 -97 126 -107 180
-57 12 11 46 31 76 45 69 33 135 73 181 109 20 15 42 27 50 27 8 0 39 16 69
35 30 19 64 35 75 35 12 0 41 13 66 29 25 17 65 32 94 36 28 4 74 21 102 37
46 25 68 30 167 38 81 6 129 15 163 30 66 30 179 40 446 40 300 0 302 1 321
138 4 24 18 66 32 93 44 83 17 148 -77 183 -26 9 -54 25 -64 36 -10 11 -34 24
-54 31 -20 6 -45 20 -57 30 -11 11 -41 29 -66 42 -59 28 -200 149 -281 240
-58 66 -73 85 -122 166 -11 19 -35 51 -52 73 -18 22 -33 45 -33 52 0 7 -16 35
-35 62 -19 27 -35 54 -35 60 0 6 -13 31 -29 55 -17 24 -35 67 -41 94 -6 28
-20 59 -30 70 -24 26 -40 68 -40 108 0 18 -10 48 -22 67 -12 19 -32 56 -45 82
-30 63 -173 89 -310 58z"/></g>
</svg>