<?xml version="1.0" encoding="UTF-8" standalone="no"?>
<svg xmlns="http://www.w3.org/2000/svg" viewBox="0 0 952 952" width="952" height="952" preserveAspectRatio="xMidYMid meet" shape-rendering="geometricPrecision">
<g transform="translate(0.000000,952.000000) scale(0.100000,-0.100000)" fill="#121212" fill-rule="evenodd" stroke="none"><path d="M2688 6881 c-20 -4 -47 -15 -61 -24 -13 -8 -49 -23 -79 -32 -92 -26
-250 -164 -264 -230 -3 -16 -20 -55 -38 -85 -42 -75 -51 -3633 -9 -3701 13
-20 29 -54 37 -76 33 -93 165 -228 239 -245 23 -5 60 -21 81 -36 39 -27 39
-27 1667 -27 1827 0 1647 -7 1686 70 24 45 19 417 -5 460 -41 70 80 65 -1588
65 -1444 0 -1502 1 -1518 18 -20 23 -24 2075 -4 2099 8 10 417 13 2045 13
2245 0 2073 -5 2110 63 29 53 33 1082 4 1177 -11 36 -23 89 -27 119 -5 37 -15
63 -34 85 -15 17 -35 45 -44 63 -9 17 -33 45 -53 62 -21 17 -57 46 -80 64 -23
19 -63 40 -89 46 -26 7 -65 22 -88 34 -41 22 -41 22 -1946 23 -1048 1 -1921
-1 -1942 -5z m3712 -617 c15 -38 13 -467 -2 -482 -18 -18 -3553 -17 -3564 0
-16 26 -12 471 4 491 29 33 3549 25 3562 -9z M6570 4860 c-57 -8 -78 -19 -123
-70 -37 -40 -37 -40 -37 -1208 0 -1292 -4 -1208 68 -1231 104 -32 141 -10 294
179 42 52 118 140 167 195 50 55 121 135 158 178 38 43 116 134 175 202 117
135 130 165 105 235 -17 49 -53 59 -219 59 -80 1 -139 5 -143 11 -3 5 -7 295
-8 643 -3 812 0 806 -264 811 -71 2 -148 0 -173 -4z"/></g>
</svg>