<?xml version="1.0" encoding="UTF-8" standalone="no"?>
<svg xmlns="http://www.w3.org/2000/svg" viewBox="0 0 868 868" width="868" height="868" preserveAspectRatio="xMidYMid meet" shape-rendering="geometricPrecision">
<g transform="translate(0.000000,868.000000) scale(0.100000,-0.100000)" fill="#141414" fill-rule="evenodd" stroke="none"><path d="M1864 7080 c-52 -8 -83 -20 -122 -51 -13 -10 -46 -25 -75 -35 -77
-25 -169 -120 -191 -195 -9 -31 -23 -63 -33 -70 -58 -49 -54 92 -54 -2047 1
-2260 -5 -2108 93 -2196 29 -26 91 -85 138 -131 116 -114 24 -105 1066 -105
901 0 901 0 939 -30 28 -22 48 -30 79 -30 68 0 100 -15 190 -87 49 -40 104
-75 128 -82 23 -7 53 -25 67 -40 111 -117 324 -174 425 -114 21 13 91 68 133
105 22 20 60 42 84 49 27 9 65 34 103 70 76 70 87 76 180 94 45 8 91 24 113
39 38 26 38 26 930 26 589 0 909 4 941 11 45 9 62 23 195 153 155 153 149 142
161 261 12 107 8 3949 -4 3980 -6 16 -23 45 -36 63 -14 17 -32 56 -41 84 -19
67 -122 169 -194 193 -25 9 -65 29 -88 46 -63 47 -115 49 -911 49 -800 -1
-884 -5 -973 -52 -33 -16 -86 -34 -119 -38 -96 -14 -276 -108 -337 -176 -26
-30 -68 -67 -92 -83 -24 -15 -71 -55 -105 -89 -75 -76 -90 -77 -144 -12 -23
27 -70 68 -105 91 -35 22 -84 67 -111 100 -39 48 -56 62 -96 74 -27 8 -74 30
-106 49 -41 26 -76 38 -125 45 -42 6 -86 20 -114 37 -83 48 -181 53 -1003 52
-404 0 -758 -4 -786 -8z m1598 -615 c28 -15 78 -29 119 -34 80 -11 85 -14 275
-196 138 -132 151 -151 164 -244 5 -39 20 -91 33 -114 22 -42 22 -42 27 -762
5 -784 4 -765 62 -796 31 -17 435 -17 466 0 57 31 57 22 62 806 5 720 5 720
28 752 15 21 25 56 32 107 13 101 14 103 173 265 154 157 172 170 268 182 40
5 89 19 119 35 70 37 1441 40 1472 4 25 -31 27 -3593 2 -3622 -16 -17 -52 -18
-783 -19 -907 -1 -979 -4 -1037 -42 -30 -21 -60 -30 -117 -36 -58 -7 -91 -17
-139 -44 -35 -19 -74 -38 -88 -42 -30 -9 -136 -84 -169 -119 -34 -36 -72 -34
-118 7 -64 56 -136 104 -177 117 -21 7 -59 25 -85 41 -32 20 -67 32 -119 38
-46 6 -88 18 -116 35 -73 43 -133 46 -997 46 -777 0 -817 1 -832 18 -20 22
-26 3577 -6 3614 17 33 30 33 740 31 691 -2 691 -2 741 -28z"/></g>
</svg>