<?xml version="1.0" encoding="UTF-8" standalone="no"?>
<svg xmlns="http://www.w3.org/2000/svg" viewBox="0 0 485 418" width="485" height="418" preserveAspectRatio="xMidYMid meet" shape-rendering="geometricPrecision">
<g transform="translate(0.000000,418.000000) scale(0.100000,-0.100000)" fill="#58aa8b" fill-rule="evenodd" stroke="none"><path d="M1552 3331 c-65 -17 -109 -55 -121 -108 -24 -109 -19 -932 7 -988 71
-154 222 -162 291 -16 45 98 52 954 8 1035 -35 64 -111 95 -185 77z"/></g>
<g transform="translate(0.000000,418.000000) scale(0.100000,-0.100000)" fill="#131313" fill-rule="evenodd" stroke="none"><path d="M955 3953 c-376 -51 -684 -391 -730 -809 -25 -225 123 -574 297 -701
246 -180 355 -213 718 -213 145 0 145 0 200 -59 68 -73 148 -102 195 -73 6 4
17 7 25 9 8 1 35 24 60 52 69 76 -32 71 1405 71 1464 0 1368 -5 1442 72 92 96
76 182 -59 326 -286 304 -278 662 23 975 112 116 116 245 12 324 -36 28 -36
28 -1797 29 -969 1 -1774 -1 -1791 -3z m3063 -390 c11 -18 2 -59 -21 -94 -67
-103 -98 -418 -56 -575 11 -43 25 -96 30 -116 5 -21 18 -52 29 -70 22 -36 26
-63 10 -73 -17 -11 -2201 -5 -2221 5 -26 14 -26 11 -28 -165 -3 -290 -58 -381
-212 -352 -98 19 -133 109 -136 346 -3 196 -3 200 -23 176 -17 -21 -403 -22
-472 -1 -118 35 -253 182 -290 314 -79 286 109 578 397 615 117 15 2985 6
2993 -10z M381 1934 c-182 -49 -206 -201 -56 -364 120 -130 141 -160 180 -249
108 -245 45 -524 -166 -728 -128 -123 -147 -208 -67 -299 72 -82 -117 -75
1885 -72 1778 3 1778 3 1861 36 358 140 552 375 596 721 57 444 -259 887 -679
952 -129 20 -3481 23 -3554 3z m3488 -394 c436 -71 514 -682 112 -884 -112
-57 -80 -56 -1654 -56 -1637 0 -1533 -6 -1477 85 111 180 111 540 -1 789 -37
84 -186 76 1479 76 966 0 1499 -4 1541 -10z"/></g>
</svg>