<?xml version="1.0" encoding="UTF-8" standalone="no"?>
<svg xmlns="http://www.w3.org/2000/svg" viewBox="0 0 466 416" width="466" height="416" preserveAspectRatio="xMidYMid meet" shape-rendering="geometricPrecision">
<g transform="translate(0.000000,416.000000) scale(0.100000,-0.100000)" fill="#121212" fill-rule="evenodd" stroke="none"><path d="M2070 3943 c-14 -2 -59 -10 -100 -18 -41 -8 -133 -19 -205 -25 -80
-7 -161 -20 -210 -35 -44 -13 -109 -29 -145 -35 -35 -6 -76 -18 -92 -26 -15
-8 -55 -20 -88 -28 -34 -8 -72 -21 -84 -30 -13 -8 -49 -22 -80 -31 -225 -65
-602 -345 -729 -541 -115 -178 -161 -446 -103 -604 10 -25 26 -69 36 -99 26
-72 95 -174 191 -282 94 -108 94 -110 23 -179 -57 -57 -196 -256 -209 -300 -4
-14 -16 -42 -27 -63 -48 -95 -44 -358 7 -487 85 -215 267 -426 481 -556 99
-60 420 -212 462 -219 24 -4 81 -20 125 -36 45 -16 89 -29 98 -29 9 0 36 -9
60 -19 26 -12 90 -24 154 -31 61 -6 155 -21 210 -33 152 -33 796 -33 955 0 58
12 154 27 214 33 60 6 122 18 137 26 16 8 58 21 94 29 36 9 87 24 113 34 26
10 67 22 92 26 39 7 235 92 325 142 17 9 50 27 75 40 315 167 562 480 590 748
24 237 -80 503 -269 690 -76 75 -77 68 23 181 91 102 173 219 186 265 5 16 20
58 35 95 112 279 -64 695 -392 923 -32 22 -78 55 -102 72 -55 39 -171 109
-180 109 -3 0 -31 13 -61 29 -30 16 -71 32 -90 36 -19 4 -55 18 -80 30 -25 12
-63 26 -85 29 -21 4 -55 16 -75 26 -20 10 -76 26 -123 34 -47 8 -95 19 -105
25 -33 18 -108 31 -235 41 -67 6 -168 19 -225 30 -97 19 -502 28 -592 13z
m735 -402 c39 -11 117 -27 175 -35 115 -17 310 -65 356 -89 16 -8 49 -20 74
-27 25 -6 81 -29 125 -51 626 -310 705 -722 201 -1053 -126 -83 -324 -179
-394 -192 -20 -4 -62 -17 -92 -29 -31 -13 -91 -28 -134 -34 -43 -6 -112 -20
-154 -30 -43 -11 -115 -24 -162 -30 -47 -6 -139 -18 -205 -27 -231 -31 -701 0
-925 61 -30 8 -91 20 -135 26 -43 6 -104 21 -135 33 -30 13 -73 27 -95 30 -22
4 -54 16 -71 25 -17 10 -48 24 -70 31 -21 7 -50 20 -64 30 -14 9 -50 28 -80
43 -50 25 -102 60 -218 149 -103 79 -187 207 -203 309 -36 229 49 371 331 550
36 23 81 52 100 65 19 12 53 29 75 37 71 26 169 68 205 86 19 11 51 22 70 26
19 4 73 17 120 30 47 13 112 27 145 30 33 4 107 17 165 31 146 33 133 32 550
29 349 -2 380 -4 445 -24z m-1780 -1736 c102 -50 193 -84 261 -96 32 -6 79
-19 104 -30 62 -26 323 -77 455 -89 61 -6 184 -17 275 -25 203 -19 235 -19
407 -1 76 8 192 19 258 25 147 12 382 55 450 83 28 11 79 26 115 34 77 16 206
62 274 98 120 64 148 57 276 -62 218 -202 221 -463 8 -668 -118 -114 -425
-303 -493 -304 -11 0 -40 -10 -65 -21 -62 -29 -294 -86 -399 -99 -47 -6 -122
-21 -166 -33 -123 -34 -808 -33 -929 1 -44 12 -118 26 -165 32 -143 17 -467
112 -545 159 -17 10 -41 22 -54 26 -71 21 -306 188 -370 263 -188 220 -175
439 38 646 120 117 141 122 265 61z M1125 2881 c-203 -86 -217 -98 -186 -167
24 -53 162 -198 230 -241 66 -42 209 -113 228 -113 8 0 32 -9 54 -20 22 -12
66 -25 97 -31 31 -6 85 -19 120 -29 79 -24 360 -54 426 -45 138 18 208 131
156 252 -41 96 -94 121 -273 128 -157 7 -283 22 -316 39 -14 7 -51 21 -81 31
-98 32 -208 96 -286 167 -41 37 -75 68 -77 68 -1 -1 -42 -18 -92 -39z"/></g>
</svg>