<?xml version="1.0" encoding="UTF-8" standalone="no"?>
<svg xmlns="http://www.w3.org/2000/svg" viewBox="0 0 868 868" width="868" height="868" preserveAspectRatio="xMidYMid meet" shape-rendering="geometricPrecision">
<g transform="translate(0.000000,868.000000) scale(0.100000,-0.100000)" fill="#131313" fill-rule="evenodd" stroke="none"><path d="M4200 6519 c-140 -8 -161 -12 -245 -49 -27 -12 -83 -28 -124 -36 -47
-9 -92 -26 -121 -44 -26 -17 -52 -30 -58 -30 -6 0 -32 -17 -59 -37 -26 -20
-73 -50 -103 -65 -51 -27 -87 -51 -201 -136 -86 -65 -192 -167 -225 -216 -18
-28 -54 -78 -79 -111 -48 -64 -62 -85 -120 -180 -95 -155 -125 -214 -136 -263
-6 -29 -24 -81 -39 -115 -21 -45 -33 -94 -45 -182 -25 -198 -43 -233 -129
-259 -26 -8 -62 -26 -81 -41 -19 -14 -53 -32 -75 -40 -88 -31 -291 -200 -342
-284 -12 -20 -37 -53 -55 -74 -18 -20 -33 -41 -33 -46 0 -5 -16 -28 -35 -51
-19 -23 -44 -62 -55 -86 -10 -25 -29 -57 -40 -71 -11 -14 -33 -67 -49 -117
-16 -50 -39 -116 -51 -146 -44 -106 -46 -630 -4 -741 9 -24 27 -78 41 -119 13
-41 34 -93 45 -115 12 -22 37 -70 55 -107 101 -206 364 -477 548 -566 28 -13
62 -35 76 -48 14 -13 54 -33 90 -43 35 -11 105 -34 154 -52 90 -33 90 -33 919
-37 1063 -5 971 -33 971 293 0 330 88 299 -870 305 -760 5 -760 5 -879 43
-307 98 -450 251 -542 577 -113 404 86 865 436 1011 36 15 81 35 100 46 62 32
368 27 435 -8 28 -15 69 -32 92 -39 91 -28 282 -221 348 -355 20 -38 45 -87
56 -108 27 -48 38 -143 39 -335 0 -214 10 -233 143 -273 37 -11 83 -29 101
-40 37 -21 203 -69 239 -69 122 1 191 442 107 686 -11 31 -27 96 -36 143 -9
47 -25 103 -35 123 -10 20 -28 62 -40 93 -11 30 -35 78 -52 105 -18 27 -48 75
-67 106 -83 134 -299 335 -425 396 -28 13 -64 34 -81 46 -16 13 -57 30 -90 38
-32 9 -73 26 -89 39 -39 29 -96 45 -161 45 -93 0 -101 31 -43 177 16 39 29 82
29 95 0 78 111 250 255 394 132 132 254 234 280 234 7 0 42 16 79 36 43 22 95
40 146 49 43 8 96 19 117 24 91 25 220 42 268 36 103 -14 410 -87 434 -104 15
-10 42 -24 62 -30 182 -59 531 -465 565 -656 4 -22 20 -73 36 -114 26 -64 31
-93 37 -211 4 -75 11 -142 16 -150 4 -7 11 -69 15 -137 11 -180 28 -198 208
-212 77 -6 120 -15 150 -30 22 -11 65 -30 94 -41 29 -11 75 -38 102 -60 26
-22 51 -40 55 -40 18 0 166 -161 188 -205 14 -27 34 -61 44 -75 16 -24 36 -91
76 -255 23 -92 21 -217 -5 -305 -12 -41 -28 -104 -37 -139 -53 -220 -264 -428
-505 -496 -52 -15 -111 -32 -130 -38 -20 -6 -214 -13 -455 -16 -554 -8 -515
15 -515 -301 0 -315 -34 -294 490 -298 488 -4 641 6 743 46 39 16 97 37 128
45 31 9 67 25 80 35 13 11 48 31 77 46 139 70 331 234 437 371 63 83 125 177
144 221 11 25 29 57 40 72 10 15 27 54 36 87 10 33 31 94 47 135 63 159 60
629 -4 795 -20 50 -39 109 -43 132 -3 23 -20 61 -36 83 -16 22 -41 64 -54 93
-23 48 -53 91 -121 176 -16 18 -40 52 -54 75 -63 98 -251 252 -353 290 -26 10
-61 29 -77 42 -16 14 -49 31 -75 38 -80 24 -94 56 -120 260 -10 83 -22 132
-44 180 -16 36 -34 89 -41 119 -6 29 -28 82 -50 117 -22 36 -40 70 -40 77 0 6
-16 32 -35 57 -19 25 -43 63 -55 85 -11 22 -33 55 -48 73 -16 18 -57 73 -91
121 -68 95 -187 206 -302 283 -38 25 -71 50 -75 55 -3 5 -33 23 -67 40 -34 17
-71 39 -82 48 -45 40 -198 112 -266 126 -39 8 -101 28 -137 44 -61 26 -84 30
-244 40 -190 12 -193 12 -398 0z"/></g>
</svg>