<?xml version="1.0" encoding="UTF-8" standalone="no"?>
<svg xmlns="http://www.w3.org/2000/svg" viewBox="0 0 952 952" width="952" height="952" preserveAspectRatio="xMidYMid meet" shape-rendering="geometricPrecision">
<g transform="translate(0.000000,952.000000) scale(0.100000,-0.100000)" fill="#121212" fill-rule="evenodd" stroke="none"><path d="M2770 6736 c-231 -68 -402 -212 -425 -356 -3 -25 -15 -69 -26 -98
-29 -81 -30 -3383 0 -3459 10 -26 21 -70 25 -96 5 -31 17 -59 35 -80 16 -18
36 -48 46 -67 30 -58 125 -144 176 -159 24 -7 62 -25 84 -39 52 -35 4294 -44
4332 -9 11 9 49 29 84 42 70 28 139 88 196 170 18 28 44 65 58 83 16 22 26 55
32 100 14 113 10 3037 -4 3104 -24 113 -186 287 -299 321 -28 8 -71 26 -95 38
-44 24 -44 24 -1049 29 -559 3 -1011 9 -1019 14 -7 5 -97 94 -199 198 -291
296 -194 273 -1132 275 -617 1 -784 -1 -820 -11z m1583 -683 c45 -43 125 -119
177 -169 263 -252 101 -224 1287 -224 581 0 994 -4 997 -9 8 -12 8 -2659 1
-2671 -10 -16 -3888 -13 -3903 2 -17 17 -17 3119 0 3136 9 9 175 12 686 12
l673 0 82 -77z"/></g>
</svg>