<?xml version="1.0" encoding="UTF-8" standalone="no"?>
<svg xmlns="http://www.w3.org/2000/svg" viewBox="0 0 458 436" width="458" height="436" preserveAspectRatio="xMidYMid meet" shape-rendering="geometricPrecision">
<g transform="translate(0.000000,436.000000) scale(0.100000,-0.100000)" fill="#59ab8b" fill-rule="evenodd" stroke="none"><path d="M3821 2069 c-36 -10 -79 -25 -96 -33 -17 -8 -69 -29 -115 -46 -47
-17 -94 -35 -105 -40 -11 -5 -43 -18 -71 -29 -29 -11 -75 -34 -103 -52 -50
-30 -203 -99 -221 -99 -12 0 -233 -109 -290 -143 -26 -14 -73 -35 -105 -46
-33 -10 -99 -38 -147 -61 -190 -91 -295 -93 -465 -6 -28 14 -82 37 -118 51
-74 27 -424 183 -440 196 -5 4 -39 18 -75 32 -36 14 -120 52 -186 86 -67 34
-127 61 -134 61 -7 0 -61 23 -119 51 -208 100 -288 109 -341 37 -87 -117 -22
-241 180 -343 218 -110 268 -135 375 -183 155 -71 183 -82 340 -146 77 -32
151 -64 165 -72 27 -16 83 -43 220 -105 273 -123 422 -126 665 -14 17 7 53 22
80 33 28 11 96 43 152 71 57 28 106 51 110 51 4 0 57 24 118 54 60 30 143 64
184 76 41 12 117 46 171 76 53 30 100 54 104 54 4 0 44 17 89 39 45 21 112 52
148 69 181 86 251 262 149 372 -32 34 -33 34 -119 9z"/></g>
<g transform="translate(0.000000,436.000000) scale(0.100000,-0.100000)" fill="#303030" fill-rule="evenodd" stroke="none"><path d="M2190 4150 c-25 -5 -63 -18 -85 -29 -47 -23 -214 -102 -340 -161 -49
-22 -117 -54 -150 -70 -33 -16 -105 -50 -160 -75 -55 -26 -143 -67 -195 -92
-52 -25 -126 -60 -165 -78 -38 -18 -128 -61 -200 -95 -71 -34 -157 -75 -190
-90 -464 -219 -504 -256 -505 -461 0 -188 79 -278 345 -392 218 -94 253 -109
290 -127 22 -11 78 -35 125 -55 122 -52 272 -117 435 -190 28 -12 77 -34 110
-48 193 -83 254 -110 290 -127 22 -10 74 -33 115 -51 41 -17 103 -44 137 -60
189 -85 297 -85 486 0 34 16 96 43 137 60 41 18 93 41 115 51 42 20 180 80
300 131 39 17 88 39 110 49 22 11 78 35 125 55 47 20 114 49 150 65 36 16 128
56 205 90 77 34 169 74 205 90 147 66 228 100 235 100 45 0 205 144 241 217
27 55 26 231 -1 287 -36 74 -114 140 -237 199 -227 110 -430 207 -433 207 -2
0 -68 31 -147 69 -175 84 -303 144 -387 183 -35 15 -100 46 -145 67 -45 22
-130 62 -191 91 -60 29 -146 69 -190 90 -222 106 -308 126 -435 100z m265
-419 c61 -29 146 -70 190 -91 295 -141 357 -170 361 -170 2 0 87 -40 190 -90
102 -49 188 -90 191 -90 3 0 55 -24 117 -54 61 -29 149 -72 196 -94 329 -154
332 -129 -33 -288 -45 -20 -105 -47 -132 -60 -28 -13 -54 -24 -58 -24 -5 0
-38 -14 -75 -31 -87 -40 -304 -135 -532 -234 -126 -55 -248 -108 -285 -126
-61 -28 -194 -84 -248 -104 -59 -22 -45 -27 -412 135 -77 34 -169 75 -205 90
-36 16 -108 47 -160 70 -52 23 -113 50 -135 60 -22 11 -78 35 -125 55 -47 20
-107 47 -135 59 -27 13 -61 27 -75 31 -14 4 -41 15 -60 25 -19 10 -75 36 -125
58 -265 116 -270 118 -270 143 0 26 -5 23 190 115 77 37 190 91 252 120 61 30
114 54 116 54 3 0 68 30 144 66 76 36 180 86 231 110 50 24 134 64 185 88 50
24 133 63 182 86 50 23 135 64 190 90 55 26 107 51 115 54 38 14 110 -4 215
-53z M410 1319 c-61 -24 -123 -115 -123 -179 0 -99 72 -155 313 -247 35 -13
70 -29 76 -34 6 -5 35 -18 65 -28 51 -18 83 -31 279 -116 47 -21 113 -48 148
-61 34 -13 72 -30 85 -38 12 -7 40 -19 62 -26 22 -7 49 -19 61 -26 11 -8 45
-22 75 -33 53 -19 110 -43 279 -116 47 -21 117 -50 155 -65 39 -16 104 -43
145 -60 243 -105 326 -109 454 -27 12 8 41 21 66 30 41 14 80 30 285 119 39
16 99 41 135 55 35 13 69 28 75 33 6 5 40 20 75 33 36 14 99 39 140 57 41 18
107 46 145 62 39 16 102 42 140 58 39 15 108 44 155 65 151 65 224 96 265 111
37 14 113 48 182 81 144 70 178 207 77 308 -69 70 -136 70 -294 0 -47 -21
-112 -48 -145 -60 -89 -34 -195 -80 -242 -104 -23 -11 -48 -21 -56 -21 -8 0
-34 -11 -58 -23 -24 -13 -62 -30 -84 -37 -21 -7 -60 -24 -86 -36 -26 -13 -52
-24 -58 -24 -7 0 -31 -10 -54 -21 -50 -26 -163 -74 -236 -100 -30 -10 -59 -23
-65 -28 -6 -5 -41 -21 -76 -34 -61 -23 -98 -39 -282 -118 -169 -73 -203 -80
-268 -55 -91 36 -169 68 -205 86 -22 10 -62 28 -90 39 -27 10 -88 35 -135 56
-47 20 -109 45 -139 56 -30 10 -59 23 -65 28 -6 5 -41 21 -76 34 -36 14 -103
41 -150 62 -47 20 -103 44 -125 51 -22 8 -52 21 -67 30 -15 8 -53 24 -84 34
-31 11 -62 24 -68 29 -6 5 -41 21 -76 34 -36 14 -103 41 -150 62 -256 112
-317 129 -380 104z"/></g>
</svg>