<?xml version="1.0" encoding="UTF-8" standalone="no"?>
<svg xmlns="http://www.w3.org/2000/svg" viewBox="0 0 952 952" width="952" height="952" preserveAspectRatio="xMidYMid meet" shape-rendering="geometricPrecision">
<g transform="translate(0.000000,952.000000) scale(0.100000,-0.100000)" fill="#111111" fill-rule="evenodd" stroke="none"><path d="M3630 7099 c-89 -17 -105 -65 -98 -307 5 -207 30 -235 225 -246 283
-16 2306 -2 2339 16 91 50 110 110 102 322 -5 137 -19 175 -71 203 -36 20
-2399 31 -2497 12z M2663 6400 c-45 -4 -79 -12 -90 -23 -11 -9 -39 -25 -64
-36 -77 -34 -139 -117 -177 -236 -50 -156 -51 -2744 -1 -2889 47 -136 107
-199 272 -288 28 -16 66 -18 339 -18 222 0 309 -3 314 -12 4 -6 8 -88 8 -182
1 -171 1 -171 43 -256 55 -112 168 -237 228 -251 51 -11 2587 -11 2637 0 71
17 221 171 231 239 4 21 17 61 29 88 20 44 23 65 23 201 0 85 5 157 10 162 6
6 136 11 321 13 312 3 312 3 355 33 24 17 56 36 70 42 25 11 169 164 169 181
1 4 5 39 10 77 29 221 10 2869 -22 2928 -33 63 -106 141 -153 163 -27 13 -66
34 -85 47 -35 22 -35 22 -2215 23 -1199 0 -2212 -2 -2252 -6z m4157 -1725 c3
-616 2 -1130 -2 -1142 -7 -21 -10 -22 -201 -23 -194 0 -194 0 -269 77 -163
171 -39 158 -1488 158 -1275 0 -1275 0 -1310 -22 -19 -12 -55 -33 -80 -47 -26
-14 -70 -54 -102 -93 -58 -70 -58 -70 -253 -70 -178 0 -197 1 -205 18 -14 24
-13 2209 0 2243 10 26 10 26 1957 24 l1948 -3 5 -1120z m-980 -1555 c6 -12 9
-83 8 -182 l-3 -163 -974 -3 c-630 -1 -978 1 -985 8 -13 13 -8 331 6 348 21
24 1935 16 1948 -8z M6026 5508 c-64 -43 -83 -62 -107 -108 -16 -30 -38 -71
-50 -90 -69 -118 29 -348 183 -431 26 -14 182 -23 251 -15 62 8 217 143 234
204 10 34 10 229 1 262 -13 43 -93 141 -154 186 -94 71 -247 67 -358 -8z"/></g>
</svg>