<?xml version="1.0" encoding="UTF-8" standalone="no"?>
<svg xmlns="http://www.w3.org/2000/svg" viewBox="0 0 488 474" width="488" height="474" preserveAspectRatio="xMidYMid meet" shape-rendering="geometricPrecision">
<g transform="translate(0.000000,474.000000) scale(0.100000,-0.100000)" fill="#121212" fill-rule="evenodd" stroke="none"><path d="M2350 4511 c-36 -7 -112 -35 -210 -77 -30 -12 -73 -28 -95 -35 -22
-7 -49 -18 -61 -26 -11 -7 -45 -20 -75 -29 -30 -9 -63 -22 -75 -29 -11 -7 -43
-20 -71 -28 -28 -8 -66 -23 -84 -33 -19 -9 -59 -25 -89 -35 -65 -20 -146 -52
-215 -84 -27 -13 -70 -30 -95 -38 -48 -15 -114 -42 -221 -88 -36 -16 -72 -29
-80 -29 -8 0 -32 -10 -54 -21 -22 -12 -62 -28 -89 -36 -27 -8 -59 -21 -71 -29
-12 -8 -46 -21 -76 -30 -30 -9 -63 -21 -74 -28 -11 -7 -38 -18 -60 -25 -22 -7
-65 -23 -95 -36 -30 -13 -67 -26 -83 -30 -36 -7 -103 -68 -130 -119 -31 -58
-25 -2260 7 -2356 34 -104 167 -233 263 -256 15 -4 46 -17 69 -30 22 -13 47
-24 55 -24 8 0 41 -13 74 -30 55 -27 108 -50 300 -131 39 -16 91 -41 118 -54
26 -14 53 -25 61 -25 7 0 38 -14 69 -30 31 -17 63 -30 71 -30 8 0 40 -13 71
-30 31 -16 62 -30 69 -30 6 0 38 -13 71 -29 99 -48 196 -91 209 -91 6 0 33
-12 60 -26 26 -14 67 -32 89 -40 39 -14 105 -43 192 -84 22 -11 60 -27 85 -35
24 -9 55 -23 69 -31 71 -47 269 -47 361 0 25 13 61 28 80 35 19 6 57 22 84 36
27 14 57 25 65 25 9 0 30 8 46 19 17 10 48 24 70 31 22 7 54 20 71 30 17 9 53
25 80 34 27 9 71 27 98 41 27 14 57 25 65 25 9 0 32 10 51 21 19 12 57 29 85
39 27 10 88 34 135 55 47 20 108 46 135 57 28 10 72 30 99 44 28 13 57 24 65
24 9 0 30 8 46 19 17 10 48 24 70 31 22 7 63 23 90 36 99 46 213 94 224 94 6
0 37 14 68 30 31 17 61 30 67 30 20 0 122 75 163 120 84 92 81 50 83 1453 2
1018 2 1018 -31 1069 -34 52 -89 87 -137 88 -13 0 -42 11 -65 24 -23 13 -58
27 -77 31 -19 4 -49 15 -66 25 -17 10 -57 25 -88 34 -30 9 -70 25 -88 35 -18
11 -49 22 -68 26 -19 4 -48 15 -65 25 -16 10 -53 25 -81 33 -28 8 -66 23 -84
32 -18 9 -56 24 -84 32 -28 8 -60 21 -72 28 -11 7 -43 20 -70 28 -27 8 -67 24
-89 36 -22 11 -47 21 -55 21 -8 0 -42 13 -76 29 -34 16 -76 32 -95 36 -19 4
-49 15 -66 26 -18 10 -55 25 -82 33 -26 8 -63 22 -81 31 -18 9 -55 24 -83 32
-28 8 -60 21 -71 28 -12 7 -44 20 -72 28 -28 8 -64 22 -80 30 -110 56 -295 95
-374 78z m174 -403 c21 -11 62 -27 89 -35 28 -8 60 -21 71 -28 12 -7 44 -20
73 -28 28 -9 62 -22 75 -31 12 -8 46 -20 73 -27 28 -6 64 -20 82 -31 17 -10
55 -26 84 -34 29 -9 68 -24 88 -35 20 -10 43 -19 51 -19 8 0 42 -13 76 -29 34
-16 76 -32 95 -36 19 -4 48 -15 64 -25 17 -10 53 -25 80 -33 28 -8 68 -24 90
-36 22 -11 47 -21 55 -21 8 0 43 -13 77 -30 35 -16 78 -32 98 -36 84 -15 63
-61 -45 -93 -38 -12 -72 -25 -75 -30 -3 -6 -30 -17 -60 -26 -30 -8 -70 -25
-89 -36 -77 -45 -136 -39 -306 36 -47 21 -110 46 -140 57 -30 11 -60 24 -67
30 -7 5 -40 20 -75 33 -85 31 -182 72 -242 101 -28 13 -57 24 -65 24 -9 0 -34
12 -56 25 -22 14 -47 25 -56 25 -8 0 -37 11 -65 24 -62 31 -163 72 -233 97
-30 11 -66 26 -79 35 -13 9 -45 22 -72 30 -90 27 -91 64 -4 94 49 17 109 41
214 86 30 12 62 25 70 28 24 8 80 -4 124 -26z m-965 -357 c41 -23 142 -65 219
-92 29 -10 65 -25 80 -33 32 -18 136 -61 210 -87 29 -10 65 -25 80 -33 15 -9
50 -24 77 -35 99 -38 180 -72 200 -83 11 -6 47 -21 80 -34 33 -12 98 -38 145
-59 47 -21 108 -45 136 -55 155 -54 174 -78 87 -110 -138 -51 -180 -68 -201
-79 -13 -7 -46 -19 -74 -27 -27 -9 -64 -24 -81 -35 -46 -27 -119 -25 -182 6
-27 13 -57 25 -65 25 -9 0 -42 13 -75 30 -33 16 -67 30 -76 30 -8 0 -38 11
-65 25 -27 14 -71 32 -98 40 -27 8 -59 21 -71 29 -12 8 -44 21 -71 29 -27 8
-65 24 -84 35 -19 11 -51 23 -70 27 -19 4 -53 17 -75 30 -22 12 -56 26 -75 30
-19 4 -53 18 -75 30 -22 12 -53 25 -70 29 -16 3 -52 17 -80 30 -66 31 -145 63
-224 90 -94 32 -108 74 -30 90 17 3 58 19 92 36 34 16 69 30 77 30 8 0 35 11
60 24 25 13 65 29 89 36 24 6 60 20 80 31 45 24 84 24 130 0z m-859 -505 c25
-9 70 -27 100 -40 72 -31 151 -63 225 -91 86 -33 163 -64 220 -90 28 -13 68
-28 90 -34 22 -6 49 -17 60 -24 11 -8 38 -20 60 -27 22 -7 63 -22 90 -35 72
-33 152 -65 215 -86 30 -10 67 -26 82 -34 15 -9 51 -23 80 -32 29 -8 62 -22
73 -29 11 -8 36 -19 56 -24 20 -6 71 -26 113 -45 l76 -36 0 -927 c0 -510 3
-936 6 -947 12 -48 -20 -63 -73 -34 -26 15 -64 32 -83 38 -19 6 -57 22 -84 36
-27 14 -55 25 -63 25 -7 0 -34 11 -60 25 -70 35 -152 72 -203 90 -25 9 -54 22
-65 29 -11 7 -38 19 -60 26 -22 7 -59 23 -82 36 -23 13 -48 24 -56 24 -8 0
-39 14 -70 30 -31 16 -62 30 -69 30 -7 0 -44 16 -82 35 -39 19 -75 35 -82 35
-7 0 -38 14 -69 30 -31 17 -65 30 -74 30 -9 0 -26 7 -38 15 -21 15 -104 52
-218 97 -115 45 -105 -50 -105 993 0 507 3 925 7 929 8 8 11 7 83 -18z m3568
-912 c2 -876 1 -933 -15 -953 -17 -20 -63 -43 -188 -93 -27 -10 -72 -30 -99
-44 -28 -13 -57 -24 -65 -24 -9 0 -30 -8 -46 -19 -17 -10 -48 -24 -70 -31 -22
-7 -54 -20 -71 -30 -17 -9 -55 -25 -84 -35 -29 -10 -67 -26 -84 -35 -17 -10
-47 -23 -66 -29 -19 -6 -57 -22 -84 -36 -27 -14 -56 -25 -64 -25 -8 0 -31 -9
-51 -19 -38 -21 -133 -61 -216 -92 -27 -10 -72 -30 -99 -44 -27 -14 -55 -25
-63 -25 -7 0 -39 -13 -70 -30 -31 -16 -62 -30 -70 -30 -8 0 -37 -12 -63 -27
-87 -49 -80 -128 -80 941 0 748 3 946 13 960 12 17 151 85 174 86 6 0 40 13
75 30 34 16 70 30 78 30 8 0 35 11 60 24 25 13 65 29 90 36 25 6 59 20 76 31
77 47 75 59 77 -359 2 -392 0 -377 77 -429 46 -32 69 -29 132 15 156 106 162
126 168 574 4 275 8 370 18 380 11 11 55 29 200 83 35 13 68 28 75 33 7 6 44
21 82 35 130 46 207 76 213 82 37 37 37 35 40 -931z"/></g>
</svg>