<?xml version="1.0" encoding="UTF-8" standalone="no"?>
<svg xmlns="http://www.w3.org/2000/svg" viewBox="0 0 960 960" width="960" height="960" preserveAspectRatio="xMidYMid meet" shape-rendering="geometricPrecision">
<g transform="translate(0.000000,960.000000) scale(0.100000,-0.100000)" fill="#656564" fill-rule="evenodd" stroke="none"><path d="M5480 7773 c-95 -13 -135 -51 -163 -153 -9 -30 -27 -86 -41 -123 -16
-42 -26 -88 -26 -122 0 -72 -17 -150 -46 -207 -13 -26 -24 -65 -24 -87 0 -88
55 -81 -708 -82 -674 -1 -674 -1 -708 -31 -34 -30 -34 -30 -34 -1609 0 -1682
-2 -1616 44 -1669 7 -8 19 -33 26 -55 21 -71 96 -169 174 -228 105 -79 103
-79 275 -87 86 -4 166 -12 177 -18 60 -32 153 -44 361 -48 285 -4 283 -6 285
253 0 92 5 149 14 172 53 129 3 166 -228 167 -108 0 -203 6 -233 13 -27 7 -95
11 -150 10 -157 -4 -145 -29 -145 295 0 265 1 273 21 292 20 18 45 19 543 20
591 2 585 1 656 72 156 156 325 278 422 306 31 9 69 27 85 39 15 13 45 34 66
46 58 36 62 90 7 118 -17 8 -238 11 -829 11 -443 1 -834 1 -867 1 -95 1 -105
14 -109 134 -3 91 -1 98 19 110 16 9 325 13 1338 17 1317 5 1317 5 1345 28 15
12 46 36 68 53 48 36 55 50 96 171 32 93 32 93 32 583 0 521 -3 558 -48 627
-13 20 -27 48 -31 62 -3 15 -36 52 -76 86 -69 60 -69 60 -627 60 -633 0 -604
-4 -584 73 7 24 15 75 19 113 4 46 16 91 37 134 26 54 32 83 39 170 4 58 10
125 13 150 15 110 -31 132 -265 129 -96 -2 -180 -1 -185 2 -6 3 -21 4 -35 2z
m1119 -1340 c24 -20 36 -522 13 -545 -13 -13 -2248 -11 -2271 1 -17 10 -22
308 -7 398 5 27 3 55 -5 78 -16 42 -5 66 32 76 69 17 2216 10 2238 -8z M2320
7440 c-144 -8 -180 -53 -136 -171 20 -53 26 -89 26 -147 0 -66 4 -83 25 -114
37 -54 43 -76 55 -188 8 -84 16 -112 45 -167 31 -59 35 -74 35 -144 0 -64 4
-86 25 -125 14 -26 25 -58 25 -72 0 -16 15 -40 43 -67 42 -42 42 -42 217 -39
96 1 206 3 244 3 123 2 171 81 104 176 -30 43 -33 53 -38 148 -5 93 -8 107
-39 162 -30 52 -35 73 -42 158 -6 79 -13 107 -34 143 -21 35 -31 75 -46 180
-10 74 -22 141 -26 147 -17 30 -87 106 -101 113 -20 8 -263 11 -382 4z M1916
5849 c-31 -27 -31 -27 -34 -264 -5 -362 -34 -338 382 -329 304 7 311 6 329
-13 17 -19 25 -1174 12 -1858 -1 -71 2 -151 8 -176 17 -79 14 -83 -294 -392
-376 -379 -372 -370 -232 -489 29 -24 68 -65 88 -91 20 -26 48 -53 64 -61 15
-8 44 -35 65 -60 78 -95 94 -85 391 245 168 187 240 259 259 259 18 0 146
-123 146 -140 0 -5 20 -21 44 -35 23 -14 51 -34 61 -45 9 -10 42 -27 73 -35
30 -9 69 -27 86 -40 17 -13 63 -32 102 -43 40 -11 83 -28 97 -37 17 -11 79
-23 175 -35 82 -10 178 -28 213 -40 134 -46 1416 -60 1480 -17 70 48 62 95
-31 202 -68 78 -149 208 -173 278 -16 47 -82 152 -112 177 -11 9 -47 15 -98
17 -116 5 -111 5 -552 4 -513 0 -590 5 -672 47 -34 18 -74 32 -87 32 -37 0
-75 17 -113 50 -19 17 -40 30 -47 30 -45 0 -222 170 -245 236 -8 21 -24 52
-37 67 -13 16 -26 38 -28 50 -13 66 -29 691 -27 1072 1 294 -2 471 -10 530 -6
50 -11 156 -11 237 1 80 -3 161 -9 180 -6 18 -14 77 -19 130 -12 143 -103 271
-247 346 -91 48 -945 57 -997 11z M6372 4660 c-30 -5 -69 -19 -91 -34 -29 -20
-113 -45 -158 -46 -1 0 -18 -14 -37 -30 -18 -17 -52 -36 -73 -44 -44 -16 -85
-43 -234 -159 -56 -43 -108 -92 -117 -109 -10 -16 -43 -62 -76 -101 -32 -39
-71 -98 -86 -131 -15 -34 -35 -67 -44 -75 -27 -23 -38 -50 -46 -118 -6 -45
-17 -77 -36 -105 -53 -76 -67 -593 -18 -659 35 -46 45 -73 54 -146 6 -46 15
-71 35 -95 15 -17 38 -55 51 -82 23 -48 52 -90 150 -218 65 -84 206 -202 325
-272 46 -27 100 -59 119 -72 19 -12 56 -24 82 -28 51 -6 91 -22 148 -59 64
-41 577 -33 645 10 28 17 77 36 110 43 33 6 85 27 117 46 31 19 59 34 63 34 3
0 25 13 48 29 23 16 60 38 81 50 98 55 283 239 329 326 8 17 27 41 41 54 14
14 31 43 37 65 6 23 23 57 38 76 20 25 33 60 45 120 10 47 26 105 37 130 53
120 47 506 -9 615 -12 22 -26 74 -32 115 -7 47 -21 89 -36 112 -13 21 -35 62
-49 90 -63 138 -275 371 -390 430 -22 11 -53 31 -68 44 -15 13 -47 32 -70 43
-23 11 -54 30 -68 42 -15 11 -57 27 -95 35 -38 8 -85 26 -105 40 -20 13 -51
29 -70 34 -39 12 -469 11 -547 0z m379 -617 c10 -10 13 -77 13 -259 1 -325
-21 -309 419 -296 143 5 147 2 147 -118 0 -137 15 -130 -279 -133 -317 -4
-287 26 -289 -292 -1 -289 6 -273 -124 -268 -125 4 -117 -15 -120 271 -4 314
19 287 -241 288 -345 1 -325 -7 -325 130 0 129 -16 121 259 123 326 2 298 -24
303 291 4 200 7 245 20 259 19 21 197 24 217 4z"/></g>
</svg>