<?xml version="1.0" encoding="UTF-8" standalone="no"?>
<svg xmlns="http://www.w3.org/2000/svg" viewBox="0 0 494 470" width="494" height="470" preserveAspectRatio="xMidYMid meet" shape-rendering="geometricPrecision">
<g transform="translate(0.000000,470.000000) scale(0.100000,-0.100000)" fill="#69c6d8" fill-rule="evenodd" stroke="none"><path d="M1030 4449 c-63 -17 -135 -35 -160 -40 -267 -55 -548 -356 -621 -664
-29 -120 -42 -2131 -15 -2240 29 -119 64 -224 84 -257 11 -18 36 -60 54 -92
65 -118 241 -276 373 -335 203 -91 330 -109 779 -110 467 -1 507 -16 651 -231
101 -152 232 -260 314 -260 58 0 85 25 246 232 205 264 156 249 860 264 402 9
477 29 739 203 185 123 257 231 359 541 22 68 35 1968 14 2152 -13 116 -101
340 -181 462 -81 121 -340 307 -471 336 -26 6 -60 17 -76 26 -74 38 -214 42
-1548 42 -1286 1 -1286 1 -1401 -29z m1561 -769 c294 -56 300 -59 411 -170
179 -181 227 -461 114 -654 -33 -56 -140 -163 -307 -306 -150 -129 -196 -194
-244 -340 -46 -140 -211 -158 -246 -27 -38 143 32 281 241 472 234 213 280
285 280 436 1 395 -536 470 -763 106 -80 -130 -151 -165 -252 -123 -165 69 52
461 305 548 115 40 197 60 273 67 45 5 82 9 83 10 0 0 47 -8 105 -19z m-84
-1916 c89 -44 104 -217 23 -259 -109 -57 -271 11 -269 113 1 139 119 208 246
146z"/></g>
</svg>