<?xml version="1.0" encoding="UTF-8" standalone="no"?>
<svg xmlns="http://www.w3.org/2000/svg" viewBox="0 0 952 952" width="952" height="952" preserveAspectRatio="xMidYMid meet" shape-rendering="geometricPrecision">
<g transform="translate(0.000000,952.000000) scale(0.100000,-0.100000)" fill="#111111" fill-rule="evenodd" stroke="none"><path d="M3028 7170 c-122 -37 -321 -233 -333 -329 -4 -25 -15 -75 -26 -110
-18 -63 -19 -118 -19 -2040 0 -2134 -2 -2074 61 -2216 34 -77 230 -265 276
-265 14 0 55 -14 89 -31 85 -41 3365 -42 3457 -1 26 12 65 24 85 28 96 17 187
106 274 267 15 27 35 58 45 69 17 19 18 94 18 1563 0 1542 0 1542 -39 1586
-22 24 -90 91 -151 149 -257 244 -574 541 -630 590 -79 71 -306 285 -519 491
-230 223 -250 240 -293 250 -48 11 -2258 10 -2295 -1z m1888 -564 c11 -4 14
-105 16 -559 3 -554 3 -554 41 -596 20 -22 37 -45 37 -50 0 -16 86 -99 121
-116 19 -10 44 -27 57 -39 23 -21 28 -21 582 -24 454 -2 560 -5 569 -16 14
-16 16 -2415 3 -2428 -9 -9 -3067 -12 -3081 -4 -10 7 -2 3829 9 3836 11 7
1628 3 1646 -4z m649 -448 c22 -24 107 -101 188 -172 87 -75 145 -132 139
-138 -4 -4 -94 -7 -198 -6 l-189 3 -3 165 c-3 215 -3 216 63 148z M4242 5024
c-53 -40 -64 -54 -77 -97 -8 -28 -26 -67 -39 -87 -13 -19 -27 -57 -31 -85 -4
-27 -19 -72 -35 -100 -15 -27 -31 -71 -34 -97 -4 -26 -19 -64 -33 -85 -18 -26
-29 -59 -35 -102 -5 -40 -15 -72 -27 -85 -28 -32 -38 -56 -46 -113 -4 -30 -18
-70 -35 -95 -15 -24 -31 -65 -35 -93 -4 -27 -19 -72 -35 -100 -15 -27 -30 -72
-34 -98 -3 -26 -17 -67 -31 -91 -61 -105 -53 -212 20 -253 103 -58 395 -13
419 65 3 10 22 42 41 72 25 39 35 65 35 95 0 76 -1 76 225 73 223 -3 234 -10
274 -177 25 -103 90 -144 239 -151 130 -6 185 2 228 35 42 32 51 32 109 -7 97
-64 339 -30 388 55 23 41 17 1465 -6 1499 -58 85 -333 102 -413 26 -64 -61
-63 -57 -64 -690 0 -361 -4 -569 -10 -573 -17 -11 -48 55 -58 125 -6 42 -19
80 -32 98 -12 16 -28 59 -36 96 -7 36 -25 83 -38 103 -14 21 -28 62 -32 91 -4
30 -17 69 -31 89 -14 20 -31 65 -38 101 -8 35 -25 81 -38 101 -15 23 -28 61
-32 95 -5 35 -17 71 -33 94 -14 20 -31 66 -39 102 -34 163 -108 210 -328 210
-160 0 -160 0 -223 -46z"/></g>
</svg>