<?xml version="1.0" encoding="UTF-8" standalone="no"?>
<svg xmlns="http://www.w3.org/2000/svg" viewBox="0 0 868 868" width="868" height="868" preserveAspectRatio="xMidYMid meet" shape-rendering="geometricPrecision">
<g transform="translate(0.000000,868.000000) scale(0.100000,-0.100000)" fill="#141414" fill-rule="evenodd" stroke="none"><path d="M4416 7570 c-80 -24 -88 -52 -89 -309 0 -286 16 -311 205 -311 57 0
121 -5 143 -10 22 -5 78 -12 125 -16 53 -4 109 -16 148 -31 34 -14 88 -29 120
-34 135 -21 164 -29 219 -58 108 -56 198 -98 250 -115 28 -9 59 -26 69 -37 11
-12 42 -33 69 -46 28 -14 82 -56 120 -93 39 -36 85 -77 104 -90 18 -12 59 -45
90 -73 31 -27 70 -55 86 -62 36 -16 60 -41 70 -75 4 -13 31 -49 60 -80 28 -30
66 -75 83 -100 16 -25 56 -70 87 -100 31 -30 69 -80 85 -110 15 -30 37 -63 48
-74 12 -10 29 -41 38 -70 9 -28 23 -60 31 -72 7 -11 24 -49 37 -82 14 -34 33
-74 44 -89 22 -31 33 -67 57 -193 9 -47 27 -121 40 -165 71 -236 72 -904 3
-1108 -10 -31 -30 -114 -44 -184 -16 -81 -35 -147 -53 -182 -49 -94 -108 -224
-120 -262 -7 -20 -21 -45 -32 -55 -12 -11 -33 -41 -46 -69 -14 -27 -56 -81
-93 -120 -36 -38 -77 -86 -90 -105 -13 -19 -47 -61 -76 -92 -29 -32 -56 -68
-59 -80 -10 -33 -35 -58 -72 -73 -18 -8 -54 -33 -80 -57 -27 -24 -66 -57 -88
-73 -22 -16 -72 -59 -111 -96 -39 -37 -89 -76 -111 -88 -22 -11 -54 -32 -71
-46 -16 -14 -49 -32 -72 -40 -40 -14 -164 -71 -225 -102 -16 -9 -42 -22 -57
-30 -15 -8 -81 -23 -145 -34 -65 -11 -138 -29 -162 -41 -23 -11 -80 -24 -125
-29 -44 -5 -110 -14 -146 -20 -173 -28 -763 3 -875 46 -33 12 -100 30 -150 39
-124 23 -166 35 -195 56 -23 16 -95 49 -235 107 -33 14 -71 35 -85 48 -14 13
-45 33 -70 45 -25 13 -76 53 -115 90 -38 37 -86 77 -105 91 -19 13 -60 47 -91
75 -31 29 -67 55 -80 59 -34 10 -58 34 -74 72 -8 18 -33 54 -57 80 -25 27 -60
71 -80 98 -20 28 -62 75 -93 105 -31 30 -68 78 -82 105 -14 28 -39 65 -54 83
-16 18 -29 38 -29 45 0 7 -17 49 -39 93 -21 44 -42 91 -46 105 -4 13 -19 42
-33 64 -17 27 -34 83 -52 175 -15 74 -37 162 -48 195 -44 123 -70 658 -40 845
36 229 14 338 -71 359 -20 5 -65 17 -101 26 -36 9 -103 21 -150 26 -47 5 -102
12 -122 15 -82 13 -104 -7 -119 -115 -5 -36 -18 -93 -29 -126 -71 -223 -69
-805 4 -978 9 -20 19 -65 22 -100 16 -173 77 -381 134 -461 20 -27 35 -65 43
-111 8 -39 30 -101 50 -140 20 -38 47 -95 61 -125 14 -30 46 -80 72 -110 25
-30 57 -77 70 -105 13 -27 46 -79 74 -115 27 -36 64 -92 82 -125 21 -38 63
-89 118 -140 99 -94 124 -119 248 -248 64 -67 110 -106 150 -126 31 -16 86
-53 121 -81 36 -29 92 -65 125 -81 34 -16 77 -45 96 -63 37 -36 44 -40 245
-137 72 -34 141 -70 155 -79 14 -10 41 -21 60 -24 19 -4 85 -25 145 -46 106
-37 225 -63 350 -76 33 -3 76 -13 95 -21 175 -73 790 -75 975 -2 28 10 91 23
140 28 103 11 190 27 255 48 25 8 74 23 108 33 35 10 76 29 90 43 37 34 58 43
127 56 32 6 76 23 96 37 20 14 60 34 89 45 80 30 105 45 161 95 29 25 70 54
93 64 48 20 156 91 175 114 8 9 40 30 73 48 41 22 96 69 182 157 68 69 163
164 212 211 54 52 100 107 118 140 16 30 56 90 88 133 33 42 66 94 74 113 9
20 38 64 66 98 28 33 64 90 80 126 16 36 42 91 58 122 17 31 37 89 45 130 9
40 27 89 40 108 69 101 115 249 136 444 5 49 17 105 25 125 74 175 76 766 3
977 -11 33 -22 86 -25 119 -5 63 -26 172 -50 265 -36 135 -52 178 -86 222 -26
34 -39 63 -46 108 -7 37 -24 81 -41 109 -17 26 -37 66 -46 90 -20 57 -48 102
-107 174 -26 32 -48 64 -48 71 0 8 -31 56 -68 107 -37 52 -82 119 -100 150
-20 35 -81 105 -160 182 -70 68 -161 160 -203 204 -42 44 -103 95 -134 113
-32 18 -90 57 -129 87 -39 29 -94 65 -123 78 -29 14 -77 47 -108 74 -31 27
-82 59 -113 72 -31 12 -88 39 -127 60 -42 22 -96 41 -135 48 -43 7 -79 21
-108 41 -50 35 -208 100 -243 100 -13 0 -40 5 -59 11 -19 5 -76 14 -125 19
-50 5 -115 18 -145 28 -126 45 -360 67 -444 42z M3092 7320 c-324 -67 -406
-455 -135 -645 181 -127 370 -83 500 115 158 241 -81 587 -365 530z M2155
6545 c-33 -13 -79 -28 -103 -35 -45 -12 -107 -82 -154 -175 -26 -51 -27 -176
-2 -267 40 -141 211 -236 387 -212 107 14 109 15 175 77 129 123 161 244 102
390 -16 42 -30 80 -30 86 0 14 -60 81 -72 81 -6 0 -48 18 -94 40 -96 46 -126
48 -209 15z M4127 5929 c-15 -11 -31 -37 -37 -57 -17 -58 -9 -1459 8 -1490 12
-22 907 -923 944 -951 75 -56 126 -33 288 131 225 225 242 176 -233 651 -205
205 -384 387 -399 406 -28 34 -28 34 -28 633 0 643 0 646 -51 682 -40 27 -456
24 -492 -5z"/></g>
</svg>