<?xml version="1.0" encoding="UTF-8" standalone="no"?>
<svg xmlns="http://www.w3.org/2000/svg" viewBox="0 0 896 888" width="896" height="888" preserveAspectRatio="xMidYMid meet" shape-rendering="geometricPrecision">
<g transform="translate(0.000000,888.000000) scale(0.100000,-0.100000)" fill="#151515" fill-rule="evenodd" stroke="none"><path d="M2369 6078 c-47 -12 -141 -96 -177 -156 -43 -74 -43 -4730 0 -4804
32 -53 118 -131 171 -153 48 -20 4340 -22 4394 -2 47 17 138 100 170 155 38
64 50 3734 14 3931 -32 171 -97 313 -223 484 -67 91 -304 318 -373 356 -33 19
-73 44 -88 57 -15 13 -47 28 -70 35 -23 6 -70 24 -105 41 -149 71 -49 68
-1962 67 -1070 -1 -1729 -5 -1751 -11z m3469 -1542 c26 -26 18 -336 -9 -358
-20 -17 -95 -18 -1269 -18 -1174 0 -1249 1 -1269 18 -19 16 -21 27 -22 175 -1
171 5 192 55 199 85 12 2502 -3 2514 -16z m-677 -1242 c18 -21 20 -348 3 -372
-20 -27 -1854 -26 -1881 1 -25 25 -21 355 5 375 27 21 1855 17 1873 -4z"/></g>
</svg>