<?xml version="1.0" encoding="UTF-8" standalone="no"?>
<svg xmlns="http://www.w3.org/2000/svg" viewBox="0 0 465 466" width="465" height="466" preserveAspectRatio="xMidYMid meet" shape-rendering="geometricPrecision">
<g transform="translate(0.000000,466.000000) scale(0.100000,-0.100000)" fill="#5baa8c" fill-rule="evenodd" stroke="none"><path d="M1257 2102 c-112 -77 -105 -184 24 -330 169 -192 198 -219 283 -263
44 -23 112 -62 150 -86 237 -152 577 -144 579 14 2 116 -48 165 -218 213 -115
33 -291 112 -341 152 -16 14 -45 34 -64 46 -19 11 -46 36 -60 54 -132 181
-268 258 -353 200z"/></g>
<g transform="translate(0.000000,466.000000) scale(0.100000,-0.100000)" fill="#131313" fill-rule="evenodd" stroke="none"><path d="M1965 4441 c-44 -5 -98 -13 -120 -19 -22 -6 -87 -20 -145 -32 -58
-11 -127 -29 -155 -40 -27 -10 -68 -24 -90 -29 -55 -14 -335 -167 -442 -241
-324 -223 -674 -725 -743 -1065 -6 -33 -21 -91 -33 -130 -37 -119 -33 -616 6
-770 74 -295 132 -437 267 -655 204 -331 599 -656 925 -760 22 -7 54 -21 71
-31 16 -10 68 -27 115 -39 46 -11 107 -26 134 -34 70 -19 437 -49 526 -43 134
8 313 37 394 63 262 83 480 190 636 311 87 68 61 85 454 -306 345 -344 403
-393 476 -406 137 -25 249 137 184 266 -10 19 -181 199 -381 400 -254 255
-364 372 -364 387 0 12 33 70 74 129 120 175 206 351 257 523 11 36 29 96 40
133 60 199 59 699 -1 882 -11 33 -24 85 -30 115 -5 30 -20 80 -34 110 -13 30
-41 93 -61 140 -160 367 -451 691 -796 883 -266 149 -354 181 -679 242 -91 18
-375 27 -485 16z m353 -381 c103 -8 170 -18 222 -35 41 -13 107 -32 145 -44
400 -117 825 -557 949 -984 14 -45 29 -94 35 -109 6 -15 20 -100 31 -188 64
-510 -88 -948 -460 -1320 -139 -138 -443 -323 -579 -351 -31 -6 -78 -20 -106
-31 -81 -32 -346 -71 -440 -64 -107 7 -314 43 -359 61 -20 9 -65 22 -101 30
-317 74 -728 427 -894 770 -62 127 -101 219 -101 237 0 8 -11 52 -25 99 -57
187 -57 605 0 764 13 39 25 78 25 88 0 40 96 242 175 367 191 306 546 576 860
653 33 8 78 22 101 30 36 14 199 31 332 36 24 0 109 -4 190 -9z"/></g>
</svg>