<?xml version="1.0" encoding="UTF-8" standalone="no"?>
<svg xmlns="http://www.w3.org/2000/svg" viewBox="0 0 368 488" width="368" height="488" preserveAspectRatio="xMidYMid meet" shape-rendering="geometricPrecision">
<g transform="translate(0.000000,488.000000) scale(0.100000,-0.100000)" fill="#121212" fill-rule="evenodd" stroke="none"><path d="M625 4652 c-171 -8 -321 -107 -376 -247 -36 -91 -36 -592 0 -760 56
-262 109 -365 305 -595 88 -102 130 -149 381 -425 65 -71 124 -140 132 -152
28 -43 21 -54 -242 -338 -118 -127 -269 -300 -303 -345 -15 -19 -47 -60 -73
-90 -79 -95 -162 -271 -185 -395 -39 -204 -44 -264 -44 -490 0 -326 26 -405
164 -511 103 -79 33 -75 1454 -75 1491 1 1371 -8 1499 116 110 107 123 159
123 473 0 368 -34 539 -152 767 -34 66 -182 249 -381 469 -379 421 -355 377
-269 475 73 84 281 311 303 331 9 8 63 71 120 140 320 384 368 514 376 1018 7
357 -5 405 -121 517 -130 125 -16 116 -1446 118 -668 1 -1237 1 -1265 -1z
m2443 -394 c19 -19 16 -457 -3 -528 -8 -30 -22 -81 -31 -114 -18 -68 -67 -165
-109 -220 -59 -75 -222 -265 -340 -396 -344 -381 -445 -510 -445 -570 0 -53
67 -143 281 -375 518 -563 564 -623 622 -810 34 -113 55 -586 27 -621 -17 -19
-2438 -22 -2458 -2 -18 18 -17 478 2 543 8 28 23 80 34 116 10 37 28 80 40 97
12 16 22 34 22 40 0 25 158 211 480 562 288 313 350 393 350 444 0 63 -111
209 -401 526 -106 116 -331 373 -389 444 -35 42 -84 144 -116 241 -31 93 -50
589 -24 620 17 20 2438 23 2458 3z M1032 1289 c-59 -22 -72 -233 -19 -302 58
-76 11 -72 782 -75 832 -4 815 -5 877 78 33 45 37 241 5 284 -13 17 -1601 31
-1645 15z"/></g>
</svg>