<?xml version="1.0" encoding="UTF-8" standalone="no"?>
<svg xmlns="http://www.w3.org/2000/svg" viewBox="0 0 416 466" width="416" height="466" preserveAspectRatio="xMidYMid meet" shape-rendering="geometricPrecision">
<g transform="translate(0.000000,466.000000) scale(0.100000,-0.100000)" fill="#121212" fill-rule="evenodd" stroke="none"><path d="M497 4440 c-95 -16 -190 -94 -250 -205 -47 -89 -52 -3708 -4 -3810
52 -112 153 -192 256 -206 93 -12 3081 -11 3155 1 106 17 215 102 263 205 28
60 28 60 31 1355 2 869 0 1307 -7 1330 -41 139 -215 181 -319 77 -47 -47 -47
-47 -52 -1313 -5 -1233 -6 -1266 -24 -1280 -31 -22 -2902 -21 -2934 2 -34 24
-35 3444 0 3468 18 13 147 15 1032 16 1011 0 1011 0 1049 27 120 83 82 293
-59 332 -46 13 -2061 13 -2137 1z M3685 4368 c-46 -13 -108 -68 -431 -378
-163 -157 -329 -314 -368 -349 -72 -65 -318 -299 -731 -697 -126 -121 -250
-238 -274 -260 -110 -97 -87 -249 49 -319 81 -42 136 -16 306 147 138 131 478
455 659 629 60 58 177 168 259 245 395 367 705 668 731 707 38 59 18 153 -47
213 -68 62 -103 76 -153 62z M1174 1916 c-84 -37 -48 -274 51 -332 71 -41
1650 -38 1710 3 99 69 134 294 50 329 -50 20 -1763 20 -1811 0z"/></g>
</svg>