<?xml version="1.0" encoding="UTF-8" standalone="no"?>
<svg xmlns="http://www.w3.org/2000/svg" viewBox="0 0 495 495" width="495" height="495" preserveAspectRatio="xMidYMid meet" shape-rendering="geometricPrecision">
<g transform="translate(0.000000,495.000000) scale(0.100000,-0.100000)" fill="#5eb3c8" fill-rule="evenodd" stroke="none"><path d="M905 4720 c-422 -9 -559 -99 -663 -435 -20 -66 -30 -974 -12 -1100
43 -299 149 -451 371 -532 74 -28 74 -28 639 -28 677 0 701 4 864 124 90 66
183 235 206 371 14 85 21 880 9 1066 -16 241 -218 482 -441 524 -61 12 -606
17 -973 10z m906 -396 c49 -23 89 -67 114 -126 19 -48 23 -953 4 -1017 -17
-56 -78 -133 -124 -156 -95 -46 -929 -49 -1073 -4 -45 15 -108 96 -129 167
-21 74 -25 906 -4 982 16 54 60 121 98 145 59 40 1032 47 1114 9z M3540 4711
c-262 -21 -646 -258 -740 -456 -13 -27 -33 -66 -45 -85 -83 -136 -142 -510
-106 -671 5 -24 15 -73 22 -109 13 -73 64 -191 101 -235 14 -17 44 -59 68 -95
220 -330 656 -497 1045 -400 44 11 86 20 94 20 110 1 434 232 518 370 26 41
54 84 64 95 31 36 62 109 138 318 60 166 -19 575 -148 767 -20 30 -43 68 -51
83 -19 37 -128 140 -232 218 -212 158 -403 206 -728 180z M830 2321 c-102 -4
-194 -11 -205 -15 -223 -97 -325 -198 -380 -378 -24 -79 -34 -1172 -11 -1245
70 -227 163 -356 302 -420 78 -36 187 -41 744 -37 744 7 716 3 836 126 197
203 203 226 206 708 6 883 0 921 -184 1100 -102 100 -180 144 -273 154 -86 10
-817 14 -1035 7z m983 -395 c120 -59 136 -158 128 -771 -9 -598 30 -569 -741
-561 -519 5 -512 3 -582 145 -33 65 -33 65 -32 481 1 622 22 700 197 721 146
17 989 5 1030 -15z M3123 2319 c-235 -28 -411 -184 -478 -424 -21 -77 -34
-1094 -15 -1180 56 -247 158 -394 317 -456 70 -27 546 -43 1063 -36 392 6 436
22 579 217 135 182 133 173 133 805 -1 617 -2 635 -53 736 -98 197 -209 287
-404 330 -62 13 -1039 21 -1142 8z m1092 -389 c112 -42 125 -102 129 -591 4
-450 -3 -551 -40 -627 -57 -116 -87 -121 -699 -116 -505 5 -508 6 -584 134
-26 45 -26 45 -28 385 -1 187 -4 378 -7 424 -10 143 18 274 71 332 70 77 70
77 653 75 381 -1 472 -4 505 -16z"/></g>
</svg>