<?xml version="1.0" encoding="UTF-8" standalone="no"?>
<svg xmlns="http://www.w3.org/2000/svg" viewBox="0 0 868 868" width="868" height="868" preserveAspectRatio="xMidYMid meet" shape-rendering="geometricPrecision">
<g transform="translate(0.000000,868.000000) scale(0.100000,-0.100000)" fill="#141414" fill-rule="evenodd" stroke="none"><path d="M3865 7569 c-22 -5 -66 -14 -99 -19 -32 -6 -74 -17 -93 -25 -19 -8
-77 -19 -129 -24 -69 -7 -113 -18 -162 -40 -37 -17 -101 -38 -142 -47 -41 -9
-91 -26 -111 -39 -50 -33 -207 -110 -251 -124 -35 -12 -131 -72 -220 -138 -20
-16 -65 -44 -100 -63 -37 -21 -112 -82 -184 -150 -67 -63 -141 -134 -165 -156
-88 -83 -178 -182 -194 -215 -9 -19 -43 -61 -76 -94 -35 -36 -68 -83 -83 -118
-14 -31 -41 -80 -60 -107 -19 -28 -40 -67 -47 -87 -7 -21 -22 -54 -35 -73 -12
-19 -31 -55 -40 -80 -10 -25 -28 -62 -42 -84 -13 -21 -30 -55 -37 -75 -7 -20
-26 -64 -43 -97 -23 -45 -32 -82 -41 -162 -6 -56 -18 -119 -27 -140 -17 -39
-27 -98 -44 -242 -21 -191 -14 -3483 8 -3531 93 -206 312 -240 505 -80 27 23
70 46 100 55 32 9 64 27 82 47 17 17 59 46 95 64 36 18 92 53 125 78 33 24 78
54 100 66 22 12 54 30 70 41 59 37 269 74 344 61 36 -7 105 -16 153 -21 92
-10 130 -24 163 -60 11 -12 32 -28 47 -36 15 -8 56 -39 90 -70 34 -31 76 -63
93 -71 16 -9 52 -33 79 -54 27 -22 55 -39 63 -39 8 0 52 -20 96 -44 45 -24
100 -47 121 -51 22 -3 66 -20 99 -36 74 -38 200 -51 259 -26 63 27 66 38 74
282 9 299 11 296 -191 345 -77 18 -138 38 -150 49 -11 11 -72 53 -135 95 -147
98 -178 121 -215 156 -17 16 -52 36 -78 44 -25 8 -60 25 -76 38 -28 24 -188
80 -266 93 -22 3 -58 12 -80 19 -75 25 -398 6 -461 -26 -28 -15 -87 -36 -131
-47 -86 -21 -238 -96 -341 -168 -34 -24 -67 -41 -72 -38 -25 15 -12 2735 13
2790 13 28 31 88 41 135 10 47 28 119 41 160 13 41 26 90 29 109 8 46 98 249
146 331 21 36 44 83 51 104 8 22 41 69 74 105 33 37 77 96 99 133 45 77 270
297 356 348 81 48 163 105 185 130 19 21 131 81 205 110 19 8 52 25 72 38 20
13 72 32 115 41 43 10 101 29 128 44 63 31 145 47 246 47 43 0 90 5 106 11 35
13 416 19 503 7 36 -5 115 -15 175 -23 61 -8 134 -23 163 -34 29 -12 67 -21
85 -21 34 0 119 -36 168 -70 15 -12 56 -26 89 -32 48 -8 80 -23 155 -73 51
-35 108 -71 125 -80 18 -9 51 -33 74 -54 22 -20 59 -49 81 -64 111 -74 443
-446 469 -525 10 -31 29 -70 41 -87 61 -83 106 -170 120 -233 7 -37 28 -100
45 -140 22 -52 33 -99 40 -170 12 -114 30 -194 55 -242 10 -20 22 -73 26 -122
15 -164 17 -165 270 -164 211 1 244 10 279 76 30 57 25 358 -9 505 -32 141
-72 276 -94 315 -14 25 -32 79 -41 121 -19 98 -119 306 -186 390 -30 37 -52
76 -56 98 -9 51 -35 89 -97 143 -33 28 -65 68 -82 103 -35 69 -346 386 -429
437 -79 49 -146 94 -191 126 -22 16 -55 37 -73 46 -19 10 -54 33 -79 52 -68
52 -137 84 -216 100 -50 11 -89 27 -130 55 -33 21 -65 39 -71 39 -7 0 -42 15
-79 34 -54 27 -83 35 -154 40 -49 4 -122 18 -163 31 -154 48 -206 54 -525 53
-165 0 -318 -4 -340 -9z M2908 5498 c-93 -19 -98 -49 -98 -603 0 -634 -26
-580 280 -580 323 0 295 -56 295 590 0 544 -1 552 -56 580 -30 16 -359 26
-421 13z M4399 5463 c-81 -73 -79 -57 -79 -586 0 -606 -24 -560 285 -565 353
-5 325 -54 325 573 0 543 3 522 -79 580 -75 53 -393 51 -452 -2z M5655 4299
c-66 -5 -124 -17 -167 -33 -36 -14 -96 -32 -131 -40 -36 -9 -87 -29 -114 -45
-26 -16 -72 -39 -101 -50 -96 -38 -157 -87 -341 -272 -178 -179 -213 -224
-253 -324 -11 -27 -33 -71 -49 -96 -16 -25 -36 -77 -45 -115 -9 -38 -27 -97
-40 -131 -56 -147 -56 -647 0 -780 13 -32 29 -85 35 -117 6 -33 20 -76 30 -95
42 -80 62 -119 91 -184 34 -73 145 -200 335 -379 136 -129 321 -233 458 -259
34 -6 95 -27 135 -47 132 -64 658 -59 775 7 29 16 82 34 119 40 138 23 381
159 465 259 28 34 98 105 155 159 144 135 262 335 289 489 6 36 25 90 41 121
65 122 69 644 6 775 -20 40 -40 100 -46 134 -21 121 -131 321 -240 438 -245
258 -293 300 -419 363 -65 32 -133 67 -151 79 -17 12 -56 25 -85 29 -28 4 -84
20 -124 36 -114 44 -364 60 -628 38z m1009 -1085 c80 -84 109 -121 109 -140 0
-42 -933 -964 -975 -964 -26 0 -48 17 -132 99 -56 54 -119 110 -141 123 -45
28 -385 367 -399 398 -11 24 203 260 235 260 11 0 77 -58 157 -137 146 -145
188 -172 262 -173 69 0 91 19 415 345 363 366 318 348 469 189z"/></g>
</svg>