<?xml version="1.0" encoding="UTF-8" standalone="no"?>
<svg xmlns="http://www.w3.org/2000/svg" viewBox="0 0 481 448" width="481" height="448" preserveAspectRatio="xMidYMid meet" shape-rendering="geometricPrecision">
<g transform="translate(0.000000,448.000000) scale(0.100000,-0.100000)" fill="#5aab8b" fill-rule="evenodd" stroke="none"><path d="M2586 1055 c-127 -36 -185 -163 -118 -259 46 -66 112 -89 292 -100
82 -5 257 -26 370 -46 30 -5 98 -21 150 -36 338 -94 408 -87 460 41 58 143
-53 246 -310 289 -52 9 -115 23 -140 30 -192 60 -611 108 -704 81z M1820 1020
c-69 -10 -152 -25 -185 -34 -32 -9 -70 -16 -83 -16 -14 0 -41 -4 -61 -10 -20
-5 -85 -21 -145 -35 -221 -52 -299 -120 -276 -244 25 -140 133 -171 360 -101
36 11 98 24 138 30 40 5 98 19 130 30 53 19 128 34 227 46 99 12 134 37 159
118 19 60 13 104 -23 163 -43 69 -77 77 -241 53z"/></g>
<g transform="translate(0.000000,448.000000) scale(0.100000,-0.100000)" fill="#2f302f" fill-rule="evenodd" stroke="none"><path d="M795 4259 c-273 -22 -454 -66 -501 -122 -44 -52 -53 -88 -70 -264
-82 -861 258 -1570 901 -1878 186 -89 233 -101 610 -156 55 -8 101 -6 213 7
181 22 191 17 173 -87 -12 -71 -27 -268 -37 -494 -8 -176 -12 -191 -61 -211
-37 -16 -37 -16 -4 -41 83 -65 100 -216 30 -279 -19 -17 -18 -18 11 -43 30
-25 31 -31 45 -160 23 -205 43 -254 120 -298 53 -30 90 -29 155 5 96 49 111
90 98 272 -11 144 -6 178 29 205 27 22 27 22 5 34 -92 49 -90 214 3 276 41 27
40 38 -3 50 -77 21 -79 41 -42 501 26 320 39 343 165 279 254 -128 752 -164
977 -69 32 13 64 24 72 24 55 0 256 133 385 256 293 278 531 790 531 1141 0
129 -161 249 -465 348 -290 94 -745 76 -972 -39 -232 -117 -307 -170 -474
-334 -121 -119 -133 -122 -159 -47 -178 512 -573 901 -1055 1040 -44 13 -96
28 -115 34 -19 6 -80 18 -135 27 -55 8 -122 19 -150 24 -59 11 -131 10 -280
-1z m365 -388 c703 -136 1094 -628 1092 -1376 -1 -215 -9 -229 -154 -264 -303
-73 -722 2 -981 176 -354 239 -621 926 -539 1387 18 102 276 136 582 77z
m2647 -636 c201 -27 383 -86 400 -132 14 -37 -61 -325 -97 -368 -4 -5 -16 -30
-26 -55 -119 -298 -403 -523 -722 -572 -302 -46 -731 81 -707 211 78 419 407
800 765 885 36 9 88 22 115 30 66 19 129 19 272 1z"/></g>
</svg>