<?xml version="1.0" encoding="UTF-8" standalone="no"?>
<svg xmlns="http://www.w3.org/2000/svg" viewBox="0 0 952 952" width="952" height="952" preserveAspectRatio="xMidYMid meet" shape-rendering="geometricPrecision">
<g transform="translate(0.000000,952.000000) scale(0.100000,-0.100000)" fill="#111111" fill-rule="evenodd" stroke="none"><path d="M3064 7030 c-65 -6 -89 -12 -115 -32 -19 -14 -50 -34 -69 -43 -55
-28 -159 -124 -175 -162 -8 -20 -28 -50 -44 -69 -44 -49 -42 25 -39 -2155 3
-2016 3 -2016 33 -2054 16 -22 38 -56 50 -76 41 -75 98 -140 144 -165 25 -14
62 -35 81 -47 41 -26 1619 -42 1703 -17 78 23 84 80 14 131 -23 17 -53 48 -67
69 -14 21 -47 67 -74 102 -28 34 -56 80 -63 100 -14 41 -75 127 -102 143 -10
6 -231 12 -581 15 l-565 5 0 1845 0 1845 704 3 c389 1 709 -2 714 -7 4 -4 8
-212 8 -462 0 -457 4 -516 40 -662 12 -47 129 -166 216 -219 61 -38 61 -38
611 -38 480 0 551 -2 562 -15 9 -11 13 -59 14 -158 1 -190 25 -232 144 -252
23 -4 56 -18 73 -32 16 -14 49 -30 72 -35 23 -5 53 -19 67 -32 39 -36 158 -96
189 -96 67 0 66 -11 66 520 0 561 19 499 -226 725 -280 258 -302 279 -469 441
-672 652 -913 870 -979 885 -43 10 -1821 9 -1937 -1z m2366 -1173 c157 -128
181 -149 177 -160 -2 -6 -77 -10 -192 -11 l-190 -1 -3 160 c-3 201 -3 200 56
143 26 -26 94 -84 152 -131z M3795 4705 c-112 -58 -120 -77 -120 -295 0 -202
0 -202 45 -242 77 -68 75 -68 421 -68 313 0 313 0 376 66 35 36 63 72 63 79 0
27 239 243 308 279 65 33 56 123 -17 169 -48 29 -1020 40 -1076 12z M5504
4511 c-78 -5 -94 -10 -122 -33 -22 -19 -48 -28 -90 -33 -45 -5 -71 -15 -107
-41 -27 -19 -54 -34 -60 -34 -7 0 -30 -13 -52 -29 -22 -16 -53 -36 -69 -44
-74 -39 -326 -313 -343 -372 -5 -20 -23 -51 -39 -69 -21 -24 -31 -49 -36 -87
-4 -30 -20 -76 -36 -104 -54 -95 -52 -581 2 -662 14 -21 29 -60 33 -88 8 -54
18 -79 45 -110 9 -11 22 -35 28 -53 6 -18 21 -45 32 -60 11 -15 44 -59 73 -99
69 -93 237 -243 273 -243 7 0 32 -15 56 -33 24 -19 57 -37 74 -41 16 -4 46
-19 66 -33 21 -14 67 -31 106 -38 37 -7 88 -24 112 -36 73 -38 439 -36 490 3
25 19 55 29 107 36 50 7 82 18 105 35 18 14 51 30 73 36 22 6 49 17 60 25 35
27 51 18 146 -80 238 -244 282 -265 376 -181 241 215 243 270 16 501 -146 148
-153 161 -107 215 14 17 32 53 40 78 8 26 25 63 39 83 18 26 27 56 33 120 5
47 19 111 31 142 30 81 29 185 -3 280 -13 40 -27 109 -31 153 -5 62 -14 95
-41 149 -19 38 -34 75 -34 81 0 7 -12 30 -28 51 -15 21 -33 51 -39 65 -12 28
-200 249 -212 249 -7 0 -66 47 -153 120 -20 17 -54 36 -75 42 -21 5 -50 21
-65 35 -19 18 -48 30 -98 39 -39 8 -84 23 -101 36 -42 31 -248 44 -475 29z
m337 -552 c79 -8 111 -15 134 -32 16 -12 46 -30 66 -40 72 -37 209 -187 234
-256 7 -22 24 -54 37 -71 35 -48 36 -435 1 -472 -12 -13 -29 -43 -37 -66 -38
-107 -180 -238 -346 -318 -32 -16 -342 -40 -361 -28 -4 2 -36 8 -72 13 -49 7
-76 17 -104 39 -21 16 -49 32 -63 36 -78 18 -249 234 -264 332 -3 23 -17 62
-32 88 -35 63 -34 261 3 311 12 17 27 50 32 75 23 106 167 276 271 322 25 10
55 29 67 40 35 33 252 46 434 27z M3810 3872 c-127 -57 -144 -98 -138 -342 3
-162 3 -162 48 -201 77 -66 88 -69 283 -69 221 0 211 -7 242 155 13 66 31 140
40 165 30 85 26 247 -8 276 -28 24 -419 37 -467 16z"/></g>
</svg>