<?xml version="1.0" encoding="UTF-8" standalone="no"?>
<svg xmlns="http://www.w3.org/2000/svg" viewBox="0 0 868 868" width="868" height="868" preserveAspectRatio="xMidYMid meet" shape-rendering="geometricPrecision">
<g transform="translate(0.000000,868.000000) scale(0.100000,-0.100000)" fill="#141414" fill-rule="evenodd" stroke="none"><path d="M4300 7712 c-145 -38 -307 -185 -355 -323 -9 -24 -26 -60 -38 -79
-13 -19 -49 -89 -81 -155 -31 -66 -65 -133 -74 -150 -53 -101 -122 -248 -131
-283 -7 -23 -22 -54 -35 -69 -13 -15 -39 -59 -58 -98 -19 -38 -78 -155 -131
-260 -54 -104 -120 -239 -148 -300 -62 -134 -82 -155 -150 -155 -30 0 -69 -9
-97 -22 -38 -17 -76 -23 -197 -30 -180 -9 -324 -33 -385 -63 -38 -19 -69 -23
-200 -29 -171 -7 -322 -27 -389 -51 -24 -8 -71 -15 -105 -15 -158 0 -297 -20
-355 -50 -31 -17 -77 -34 -103 -38 -84 -16 -188 -122 -203 -207 -4 -22 -17
-58 -28 -80 -29 -56 -30 -193 -3 -250 16 -31 975 -1000 1369 -1380 44 -43 50
-103 17 -176 -11 -24 -20 -60 -20 -79 0 -19 -4 -51 -10 -70 -5 -19 -14 -92
-19 -161 -5 -72 -16 -142 -26 -165 -26 -62 -53 -210 -60 -327 -3 -59 -13 -131
-21 -160 -21 -79 -42 -219 -49 -347 -6 -93 -12 -124 -32 -164 -25 -50 -52
-197 -53 -288 0 -58 11 -88 53 -141 18 -23 42 -63 54 -88 17 -37 31 -50 70
-68 26 -13 66 -37 88 -54 65 -52 228 -54 329 -4 39 20 122 59 185 87 63 28
127 60 141 70 15 11 52 28 83 40 30 11 66 29 79 39 21 16 67 41 238 125 30 15
71 36 90 47 19 10 76 39 125 64 50 24 112 62 139 85 27 23 68 45 93 51 24 7
62 25 84 41 23 16 61 35 85 43 24 7 61 26 82 43 21 17 55 33 75 37 21 4 56 20
80 36 53 36 91 36 145 0 23 -16 61 -32 83 -36 23 -4 55 -20 74 -36 18 -16 52
-36 76 -44 24 -9 60 -26 79 -39 19 -12 59 -31 89 -41 29 -9 70 -32 90 -50 51
-45 116 -84 166 -100 24 -7 56 -22 72 -33 16 -11 55 -32 88 -47 32 -14 73 -36
89 -49 34 -25 275 -146 292 -146 5 0 28 -14 51 -30 22 -17 60 -37 83 -45 49
-17 145 -61 245 -112 181 -91 422 -27 491 131 10 22 35 63 55 89 62 79 59 298
-4 424 -19 38 -26 71 -31 153 -9 148 -27 278 -43 325 -8 22 -21 110 -28 195
-8 85 -23 187 -33 225 -42 152 -52 205 -62 320 -13 158 -24 225 -44 263 -34
66 -22 128 35 180 197 181 1330 1325 1350 1363 30 60 37 159 14 219 -9 25 -25
74 -36 109 -28 98 -139 209 -208 211 -14 0 -56 16 -95 35 -74 36 -201 55 -364
55 -34 0 -79 7 -99 15 -53 22 -224 44 -393 51 -121 4 -154 9 -200 29 -81 34
-145 45 -335 56 -130 8 -183 15 -224 31 -29 11 -81 24 -116 27 -80 9 -86 14
-143 134 -26 56 -94 194 -151 307 -57 113 -120 237 -139 275 -19 39 -45 83
-58 98 -13 15 -28 46 -34 68 -10 36 -70 166 -128 274 -11 22 -47 94 -78 160
-31 66 -65 132 -75 146 -10 14 -26 48 -37 77 -11 28 -40 80 -65 114 -66 93
-102 124 -238 211 -40 26 -130 30 -209 9z m104 -874 c7 -13 19 -39 25 -59 7
-20 20 -44 31 -54 11 -10 27 -40 36 -68 9 -28 31 -70 49 -93 18 -24 39 -60 45
-80 13 -39 86 -196 119 -254 30 -53 121 -245 121 -255 0 -4 13 -29 30 -55 16
-25 36 -65 44 -88 8 -23 31 -63 51 -88 19 -26 35 -54 35 -62 0 -12 28 -74 103
-231 38 -79 170 -161 258 -161 17 0 57 -11 88 -24 97 -41 245 -64 423 -65 58
-1 105 -7 140 -20 76 -26 180 -40 370 -50 149 -7 170 -11 204 -32 37 -23 75
-30 216 -45 125 -13 123 -20 -38 -186 -174 -179 -514 -516 -747 -741 -316
-305 -362 -375 -323 -489 15 -43 25 -101 29 -174 8 -117 36 -277 61 -335 8
-20 20 -94 26 -165 16 -201 30 -284 52 -328 15 -29 23 -72 29 -155 10 -145 25
-243 45 -301 41 -118 36 -127 -53 -94 -37 14 -95 43 -128 64 -33 21 -71 41
-85 45 -14 4 -54 22 -90 41 -95 49 -236 114 -247 114 -5 0 -34 18 -63 40 -29
22 -59 40 -66 40 -7 0 -33 15 -58 34 -24 19 -62 40 -83 45 -21 6 -57 24 -80
41 -22 16 -60 37 -84 45 -24 9 -62 27 -83 42 -22 14 -61 31 -86 38 -25 7 -68
29 -94 49 -109 83 -126 89 -251 89 -124 0 -142 -6 -248 -87 -25 -19 -65 -40
-88 -46 -24 -7 -61 -24 -84 -39 -22 -16 -61 -35 -86 -43 -25 -9 -65 -30 -89
-47 -24 -17 -62 -36 -84 -42 -23 -6 -52 -21 -66 -34 -14 -13 -46 -33 -71 -44
-25 -11 -63 -34 -84 -51 -21 -16 -44 -30 -51 -30 -7 0 -48 -18 -91 -39 -150
-75 -248 -121 -258 -121 -6 0 -34 -16 -62 -35 -55 -37 -193 -96 -205 -88 -14
8 -9 53 9 86 19 36 26 81 47 287 9 93 21 161 33 190 20 47 36 149 53 337 6 61
17 131 26 155 28 79 54 231 59 339 3 74 10 122 24 160 37 96 20 169 -54 229
-10 8 -31 35 -47 59 -26 42 -172 181 -188 181 -5 0 -29 28 -55 63 -26 34 -64
73 -84 87 -35 24 -366 352 -641 634 -134 138 -134 138 -111 157 13 11 38 19
57 19 72 0 181 23 229 47 45 24 66 27 215 34 185 9 279 22 360 49 39 12 104
20 219 25 97 4 179 12 203 21 22 8 53 14 68 14 16 0 52 11 82 25 29 14 68 25
86 25 101 0 228 87 269 183 10 23 32 69 49 102 17 33 36 77 43 97 7 20 25 53
42 74 16 20 29 42 29 49 0 6 39 88 86 181 47 93 92 186 100 207 7 20 24 52 37
70 24 31 57 104 99 217 12 30 34 72 51 94 16 21 38 59 48 85 9 25 33 73 53
105 20 33 36 65 36 71 0 36 44 44 64 13z"/></g>
</svg>