<?xml version="1.0" encoding="UTF-8" standalone="no"?>
<svg xmlns="http://www.w3.org/2000/svg" viewBox="0 0 952 952" width="952" height="952" preserveAspectRatio="xMidYMid meet" shape-rendering="geometricPrecision">
<g transform="translate(0.000000,952.000000) scale(0.100000,-0.100000)" fill="#131313" fill-rule="evenodd" stroke="none"><path d="M4807 7175 c-83 -21 -197 -157 -197 -234 0 -52 54 -135 158 -243 104
-109 108 -114 94 -136 -5 -7 -499 -504 -1099 -1105 -689 -691 -1106 -1116
-1134 -1156 -24 -35 -61 -88 -81 -118 -170 -246 -283 -672 -229 -868 6 -22 17
-90 25 -150 40 -293 241 -606 531 -826 57 -43 239 -139 265 -139 6 0 42 -13
78 -29 39 -17 102 -34 152 -40 47 -6 119 -20 160 -31 96 -25 167 -25 258 0 40
11 108 25 150 31 42 6 102 20 132 31 30 11 79 29 109 39 29 10 68 28 86 39 18
11 51 26 74 34 81 29 200 143 1308 1250 661 660 1132 1122 1144 1124 16 3 47
-22 123 -96 164 -163 231 -187 337 -123 112 68 155 161 129 280 -12 56 -12 56
-1198 1243 -1217 1217 -1211 1212 -1302 1231 -14 3 -47 -1 -73 -8z m1032
-1549 c529 -529 603 -607 598 -627 -11 -44 -606 -626 -652 -638 -27 -7 -282
-11 -787 -11 -834 0 -768 -6 -768 67 -1 69 -78 176 -154 212 -141 69 -316 -40
-316 -196 0 -81 -6 -83 -212 -83 -155 0 -179 2 -185 16 -7 19 1831 1864 1857
1864 8 0 287 -272 619 -604z m-571 -1795 c7 -22 -1017 -1036 -1103 -1092 -173
-112 -167 -110 -345 -137 -186 -29 -395 -9 -500 46 -25 14 -65 31 -90 38 -91
28 -284 226 -351 359 -32 63 -47 113 -70 230 -33 161 -32 178 1 335 10 47 21
102 25 123 4 23 20 54 42 78 35 39 35 39 1211 37 991 -3 1176 -5 1180 -17z
M4699 5081 c-251 -68 -324 -325 -147 -517 101 -110 317 -105 451 10 262 224
37 599 -304 507z"/></g>
</svg>