<?xml version="1.0" encoding="UTF-8" standalone="no"?>
<svg xmlns="http://www.w3.org/2000/svg" viewBox="0 0 896 896" width="896" height="896" preserveAspectRatio="xMidYMid meet" shape-rendering="geometricPrecision">
<g transform="translate(0.000000,896.000000) scale(0.100000,-0.100000)" fill="#131313" fill-rule="evenodd" stroke="none"><path d="M3975 6999 c-242 -16 -415 -105 -491 -251 -26 -51 -147 -231 -212
-317 -24 -31 -57 -80 -75 -110 -61 -103 -47 -101 -559 -101 -412 0 -445 -1
-521 -21 -200 -51 -350 -201 -402 -404 -27 -105 -22 -3459 5 -3573 49 -204
192 -349 398 -401 124 -32 4762 -33 4886 -1 198 50 348 203 396 401 31 131 31
3446 0 3577 -32 132 -94 227 -201 308 -141 106 -145 107 -711 114 -527 6 -518
4 -580 124 -11 21 -38 62 -61 91 -85 109 -109 142 -135 187 -212 368 -235 376
-1082 380 -311 2 -605 0 -655 -3z m1241 -548 c18 -13 49 -52 69 -87 21 -35 44
-69 52 -76 8 -7 32 -37 52 -68 20 -30 46 -69 58 -85 11 -17 54 -82 95 -145 98
-151 210 -250 284 -250 10 0 53 -9 94 -20 69 -18 110 -20 498 -20 424 0 424 0
453 -29 29 -29 29 -29 29 -1656 0 -1761 3 -1674 -52 -1689 -13 -3 -1045 -6
-2295 -6 -2272 0 -2272 0 -2300 24 -36 31 -46 3297 -10 3333 16 17 53 18 460
23 688 9 715 20 937 382 55 91 111 170 146 210 18 20 42 54 53 75 20 39 60 81
96 101 46 26 1246 10 1281 -17z M4490 5426 c-25 -8 -100 -18 -168 -23 -114
-10 -126 -13 -180 -46 -31 -19 -84 -42 -116 -51 -33 -8 -78 -28 -100 -44 -23
-16 -64 -39 -91 -51 -135 -58 -388 -370 -439 -541 -9 -29 -27 -68 -41 -86 -38
-49 -44 -74 -54 -207 -5 -67 -17 -139 -25 -159 -20 -47 -20 -91 -1 -154 8 -27
20 -103 25 -169 13 -164 31 -215 126 -352 23 -35 50 -84 58 -110 26 -77 280
-333 373 -374 37 -17 92 -49 121 -71 96 -71 191 -102 349 -114 54 -4 118 -13
143 -20 55 -17 119 -18 157 -3 15 6 78 15 139 19 171 12 328 64 425 141 20 16
72 54 114 84 120 86 300 260 320 309 9 22 34 77 56 121 22 44 39 85 39 91 0 7
16 35 36 64 46 67 52 90 65 227 5 62 16 134 24 160 19 63 19 86 -5 161 -13 43
-20 92 -20 149 0 115 -25 193 -105 328 -36 61 -70 127 -76 149 -17 64 -295
336 -372 365 -32 12 -84 38 -115 59 -134 90 -210 116 -367 127 -55 4 -125 13
-156 21 -67 17 -80 17 -139 0z m130 -523 c8 -2 53 -8 99 -13 119 -13 284 -95
387 -192 89 -85 193 -274 201 -368 2 -30 11 -83 20 -117 14 -56 14 -68 0 -130
-9 -37 -18 -96 -21 -130 -13 -144 -193 -411 -316 -469 -30 -14 -82 -39 -115
-55 -33 -16 -82 -31 -110 -34 -27 -3 -85 -13 -128 -22 -72 -15 -83 -15 -145 0
-37 9 -93 18 -124 21 -34 2 -79 15 -110 31 -29 15 -76 35 -103 46 -153 57
-321 321 -352 551 -23 175 1 361 61 457 12 20 34 61 49 92 34 70 163 197 221
218 22 7 60 27 85 43 56 35 129 58 190 58 25 1 69 7 96 15 46 12 74 12 115 -2z"/></g>
</svg>